<svg height="600" viewBox="0 0 800 600" width="800" xmlns="http://www.w3.org/2000/svg">
<rect fill="white" height="600" width="800" x="0" y="0"/>
<text dominant-baseline="middle" fill="#000000" font-family="Times New Roman" font-size="20" text-anchor="middle" x="415" y="30">
Harmonic Oscillator Solution
</text>
<text dominant-baseline="middle" fill="#000000" font-family="Times New Roman" font-size="14" text-anchor="middle" x="415" y="576">
Time (t)
</text>
<text dominant-baseline="middle" fill="#000000" font-family="Times New Roman" font-size="14" text-anchor="middle" transform="rotate(-90, 18, 300)" x="18" y="300">
Position and Velocity
</text>
<rect fill="none" height="480" stroke="#000000" stroke-width="1.5" width="710" x="60" y="60"/>
<line stroke="#000000" stroke-width="1" x1="60" x2="60" y1="540" y2="535"/>
<text dominant-baseline="hanging" fill="#000000" font-family="Times New Roman" font-size="10" text-anchor="middle" x="60" y="549">
0.0
</text>
<line stroke="#000000" stroke-width="1" x1="60" x2="60" y1="60" y2="65"/>
<line stroke="#d3d3d3" stroke-width="0.5" x1="131" x2="131" y1="60" y2="540"/>
<line stroke="#000000" stroke-width="1" x1="131" x2="131" y1="540" y2="535"/>
<text dominant-baseline="hanging" fill="#000000" font-family="Times New Roman" font-size="10" text-anchor="middle" x="131" y="549">
1.0
</text>
<line stroke="#000000" stroke-width="1" x1="131" x2="131" y1="60" y2="65"/>
<line stroke="#d3d3d3" stroke-width="0.5" x1="202" x2="202" y1="60" y2="540"/>
<line stroke="#000000" stroke-width="1" x1="202" x2="202" y1="540" y2="535"/>
<text dominant-baseline="hanging" fill="#000000" font-family="Times New Roman" font-size="10" text-anchor="middle" x="202" y="549">
2.0
</text>
<line stroke="#000000" stroke-width="1" x1="202" x2="202" y1="60" y2="65"/>
<line stroke="#d3d3d3" stroke-width="0.5" x1="273" x2="273" y1="60" y2="540"/>
<line stroke="#000000" stroke-width="1" x1="273" x2="273" y1="540" y2="535"/>
<text dominant-baseline="hanging" fill="#000000" font-family="Times New Roman" font-size="10" text-anchor="middle" x="273" y="549">
3.0
</text>
<line stroke="#000000" stroke-width="1" x1="273" x2="273" y1="60" y2="65"/>
<line stroke="#d3d3d3" stroke-width="0.5" x1="344" x2="344" y1="60" y2="540"/>
<line stroke="#000000" stroke-width="1" x1="344" x2="344" y1="540" y2="535"/>
<text dominant-baseline="hanging" fill="#000000" font-family="Times New Roman" font-size="10" text-anchor="middle" x="344" y="549">
4.0
</text>
<line stroke="#000000" stroke-width="1" x1="344" x2="344" y1="60" y2="65"/>
<line stroke="#d3d3d3" stroke-width="0.5" x1="415" x2="415" y1="60" y2="540"/>
<line stroke="#000000" stroke-width="1" x1="415" x2="415" y1="540" y2="535"/>
<text dominant-baseline="hanging" fill="#000000" font-family="Times New Roman" font-size="10" text-anchor="middle" x="415" y="549">
5.0
</text>
<line stroke="#000000" stroke-width="1" x1="415" x2="415" y1="60" y2="65"/>
<line stroke="#d3d3d3" stroke-width="0.5" x1="486.00003" x2="486.00003" y1="60" y2="540"/>
<line stroke="#000000" stroke-width="1" x1="486.00003" x2="486.00003" y1="540" y2="535"/>
<text dominant-baseline="hanging" fill="#000000" font-family="Times New Roman" font-size="10" text-anchor="middle" x="486.00003" y="549">
6.0
</text>
<line stroke="#000000" stroke-width="1" x1="486.00003" x2="486.00003" y1="60" y2="65"/>
<line stroke="#d3d3d3" stroke-width="0.5" x1="557" x2="557" y1="60" y2="540"/>
<line stroke="#000000" stroke-width="1" x1="557" x2="557" y1="540" y2="535"/>
<text dominant-baseline="hanging" fill="#000000" font-family="Times New Roman" font-size="10" text-anchor="middle" x="557" y="549">
7.0
</text>
<line stroke="#000000" stroke-width="1" x1="557" x2="557" y1="60" y2="65"/>
<line stroke="#d3d3d3" stroke-width="0.5" x1="628" x2="628" y1="60" y2="540"/>
<line stroke="#000000" stroke-width="1" x1="628" x2="628" y1="540" y2="535"/>
<text dominant-baseline="hanging" fill="#000000" font-family="Times New Roman" font-size="10" text-anchor="middle" x="628" y="549">
8.0
</text>
<line stroke="#000000" stroke-width="1" x1="628" x2="628" y1="60" y2="65"/>
<line stroke="#d3d3d3" stroke-width="0.5" x1="699" x2="699" y1="60" y2="540"/>
<line stroke="#000000" stroke-width="1" x1="699" x2="699" y1="540" y2="535"/>
<text dominant-baseline="hanging" fill="#000000" font-family="Times New Roman" font-size="10" text-anchor="middle" x="699" y="549">
9.0
</text>
<line stroke="#000000" stroke-width="1" x1="699" x2="699" y1="60" y2="65"/>
<line stroke="#000000" stroke-width="1" x1="770" x2="770" y1="540" y2="535"/>
<text dominant-baseline="hanging" fill="#000000" font-family="Times New Roman" font-size="10" text-anchor="middle" x="770" y="549">
10.0
</text>
<line stroke="#000000" stroke-width="1" x1="770" x2="770" y1="60" y2="65"/>
<line stroke="#000000" stroke-width="1" x1="60" x2="65" y1="540.0001" y2="540.0001"/>
<line stroke="#000000" stroke-width="1" x1="770" x2="765" y1="540.0001" y2="540.0001"/>
<text dominant-baseline="middle" fill="#000000" font-family="Times New Roman" font-size="10" text-anchor="end" x="52" y="540.0001">
-1.0
</text>
<line stroke="#d3d3d3" stroke-width="0.5" x1="60" x2="770" y1="492.0001" y2="492.0001"/>
<line stroke="#000000" stroke-width="1" x1="60" x2="65" y1="492.0001" y2="492.0001"/>
<line stroke="#000000" stroke-width="1" x1="770" x2="765" y1="492.0001" y2="492.0001"/>
<text dominant-baseline="middle" fill="#000000" font-family="Times New Roman" font-size="10" text-anchor="end" x="52" y="492.0001">
-0.8
</text>
<line stroke="#d3d3d3" stroke-width="0.5" x1="60" x2="770" y1="444.0001" y2="444.0001"/>
<line stroke="#000000" stroke-width="1" x1="60" x2="65" y1="444.0001" y2="444.0001"/>
<line stroke="#000000" stroke-width="1" x1="770" x2="765" y1="444.0001" y2="444.0001"/>
<text dominant-baseline="middle" fill="#000000" font-family="Times New Roman" font-size="10" text-anchor="end" x="52" y="444.0001">
-0.6
</text>
<line stroke="#d3d3d3" stroke-width="0.5" x1="60" x2="770" y1="396.00006" y2="396.00006"/>
<line stroke="#000000" stroke-width="1" x1="60" x2="65" y1="396.00006" y2="396.00006"/>
<line stroke="#000000" stroke-width="1" x1="770" x2="765" y1="396.00006" y2="396.00006"/>
<text dominant-baseline="middle" fill="#000000" font-family="Times New Roman" font-size="10" text-anchor="end" x="52" y="396.00006">
-0.4
</text>
<line stroke="#d3d3d3" stroke-width="0.5" x1="60" x2="770" y1="348.00006" y2="348.00006"/>
<line stroke="#000000" stroke-width="1" x1="60" x2="65" y1="348.00006" y2="348.00006"/>
<line stroke="#000000" stroke-width="1" x1="770" x2="765" y1="348.00006" y2="348.00006"/>
<text dominant-baseline="middle" fill="#000000" font-family="Times New Roman" font-size="10" text-anchor="end" x="52" y="348.00006">
-0.2
</text>
<line stroke="#d3d3d3" stroke-width="0.5" x1="60" x2="770" y1="300.00006" y2="300.00006"/>
<line stroke="#000000" stroke-width="1" x1="60" x2="65" y1="300.00006" y2="300.00006"/>
<line stroke="#000000" stroke-width="1" x1="770" x2="765" y1="300.00006" y2="300.00006"/>
<text dominant-baseline="middle" fill="#000000" font-family="Times New Roman" font-size="10" text-anchor="end" x="52" y="300.00006">
-0.0
</text>
<line stroke="#d3d3d3" stroke-width="0.5" x1="60" x2="770" y1="252.00006" y2="252.00006"/>
<line stroke="#000000" stroke-width="1" x1="60" x2="65" y1="252.00006" y2="252.00006"/>
<line stroke="#000000" stroke-width="1" x1="770" x2="765" y1="252.00006" y2="252.00006"/>
<text dominant-baseline="middle" fill="#000000" font-family="Times New Roman" font-size="10" text-anchor="end" x="52" y="252.00006">
0.2
</text>
<line stroke="#d3d3d3" stroke-width="0.5" x1="60" x2="770" y1="204" y2="204"/>
<line stroke="#000000" stroke-width="1" x1="60" x2="65" y1="204" y2="204"/>
<line stroke="#000000" stroke-width="1" x1="770" x2="765" y1="204" y2="204"/>
<text dominant-baseline="middle" fill="#000000" font-family="Times New Roman" font-size="10" text-anchor="end" x="52" y="204">
0.4
</text>
<line stroke="#d3d3d3" stroke-width="0.5" x1="60" x2="770" y1="156.00003" y2="156.00003"/>
<line stroke="#000000" stroke-width="1" x1="60" x2="65" y1="156.00003" y2="156.00003"/>
<line stroke="#000000" stroke-width="1" x1="770" x2="765" y1="156.00003" y2="156.00003"/>
<text dominant-baseline="middle" fill="#000000" font-family="Times New Roman" font-size="10" text-anchor="end" x="52" y="156.00003">
0.6
</text>
<line stroke="#d3d3d3" stroke-width="0.5" x1="60" x2="770" y1="108" y2="108"/>
<line stroke="#000000" stroke-width="1" x1="60" x2="65" y1="108" y2="108"/>
<line stroke="#000000" stroke-width="1" x1="770" x2="765" y1="108" y2="108"/>
<text dominant-baseline="middle" fill="#000000" font-family="Times New Roman" font-size="10" text-anchor="end" x="52" y="108">
0.8
</text>
<line stroke="#000000" stroke-width="1" x1="60" x2="65" y1="60" y2="60"/>
<line stroke="#000000" stroke-width="1" x1="770" x2="765" y1="60" y2="60"/>
<text dominant-baseline="middle" fill="#000000" font-family="Times New Roman" font-size="10" text-anchor="end" x="52" y="60">
1.0
</text>
<defs>
<clipPath id="plotAreaClip">
<rect height="480" width="710" x="60" y="60"/>
</clipPath>
</defs>
<g clip-path="url(#plotAreaClip)">
<path d="M60,60 L60.71,60.012024 L61.42,60.048004 L62.13,60.108 L62.84,60.191986 L63.55,60.299957 L64.26,60.431885 L64.97,60.5878 L65.68,60.76761 L66.39,60.971375 L67.1,61.199066 L67.81,61.450592 L68.52,61.726013 L69.229996,62.025208 L69.94,62.348206 L70.65,62.695038 L71.36,63.06552 L72.07,63.459747 L72.78,63.877594 L73.49,64.31909 L74.2,64.78412 L74.91,65.272675 L75.62,65.7847 L76.33,66.32013 L77.04,66.879 L77.75,67.46112 L78.46,68.06647 L79.17,68.69504 L79.880005,69.34677 L80.59,70.021545 L81.299995,70.7193 L82.009995,71.44 L82.72,72.18356 L83.42999,72.94989 L84.14,73.73892 L84.84999,74.5506 L85.56,75.384796 L86.27,76.241455 L86.979996,77.120544 L87.689995,78.02188 L88.399994,78.945404 L89.10999,79.89102 L89.81999,80.8587 L90.52999,81.84827 L91.23999,82.85965 L91.94999,83.89276 L92.65999,84.94748 L93.36999,86.02368 L94.07999,87.12131 L94.789986,88.240204 L95.499985,89.38031 L96.20999,90.54141 L96.91998,91.72348 L97.62999,92.92642 L98.33998,94.150024 L99.04999,95.394226 L99.75998,96.658875 L100.469986,97.94385 L101.17998,99.249054 L101.889984,100.57434 L102.599976,101.919525 L103.30998,103.28458 L104.01997,104.66925 L104.72998,106.07352 L105.43997,107.49713 L106.14998,108.94 L106.85998,110.40195 L107.56998,111.882904 L108.279976,113.38263 L108.989975,114.90103 L109.699974,116.43796 L110.40997,117.993225 L111.11997,119.56671 L111.82997,121.158295 L112.53997,122.76767 L113.24997,124.394775 L113.95998,126.03949 L114.66997,127.70157 L115.379974,129.38083 L116.089966,131.07721 L116.79997,132.7905 L117.509964,134.52048 L118.21996,136.267 L118.92996,138.0299 L119.63996,139.80902 L120.34996,141.60413 L121.05997,143.4151 L121.76996,145.24173 L122.479965,147.0838 L123.18996,148.9412 L123.89996,150.81366 L124.60996,152.70108 L125.31996,154.60324 L126.02996,156.51996 L126.73995,158.45099 L127.44996,160.39618 L128.15996,162.35529 L128.86996,164.32822 L129.57996,166.31467 L130.28995,168.31451 L130.99995,170.32755 L131.70996,172.35349 L132.41995,174.39224 L133.12996,176.44354 L133.83995,178.50723 L134.54996,180.58304 L135.25995,182.6708 L135.96996,184.7703 L136.67996,186.88132 L137.38995,189.00363 L138.09995,191.13705 L138.80995,193.28134 L139.51996,195.43634 L140.22995,197.60175 L140.93994,199.77744 L141.64995,201.9631 L142.35995,204.1586 L143.06995,206.36368 L143.77994,208.57813 L144.48994,210.80173 L145.19995,213.03421 L145.90994,215.27542 L146.61993,217.52509 L147.32994,219.78302 L148.03995,222.04895 L148.74994,224.3227 L149.45993,226.604 L150.16994,228.89264 L150.87994,231.18839 L151.58994,233.49103 L152.29993,235.80032 L153.00993,238.11606 L153.71994,240.43796 L154.42993,242.76584 L155.13994,245.0994 L155.84993,247.43845 L156.55994,249.78278 L157.26993,252.13214 L157.97993,254.48627 L158.68994,256.84497 L159.39993,259.20795 L160.10992,261.57504 L160.81993,263.94592 L161.52994,266.32047 L162.23993,268.69836 L162.94992,271.07938 L163.65993,273.4633 L164.36993,275.84988 L165.07993,278.23886 L165.78993,280.63 L166.49991,283.02313 L167.20993,285.4179 L167.91992,287.81415 L168.62991,290.21164 L169.33994,292.6101 L170.04993,295.00928 L170.75992,297.40897 L171.46991,299.8089 L172.17993,302.20886 L172.88992,304.60864 L173.59991,307.00793 L174.3099,309.4065 L175.01991,311.80414 L175.72992,314.20062 L176.43991,316.59564 L177.1499,318.98904 L177.85991,321.38055 L178.56992,323.7699 L179.2799,326.15686 L179.98991,328.5412 L180.6999,330.92273 L181.40991,333.30115 L182.1199,335.6762 L182.82991,338.04773 L183.53992,340.4154 L184.24991,342.7791 L184.9599,345.1385 L185.6699,347.49335 L186.37991,349.84348 L187.0899,352.1886 L187.7999,354.52853 L188.5099,356.86304 L189.21991,359.19177 L189.9299,361.51465 L190.63991,363.83136 L191.3499,366.1417 L192.05989,368.4454 L192.7699,370.74228 L193.4799,373.03207 L194.1899,375.31458 L194.89989,377.58954 L195.6099,379.85675 L196.3199,382.11597 L197.02989,384.36694 L197.7399,386.60953 L198.44989,388.84344 L199.1599,391.06848 L199.86989,393.2844 L200.5799,395.491 L201.2899,397.68802 L201.9999,399.8753 L202.7099,402.05258 L203.4199,404.21967 L204.1299,406.37634 L204.83989,408.52234 L205.5499,410.6575 L206.25989,412.78162 L206.9699,414.8944 L207.6799,416.99576 L208.3899,419.0854 L209.09988,421.16312 L209.80989,423.22873 L210.5199,425.282 L211.22989,427.32278 L211.93988,429.3508 L212.64989,431.3659 L213.3599,433.36786 L214.06989,435.3565 L214.77989,437.33157 L215.48988,439.29294 L216.19989,441.24036 L216.90988,443.17368 L217.61989,445.09265 L218.32988,446.99713 L219.03987,448.8869 L219.74988,450.7618 L220.45988,452.6216 L221.16988,454.4662 L221.87988,456.2953 L222.58987,458.10876 L223.29988,459.90643 L224.00987,461.6881 L224.71988,463.4536 L225.42989,465.20276 L226.13988,466.93542 L226.84987,468.65137 L227.55988,470.35043 L228.26988,472.03247 L228.97987,473.6973 L229.68987,475.34476 L230.39987,476.9747 L231.10986,478.5869 L231.81987,480.18127 L232.52988,481.75763 L233.23987,483.31583 L233.94986,484.85568 L234.65987,486.37704 L235.36987,487.8798 L236.07986,489.36374 L236.78986,490.82874 L237.49986,492.2747 L238.20987,493.70135 L238.91986,495.1087 L239.62987,496.49652 L240.33986,497.8647 L241.04987,499.21304 L241.75986,500.5415 L242.46985,501.8499 L243.17987,503.13815 L243.88985,504.40604 L244.59987,505.6535 L245.30986,506.8804 L246.01985,508.0866 L246.72986,509.272 L247.43985,510.4365 L248.14986,511.57993 L248.85985,512.7022 L249.56984,513.8032 L250.27986,514.8829 L250.98985,515.941 L251.69986,516.97754 L252.40985,517.9924 L253.11984,518.9854 L253.82985,519.95654 L254.53984,520.9057 L255.24986,521.83276 L255.95985,522.7377 L256.66983,523.62024 L257.37985,524.4805 L258.08984,525.3183 L258.79987,526.13354 L259.50983,526.9262 L260.21985,527.69617 L260.92984,528.44336 L261.63983,529.16766 L262.34985,529.86914 L263.05984,530.54755 L263.76984,531.20294 L264.47986,531.8352 L265.18982,532.44434 L265.89984,533.03015 L266.60983,533.59265 L267.31982,534.1319 L268.02985,534.64764 L268.73984,535.13995 L269.44983,535.60876 L270.15985,536.05396 L270.8698,536.4756 L271.57983,536.8736 L272.28983,537.24786 L272.99982,537.59845 L273.70984,537.92523 L274.4198,538.2283 L275.12982,538.50745 L275.83984,538.7628 L276.54984,538.99426 L277.25983,539.20184 L277.96982,539.3855 L278.6798,539.54517 L279.38983,539.6809 L280.09985,539.7927 L280.8098,539.8805 L281.51984,539.94434 L282.22983,539.9842 L282.93982,540 L283.64984,539.9918 L284.3598,539.95966 L285.06982,539.90344 L285.77982,539.8233 L286.4898,539.7191 L287.19983,539.591 L287.90982,539.43896 L288.6198,539.26294 L289.32983,539.063 L290.0398,538.8391 L290.74982,538.59143 L291.4598,538.3198 L292.1698,538.02435 L292.87982,537.70514 L293.5898,537.3621 L294.2998,536.9954 L295.00983,536.605 L295.7198,536.19086 L296.4298,535.7532 L297.1398,535.2919 L297.84982,534.80707 L298.5598,534.29877 L299.26978,533.767 L299.9798,533.2119 L300.68982,532.63354 L301.3998,532.03186 L302.1098,531.407 L302.8198,530.7589 L303.5298,530.0878 L304.2398,529.39374 L304.94983,528.67664 L305.6598,527.9367 L306.3698,527.174 L307.0798,526.38855 L307.7898,525.5805 L308.49982,524.7499 L309.20978,523.8967 L309.9198,523.02124 L310.62982,522.1235 L311.33978,521.2035 L312.0498,520.26135 L312.7598,519.2972 L313.4698,518.3111 L314.1798,517.30316 L314.88977,516.27356 L315.5998,515.2223 L316.30978,514.1495 L317.01978,513.05524 L317.7298,511.93976 L318.4398,510.80304 L319.14978,509.64523 L319.85977,508.4665 L320.56976,507.2669 L321.2798,506.0466 L321.98978,504.80566 L322.6998,503.54425 L323.4098,502.2625 L324.11978,500.9605 L324.82977,499.6384 L325.53976,498.29636 L326.2498,496.93445 L326.95978,495.55286 L327.66977,494.15173 L328.3798,492.73117 L329.08978,491.29135 L329.79977,489.8324 L330.50977,488.3545 L331.21976,486.8577 L331.92978,485.34225 L332.63977,483.80826 L333.3498,482.2559 L334.05978,480.6853 L334.76978,479.09665 L335.47977,477.49008 L336.18976,475.86578 L336.89978,474.22388 L337.60977,472.56454 L338.31976,470.88797 L339.0298,469.1943 L339.73978,467.4837 L340.44977,465.75635 L341.15976,464.01242 L341.86975,462.2521 L342.57977,460.4756 L343.28976,458.68298 L343.9998,456.8745 L344.70978,455.05038 L345.4198,453.21072 L346.12982,451.35577 L346.8398,449.48566 L347.54987,447.60062 L348.25986,445.7008 L348.96988,443.7864 L349.6799,441.85767 L350.3899,439.91467 L351.09995,437.95773 L351.80994,435.987 L352.51996,434.00266 L353.22998,432.0049 L353.93997,429.994 L354.65002,427.97006 L355.36002,425.93335 L356.07004,423.88403 L356.78006,421.82233 L357.49005,419.7484 L358.2001,417.66257 L358.9101,415.56494 L359.62012,413.45575 L360.33014,411.3352 L361.04013,409.20352 L361.75018,407.06094 L362.46017,404.90765 L363.1702,402.7439 L363.88022,400.56982 L364.59024,398.3857 L365.30026,396.19177 L366.01028,393.98816 L366.72028,391.7752 L367.4303,389.55304 L368.14032,387.32196 L368.85034,385.0821 L369.56036,382.83374 L370.27036,380.57712 L370.98038,378.31244 L371.6904,376.03992 L372.40042,373.7598 L373.11044,371.47232 L373.82043,369.17767 L374.53046,366.8761 L375.24048,364.56787 L375.9505,362.25317 L376.66052,359.93222 L377.3705,357.6053 L378.08054,355.27258 L378.79056,352.9344 L379.50058,350.59088 L380.2106,348.2423 L380.9206,345.88892 L381.6306,343.53094 L382.34064,341.16864 L383.05066,338.8022 L383.76068,336.43185 L384.4707,334.05786 L385.1807,331.68048 L385.89072,329.29993 L386.60074,326.91647 L387.31076,324.5303 L388.02078,322.1417 L388.73077,319.75085 L389.4408,317.35803 L390.15082,314.9635 L390.86084,312.56744 L391.57086,310.17017 L392.28085,307.77185 L392.99088,305.37274 L393.7009,302.9731 L394.41092,300.57318 L395.12094,298.17322 L395.83093,295.7734 L396.54095,293.37402 L397.25098,290.97534 L397.961,288.5775 L398.67102,286.18085 L399.381,283.78555 L400.09103,281.39188 L400.8011,279.0001 L401.51108,276.61035 L402.2211,274.22302 L402.93112,271.8382 L403.6411,269.45624 L404.35117,267.07733 L405.06116,264.70166 L405.77118,262.3296 L406.4812,259.96124 L407.1912,257.59692 L407.90125,255.23685 L408.61124,252.88123 L409.32126,250.53033 L410.03128,248.18439 L410.74127,245.8436 L411.45132,243.50827 L412.16132,241.17856 L412.87134,238.8547 L413.58136,236.53699 L414.29135,234.22562 L415.0014,231.92084 L415.7114,229.62286 L416.42142,227.33194 L417.13144,225.04825 L417.84143,222.77206 L418.55148,220.5036 L419.26147,218.2431 L419.9715,215.99078 L420.68155,213.74686 L421.39154,211.51157 L422.10156,209.28513 L422.81155,207.06772 L423.52158,204.85962 L424.23163,202.66104 L424.94162,200.47223 L425.65164,198.29333 L426.36163,196.1246 L427.07166,193.96628 L427.7817,191.81854 L428.4917,189.68164 L429.20172,187.55576 L429.9117,185.44113 L430.62173,183.33795 L431.3318,181.24646 L432.04178,179.16678 L432.7518,177.09924 L433.4618,175.04398 L434.1718,173.00119 L434.88187,170.97113 L435.59186,168.95395 L436.30188,166.94986 L437.01187,164.9591 L437.7219,162.98187 L438.43195,161.01831 L439.14194,159.06866 L439.85196,157.13312 L440.56195,155.21185 L441.272,153.30505 L441.98203,151.4129 L442.69202,149.53568 L443.40204,147.67343 L444.11203,145.82645 L444.82208,143.99487 L445.5321,142.1789 L446.2421,140.37872 L446.95212,138.59451 L447.6621,136.82642 L448.37216,135.07465 L449.08218,133.33936 L449.79218,131.62073 L450.5022,129.91898 L451.2122,128.23416 L451.92224,126.56659 L452.63226,124.91635 L453.34225,123.28363 L454.05228,121.66858 L454.76227,120.07135 L455.47232,118.492065 L456.18234,116.93097 L456.89233,115.388214 L457.6024,113.86389 L458.31235,112.358185 L459.0224,110.871216 L459.73242,109.40323 L460.4424,107.95422 L461.15247,106.524475 L461.86246,105.114044 L462.57248,103.723114 L463.2825,102.35184 L463.9925,101.000305 L464.70255,99.66864 L465.41254,98.357056 L466.12256,97.06561 L466.83258,95.794495 L467.54257,94.54373 L468.25262,93.31354 L468.96262,92.104034 L469.67264,90.91528 L470.38266,89.7475 L471.09265,88.60068 L471.8027,87.47504 L472.5127,86.370605 L473.22272,85.2876 L473.93274,84.22604 L474.64273,83.186035 L475.35278,82.167725 L476.06277,81.171234 L476.7728,80.19656 L477.48285,79.2439 L478.19284,78.31329 L478.90286,77.40491 L479.61285,76.51874 L480.32288,75.65494 L481.03293,74.81357 L481.74292,73.99469 L482.45294,73.198456 L483.16293,72.424866 L483.87296,71.67407 L484.583,70.946045 L485.293,70.24097 L486.00302,69.55887 L486.713,68.89981 L487.42303,68.263824 L488.1331,67.65106 L488.84308,67.06152 L489.5531,66.49527 L490.2631,65.95236 L490.9731,65.43289 L491.68317,64.93686 L492.39316,64.464355 L493.10318,64.01532 L493.81317,63.589966 L494.5232,63.188232 L495.23325,62.81015 L495.94324,62.45581 L496.65326,62.125214 L497.36325,61.81845 L498.0733,61.53546 L498.78333,61.276337 L499.49332,61.041077 L500.20334,60.829712 L500.91333,60.642242 L501.62338,60.47873 L502.3334,60.339172 L503.0434,60.22357 L503.75342,60.131958 L504.4634,60.06433 L505.17346,60.02066 L505.88348,60.001038 L506.59348,60.00537 L507.3035,60.033752 L508.0135,60.08612 L508.72354,60.162445 L509.43356,60.262787 L510.14355,60.387085 L510.85358,60.53534 L511.56357,60.70758 L512.2736,60.903687 L512.98364,61.12375 L513.6936,61.367676 L514.4037,61.635468 L515.11365,61.927094 L515.8237,62.242523 L516.5337,62.581757 L517.2437,62.944733 L517.95374,63.33136 L518.66376,63.7417 L519.3738,64.17566 L520.0838,64.63321 L520.7938,65.11429 L521.50385,65.618835 L522.21387,66.14685 L522.9238,66.69824 L523.6339,67.27295 L524.3439,67.87091 L525.05396,68.492096 L525.7639,69.136444 L526.47394,69.80386 L527.18396,70.494354 L527.8939,71.2077 L528.604,71.94403 L529.31396,72.703125 L530.02405,73.484924 L530.734,74.28937 L531.44403,75.116455 L532.15405,75.96594 L532.8641,76.83786 L533.5741,77.73212 L534.2842,78.64862 L534.99414,79.58719 L535.70416,80.54785 L536.4142,81.53046 L537.12415,82.53491 L537.8342,83.5611 L538.5442,84.60895 L539.2543,85.678314 L539.96423,86.769104 L540.67426,87.881226 L541.3843,89.01462 L542.0943,90.16904 L542.8043,91.34445 L543.5143,92.54077 L544.22437,93.75778 L544.9344,94.99542 L545.6444,96.2536 L546.3544,97.532135 L547.0644,98.8309 L547.7744,100.14978 L548.4845,101.48868 L549.19446,102.84735 L549.9045,104.2258 L550.6145,105.62384 L551.32446,107.04132 L552.03455,108.47806 L552.7445,109.93399 L553.4546,111.408936 L554.16455,112.90265 L554.87463,114.41516 L555.5846,115.9462 L556.2946,117.495636 L557.00464,119.063324 L557.7146,120.64914 L558.4247,122.25287 L559.1347,123.87436 L559.8447,125.51352 L560.5547,127.170044 L561.2647,128.8439 L561.97473,130.53485 L562.6848,132.24277 L563.3948,133.9675 L564.1048,135.70877 L564.8148,137.46646 L565.52484,139.24042 L566.23486,141.03046 L566.9448,142.8364 L567.6549,144.65805 L568.36487,146.49524 L569.07495,148.34778 L569.7849,150.21545 L570.49493,152.09814 L571.20496,153.9956 L571.9149,155.90768 L572.625,157.8342 L573.335,159.77487 L574.04504,161.72958 L574.75507,163.69815 L575.465,165.68033 L576.17505,167.67593 L576.88513,169.68478 L577.5951,171.70667 L578.3051,173.74136 L579.01514,175.78873 L579.72516,177.84845 L580.4352,179.92041 L581.1452,182.00436 L581.8552,184.10016 L582.5652,186.20752 L583.27527,188.32623 L583.9853,190.45615 L584.69525,192.59702 L585.4053,194.74863 L586.1153,196.91074 L586.8253,199.08319 L587.53534,201.26572 L588.24536,203.4581 L588.9554,205.66016 L589.66534,207.87164 L590.3754,210.09235 L591.08545,212.32202 L591.7954,214.56049 L592.50543,216.80753 L593.21545,219.06284 L593.9255,221.32623 L594.6355,223.59756 L595.3455,225.87646 L596.05554,228.16281 L596.7655,230.45633 L597.4756,232.7568 L598.1856,235.06403 L598.89557,237.37769 L599.60565,239.69766 L600.3156,242.02368 L601.02563,244.35544 L601.73566,246.69278 L602.4457,249.03549 L603.1557,251.38327 L603.8657,253.7359 L604.57574,256.09314 L605.28577,258.4548 L605.9957,260.82062 L606.7058,263.19034 L607.4158,265.56375 L608.1258,267.9406 L608.8358,270.32068 L609.54584,272.70367 L610.25586,275.08945 L610.9659,277.4777 L611.6759,279.8682 L612.3859,282.26068 L613.0959,284.65497 L613.80597,287.05078 L614.5159,289.44788 L615.22595,291.84607 L615.936,294.24506 L616.646,296.64462 L617.356,299.0445 L618.06604,301.4445 L618.77606,303.84436 L619.4861,306.24377 L620.1961,308.64264 L620.9061,311.04062 L621.6161,313.4375 L622.3261,315.833 L623.0362,318.22693 L623.74615,320.61908 L624.4562,323.00912 L625.1662,325.39688 L625.8762,327.7821 L626.58624,330.16455 L627.29626,332.54398 L628.0062,334.92017 L628.71625,337.29282 L629.4263,339.66177 L630.1363,342.02673 L630.84625,344.3875 L631.55634,346.74387 L632.26636,349.09552 L632.9763,351.4423 L633.68634,353.7839 L634.39636,356.12012 L635.1064,358.45074 L635.8164,360.7755 L636.5264,363.09424 L637.23645,365.40662 L637.9464,367.71246 L638.6565,370.01154 L639.3665,372.30362 L640.0765,374.58844 L640.78656,376.86584 L641.4965,379.13556 L642.20654,381.39734 L642.91656,383.651 L643.6266,385.8963 L644.3366,388.133 L645.04663,390.3609 L645.75665,392.5797 L646.4667,394.7893 L647.17664,396.98944 L647.8867,399.17987 L648.5967,401.36035 L649.3067,403.5307 L650.0167,405.69067 L650.72675,407.84015 L651.43677,409.97876 L652.1468,412.10645 L652.8568,414.22287 L653.56683,416.32788 L654.2768,418.42126 L654.9869,420.5028 L655.69684,422.57233 L656.40686,424.62955 L657.1169,426.67432 L657.8269,428.70642 L658.5369,430.72565 L659.24695,432.7318 L659.957,434.7247 L660.667,436.70413 L661.377,438.6699 L662.08704,440.62177 L662.797,442.5596 L663.507,444.48315 L664.2171,446.39227 L664.92706,448.28674 L665.6371,450.16638 L666.3471,452.031 L667.0571,453.88043 L667.76715,455.71448 L668.4772,457.53296 L669.1872,459.33566 L669.89716,461.12247 L670.6072,462.89313 L671.31726,464.6475 L672.0272,466.38544 L672.73724,468.1067 L673.44727,469.8112 L674.1573,471.49866 L674.8673,473.169 L675.57733,474.82202 L676.28735,476.45755 L676.9973,478.07544 L677.7074,479.6755 L678.4174,481.25763 L679.1274,482.82162 L679.8374,484.36734 L680.5474,485.89462 L681.25745,487.40332 L681.96747,488.89325 L682.6775,490.36432 L683.3875,491.81635 L684.0975,493.24915 L684.80756,494.66266 L685.5176,496.0567 L686.22754,497.43115 L686.93756,498.78583 L687.6476,500.12064 L688.3576,501.43546 L689.0676,502.73013 L689.77765,504.00452 L690.4877,505.2585 L691.19763,506.492 L691.9077,507.7048 L692.61774,508.89685 L693.3277,510.06802 L694.0377,511.21817 L694.74774,512.34717 L695.45776,513.455 L696.1678,514.54144 L696.8778,515.60645 L697.5878,516.6499 L698.29785,517.6717 L699.0079,518.6717 L699.7179,519.64984 L700.42786,520.606 L701.13794,521.5401 L701.8479,522.452 L702.5579,523.3418 L703.26794,524.20917 L703.97797,525.05414 L704.688,525.8766 L705.398,526.67645 L706.10803,527.4536 L706.81805,528.20807 L707.528,528.9397 L708.2381,529.6485 L708.94806,530.3343 L709.6581,530.997 L710.3681,531.63666 L711.0781,532.2531 L711.78815,532.8464 L712.49817,533.4163 L713.2082,533.96295 L713.9182,534.4862 L714.6282,534.98596 L715.33826,535.4623 L716.0482,535.915 L716.75824,536.3441 L717.4683,536.74963 L718.1783,537.1315 L718.8883,537.4896 L719.5983,537.824 L720.30835,538.1346 L721.0184,538.4213 L721.7284,538.68427 L722.4384,538.92334 L723.1484,539.1385 L723.8584,539.3298 L724.5685,539.49713 L725.27844,539.6405 L725.98846,539.7599 L726.6985,539.85535 L727.4085,539.9268 L728.1185,539.9743 L728.82855,539.99774 L729.5386,539.99725 L730.24854,539.9727 L730.95856,539.92413 L731.66864,539.8516 L732.3786,539.7551 L733.0886,539.63464 L733.79865,539.49023 L734.50867,539.32184 L735.2187,539.1295 L735.9287,538.91327 L736.63873,538.6731 L737.3487,538.4091 L738.0588,538.1213 L738.7688,537.80963 L739.47876,537.4742 L740.1888,537.115 L740.8988,536.7321 L741.6088,536.32556 L742.31885,535.8954 L743.0289,535.4416 L743.7389,534.96423 L744.44885,534.46344 L745.15894,533.93915 L745.86896,533.3915 L746.5789,532.8205 L747.28894,532.2262 L747.99896,531.6087 L748.709,530.968 L749.419,530.30426 L750.129,529.61743 L750.83905,528.90765 L751.549,528.175 L752.2591,527.41956 L752.9691,526.64136 L753.6791,525.8405 L754.38916,525.017 L755.0991,524.1711 L755.80914,523.30273 L756.51917,522.412 L757.2292,521.4991 L757.9392,520.56396 L758.64923,519.6068 L759.35925,518.6277 L760.0693,517.6267 L760.77924,516.604 L761.4893,515.5596 L762.1993,514.49365 L762.9093,513.40625 L763.6193,512.2975 L764.32935,511.1675 L765.03937,510.01642 L765.7494,508.84433 L766.4594,507.65137 L767.16943,506.43762 L767.8794,505.20325 L768.5895,503.94833 L769.29944,502.67303 L770,501.39487" fill="none" stroke="#0000ff" stroke-width="1"/>
<path d="M60,300.00006 L60.71,302.4 L61.42,304.79974 L62.13,307.19897 L62.84,309.59747 L63.55,311.99506 L64.26,314.39142 L64.97,316.78632 L65.68,319.17957 L66.39,321.5709 L67.1,323.96008 L67.81,326.34683 L68.52,328.73096 L69.229996,331.11224 L69.94,333.49042 L70.65,335.8652 L71.36,338.23642 L72.07,340.60382 L72.78,342.96716 L73.49,345.32617 L74.2,347.6807 L74.91,350.03043 L75.62,352.37515 L76.33,354.71466 L77.04,357.04868 L77.75,359.377 L78.46,361.69937 L79.17,364.01556 L79.880005,366.32538 L80.59,368.62857 L81.299995,370.92487 L82.009995,373.2141 L82.72,375.496 L83.42999,377.77036 L84.14,380.03693 L84.84999,382.2955 L85.56,384.54587 L86.27,386.78775 L86.979996,389.02097 L87.689995,391.2453 L88.399994,393.46045 L89.10999,395.66632 L89.81999,397.86258 L90.52999,400.04907 L91.23999,402.22552 L91.94999,404.39178 L92.65999,406.5476 L93.36999,408.69278 L94.07999,410.8271 L94.789986,412.95026 L95.499985,415.0622 L96.20999,417.1626 L96.91998,419.25128 L97.62999,421.32806 L98.33998,423.3927 L99.04999,425.445 L99.75998,427.48474 L100.469986,429.51172 L101.17998,431.52576 L101.889984,433.52667 L102.599976,435.51422 L103.30998,437.48822 L104.01997,439.4485 L104.72998,441.39478 L105.43997,443.32693 L106.14998,445.24475 L106.85998,447.14807 L107.56998,449.03665 L108.279976,450.91034 L108.989975,452.76892 L109.699974,454.61224 L110.40997,456.44012 L111.11997,458.25232 L111.82997,460.04874 L112.53997,461.82913 L113.24997,463.59335 L113.95998,465.3412 L114.66997,467.07248 L115.379974,468.7871 L116.089966,470.48483 L116.79997,472.1655 L117.509964,473.82895 L118.21996,475.47504 L118.92996,477.10355 L119.63996,478.71436 L120.34996,480.3073 L121.05997,481.8822 L121.76996,483.43893 L122.479965,484.97733 L123.18996,486.49725 L123.89996,487.99847 L124.60996,489.48093 L125.31996,490.94443 L126.02996,492.38882 L126.73995,493.81396 L127.44996,495.2198 L128.15996,496.60605 L128.86996,497.97263 L129.57996,499.31943 L130.28995,500.64627 L130.99995,501.95306 L131.70996,503.2397 L132.41995,504.50595 L133.12996,505.75177 L133.83995,506.97702 L134.54996,508.18158 L135.25995,509.36533 L135.96996,510.52814 L136.67996,511.6699 L137.38995,512.79047 L138.09995,513.8898 L138.80995,514.96765 L139.51996,516.0241 L140.22995,517.0589 L140.93994,518.072 L141.64995,519.06335 L142.35995,520.0327 L143.06995,520.9801 L143.77994,521.9054 L144.48994,522.8085 L145.19995,523.68933 L145.90994,524.5478 L146.61993,525.3838 L147.32994,526.1972 L148.03995,526.9881 L148.74994,527.7562 L149.45993,528.5016 L150.16994,529.2241 L150.87994,529.9237 L151.58994,530.60034 L152.29993,531.2539 L153.00993,531.8843 L153.71994,532.4915 L154.42993,533.0755 L155.13994,533.63617 L155.84993,534.1735 L156.55994,534.6874 L157.26993,535.17786 L157.97993,535.6448 L158.68994,536.08813 L159.39993,536.5079 L160.10992,536.904 L160.81993,537.27637 L161.52994,537.62506 L162.23993,537.94995 L162.94992,538.2511 L163.65993,538.5284 L164.36993,538.78186 L165.07993,539.0114 L165.78993,539.21704 L166.49991,539.3988 L167.20993,539.5566 L167.91992,539.6904 L168.62991,539.8003 L169.33994,539.88617 L170.04993,539.94806 L170.75992,539.98596 L171.46991,539.9999 L172.17993,539.9898 L172.88992,539.9557 L173.59991,539.89764 L174.3099,539.8156 L175.01991,539.70953 L175.72992,539.5795 L176.43991,539.42554 L177.1499,539.2476 L177.85991,539.0458 L178.56992,538.82 L179.2799,538.5704 L179.98991,538.29694 L180.6999,537.9996 L181.40991,537.67847 L182.1199,537.33356 L182.82991,536.96497 L183.53992,536.57263 L184.24991,536.1566 L184.9599,535.71704 L185.6699,535.2539 L186.37991,534.7672 L187.0899,534.257 L187.7999,533.72345 L188.5099,533.1665 L189.21991,532.58624 L189.9299,531.98267 L190.63991,531.35596 L191.3499,530.7061 L192.05989,530.03314 L192.7699,529.3372 L193.4799,528.61835 L194.1899,527.8766 L194.89989,527.11206 L195.6099,526.3248 L196.3199,525.51495 L197.02989,524.6825 L197.7399,523.82764 L198.44989,522.9504 L199.1599,522.0508 L199.86989,521.129 L200.5799,520.1852 L201.2899,519.21924 L201.9999,518.23145 L202.7099,517.2218 L203.4199,516.1905 L204.1299,515.13745 L204.83989,514.063 L205.5499,512.96704 L206.25989,511.84985 L206.9699,510.71146 L207.6799,509.552 L208.3899,508.3716 L209.09988,507.17035 L209.80989,505.94836 L210.5199,504.7058 L211.22989,503.44278 L211.93988,502.15942 L212.64989,500.85583 L213.3599,499.53217 L214.06989,498.18854 L214.77989,496.8251 L215.48988,495.442 L216.19989,494.0393 L216.90988,492.61722 L217.61989,491.17587 L218.32988,489.7154 L219.03987,488.23596 L219.74988,486.7377 L220.45988,485.22076 L221.16988,483.6853 L221.87988,482.1315 L222.58987,480.55945 L223.29988,478.96936 L224.00987,477.36142 L224.71988,475.73566 L225.42989,474.09238 L226.13988,472.43167 L226.84987,470.75372 L227.55988,469.0587 L228.26988,467.3468 L228.97987,465.61813 L229.68987,463.87292 L230.39987,462.11133 L231.10986,460.3335 L231.81987,458.5396 L232.52988,456.72992 L233.23987,454.90454 L233.94986,453.06366 L234.65987,451.2075 L235.36987,449.33618 L236.07986,447.44995 L236.78986,445.54898 L237.49986,443.63345 L238.20987,441.70355 L238.91986,439.75946 L239.62987,437.80145 L240.33986,435.82962 L241.04987,433.8442 L241.75986,431.8454 L242.46985,429.83344 L243.17987,427.80847 L243.88985,425.77075 L244.59987,423.72043 L245.30986,421.65775 L246.01985,419.58292 L246.72986,417.4961 L247.43985,415.39752 L248.14986,413.28745 L248.85985,411.16602 L249.56984,409.03348 L250.27986,406.89 L250.98985,404.73587 L251.69986,402.5713 L252.40985,400.39642 L253.11984,398.2115 L253.82985,396.01678 L254.53984,393.81244 L255.24986,391.59872 L255.95985,389.37585 L256.66983,387.14404 L257.37985,384.9035 L258.08984,382.65448 L258.79987,380.39722 L259.50983,378.1319 L260.21985,375.85876 L260.92984,373.57806 L261.63983,371.28998 L262.34985,368.99478 L263.05984,366.6927 L263.76984,364.3839 L264.47986,362.06873 L265.18982,359.7473 L265.89984,357.41992 L266.60983,355.0868 L267.31982,352.74814 L268.02985,350.40424 L268.73984,348.05524 L269.44983,345.70148 L270.15985,343.34317 L270.8698,340.9805 L271.57983,338.6137 L272.28983,336.2431 L272.99982,333.86887 L273.70984,331.4912 L274.4198,329.1104 L275.12982,326.7267 L275.83984,324.34033 L276.54984,321.95154 L277.25983,319.56055 L277.96982,317.1676 L278.6798,314.7729 L279.38983,312.37677 L280.09985,309.97937 L280.8098,307.581 L281.51984,305.18182 L282.22983,302.78217 L282.93982,300.38226 L283.64984,297.98227 L284.3598,295.5825 L285.06982,293.18317 L285.77982,290.7845 L286.4898,288.38678 L287.19983,285.9902 L287.90982,283.59503 L288.6198,281.2015 L289.32983,278.80988 L290.0398,276.42035 L290.74982,274.03314 L291.4598,271.6486 L292.1698,269.26685 L292.87982,266.88818 L293.5898,264.51282 L294.2998,262.14102 L295.00983,259.77298 L295.7198,257.409 L296.4298,255.04926 L297.1398,252.69403 L297.84982,250.3435 L298.5598,247.99796 L299.26978,245.65762 L299.9798,243.3227 L300.68982,240.99344 L301.3998,238.67004 L302.1098,236.35284 L302.8198,234.04199 L303.5298,231.73773 L304.2398,229.44034 L304.94983,227.14993 L305.6598,224.86685 L306.3698,222.59128 L307.0798,220.32346 L307.7898,218.0636 L308.49982,215.81195 L309.20978,213.5687 L309.9198,211.33408 L310.62982,209.10834 L311.33978,206.8917 L312.0498,204.68433 L312.7598,202.48651 L313.4698,200.29846 L314.1798,198.12036 L314.88977,195.95248 L315.5998,193.79498 L316.30978,191.6481 L317.01978,189.51208 L317.7298,187.38712 L318.4398,185.27335 L319.14978,183.17111 L319.85977,181.08054 L320.56976,179.00186 L321.2798,176.9353 L321.98978,174.88101 L322.6998,172.83923 L323.4098,170.81018 L324.11978,168.79404 L324.82977,166.79102 L325.53976,164.80133 L326.2498,162.82513 L326.95978,160.8627 L327.66977,158.91415 L328.3798,156.97974 L329.08978,155.05957 L329.79977,153.15396 L330.50977,151.263 L331.21976,149.38696 L331.92978,147.52594 L332.63977,145.68018 L333.3498,143.84985 L334.05978,142.03513 L334.76978,140.2362 L335.47977,138.45328 L336.18976,136.6865 L336.89978,134.936 L337.60977,133.20206 L338.31976,131.48477 L339.0298,129.78436 L339.73978,128.10095 L340.44977,126.43475 L341.15976,124.78589 L341.86975,123.15454 L342.57977,121.54086 L343.28976,119.94501 L343.9998,118.36722 L344.70978,116.80759 L345.4198,115.266266 L346.12982,113.74344 L346.8398,112.23923 L347.54987,110.753784 L348.25986,109.28723 L348.96988,107.83978 L349.6799,106.41156 L350.3899,105.002686 L351.09995,103.61331 L351.80994,102.24359 L352.51996,100.893616 L353.22998,99.5636 L353.93997,98.2536 L354.65002,96.963745 L355.36002,95.694214 L356.07004,94.44513 L356.78006,93.21652 L357.49005,92.00867 L358.2001,90.821625 L358.9101,89.65549 L359.62012,88.510345 L360.33014,87.38641 L361.04013,86.28369 L361.75018,85.20236 L362.46017,84.14252 L363.1702,83.10425 L363.88022,82.08768 L364.59024,81.092865 L365.30026,80.119965 L366.01028,79.16907 L366.72028,78.240234 L367.4303,77.33356 L368.14032,76.44919 L368.85034,75.58713 L369.56036,74.74756 L370.27036,73.93048 L370.98038,73.13605 L371.6904,72.36429 L372.40042,71.615295 L373.11044,70.8891 L373.82043,70.18588 L374.53046,69.505585 L375.24048,68.84833 L375.9505,68.21423 L376.66052,67.60327 L377.3705,67.015594 L378.08054,66.4512 L378.79056,65.91019 L379.50058,65.39255 L380.2106,64.898346 L380.9206,64.427734 L381.6306,63.98062 L382.34064,63.55713 L383.05066,63.15732 L383.76068,62.781128 L384.4707,62.42865 L385.1807,62.099976 L385.89072,61.795074 L386.60074,61.513947 L387.31076,61.256744 L388.02078,61.023315 L388.73077,60.813873 L389.4408,60.628326 L390.15082,60.466736 L390.86084,60.32907 L391.57086,60.215393 L392.28085,60.1257 L392.99088,60.059998 L393.7009,60.01828 L394.41092,60.00058 L395.12094,60.006836 L395.83093,60.03708 L396.54095,60.09131 L397.25098,60.169586 L397.961,60.27179 L398.67102,60.39801 L399.381,60.548157 L400.09103,60.72229 L400.8011,60.92035 L401.51108,61.142303 L402.2211,61.388123 L402.93112,61.657776 L403.6411,61.951324 L404.35117,62.268677 L405.06116,62.609802 L405.77118,62.97467 L406.4812,63.36319 L407.1912,63.77539 L407.90125,64.21124 L408.61124,64.670654 L409.32126,65.153625 L410.03128,65.660034 L410.74127,66.18994 L411.45132,66.743164 L412.16132,67.31976 L412.87134,67.919556 L413.58136,68.5426 L414.29135,69.18881 L415.0014,69.85806 L415.7114,70.550354 L416.42142,71.265594 L417.13144,72.00372 L417.84143,72.76462 L418.55148,73.54825 L419.26147,74.35449 L419.9715,75.18335 L420.68155,76.03467 L421.39154,76.90839 L422.10156,77.80444 L422.81155,78.72266 L423.52158,79.663025 L424.23163,80.62543 L424.94162,81.60977 L425.65164,82.616 L426.36163,83.64389 L427.07166,84.69342 L427.7817,85.76453 L428.4917,86.857056 L429.20172,87.97089 L429.9117,89.105896 L430.62173,90.262024 L431.3318,91.43909 L432.04178,92.637054 L432.7518,93.85574 L433.4618,95.09503 L434.1718,96.3548 L434.88187,97.63492 L435.59186,98.9353 L436.30188,100.2558 L437.01187,101.59628 L437.7219,102.95657 L438.43195,104.33658 L439.14194,105.736176 L439.85196,107.15518 L440.56195,108.593445 L441.272,110.05087 L441.98203,111.52731 L442.69202,113.02258 L443.40204,114.53653 L444.11203,116.06906 L444.82208,117.619965 L445.5321,119.18909 L446.2421,120.77634 L446.95212,122.3815 L447.6621,124.004364 L448.37216,125.6449 L449.08218,127.30286 L449.79218,128.97803 L450.5022,130.67035 L451.2122,132.37961 L451.92224,134.10562 L452.63226,135.8482 L453.34225,137.60721 L454.05228,139.38248 L454.76227,141.17377 L455.47232,142.98096 L456.18234,144.80383 L456.89233,146.64227 L457.6024,148.49603 L458.31235,150.36493 L459.0224,152.24878 L459.73242,154.14743 L460.4424,156.06064 L461.15247,157.98825 L461.86246,159.93008 L462.57248,161.88593 L463.2825,163.85559 L463.9925,165.83887 L464.70255,167.83554 L465.41254,169.8454 L466.12256,171.86832 L466.83258,173.90405 L467.54257,175.95236 L468.25262,178.01306 L468.96262,180.086 L469.67264,182.17093 L470.38266,184.26764 L471.09265,186.37592 L471.8027,188.49554 L472.5127,190.62631 L473.22272,192.76807 L473.93274,194.92053 L474.64273,197.0835 L475.35278,199.25671 L476.06277,201.44006 L476.7728,203.63321 L477.48285,205.83603 L478.19284,208.04831 L478.90286,210.26971 L479.61285,212.50009 L480.32288,214.73926 L481.03293,216.98694 L481.74292,219.24292 L482.45294,221.50696 L483.16293,223.77887 L483.87296,226.05838 L484.583,228.3453 L485.293,230.6394 L486.00302,232.9404 L486.713,235.24814 L487.42303,237.56232 L488.1331,239.88278 L488.84308,242.20926 L489.5531,244.54147 L490.2631,246.87927 L490.9731,249.22235 L491.68317,251.57053 L492.39316,253.92355 L493.10318,256.28116 L493.81317,258.64316 L494.5232,261.00928 L495.23325,263.3793 L495.94324,265.75302 L496.65326,268.13013 L497.36325,270.5104 L498.0733,272.89368 L498.78333,275.2796 L499.49332,277.66806 L500.20334,280.05872 L500.91333,282.45142 L501.62338,284.84583 L502.3334,287.24173 L503.0434,289.63895 L503.75342,292.0372 L504.4634,294.43622 L505.17346,296.83582 L505.88348,299.23572 L506.59348,301.6357 L507.3035,304.03552 L508.0135,306.43497 L508.72354,308.83374 L509.43356,311.23163 L510.14355,313.62842 L510.85358,316.0238 L511.56357,318.4176 L512.2736,320.8096 L512.98364,323.19946 L513.6936,325.58704 L514.4037,327.97205 L515.11365,330.35425 L515.8237,332.73343 L516.5337,335.1093 L517.2437,337.48172 L517.95374,339.85034 L518.66376,342.21503 L519.3738,344.57544 L520.0838,346.93143 L520.7938,349.2827 L521.50385,351.62906 L522.21387,353.97025 L522.9238,356.30603 L523.6339,358.6362 L524.3439,360.9605 L525.05396,363.27872 L525.7639,365.59058 L526.47394,367.89587 L527.18396,370.19446 L527.8939,372.48596 L528.604,374.7702 L529.31396,377.047 L530.02405,379.31607 L530.734,381.5772 L531.44403,383.8302 L532.15405,386.0748 L532.8641,388.3108 L533.5741,390.538 L534.2842,392.7561 L534.99414,394.96497 L535.70416,397.1643 L536.4142,399.35394 L537.12415,401.53363 L537.8342,403.70316 L538.5442,405.8623 L539.2543,408.01093 L539.96423,410.14868 L540.67426,412.27545 L541.3843,414.391 L542.0943,416.49506 L542.8043,418.58752 L543.5143,420.66812 L544.22437,422.73666 L544.9344,424.7929 L545.6444,426.83667 L546.3544,428.86777 L547.0644,430.88596 L547.7744,432.89105 L548.4845,434.88287 L549.19446,436.8612 L549.9045,438.82587 L550.6145,440.7766 L551.32446,442.7133 L552.03455,444.6357 L552.7445,446.54364 L553.4546,448.43695 L554.16455,450.3154 L554.87463,452.17883 L555.5846,454.02704 L556.2946,455.85983 L557.00464,457.67706 L557.7146,459.47852 L558.4247,461.26404 L559.1347,463.0334 L559.8447,464.78647 L560.5547,466.52304 L561.2647,468.24298 L561.97473,469.9461 L562.6848,471.6322 L563.3948,473.30115 L564.1048,474.9528 L564.8148,476.5869 L565.52484,478.2034 L566.23486,479.80206 L566.9448,481.38272 L567.6549,482.94528 L568.36487,484.48953 L569.07495,486.01532 L569.7849,487.52252 L570.49493,489.011 L571.20496,490.48053 L571.9149,491.93103 L572.625,493.36234 L573.335,494.77432 L574.04504,496.1668 L574.75507,497.53967 L575.465,498.8928 L576.17505,500.226 L576.88513,501.5392 L577.5951,502.83228 L578.3051,504.10504 L579.01514,505.3574 L579.72516,506.58923 L580.4352,507.80038 L581.1452,508.99075 L581.8552,510.16025 L582.5652,511.30872 L583.27527,512.43604 L583.9853,513.5422 L584.69525,514.6269 L585.4053,515.6902 L586.1153,516.7319 L586.8253,517.75195 L587.53534,518.7502 L588.24536,519.72656 L588.9554,520.68097 L589.66534,521.61334 L590.3754,522.52356 L591.08545,523.4115 L591.7954,524.27704 L592.50543,525.12024 L593.21545,525.94086 L593.9255,526.73895 L594.6355,527.51434 L595.3455,528.26697 L596.05554,528.9968 L596.7655,529.70374 L597.4756,530.38763 L598.1856,531.0485 L598.89557,531.68634 L599.60565,532.30096 L600.3156,532.8924 L601.02563,533.4605 L601.73566,534.00525 L602.4457,534.5266 L603.1557,535.02454 L603.8657,535.49896 L604.57574,535.9498 L605.28577,536.3771 L605.9957,536.7807 L606.7058,537.16064 L607.4158,537.5169 L608.1258,537.84937 L608.8358,538.1581 L609.54584,538.44293 L610.25586,538.704 L610.9659,538.9411 L611.6759,539.1544 L612.3859,539.34375 L613.0959,539.5092 L613.80597,539.6507 L614.5159,539.7682 L615.22595,539.8617 L615.936,539.9313 L616.646,539.9768 L617.356,539.99835 L618.06604,539.9959 L618.77606,539.9695 L619.4861,539.91907 L620.1961,539.84467 L620.9061,539.7462 L621.6161,539.62384 L622.3261,539.4775 L623.0362,539.3072 L623.74615,539.113 L624.4562,538.89484 L625.1662,538.6528 L625.8762,538.38684 L626.58624,538.09717 L627.29626,537.7836 L628.0062,537.4463 L628.71625,537.0852 L629.4263,536.70044 L630.1363,536.292 L630.84625,535.8599 L631.55634,535.4043 L632.26636,534.92505 L632.9763,534.42236 L633.68634,533.89624 L634.39636,533.34674 L635.1064,532.7739 L635.8164,532.17773 L636.5264,531.5584 L637.23645,530.9159 L637.9464,530.2503 L638.6565,529.5617 L639.3665,528.8501 L640.0765,528.11566 L640.78656,527.35834 L641.4965,526.57837 L642.20654,525.7757 L642.91656,524.95044 L643.6266,524.1027 L644.3366,523.23254 L645.04663,522.3401 L645.75665,521.42535 L646.4667,520.48846 L647.17664,519.5296 L647.8867,518.54877 L648.5967,517.546 L649.3067,516.5216 L650.0167,515.47546 L650.72675,514.4078 L651.43677,513.3187 L652.1468,512.2083 L652.8568,511.07663 L653.56683,509.9239 L654.2768,508.75012 L654.9869,507.55548 L655.69684,506.3401 L656.40686,505.10406 L657.1169,503.84753 L657.8269,502.57062 L658.5369,501.27344 L659.24695,499.95615 L659.957,498.61887 L660.667,497.2617 L661.377,495.88483 L662.08704,494.48834 L662.797,493.07242 L663.507,491.6372 L664.2171,490.18283 L664.92706,488.7094 L665.6371,487.21713 L666.3471,485.70612 L667.0571,484.17657 L667.76715,482.6286 L668.4772,481.06235 L669.1872,479.47797 L669.89716,477.87567 L670.6072,476.25558 L671.31726,474.6179 L672.0272,472.9627 L672.73724,471.29025 L673.44727,469.60065 L674.1573,467.8941 L674.8673,466.17075 L675.57733,464.43076 L676.28735,462.67435 L676.9973,460.90167 L677.7074,459.1129 L678.4174,457.30823 L679.1274,455.48782 L679.8374,453.65186 L680.5474,451.80054 L681.25745,449.93405 L681.96747,448.05255 L682.6775,446.15622 L683.3875,444.2453 L684.0975,442.32 L684.80756,440.38043 L685.5176,438.42682 L686.22754,436.45935 L686.93756,434.47824 L687.6476,432.4837 L688.3576,430.4759 L689.0676,428.45505 L689.77765,426.42136 L690.4877,424.375 L691.19763,422.31625 L691.9077,420.24527 L692.61774,418.16223 L693.3277,416.0674 L694.0377,413.96094 L694.74774,411.84314 L695.45776,409.7141 L696.1678,407.5741 L696.8778,405.42334 L697.5878,403.26202 L698.29785,401.0904 L699.0079,398.9087 L699.7179,396.71704 L700.42786,394.51575 L701.13794,392.305 L701.8479,390.08502 L702.5579,387.85602 L703.26794,385.6183 L703.97797,383.37195 L704.688,381.11725 L705.398,378.8545 L706.10803,376.5838 L706.81805,374.30548 L707.528,372.01974 L708.2381,369.72678 L708.94806,367.42685 L709.6581,365.12018 L710.3681,362.807 L711.0781,360.48752 L711.78815,358.162 L712.49817,355.8307 L713.2082,353.49377 L713.9182,351.1515 L714.6282,348.80414 L715.33826,346.45184 L716.0482,344.09497 L716.75824,341.73364 L717.4683,339.36816 L718.1783,336.99872 L718.8883,334.6256 L719.5983,332.24902 L720.30835,329.8692 L721.0184,327.4864 L721.7284,325.10083 L722.4384,322.71277 L723.1484,320.32245 L723.8584,317.9301 L724.5685,315.53595 L725.27844,313.14023 L725.98846,310.74323 L726.6985,308.34512 L727.4085,305.9462 L728.1185,303.54666 L728.82855,301.1468 L729.5386,298.74677 L730.24854,296.34692 L730.95856,293.94742 L731.66864,291.54852 L732.3786,289.15045 L733.0886,286.75348 L733.79865,284.35788 L734.50867,281.96378 L735.2187,279.5715 L735.9287,277.18127 L736.63873,274.79333 L737.3487,272.4079 L738.0588,270.02524 L738.7688,267.64554 L739.47876,265.26913 L740.1888,262.89615 L740.8988,260.5269 L741.6088,258.16156 L742.31885,255.80045 L743.0289,253.44376 L743.7389,251.0917 L744.44885,248.74454 L745.15894,246.40253 L745.86896,244.06586 L746.5789,241.73477 L747.28894,239.40948 L747.99896,237.09027 L748.709,234.7774 L749.419,232.47101 L750.129,230.17139 L750.83905,227.87872 L751.549,225.59329 L752.2591,223.3153 L752.9691,221.04498 L753.6791,218.78256 L754.38916,216.52826 L755.0991,214.28229 L755.80914,212.04489 L756.51917,209.81628 L757.2292,207.59671 L757.9392,205.38641 L758.64923,203.18552 L759.35925,200.99432 L760.0693,198.81302 L760.77924,196.64185 L761.4893,194.48105 L762.1993,192.33075 L762.9093,190.19122 L763.6193,188.06268 L764.32935,185.94534 L765.03937,183.83942 L765.7494,181.74509 L766.4594,179.6626 L767.16943,177.59213 L767.8794,175.5339 L768.5895,173.4881 L769.29944,171.45499 L770,169.46158" fill="none" stroke="#ff0000" stroke-width="1"/>
</g>
<rect fill="white" height="56" stroke="#000000" stroke-width="1" width="106.4" x="653.6" y="70"/>
<rect fill="#0000ff" height="14.400001" width="15" x="663.6" y="81.8"/>
<text dominant-baseline="middle" fill="#000000" font-family="Times New Roman" font-size="12" text-anchor="start" x="683.6" y="89">
Position (x)
</text>
<rect fill="#ff0000" height="14.400001" width="15" x="663.6" y="99.8"/>
<text dominant-baseline="middle" fill="#000000" font-family="Times New Roman" font-size="12" text-anchor="start" x="683.6" y="107">
Velocity (v)
</text>
</svg>