<svg height="600" viewBox="0 0 800 600" width="800" xmlns="http://www.w3.org/2000/svg">
<rect fill="white" height="600" width="800" x="0" y="0"/>
<text dominant-baseline="middle" fill="#000000" font-family="Times New Roman" font-size="20" text-anchor="middle" x="415" y="30">
Logistic Growth Model
</text>
<text dominant-baseline="middle" fill="#000000" font-family="Times New Roman" font-size="14" text-anchor="middle" x="415" y="576">
Time (t)
</text>
<text dominant-baseline="middle" fill="#000000" font-family="Times New Roman" font-size="14" text-anchor="middle" transform="rotate(-90, 18, 300)" x="18" y="300">
Population
</text>
<rect fill="none" height="480" stroke="#000000" stroke-width="1.5" width="710" x="60" y="60"/>
<line stroke="#000000" stroke-width="1" x1="60" x2="60" y1="540" y2="535"/>
<text dominant-baseline="hanging" fill="#000000" font-family="Times New Roman" font-size="10" text-anchor="middle" x="60" y="549">
0.0
</text>
<line stroke="#000000" stroke-width="1" x1="60" x2="60" y1="60" y2="65"/>
<line stroke="#c0c0c0" stroke-width="0.5" x1="92.31349" x2="92.31349" y1="60" y2="540"/>
<line stroke="#000000" stroke-width="1" x1="92.31349" x2="92.31349" y1="540" y2="535"/>
<text dominant-baseline="hanging" fill="#000000" font-family="Times New Roman" font-size="10" text-anchor="middle" x="92.31349" y="549">
0.2
</text>
<line stroke="#000000" stroke-width="1" x1="92.31349" x2="92.31349" y1="60" y2="65"/>
<line stroke="#c0c0c0" stroke-width="0.5" x1="124.62698" x2="124.62698" y1="60" y2="540"/>
<line stroke="#000000" stroke-width="1" x1="124.62698" x2="124.62698" y1="540" y2="535"/>
<text dominant-baseline="hanging" fill="#000000" font-family="Times New Roman" font-size="10" text-anchor="middle" x="124.62698" y="549">
0.4
</text>
<line stroke="#000000" stroke-width="1" x1="124.62698" x2="124.62698" y1="60" y2="65"/>
<line stroke="#c0c0c0" stroke-width="0.5" x1="156.94048" x2="156.94048" y1="60" y2="540"/>
<line stroke="#000000" stroke-width="1" x1="156.94048" x2="156.94048" y1="540" y2="535"/>
<text dominant-baseline="hanging" fill="#000000" font-family="Times New Roman" font-size="10" text-anchor="middle" x="156.94048" y="549">
0.6
</text>
<line stroke="#000000" stroke-width="1" x1="156.94048" x2="156.94048" y1="60" y2="65"/>
<line stroke="#c0c0c0" stroke-width="0.5" x1="189.25397" x2="189.25397" y1="60" y2="540"/>
<line stroke="#000000" stroke-width="1" x1="189.25397" x2="189.25397" y1="540" y2="535"/>
<text dominant-baseline="hanging" fill="#000000" font-family="Times New Roman" font-size="10" text-anchor="middle" x="189.25397" y="549">
0.8
</text>
<line stroke="#000000" stroke-width="1" x1="189.25397" x2="189.25397" y1="60" y2="65"/>
<line stroke="#c0c0c0" stroke-width="0.5" x1="221.56746" x2="221.56746" y1="60" y2="540"/>
<line stroke="#000000" stroke-width="1" x1="221.56746" x2="221.56746" y1="540" y2="535"/>
<text dominant-baseline="hanging" fill="#000000" font-family="Times New Roman" font-size="10" text-anchor="middle" x="221.56746" y="549">
1.0
</text>
<line stroke="#000000" stroke-width="1" x1="221.56746" x2="221.56746" y1="60" y2="65"/>
<line stroke="#c0c0c0" stroke-width="0.5" x1="253.88095" x2="253.88095" y1="60" y2="540"/>
<line stroke="#000000" stroke-width="1" x1="253.88095" x2="253.88095" y1="540" y2="535"/>
<text dominant-baseline="hanging" fill="#000000" font-family="Times New Roman" font-size="10" text-anchor="middle" x="253.88095" y="549">
1.2
</text>
<line stroke="#000000" stroke-width="1" x1="253.88095" x2="253.88095" y1="60" y2="65"/>
<line stroke="#c0c0c0" stroke-width="0.5" x1="286.19446" x2="286.19446" y1="60" y2="540"/>
<line stroke="#000000" stroke-width="1" x1="286.19446" x2="286.19446" y1="540" y2="535"/>
<text dominant-baseline="hanging" fill="#000000" font-family="Times New Roman" font-size="10" text-anchor="middle" x="286.19446" y="549">
1.4
</text>
<line stroke="#000000" stroke-width="1" x1="286.19446" x2="286.19446" y1="60" y2="65"/>
<line stroke="#c0c0c0" stroke-width="0.5" x1="318.50797" x2="318.50797" y1="60" y2="540"/>
<line stroke="#000000" stroke-width="1" x1="318.50797" x2="318.50797" y1="540" y2="535"/>
<text dominant-baseline="hanging" fill="#000000" font-family="Times New Roman" font-size="10" text-anchor="middle" x="318.50797" y="549">
1.6
</text>
<line stroke="#000000" stroke-width="1" x1="318.50797" x2="318.50797" y1="60" y2="65"/>
<line stroke="#c0c0c0" stroke-width="0.5" x1="350.82144" x2="350.82144" y1="60" y2="540"/>
<line stroke="#000000" stroke-width="1" x1="350.82144" x2="350.82144" y1="540" y2="535"/>
<text dominant-baseline="hanging" fill="#000000" font-family="Times New Roman" font-size="10" text-anchor="middle" x="350.82144" y="549">
1.8
</text>
<line stroke="#000000" stroke-width="1" x1="350.82144" x2="350.82144" y1="60" y2="65"/>
<line stroke="#c0c0c0" stroke-width="0.5" x1="383.13498" x2="383.13498" y1="60" y2="540"/>
<line stroke="#000000" stroke-width="1" x1="383.13498" x2="383.13498" y1="540" y2="535"/>
<text dominant-baseline="hanging" fill="#000000" font-family="Times New Roman" font-size="10" text-anchor="middle" x="383.13498" y="549">
2.0
</text>
<line stroke="#000000" stroke-width="1" x1="383.13498" x2="383.13498" y1="60" y2="65"/>
<line stroke="#c0c0c0" stroke-width="0.5" x1="415.44846" x2="415.44846" y1="60" y2="540"/>
<line stroke="#000000" stroke-width="1" x1="415.44846" x2="415.44846" y1="540" y2="535"/>
<text dominant-baseline="hanging" fill="#000000" font-family="Times New Roman" font-size="10" text-anchor="middle" x="415.44846" y="549">
2.2
</text>
<line stroke="#000000" stroke-width="1" x1="415.44846" x2="415.44846" y1="60" y2="65"/>
<line stroke="#c0c0c0" stroke-width="0.5" x1="447.76196" x2="447.76196" y1="60" y2="540"/>
<line stroke="#000000" stroke-width="1" x1="447.76196" x2="447.76196" y1="540" y2="535"/>
<text dominant-baseline="hanging" fill="#000000" font-family="Times New Roman" font-size="10" text-anchor="middle" x="447.76196" y="549">
2.4
</text>
<line stroke="#000000" stroke-width="1" x1="447.76196" x2="447.76196" y1="60" y2="65"/>
<line stroke="#c0c0c0" stroke-width="0.5" x1="480.07544" x2="480.07544" y1="60" y2="540"/>
<line stroke="#000000" stroke-width="1" x1="480.07544" x2="480.07544" y1="540" y2="535"/>
<text dominant-baseline="hanging" fill="#000000" font-family="Times New Roman" font-size="10" text-anchor="middle" x="480.07544" y="549">
2.6
</text>
<line stroke="#000000" stroke-width="1" x1="480.07544" x2="480.07544" y1="60" y2="65"/>
<line stroke="#c0c0c0" stroke-width="0.5" x1="512.389" x2="512.389" y1="60" y2="540"/>
<line stroke="#000000" stroke-width="1" x1="512.389" x2="512.389" y1="540" y2="535"/>
<text dominant-baseline="hanging" fill="#000000" font-family="Times New Roman" font-size="10" text-anchor="middle" x="512.389" y="549">
2.8
</text>
<line stroke="#000000" stroke-width="1" x1="512.389" x2="512.389" y1="60" y2="65"/>
<line stroke="#c0c0c0" stroke-width="0.5" x1="544.7025" x2="544.7025" y1="60" y2="540"/>
<line stroke="#000000" stroke-width="1" x1="544.7025" x2="544.7025" y1="540" y2="535"/>
<text dominant-baseline="hanging" fill="#000000" font-family="Times New Roman" font-size="10" text-anchor="middle" x="544.7025" y="549">
3.0
</text>
<line stroke="#000000" stroke-width="1" x1="544.7025" x2="544.7025" y1="60" y2="65"/>
<line stroke="#c0c0c0" stroke-width="0.5" x1="577.016" x2="577.016" y1="60" y2="540"/>
<line stroke="#000000" stroke-width="1" x1="577.016" x2="577.016" y1="540" y2="535"/>
<text dominant-baseline="hanging" fill="#000000" font-family="Times New Roman" font-size="10" text-anchor="middle" x="577.016" y="549">
3.2
</text>
<line stroke="#000000" stroke-width="1" x1="577.016" x2="577.016" y1="60" y2="65"/>
<line stroke="#c0c0c0" stroke-width="0.5" x1="609.32947" x2="609.32947" y1="60" y2="540"/>
<line stroke="#000000" stroke-width="1" x1="609.32947" x2="609.32947" y1="540" y2="535"/>
<text dominant-baseline="hanging" fill="#000000" font-family="Times New Roman" font-size="10" text-anchor="middle" x="609.32947" y="549">
3.4
</text>
<line stroke="#000000" stroke-width="1" x1="609.32947" x2="609.32947" y1="60" y2="65"/>
<line stroke="#c0c0c0" stroke-width="0.5" x1="641.64294" x2="641.64294" y1="60" y2="540"/>
<line stroke="#000000" stroke-width="1" x1="641.64294" x2="641.64294" y1="540" y2="535"/>
<text dominant-baseline="hanging" fill="#000000" font-family="Times New Roman" font-size="10" text-anchor="middle" x="641.64294" y="549">
3.6
</text>
<line stroke="#000000" stroke-width="1" x1="641.64294" x2="641.64294" y1="60" y2="65"/>
<line stroke="#c0c0c0" stroke-width="0.5" x1="673.9564" x2="673.9564" y1="60" y2="540"/>
<line stroke="#000000" stroke-width="1" x1="673.9564" x2="673.9564" y1="540" y2="535"/>
<text dominant-baseline="hanging" fill="#000000" font-family="Times New Roman" font-size="10" text-anchor="middle" x="673.9564" y="549">
3.8
</text>
<line stroke="#000000" stroke-width="1" x1="673.9564" x2="673.9564" y1="60" y2="65"/>
<line stroke="#c0c0c0" stroke-width="0.5" x1="706.26996" x2="706.26996" y1="60" y2="540"/>
<line stroke="#000000" stroke-width="1" x1="706.26996" x2="706.26996" y1="540" y2="535"/>
<text dominant-baseline="hanging" fill="#000000" font-family="Times New Roman" font-size="10" text-anchor="middle" x="706.26996" y="549">
4.0
</text>
<line stroke="#000000" stroke-width="1" x1="706.26996" x2="706.26996" y1="60" y2="65"/>
<line stroke="#c0c0c0" stroke-width="0.5" x1="738.5834" x2="738.5834" y1="60" y2="540"/>
<line stroke="#000000" stroke-width="1" x1="738.5834" x2="738.5834" y1="540" y2="535"/>
<text dominant-baseline="hanging" fill="#000000" font-family="Times New Roman" font-size="10" text-anchor="middle" x="738.5834" y="549">
4.2
</text>
<line stroke="#000000" stroke-width="1" x1="738.5834" x2="738.5834" y1="60" y2="65"/>
<line stroke="#000000" stroke-width="1" x1="60" x2="65" y1="540" y2="540"/>
<line stroke="#000000" stroke-width="1" x1="770" x2="765" y1="540" y2="540"/>
<text dominant-baseline="middle" fill="#000000" font-family="Times New Roman" font-size="10" text-anchor="end" x="52" y="540">
0.0
</text>
<line stroke="#c0c0c0" stroke-width="0.5" x1="60" x2="770" y1="492" y2="492"/>
<line stroke="#000000" stroke-width="1" x1="60" x2="65" y1="492" y2="492"/>
<line stroke="#000000" stroke-width="1" x1="770" x2="765" y1="492" y2="492"/>
<text dominant-baseline="middle" fill="#000000" font-family="Times New Roman" font-size="10" text-anchor="end" x="52" y="492">
1.0
</text>
<line stroke="#c0c0c0" stroke-width="0.5" x1="60" x2="770" y1="444" y2="444"/>
<line stroke="#000000" stroke-width="1" x1="60" x2="65" y1="444" y2="444"/>
<line stroke="#000000" stroke-width="1" x1="770" x2="765" y1="444" y2="444"/>
<text dominant-baseline="middle" fill="#000000" font-family="Times New Roman" font-size="10" text-anchor="end" x="52" y="444">
2.0
</text>
<line stroke="#c0c0c0" stroke-width="0.5" x1="60" x2="770" y1="396" y2="396"/>
<line stroke="#000000" stroke-width="1" x1="60" x2="65" y1="396" y2="396"/>
<line stroke="#000000" stroke-width="1" x1="770" x2="765" y1="396" y2="396"/>
<text dominant-baseline="middle" fill="#000000" font-family="Times New Roman" font-size="10" text-anchor="end" x="52" y="396">
3.0
</text>
<line stroke="#c0c0c0" stroke-width="0.5" x1="60" x2="770" y1="348" y2="348"/>
<line stroke="#000000" stroke-width="1" x1="60" x2="65" y1="348" y2="348"/>
<line stroke="#000000" stroke-width="1" x1="770" x2="765" y1="348" y2="348"/>
<text dominant-baseline="middle" fill="#000000" font-family="Times New Roman" font-size="10" text-anchor="end" x="52" y="348">
4.0
</text>
<line stroke="#c0c0c0" stroke-width="0.5" x1="60" x2="770" y1="300" y2="300"/>
<line stroke="#000000" stroke-width="1" x1="60" x2="65" y1="300" y2="300"/>
<line stroke="#000000" stroke-width="1" x1="770" x2="765" y1="300" y2="300"/>
<text dominant-baseline="middle" fill="#000000" font-family="Times New Roman" font-size="10" text-anchor="end" x="52" y="300">
5.0
</text>
<line stroke="#c0c0c0" stroke-width="0.5" x1="60" x2="770" y1="252" y2="252"/>
<line stroke="#000000" stroke-width="1" x1="60" x2="65" y1="252" y2="252"/>
<line stroke="#000000" stroke-width="1" x1="770" x2="765" y1="252" y2="252"/>
<text dominant-baseline="middle" fill="#000000" font-family="Times New Roman" font-size="10" text-anchor="end" x="52" y="252">
6.0
</text>
<line stroke="#c0c0c0" stroke-width="0.5" x1="60" x2="770" y1="204" y2="204"/>
<line stroke="#000000" stroke-width="1" x1="60" x2="65" y1="204" y2="204"/>
<line stroke="#000000" stroke-width="1" x1="770" x2="765" y1="204" y2="204"/>
<text dominant-baseline="middle" fill="#000000" font-family="Times New Roman" font-size="10" text-anchor="end" x="52" y="204">
7.0
</text>
<line stroke="#c0c0c0" stroke-width="0.5" x1="60" x2="770" y1="156" y2="156"/>
<line stroke="#000000" stroke-width="1" x1="60" x2="65" y1="156" y2="156"/>
<line stroke="#000000" stroke-width="1" x1="770" x2="765" y1="156" y2="156"/>
<text dominant-baseline="middle" fill="#000000" font-family="Times New Roman" font-size="10" text-anchor="end" x="52" y="156">
8.0
</text>
<line stroke="#c0c0c0" stroke-width="0.5" x1="60" x2="770" y1="108" y2="108"/>
<line stroke="#000000" stroke-width="1" x1="60" x2="65" y1="108" y2="108"/>
<line stroke="#000000" stroke-width="1" x1="770" x2="765" y1="108" y2="108"/>
<text dominant-baseline="middle" fill="#000000" font-family="Times New Roman" font-size="10" text-anchor="end" x="52" y="108">
9.0
</text>
<line stroke="#000000" stroke-width="1" x1="60" x2="65" y1="60" y2="60"/>
<line stroke="#000000" stroke-width="1" x1="770" x2="765" y1="60" y2="60"/>
<text dominant-baseline="middle" fill="#000000" font-family="Times New Roman" font-size="10" text-anchor="end" x="52" y="60">
10.0
</text>
<defs>
<clipPath id="plotAreaClip">
<rect height="480" width="710" x="60" y="60"/>
</clipPath>
</defs>
<g clip-path="url(#plotAreaClip)">
<path d="M60,492 L76.156746,487.5039 L92.31349,482.64258 L108.47024,477.397 L124.62698,471.74915 L140.78372,465.6825 L156.94048,459.18246 L173.09723,452.23688 L189.25397,444.8367 L205.4107,436.9764 L221.56746,428.65472 L237.72421,419.87506 L253.88095,410.646 L270.03772,400.98184 L286.19446,390.90262 L302.3512,380.43463 L318.50793,369.6101 L334.66467,358.4673 L350.8214,347.04993 L366.97818,335.40668 L383.13492,323.5905 L399.29166,311.65778 L415.44843,299.66693 L431.60516,287.6778 L447.7619,275.75 L463.91864,263.942 L480.0754,252.30994 L496.23215,240.90656 L512.3889,229.7803 L528.54565,218.97464 L544.7024,208.52744 L560.85913,198.47061 L577.01587,188.83011 L593.1726,179.62573 L609.32935,170.8713 L625.48615,162.5752 L641.6428,154.74051 L657.7996,147.36572 L673.95636,140.44516 L690.1131,133.96948 L706.26984,127.92648 L722.4266,122.30145 L738.5833,117.0777 L754.7401,112.23715 L770,108" fill="none" stroke="#0000ff" stroke-width="1"/>
<path d="M60,108 L76.156746,108 L92.31349,108 L108.47024,108 L124.62698,108 L140.78372,108 L156.94048,108 L173.09723,108 L189.25397,108 L205.4107,108 L221.56746,108 L237.72421,108 L253.88095,108 L270.03772,108 L286.19446,108 L302.3512,108 L318.50793,108 L334.66467,108 L350.8214,108 L366.97818,108 L383.13492,108 L399.29166,108 L415.44843,108 L431.60516,108 L447.7619,108 L463.91864,108 L480.0754,108 L496.23215,108 L512.3889,108 L528.54565,108 L544.7024,108 L560.85913,108 L577.01587,108 L593.1726,108 L609.32935,108 L625.48615,108 L641.6428,108 L657.7996,108 L673.95636,108 L690.1131,108 L706.26984,108 L722.4266,108 L738.5833,108 L754.7401,108 L770,108" fill="none" stroke="#ff0000" stroke-dasharray="5 5" stroke-width="1"/>
</g>
<rect fill="white" height="56" stroke="#000000" stroke-width="1" width="171.20001" x="588.8" y="474"/>
<rect fill="#0000ff" height="14.400001" width="15" x="598.8" y="485.8"/>
<text dominant-baseline="middle" fill="#000000" font-family="Times New Roman" font-size="12" text-anchor="start" x="618.8" y="493">
Numerical Solution
</text>
<rect fill="#ff0000" height="14.400001" width="15" x="598.8" y="503.8"/>
<text dominant-baseline="middle" fill="#000000" font-family="Times New Roman" font-size="12" text-anchor="start" x="618.8" y="511">
Termination Asymptote
</text>
</svg>