<svg height="600" viewBox="0 0 800 600" width="800" xmlns="http://www.w3.org/2000/svg">
<rect fill="white" height="600" width="800" x="0" y="0"/>
<text dominant-baseline="middle" fill="#000000" font-family="Times New Roman" font-size="20" text-anchor="middle" x="415" y="30">
Lotka-Volterra with Sensitivities
</text>
<text dominant-baseline="middle" fill="#000000" font-family="Times New Roman" font-size="14" text-anchor="middle" x="415" y="576">
Time
</text>
<text dominant-baseline="middle" fill="#000000" font-family="Times New Roman" font-size="14" text-anchor="middle" transform="rotate(-90, 18, 300)" x="18" y="300">
Value
</text>
<rect fill="none" height="480" stroke="#000000" stroke-width="1.5" width="710" x="60" y="60"/>
<line stroke="#000000" stroke-width="1" x1="60" x2="60" y1="540" y2="535"/>
<text dominant-baseline="hanging" fill="#000000" font-family="Times New Roman" font-size="10" text-anchor="middle" x="60" y="549">
0.0
</text>
<line stroke="#000000" stroke-width="1" x1="60" x2="60" y1="60" y2="65"/>
<line stroke="#c0c0c0" stroke-width="0.5" x1="107.333336" x2="107.333336" y1="60" y2="540"/>
<line stroke="#000000" stroke-width="1" x1="107.333336" x2="107.333336" y1="540" y2="535"/>
<text dominant-baseline="hanging" fill="#000000" font-family="Times New Roman" font-size="10" text-anchor="middle" x="107.333336" y="549">
1.0
</text>
<line stroke="#000000" stroke-width="1" x1="107.333336" x2="107.333336" y1="60" y2="65"/>
<line stroke="#c0c0c0" stroke-width="0.5" x1="154.66667" x2="154.66667" y1="60" y2="540"/>
<line stroke="#000000" stroke-width="1" x1="154.66667" x2="154.66667" y1="540" y2="535"/>
<text dominant-baseline="hanging" fill="#000000" font-family="Times New Roman" font-size="10" text-anchor="middle" x="154.66667" y="549">
2.0
</text>
<line stroke="#000000" stroke-width="1" x1="154.66667" x2="154.66667" y1="60" y2="65"/>
<line stroke="#c0c0c0" stroke-width="0.5" x1="202" x2="202" y1="60" y2="540"/>
<line stroke="#000000" stroke-width="1" x1="202" x2="202" y1="540" y2="535"/>
<text dominant-baseline="hanging" fill="#000000" font-family="Times New Roman" font-size="10" text-anchor="middle" x="202" y="549">
3.0
</text>
<line stroke="#000000" stroke-width="1" x1="202" x2="202" y1="60" y2="65"/>
<line stroke="#c0c0c0" stroke-width="0.5" x1="249.33334" x2="249.33334" y1="60" y2="540"/>
<line stroke="#000000" stroke-width="1" x1="249.33334" x2="249.33334" y1="540" y2="535"/>
<text dominant-baseline="hanging" fill="#000000" font-family="Times New Roman" font-size="10" text-anchor="middle" x="249.33334" y="549">
4.0
</text>
<line stroke="#000000" stroke-width="1" x1="249.33334" x2="249.33334" y1="60" y2="65"/>
<line stroke="#c0c0c0" stroke-width="0.5" x1="296.6667" x2="296.6667" y1="60" y2="540"/>
<line stroke="#000000" stroke-width="1" x1="296.6667" x2="296.6667" y1="540" y2="535"/>
<text dominant-baseline="hanging" fill="#000000" font-family="Times New Roman" font-size="10" text-anchor="middle" x="296.6667" y="549">
5.0
</text>
<line stroke="#000000" stroke-width="1" x1="296.6667" x2="296.6667" y1="60" y2="65"/>
<line stroke="#c0c0c0" stroke-width="0.5" x1="344" x2="344" y1="60" y2="540"/>
<line stroke="#000000" stroke-width="1" x1="344" x2="344" y1="540" y2="535"/>
<text dominant-baseline="hanging" fill="#000000" font-family="Times New Roman" font-size="10" text-anchor="middle" x="344" y="549">
6.0
</text>
<line stroke="#000000" stroke-width="1" x1="344" x2="344" y1="60" y2="65"/>
<line stroke="#c0c0c0" stroke-width="0.5" x1="391.33334" x2="391.33334" y1="60" y2="540"/>
<line stroke="#000000" stroke-width="1" x1="391.33334" x2="391.33334" y1="540" y2="535"/>
<text dominant-baseline="hanging" fill="#000000" font-family="Times New Roman" font-size="10" text-anchor="middle" x="391.33334" y="549">
7.0
</text>
<line stroke="#000000" stroke-width="1" x1="391.33334" x2="391.33334" y1="60" y2="65"/>
<line stroke="#c0c0c0" stroke-width="0.5" x1="438.6667" x2="438.6667" y1="60" y2="540"/>
<line stroke="#000000" stroke-width="1" x1="438.6667" x2="438.6667" y1="540" y2="535"/>
<text dominant-baseline="hanging" fill="#000000" font-family="Times New Roman" font-size="10" text-anchor="middle" x="438.6667" y="549">
8.0
</text>
<line stroke="#000000" stroke-width="1" x1="438.6667" x2="438.6667" y1="60" y2="65"/>
<line stroke="#c0c0c0" stroke-width="0.5" x1="486.00003" x2="486.00003" y1="60" y2="540"/>
<line stroke="#000000" stroke-width="1" x1="486.00003" x2="486.00003" y1="540" y2="535"/>
<text dominant-baseline="hanging" fill="#000000" font-family="Times New Roman" font-size="10" text-anchor="middle" x="486.00003" y="549">
9.0
</text>
<line stroke="#000000" stroke-width="1" x1="486.00003" x2="486.00003" y1="60" y2="65"/>
<line stroke="#c0c0c0" stroke-width="0.5" x1="533.3334" x2="533.3334" y1="60" y2="540"/>
<line stroke="#000000" stroke-width="1" x1="533.3334" x2="533.3334" y1="540" y2="535"/>
<text dominant-baseline="hanging" fill="#000000" font-family="Times New Roman" font-size="10" text-anchor="middle" x="533.3334" y="549">
10.0
</text>
<line stroke="#000000" stroke-width="1" x1="533.3334" x2="533.3334" y1="60" y2="65"/>
<line stroke="#c0c0c0" stroke-width="0.5" x1="580.6667" x2="580.6667" y1="60" y2="540"/>
<line stroke="#000000" stroke-width="1" x1="580.6667" x2="580.6667" y1="540" y2="535"/>
<text dominant-baseline="hanging" fill="#000000" font-family="Times New Roman" font-size="10" text-anchor="middle" x="580.6667" y="549">
11.0
</text>
<line stroke="#000000" stroke-width="1" x1="580.6667" x2="580.6667" y1="60" y2="65"/>
<line stroke="#c0c0c0" stroke-width="0.5" x1="628" x2="628" y1="60" y2="540"/>
<line stroke="#000000" stroke-width="1" x1="628" x2="628" y1="540" y2="535"/>
<text dominant-baseline="hanging" fill="#000000" font-family="Times New Roman" font-size="10" text-anchor="middle" x="628" y="549">
12.0
</text>
<line stroke="#000000" stroke-width="1" x1="628" x2="628" y1="60" y2="65"/>
<line stroke="#c0c0c0" stroke-width="0.5" x1="675.3333" x2="675.3333" y1="60" y2="540"/>
<line stroke="#000000" stroke-width="1" x1="675.3333" x2="675.3333" y1="540" y2="535"/>
<text dominant-baseline="hanging" fill="#000000" font-family="Times New Roman" font-size="10" text-anchor="middle" x="675.3333" y="549">
13.0
</text>
<line stroke="#000000" stroke-width="1" x1="675.3333" x2="675.3333" y1="60" y2="65"/>
<line stroke="#c0c0c0" stroke-width="0.5" x1="722.6667" x2="722.6667" y1="60" y2="540"/>
<line stroke="#000000" stroke-width="1" x1="722.6667" x2="722.6667" y1="540" y2="535"/>
<text dominant-baseline="hanging" fill="#000000" font-family="Times New Roman" font-size="10" text-anchor="middle" x="722.6667" y="549">
14.0
</text>
<line stroke="#000000" stroke-width="1" x1="722.6667" x2="722.6667" y1="60" y2="65"/>
<line stroke="#000000" stroke-width="1" x1="770" x2="770" y1="540" y2="535"/>
<text dominant-baseline="hanging" fill="#000000" font-family="Times New Roman" font-size="10" text-anchor="middle" x="770" y="549">
15.0
</text>
<line stroke="#000000" stroke-width="1" x1="770" x2="770" y1="60" y2="65"/>
<line stroke="#c0c0c0" stroke-width="0.5" x1="60" x2="770" y1="525.5113" y2="525.5113"/>
<line stroke="#000000" stroke-width="1" x1="60" x2="65" y1="525.5113" y2="525.5113"/>
<line stroke="#000000" stroke-width="1" x1="770" x2="765" y1="525.5113" y2="525.5113"/>
<text dominant-baseline="middle" fill="#000000" font-family="Times New Roman" font-size="10" text-anchor="end" x="52" y="525.5113">
-140.0
</text>
<line stroke="#c0c0c0" stroke-width="0.5" x1="60" x2="770" y1="479.5774" y2="479.5774"/>
<line stroke="#000000" stroke-width="1" x1="60" x2="65" y1="479.5774" y2="479.5774"/>
<line stroke="#000000" stroke-width="1" x1="770" x2="765" y1="479.5774" y2="479.5774"/>
<text dominant-baseline="middle" fill="#000000" font-family="Times New Roman" font-size="10" text-anchor="end" x="52" y="479.5774">
-120.0
</text>
<line stroke="#c0c0c0" stroke-width="0.5" x1="60" x2="770" y1="433.6435" y2="433.6435"/>
<line stroke="#000000" stroke-width="1" x1="60" x2="65" y1="433.6435" y2="433.6435"/>
<line stroke="#000000" stroke-width="1" x1="770" x2="765" y1="433.6435" y2="433.6435"/>
<text dominant-baseline="middle" fill="#000000" font-family="Times New Roman" font-size="10" text-anchor="end" x="52" y="433.6435">
-100.0
</text>
<line stroke="#c0c0c0" stroke-width="0.5" x1="60" x2="770" y1="387.70956" y2="387.70956"/>
<line stroke="#000000" stroke-width="1" x1="60" x2="65" y1="387.70956" y2="387.70956"/>
<line stroke="#000000" stroke-width="1" x1="770" x2="765" y1="387.70956" y2="387.70956"/>
<text dominant-baseline="middle" fill="#000000" font-family="Times New Roman" font-size="10" text-anchor="end" x="52" y="387.70956">
-80.0
</text>
<line stroke="#c0c0c0" stroke-width="0.5" x1="60" x2="770" y1="341.77563" y2="341.77563"/>
<line stroke="#000000" stroke-width="1" x1="60" x2="65" y1="341.77563" y2="341.77563"/>
<line stroke="#000000" stroke-width="1" x1="770" x2="765" y1="341.77563" y2="341.77563"/>
<text dominant-baseline="middle" fill="#000000" font-family="Times New Roman" font-size="10" text-anchor="end" x="52" y="341.77563">
-60.0
</text>
<line stroke="#c0c0c0" stroke-width="0.5" x1="60" x2="770" y1="295.84174" y2="295.84174"/>
<line stroke="#000000" stroke-width="1" x1="60" x2="65" y1="295.84174" y2="295.84174"/>
<line stroke="#000000" stroke-width="1" x1="770" x2="765" y1="295.84174" y2="295.84174"/>
<text dominant-baseline="middle" fill="#000000" font-family="Times New Roman" font-size="10" text-anchor="end" x="52" y="295.84174">
-40.0
</text>
<line stroke="#c0c0c0" stroke-width="0.5" x1="60" x2="770" y1="249.90784" y2="249.90784"/>
<line stroke="#000000" stroke-width="1" x1="60" x2="65" y1="249.90784" y2="249.90784"/>
<line stroke="#000000" stroke-width="1" x1="770" x2="765" y1="249.90784" y2="249.90784"/>
<text dominant-baseline="middle" fill="#000000" font-family="Times New Roman" font-size="10" text-anchor="end" x="52" y="249.90784">
-20.0
</text>
<line stroke="#c0c0c0" stroke-width="0.5" x1="60" x2="770" y1="203.9739" y2="203.9739"/>
<line stroke="#000000" stroke-width="1" x1="60" x2="65" y1="203.9739" y2="203.9739"/>
<line stroke="#000000" stroke-width="1" x1="770" x2="765" y1="203.9739" y2="203.9739"/>
<text dominant-baseline="middle" fill="#000000" font-family="Times New Roman" font-size="10" text-anchor="end" x="52" y="203.9739">
0.0
</text>
<line stroke="#c0c0c0" stroke-width="0.5" x1="60" x2="770" y1="158.04001" y2="158.04001"/>
<line stroke="#000000" stroke-width="1" x1="60" x2="65" y1="158.04001" y2="158.04001"/>
<line stroke="#000000" stroke-width="1" x1="770" x2="765" y1="158.04001" y2="158.04001"/>
<text dominant-baseline="middle" fill="#000000" font-family="Times New Roman" font-size="10" text-anchor="end" x="52" y="158.04001">
20.0
</text>
<line stroke="#c0c0c0" stroke-width="0.5" x1="60" x2="770" y1="112.10608" y2="112.10608"/>
<line stroke="#000000" stroke-width="1" x1="60" x2="65" y1="112.10608" y2="112.10608"/>
<line stroke="#000000" stroke-width="1" x1="770" x2="765" y1="112.10608" y2="112.10608"/>
<text dominant-baseline="middle" fill="#000000" font-family="Times New Roman" font-size="10" text-anchor="end" x="52" y="112.10608">
40.0
</text>
<line stroke="#c0c0c0" stroke-width="0.5" x1="60" x2="770" y1="66.17221" y2="66.17221"/>
<line stroke="#000000" stroke-width="1" x1="60" x2="65" y1="66.17221" y2="66.17221"/>
<line stroke="#000000" stroke-width="1" x1="770" x2="765" y1="66.17221" y2="66.17221"/>
<text dominant-baseline="middle" fill="#000000" font-family="Times New Roman" font-size="10" text-anchor="end" x="52" y="66.17221">
60.0
</text>
<defs>
<clipPath id="plotAreaClip">
<rect height="480" width="710" x="60" y="60"/>
</clipPath>
</defs>
<g clip-path="url(#plotAreaClip)">
<path d="M60,181.00696 L60.022198,181.01239 L60.24417,181.07043 L61.452957,181.5151 L63.06423,182.46844 L64.91372,184.08203 L67.23294,186.77515 L69.47395,189.7699 L71.78265,192.81601 L74.10787,195.48438 L76.57554,197.70493 L79.25514,199.43646 L81.92332,200.61093 L84.34998,201.34216 L87.30971,201.94397 L91.68634,202.47705 L95.734695,202.75427 L100.328094,202.93079 L105.920395,203.03256 L112.36333,203.05872 L118.71135,203.02127 L125.83293,202.92068 L133.66678,202.74304 L142.27217,202.46088 L151.582,202.0333 L161.514,201.39862 L172.23126,200.43878 L183.84647,198.95493 L192.44884,197.45294 L200.06944,195.74857 L206.76459,193.89453 L212.66739,191.93515 L217.94083,189.90045 L223.17894,187.61414 L228.00243,185.32837 L232.60887,183.14331 L236.2435,181.6658 L239.08113,180.92468 L241.79727,180.84549 L244.49405,181.68988 L246.88728,183.39844 L249.25658,185.94757 L251.52527,188.90982 L253.79396,191.95667 L256.05994,194.7013 L258.193,196.82416 L260.33594,198.47821 L262.93823,199.931 L265.54053,200.92365 L268.09836,201.58887 L271.19397,202.12378 L275.48138,202.56863 L280.16345,202.83456 L284.51367,202.96774 L289.3827,203.04001 L294.93866,203.05884 L301.39804,203.02121 L309.32727,202.90558 L319.213,202.65994 L329.56152,202.267 L339.91003,201.69852 L349.81583,200.93674 L359.45447,199.9224 L368.8546,198.5877 L376.60034,197.1547 L384.25497,195.36414 L390.57614,193.54507 L396.2129,191.62152 L401.82263,189.40012 L406.90356,187.13217 L411.5623,184.90533 L416.07767,182.7941 L419.13596,181.59537 L421.73517,180.9296 L424.1981,180.81555 L426.82895,181.5187 L429.1642,183.04196 L431.49948,185.41867 L433.82596,188.39111 L436.1524,191.5303 L438.21915,194.10623 L440.2853,196.2839 L442.39053,198.03955 L445.02994,199.64648 L447.4208,200.65689 L449.81165,201.36542 L452.5348,201.92041 L456.3407,202.41052 L460.8814,202.74268 L465.42206,202.92313 L469.98306,203.01682 L474.863,203.0564 L480.63876,203.04822 L487.48648,202.98044 L496.05994,202.81891 L507.04807,202.48349 L518.2399,201.96228 L528.55444,201.26978 L538.65436,200.32532 L548.83093,199.01309 L556.6577,197.67935 L564.46155,195.98944 L571.62396,194.04855 L577.373,192.17148 L583.0946,189.98859 L588.26733,187.74237 L592.9761,185.51889 L597.4542,183.38202 L601.3611,181.75317 L604.1178,180.98285 L606.6705,180.79959 L609.28644,181.418 L611.65533,182.88226 L614.02423,185.233 L616.50543,188.3848 L618.8722,191.57727 L620.93195,194.1395 L622.99036,196.30359 L625.10266,198.05984 L627.7304,199.6547 L630.1249,200.66391 L632.5193,201.37122 L635.21497,201.91974 L638.97015,202.40515 L643.60944,202.74496 L648.2488,202.92712 L653.0866,203.02237 L658.2173,203.05817 L663.89215,203.04483 L670.79694,202.97147 L679.23096,202.80722 L689.4312,202.49481 L700.49866,201.98605 L710.9194,201.29495 L721.1172,200.34943 L731.4373,199.02475 L739.16315,197.7135 L746.88904,196.05157 L753.94214,194.15796 L759.6898,192.30066 L765.41095,190.13858 L770,188.17358" fill="none" stroke="#0000ff" stroke-width="1"/>
<path d="M60,199.38055 L60.022198,199.36545 L60.24417,199.21198 L61.452957,198.29678 L63.06423,196.86987 L64.91372,194.98172 L67.23294,192.43051 L69.47395,190.1271 L71.78265,188.32193 L74.10787,187.32376 L76.57554,187.15833 L79.25514,187.78485 L81.92332,188.926 L84.34998,190.18512 L87.30971,191.80188 L91.68634,194.08252 L95.734695,195.92773 L100.328094,197.66806 L105.920395,199.32013 L112.36333,200.70663 L118.71135,201.66705 L125.83293,202.40573 L133.66678,202.93799 L142.27217,203.30505 L151.582,203.54453 L161.514,203.69315 L172.23126,203.78204 L183.84647,203.82953 L192.44884,203.84207 L200.06944,203.83783 L206.76459,203.81778 L212.66739,203.77844 L217.94083,203.71057 L223.17894,203.58096 L228.00243,203.34491 L232.60887,202.88925 L236.2435,202.20004 L239.08113,201.29236 L241.79727,199.94809 L244.49405,198.00067 L246.88728,195.7331 L249.25658,193.15875 L251.52527,190.73746 L253.79396,188.7702 L256.05994,187.54501 L258.193,187.12686 L260.33594,187.32684 L262.93823,188.16791 L265.54053,189.39478 L268.09836,190.76453 L271.19397,192.44952 L275.48138,194.61743 L280.16345,196.63257 L284.51367,198.15881 L289.3827,199.51425 L294.93866,200.68701 L301.39804,201.66736 L309.32727,202.47241 L319.213,203.08044 L329.56152,203.43918 L339.91003,203.639 L349.81583,203.74664 L359.45447,203.80536 L368.8546,203.8346 L376.60034,203.84247 L384.25497,203.83499 L390.57614,203.81226 L396.2129,203.77005 L401.82263,203.68811 L406.90356,203.5427 L411.5623,203.28125 L416.07767,202.77292 L419.13596,202.14676 L421.73517,201.30432 L424.1981,200.11499 L426.82895,198.2904 L429.1642,196.15015 L431.49948,193.64789 L433.82596,191.12534 L436.1524,189.01144 L438.21915,187.75604 L440.2853,187.17514 L442.39053,187.21286 L445.02994,187.93301 L447.4208,188.98938 L449.81165,190.23566 L452.5348,191.7239 L456.3407,193.72815 L460.8814,195.83435 L465.42206,197.5744 L469.98306,198.97592 L474.863,200.14868 L480.63876,201.18875 L487.48648,202.05756 L496.05994,202.76318 L507.04807,203.28513 L518.2399,203.56885 L528.55444,203.7109 L538.65436,203.78809 L548.83093,203.82852 L556.6577,203.84143 L564.46155,203.83936 L571.62396,203.82007 L577.373,203.78433 L583.0946,203.71423 L588.26733,203.59036 L592.9761,203.37097 L597.4542,202.95901 L601.3611,202.26184 L604.1178,201.42111 L606.6705,200.23544 L609.28644,198.47241 L611.65533,196.34381 L614.02423,193.82425 L616.50543,191.13016 L618.8722,188.98425 L620.93195,187.74335 L622.99036,187.17258 L625.10266,187.21704 L627.7304,187.93921 L630.1249,188.99927 L632.5193,190.24838 L635.21497,191.7218 L638.97015,193.70068 L643.60944,195.85297 L648.2488,197.62323 L653.0866,199.08914 L658.2173,200.28699 L663.89215,201.27441 L670.79694,202.12152 L679.23096,202.79388 L689.4312,203.27475 L700.49866,203.56104 L710.9194,203.70767 L721.1172,203.78687 L731.4373,203.82831 L739.16315,203.84128 L746.88904,203.83966 L753.94214,203.82162 L759.6898,203.78741 L765.41095,203.72034 L770,203.61981" fill="none" stroke="#ff0000" stroke-width="1"/>
<path d="M60,203.9739 L60.022198,203.96317 L60.24417,203.85577 L61.452957,203.28705 L63.06423,202.608 L64.91372,202.02567 L67.23294,201.71732 L69.47395,201.87769 L71.78265,202.3482 L74.10787,202.89523 L76.57554,203.37396 L79.25514,203.71457 L81.92332,203.90192 L84.34998,203.98761 L87.30971,204.03085 L91.68634,204.0365 L95.734695,204.017 L100.328094,203.98373 L105.920395,203.93353 L112.36333,203.86063 L118.71135,203.76572 L125.83293,203.61923 L133.66678,203.38779 L142.27217,203.01108 L151.582,202.39365 L161.514,201.38138 L172.23126,199.67908 L183.84647,196.75531 L192.44884,193.54474 L200.06944,189.70047 L206.76459,185.38354 L212.66739,180.80325 L217.94083,176.23053 L223.17894,171.75146 L228.00243,168.95511 L232.60887,170.34784 L236.2435,178.2287 L239.08113,192.1637 L241.79727,214.74393 L244.49405,246.48059 L246.88728,278.15088 L249.25658,303.9886 L251.52527,315.29688 L253.79396,310.932 L256.05994,295.37326 L258.193,276.92206 L260.33594,259.3647 L262.93823,242.25562 L265.54053,230.07675 L268.09836,221.92975 L271.19397,215.5398 L275.48138,210.4253 L280.16345,207.42145 L284.51367,205.80634 L289.3827,204.65488 L294.93866,203.75064 L301.39804,202.93106 L309.32727,202.00131 L319.213,200.69897 L329.56152,198.91547 L339.91003,196.42685 L349.81583,193.06424 L359.45447,188.4809 L368.8546,182.28833 L376.60034,175.49667 L384.25497,166.90909 L390.57614,158.2138 L396.2129,149.2714 L401.82263,139.73923 L406.90356,131.9115 L411.5623,128.39435 L416.07767,134.78955 L419.13596,151.11304 L421.73517,178.21729 L424.1981,219.29636 L426.82895,280.64386 L429.1642,343.4083 L431.49948,398.30325 L433.82596,427.27618 L436.1524,422.69525 L438.21915,396.5805 L440.2853,361.11353 L442.39053,325.062 L445.02994,287.64096 L447.4208,262.81772 L449.81165,245.3129 L452.5348,231.85745 L456.3407,220.4017 L460.8814,212.91437 L465.42206,208.76407 L469.98306,206.2337 L474.863,204.43234 L480.63876,202.88037 L487.48648,201.36447 L496.05994,199.51431 L507.04807,196.71982 L518.2399,192.87415 L528.55444,187.92105 L538.65436,181.16498 L548.83093,171.68268 L556.6577,161.95087 L564.46155,149.57278 L571.62396,135.47021 L577.373,122.21762 L583.0946,107.858734 L588.26733,95.49246 L592.9761,88.354614 L597.4542,92.81668 L601.3611,118.117615 L604.1178,158.50061 L606.6705,220.34769 L609.28644,310.46973 L611.65533,406.18787 L614.02423,491.893 L616.50543,540 L618.8722,532.51746 L620.93195,492.88437 L622.99036,439.57776 L625.10266,385.19458 L627.7304,329.2867 L630.1249,292.0114 L632.5193,265.76065 L635.21497,245.79462 L638.97015,228.7673 L643.60944,217.28409 L648.2488,211.00641 L653.0866,207.10504 L658.2173,204.39908 L663.89215,202.21298 L670.79694,200.00311 L679.23096,197.37036 L689.4312,193.68155 L700.49866,188.4072 L710.9194,181.54721 L721.1172,172.25131 L731.4373,159.20184 L739.16315,146.24341 L746.88904,129.84372 L753.94214,111.38556 L759.6898,93.8389 L765.41095,74.81244 L770,60" fill="none" stroke="#008000" stroke-width="1"/>
</g>
<rect fill="white" height="74" stroke="#000000" stroke-width="1" width="135.20001" x="624.8" y="70"/>
<rect fill="#0000ff" height="14.400001" width="15" x="634.8" y="81.8"/>
<text dominant-baseline="middle" fill="#000000" font-family="Times New Roman" font-size="12" text-anchor="start" x="654.8" y="89">
Prey
</text>
<rect fill="#ff0000" height="14.400001" width="15" x="634.8" y="99.8"/>
<text dominant-baseline="middle" fill="#000000" font-family="Times New Roman" font-size="12" text-anchor="start" x="654.8" y="107">
Predator
</text>
<rect fill="#008000" height="14.400001" width="15" x="634.8" y="117.8"/>
<text dominant-baseline="middle" fill="#000000" font-family="Times New Roman" font-size="12" text-anchor="start" x="654.8" y="125">
d(Prey)/d(alpha)
</text>
</svg>