<svg height="600" viewBox="0 0 800 600" width="800" xmlns="http://www.w3.org/2000/svg">
<rect fill="white" height="600" width="800" x="0" y="0"/>
<text dominant-baseline="middle" fill="#000000" font-family="Times New Roman" font-size="20" text-anchor="middle" x="415" y="30">
Standard Brownian Motion
</text>
<text dominant-baseline="middle" fill="#000000" font-family="Times New Roman" font-size="14" text-anchor="middle" x="415" y="576">
Time (t)
</text>
<text dominant-baseline="middle" fill="#000000" font-family="Times New Roman" font-size="14" text-anchor="middle" transform="rotate(-90, 18, 300)" x="18" y="300">
Position (X)
</text>
<rect fill="none" height="480" stroke="#000000" stroke-width="1.5" width="710" x="60" y="60"/>
<line stroke="#000000" stroke-width="1" x1="60" x2="60" y1="540" y2="535"/>
<text dominant-baseline="hanging" fill="#000000" font-family="Times New Roman" font-size="10" text-anchor="middle" x="60" y="549">
0.0
</text>
<line stroke="#000000" stroke-width="1" x1="60" x2="60" y1="60" y2="65"/>
<line stroke="#c0c0c0" stroke-width="0.5" x1="131" x2="131" y1="60" y2="540"/>
<line stroke="#000000" stroke-width="1" x1="131" x2="131" y1="540" y2="535"/>
<text dominant-baseline="hanging" fill="#000000" font-family="Times New Roman" font-size="10" text-anchor="middle" x="131" y="549">
0.5
</text>
<line stroke="#000000" stroke-width="1" x1="131" x2="131" y1="60" y2="65"/>
<line stroke="#c0c0c0" stroke-width="0.5" x1="202" x2="202" y1="60" y2="540"/>
<line stroke="#000000" stroke-width="1" x1="202" x2="202" y1="540" y2="535"/>
<text dominant-baseline="hanging" fill="#000000" font-family="Times New Roman" font-size="10" text-anchor="middle" x="202" y="549">
1.0
</text>
<line stroke="#000000" stroke-width="1" x1="202" x2="202" y1="60" y2="65"/>
<line stroke="#c0c0c0" stroke-width="0.5" x1="273" x2="273" y1="60" y2="540"/>
<line stroke="#000000" stroke-width="1" x1="273" x2="273" y1="540" y2="535"/>
<text dominant-baseline="hanging" fill="#000000" font-family="Times New Roman" font-size="10" text-anchor="middle" x="273" y="549">
1.5
</text>
<line stroke="#000000" stroke-width="1" x1="273" x2="273" y1="60" y2="65"/>
<line stroke="#c0c0c0" stroke-width="0.5" x1="344" x2="344" y1="60" y2="540"/>
<line stroke="#000000" stroke-width="1" x1="344" x2="344" y1="540" y2="535"/>
<text dominant-baseline="hanging" fill="#000000" font-family="Times New Roman" font-size="10" text-anchor="middle" x="344" y="549">
2.0
</text>
<line stroke="#000000" stroke-width="1" x1="344" x2="344" y1="60" y2="65"/>
<line stroke="#c0c0c0" stroke-width="0.5" x1="415" x2="415" y1="60" y2="540"/>
<line stroke="#000000" stroke-width="1" x1="415" x2="415" y1="540" y2="535"/>
<text dominant-baseline="hanging" fill="#000000" font-family="Times New Roman" font-size="10" text-anchor="middle" x="415" y="549">
2.5
</text>
<line stroke="#000000" stroke-width="1" x1="415" x2="415" y1="60" y2="65"/>
<line stroke="#c0c0c0" stroke-width="0.5" x1="486.00003" x2="486.00003" y1="60" y2="540"/>
<line stroke="#000000" stroke-width="1" x1="486.00003" x2="486.00003" y1="540" y2="535"/>
<text dominant-baseline="hanging" fill="#000000" font-family="Times New Roman" font-size="10" text-anchor="middle" x="486.00003" y="549">
3.0
</text>
<line stroke="#000000" stroke-width="1" x1="486.00003" x2="486.00003" y1="60" y2="65"/>
<line stroke="#c0c0c0" stroke-width="0.5" x1="557" x2="557" y1="60" y2="540"/>
<line stroke="#000000" stroke-width="1" x1="557" x2="557" y1="540" y2="535"/>
<text dominant-baseline="hanging" fill="#000000" font-family="Times New Roman" font-size="10" text-anchor="middle" x="557" y="549">
3.5
</text>
<line stroke="#000000" stroke-width="1" x1="557" x2="557" y1="60" y2="65"/>
<line stroke="#c0c0c0" stroke-width="0.5" x1="628" x2="628" y1="60" y2="540"/>
<line stroke="#000000" stroke-width="1" x1="628" x2="628" y1="540" y2="535"/>
<text dominant-baseline="hanging" fill="#000000" font-family="Times New Roman" font-size="10" text-anchor="middle" x="628" y="549">
4.0
</text>
<line stroke="#000000" stroke-width="1" x1="628" x2="628" y1="60" y2="65"/>
<line stroke="#c0c0c0" stroke-width="0.5" x1="699" x2="699" y1="60" y2="540"/>
<line stroke="#000000" stroke-width="1" x1="699" x2="699" y1="540" y2="535"/>
<text dominant-baseline="hanging" fill="#000000" font-family="Times New Roman" font-size="10" text-anchor="middle" x="699" y="549">
4.5
</text>
<line stroke="#000000" stroke-width="1" x1="699" x2="699" y1="60" y2="65"/>
<line stroke="#000000" stroke-width="1" x1="770" x2="770" y1="540" y2="535"/>
<text dominant-baseline="hanging" fill="#000000" font-family="Times New Roman" font-size="10" text-anchor="middle" x="770" y="549">
5.0
</text>
<line stroke="#000000" stroke-width="1" x1="770" x2="770" y1="60" y2="65"/>
<line stroke="#000000" stroke-width="1" x1="60" x2="65" y1="540" y2="540"/>
<line stroke="#000000" stroke-width="1" x1="770" x2="765" y1="540" y2="540"/>
<text dominant-baseline="middle" fill="#000000" font-family="Times New Roman" font-size="10" text-anchor="end" x="52" y="540">
0.0
</text>
<line stroke="#c0c0c0" stroke-width="0.5" x1="60" x2="770" y1="471.42856" y2="471.42856"/>
<line stroke="#000000" stroke-width="1" x1="60" x2="65" y1="471.42856" y2="471.42856"/>
<line stroke="#000000" stroke-width="1" x1="770" x2="765" y1="471.42856" y2="471.42856"/>
<text dominant-baseline="middle" fill="#000000" font-family="Times New Roman" font-size="10" text-anchor="end" x="52" y="471.42856">
0.2
</text>
<line stroke="#c0c0c0" stroke-width="0.5" x1="60" x2="770" y1="402.85712" y2="402.85712"/>
<line stroke="#000000" stroke-width="1" x1="60" x2="65" y1="402.85712" y2="402.85712"/>
<line stroke="#000000" stroke-width="1" x1="770" x2="765" y1="402.85712" y2="402.85712"/>
<text dominant-baseline="middle" fill="#000000" font-family="Times New Roman" font-size="10" text-anchor="end" x="52" y="402.85712">
0.4
</text>
<line stroke="#c0c0c0" stroke-width="0.5" x1="60" x2="770" y1="334.2857" y2="334.2857"/>
<line stroke="#000000" stroke-width="1" x1="60" x2="65" y1="334.2857" y2="334.2857"/>
<line stroke="#000000" stroke-width="1" x1="770" x2="765" y1="334.2857" y2="334.2857"/>
<text dominant-baseline="middle" fill="#000000" font-family="Times New Roman" font-size="10" text-anchor="end" x="52" y="334.2857">
0.6
</text>
<line stroke="#c0c0c0" stroke-width="0.5" x1="60" x2="770" y1="265.71426" y2="265.71426"/>
<line stroke="#000000" stroke-width="1" x1="60" x2="65" y1="265.71426" y2="265.71426"/>
<line stroke="#000000" stroke-width="1" x1="770" x2="765" y1="265.71426" y2="265.71426"/>
<text dominant-baseline="middle" fill="#000000" font-family="Times New Roman" font-size="10" text-anchor="end" x="52" y="265.71426">
0.8
</text>
<line stroke="#c0c0c0" stroke-width="0.5" x1="60" x2="770" y1="197.14285" y2="197.14285"/>
<line stroke="#000000" stroke-width="1" x1="60" x2="65" y1="197.14285" y2="197.14285"/>
<line stroke="#000000" stroke-width="1" x1="770" x2="765" y1="197.14285" y2="197.14285"/>
<text dominant-baseline="middle" fill="#000000" font-family="Times New Roman" font-size="10" text-anchor="end" x="52" y="197.14285">
1.0
</text>
<line stroke="#c0c0c0" stroke-width="0.5" x1="60" x2="770" y1="128.57141" y2="128.57141"/>
<line stroke="#000000" stroke-width="1" x1="60" x2="65" y1="128.57141" y2="128.57141"/>
<line stroke="#000000" stroke-width="1" x1="770" x2="765" y1="128.57141" y2="128.57141"/>
<text dominant-baseline="middle" fill="#000000" font-family="Times New Roman" font-size="10" text-anchor="end" x="52" y="128.57141">
1.2
</text>
<line stroke="#000000" stroke-width="1" x1="60" x2="65" y1="59.99994" y2="59.99994"/>
<line stroke="#000000" stroke-width="1" x1="770" x2="765" y1="59.99994" y2="59.99994"/>
<text dominant-baseline="middle" fill="#000000" font-family="Times New Roman" font-size="10" text-anchor="end" x="52" y="59.99994">
1.4
</text>
<defs>
<clipPath id="plotAreaClip">
<rect height="480" width="710" x="60" y="60"/>
</clipPath>
</defs>
<g clip-path="url(#plotAreaClip)">
<path d="M60,197.14285 L61.42,195.95267 L62.84,193.67374 L64.26,189.17242 L65.68,193.0347 L67.1,204.42142 L68.520004,208.11383 L69.94,204.78943 L71.36,179.47943 L72.78,201.93726 L74.2,243.26675 L75.62,211.9495 L77.04,211.33084 L78.46,218.34204 L79.880005,229.2095 L81.3,228.91321 L82.72,242.68372 L84.14,259.71677 L85.56,259.33096 L86.979996,271.39825 L88.4,259.29214 L89.82,246.2089 L91.24,246.37778 L92.66,246.15775 L94.08,281.34155 L95.5,290.97736 L96.92,294.33966 L98.34,284.9761 L99.76,295.81097 L101.18,297.83658 L102.600006,292.8272 L104.020004,294.94943 L105.44,285.78873 L106.86,267.5667 L108.28,232.96591 L109.7,228.14151 L111.12,248.78027 L112.54,245.69308 L113.96,249.3808 L115.38,274.78104 L116.8,279.34113 L118.22,259.9571 L119.64,250.26147 L121.06,252.52649 L122.479996,282.90582 L123.899994,308.21246 L125.32,315.27295 L126.74,315.7032 L128.16,301.82257 L129.58,273.9892 L131,271.9586 L132.42,261.1186 L133.84,248.28458 L135.26,241.52097 L136.68,255.72495 L138.1,258.67822 L139.52,264.77512 L140.94,280.72812 L142.36,301.8841 L143.78,294.89972 L145.20001,296.29877 L146.62,277.46857 L148.04001,300.17126 L149.45999,302.9138 L150.88,301.626 L152.29999,317.8789 L153.72,332.63025 L155.14,352.09723 L156.56,350.16495 L157.98,340.34076 L159.4,356.6745 L160.81999,357.84845 L162.24,354.89606 L163.66,326.82758 L165.08,322.1585 L166.5,322.9724 L167.92,324.9436 L169.34,301.09863 L170.76,319.841 L172.18001,320.276 L173.6,305.97668 L175.01999,315.06815 L176.44,325.85504 L177.85999,336.93314 L179.28,321.10764 L180.70001,302.5396 L182.12,299.7542 L183.54,323.27582 L184.95999,329.40598 L186.38,322.49304 L187.79999,314.62738 L189.22,321.17957 L190.64,288.8132 L192.06,282.90228 L193.48,273.7433 L194.9,257.67065 L196.32,268.07428 L197.74,286.71423 L199.16,257.69254 L200.58,240.7862 L202,248.70914 L203.42,255.6388 L204.84,273.4813 L206.26,247.42307 L207.68,229.35242 L209.09999,232.34528 L210.51999,257.9027 L211.94002,222.24881 L213.36,243.6416 L214.78001,248.00629 L216.2,250.71585 L217.62,241.49716 L219.04001,236.13693 L220.45999,253.01581 L221.88,246.99997 L223.29999,250.14029 L224.72,230.2229 L226.14,228.66693 L227.56,215.26324 L228.98001,243.14789 L230.40001,208.30716 L231.82,226.53033 L233.24,194.46997 L234.66,168.60394 L236.08,188.49261 L237.5,149.86032 L238.92,131.78671 L240.34001,136.77939 L241.76,137.63513 L243.18,156.88437 L244.59999,148.68018 L246.01999,145.51712 L247.44,158.89804 L248.86,166.04022 L250.28,167.39194 L251.70001,134.05786 L253.12001,159.08798 L254.54,168.86642 L255.95999,206.01575 L257.38,205.33902 L258.8,235.56546 L260.22,248.69229 L261.63998,237.40372 L263.06,247.6529 L264.48,260.02652 L265.90002,280.83853 L267.32,270.98273 L268.74,273.70853 L270.16,280.32648 L271.58002,275.9524 L273,270.65134 L274.41998,274.73743 L275.84,264.1326 L277.26,264.5778 L278.68,273.00208 L280.1,303.3711 L281.52,298.22815 L282.94,317.25873 L284.36002,315.80292 L285.78003,303.8545 L287.2,266.42786 L288.62,268.106 L290.03998,271.31155 L291.46002,297.86465 L292.88,285.89084 L294.3,297.6623 L295.71997,341.53888 L297.14,324.51392 L298.56,332.6404 L299.97998,352.50134 L301.40002,368.29303 L302.82,346.4655 L304.24,324.30255 L305.66,326.04703 L307.08,331.12546 L308.5,307.79105 L309.91998,302.24567 L311.34,302.24094 L312.76,319.01508 L314.18,319.19214 L315.59998,304.52048 L317.02,292.6521 L318.44,291.00906 L319.86,273.8501 L321.28,294.4754 L322.7,320.46503 L324.12,359.04974 L325.54,349.97266 L326.96,360.29492 L328.38,347.45355 L329.8,354.1635 L331.22,345.91473 L332.64,330.86212 L334.06,310.13672 L335.48,303.32 L336.90002,286.25693 L338.32,280.07294 L339.74,295.53455 L341.16,322.9568 L342.58,314.96326 L344,294.88766 L345.42,312.891 L346.84,314.5088 L348.25998,316.27258 L349.68,303.0832 L351.1,295.00598 L352.52,304.10834 L353.93997,312.30743 L355.36,349.8286 L356.78,346.54602 L358.19998,331.742 L359.62,328.04584 L361.03998,337.8474 L362.46002,307.18475 L363.88004,290.45743 L365.30002,280.2758 L366.72,286.3955 L368.14,310.43604 L369.56003,335.97522 L370.98,313.66095 L372.4,297.602 L373.82,292.226 L375.24,278.2913 L376.66,248.04596 L378.08002,262.48065 L379.5,260.3692 L380.91998,244.06018 L382.34,255.06903 L383.76,260.01288 L385.18,267.73486 L386.59998,264.1173 L388.02,268.1944 L389.44,279.28635 L390.86,278.19055 L392.28,304.39215 L393.69998,302.81726 L395.12,299.87045 L396.53998,306.31094 L397.96002,283.3785 L399.38,281.65344 L400.80002,271.47626 L402.22,273.45074 L403.64,263.40186 L405.06,241.81894 L406.48,245.0072 L407.9,241.65704 L409.32,232.00275 L410.74002,195.96045 L412.16,218.6294 L413.58,237.74084 L415,255.39435 L416.41998,265.1524 L417.84,258.29468 L419.25998,240.80151 L420.68002,215.60956 L422.1,226.23013 L423.52,236.50671 L424.94,237.18036 L426.36,231.9974 L427.78,243.42258 L429.19998,225.94946 L430.61996,260.58572 L432.03998,246.1325 L433.46002,248.10645 L434.88,257.83496 L436.30002,225.5776 L437.72,202.15628 L439.14,218.25476 L440.56,194.45422 L441.97998,213.92514 L443.40002,225.03006 L444.82,213.18658 L446.24002,193.23813 L447.66,220.45157 L449.08,234.35577 L450.5,235.0722 L451.91998,225.08481 L453.34003,217.12201 L454.76,230.78506 L456.18,228.92984 L457.6,212.10272 L459.02,194.2374 L460.44,181.41742 L461.86,158.2728 L463.27997,167.18576 L464.69998,153.38263 L466.11996,188.1206 L467.54,201.07584 L468.96002,207.36368 L470.38,223.64651 L471.80002,213.08224 L473.22,186.82654 L474.63998,235.90237 L476.06003,227.90582 L477.48,216.45776 L478.90002,219.86621 L480.32,185.76819 L481.74,199.094 L483.16,196.99448 L484.58,186.7749 L486.00003,174.92566 L487.42,172.84723 L488.83997,180.46185 L490.26,182.42343 L491.68,177.30548 L493.1,161.18854 L494.52,161.00659 L495.93997,142.98395 L497.36,156.58588 L498.77997,118.673676 L500.2,116.99701 L501.62,119.48123 L503.03998,124.86301 L504.46002,107.61304 L505.88,101.58035 L507.3,144.92886 L508.72003,141.9061 L510.14,152.69534 L511.56003,156.20071 L512.98,180.66809 L514.4,220.23944 L515.82,231.81479 L517.24,236.80939 L518.66003,239.31287 L520.07996,237.61832 L521.5,237.43018 L522.92004,234.17548 L524.33997,205.12976 L525.76,194.77087 L527.18,169.54922 L528.6,148.18277 L530.02,130.20264 L531.43994,107.436066 L532.86,138.42828 L534.28,153.53906 L535.69995,123.61084 L537.12,123.942505 L538.54,153.9451 L539.95996,156.43 L541.38,150.96155 L542.80005,192.51294 L544.22003,202.45172 L545.64,209.46591 L547.06,228.28574 L548.48,233.01361 L549.9,211.1531 L551.32,216.3815 L552.74,242.05899 L554.16,237.23737 L555.58,239.85565 L557,256.00827 L558.42004,274.3559 L559.83997,279.96378 L561.26,246.10251 L562.68,254.87799 L564.1,235.40295 L565.52,247.94836 L566.94,260.4773 L568.36,252.50842 L569.78,279.01184 L571.19995,234.33664 L572.62,252.17679 L574.04,252.20062 L575.46,264.34964 L576.88,268.12503 L578.3,230.1774 L579.72,253.74496 L581.14,274.35577 L582.56,291.32092 L583.98004,269.34537 L585.4,293.78552 L586.82,282.58167 L588.24,286.7747 L589.66,259.94336 L591.08,252.63489 L592.5,259.29852 L593.92,258.70065 L595.34,275.11447 L596.76,279.5086 L598.18,317.68988 L599.6,354.20343 L601.01996,352.88202 L602.44,336.1552 L603.86,316.78284 L605.28,315.15103 L606.7,283.93784 L608.12,292.34116 L609.54,309.7357 L610.96,279.99338 L612.38,310.1949 L613.80005,302.96072 L615.22003,305.44617 L616.64,281.54123 L618.06,299.48914 L619.48,295.85242 L620.9,302.4229 L622.32,307.7826 L623.74005,308.39014 L625.16,339.0974 L626.57996,316.04642 L628,310.4156 L629.42004,275.2475 L630.84,295.77896 L632.26,285.544 L633.68,283.5487 L635.10004,279.71994 L636.51996,289.51343 L637.94,258.18365 L639.36,265.4972 L640.78,261.52478 L642.2,262.4723 L643.62,261.06766 L645.04,288.93707 L646.46,294.262 L647.87994,263.34476 L649.30005,241.33783 L650.72,232.66513 L652.14,191.43665 L653.56,233.81628 L654.98,241.8898 L656.39996,256.29388 L657.82,236.63708 L659.24,235.05618 L660.66003,238.83774 L662.07996,282.90002 L663.5,261.9889 L664.92004,261.2933 L666.33997,271.9367 L667.7601,268.59998 L669.18,281.0269 L670.60004,276.83932 L672.02,274.36438 L673.44,282.79633 L674.86,272.3376 L676.28,247.10574 L677.7,242.94202 L679.12006,245.56729 L680.54,259.20813 L681.96,277.12805 L683.37994,280.63333 L684.8,285.2118 L686.22,299.77353 L687.64,325.2 L689.06,316.47083 L690.48,339.40158 L691.89996,355.00287 L693.32,345.52698 L694.7399,357.7193 L696.16003,317.75623 L697.57996,305.3297 L699,333.82114 L700.42004,341.34894 L701.83997,339.7043 L703.26,341.52185 L704.68,363.06964 L706.10004,378.94452 L707.52,371.6957 L708.94,369.36493 L710.36,394.8927 L711.78,425.49393 L713.19995,422.33908 L714.62006,426.3487 L716.04,430.50848 L717.46,398.58838 L718.88,422.8282 L720.3,439.77673 L721.72,442.45996 L723.14,423.69116 L724.56,405.40015 L725.98004,432.2368 L727.39996,449.99454 L728.82,447.1409 L730.24,460.30124 L731.66,448.4306 L733.07996,452.06677 L734.5,419.79437 L735.92004,382.01245 L737.34,359.88855 L738.76,387.8225 L740.18,398.5288 L741.60004,381.79373 L743.02,392.05225 L744.44,390.57465 L745.86,382.85352 L747.28,350.40793 L748.69995,335.2921 L750.12,336.24634 L751.54,336.55707 L752.96,342.4279 L754.38,345.04852 L755.8,363.47467 L757.22,364.31525 L758.64,337.633 L760.05994,349.87714 L761.48004,382.33698 L762.89996,385.39804 L764.32,384.6944 L765.74,387.17352 L767.16,358.30603 L768.57996,358.68506 L770,386.08728 L770,386.08728" fill="none" stroke="#0000ff" stroke-width="1"/>
</g>
</svg>