<svg height="600" viewBox="0 0 800 600" width="800" xmlns="http://www.w3.org/2000/svg">
<rect fill="white" height="600" width="800" x="0" y="0"/>
<text dominant-baseline="middle" fill="#000000" font-family="Times New Roman" font-size="20" text-anchor="middle" x="415" y="30">
Incompressible Velocity by Projection Method
</text>
<text dominant-baseline="middle" fill="#000000" font-family="Times New Roman" font-size="14" text-anchor="middle" x="415" y="576">
Position x at y = 0.5
</text>
<text dominant-baseline="middle" fill="#000000" font-family="Times New Roman" font-size="14" text-anchor="middle" transform="rotate(-90, 18, 300)" x="18" y="300">
v velocity
</text>
<rect fill="none" height="480" stroke="#000000" stroke-width="1.5" width="710" x="60" y="60"/>
<line stroke="#000000" stroke-width="1" x1="60" x2="60" y1="540" y2="535"/>
<text dominant-baseline="hanging" fill="#000000" font-family="Times New Roman" font-size="10" text-anchor="middle" x="60" y="549">
0.0
</text>
<line stroke="#000000" stroke-width="1" x1="60" x2="60" y1="60" y2="65"/>
<line stroke="#c0c0c0" stroke-width="0.5" x1="131" x2="131" y1="60" y2="540"/>
<line stroke="#000000" stroke-width="1" x1="131" x2="131" y1="540" y2="535"/>
<text dominant-baseline="hanging" fill="#000000" font-family="Times New Roman" font-size="10" text-anchor="middle" x="131" y="549">
0.1
</text>
<line stroke="#000000" stroke-width="1" x1="131" x2="131" y1="60" y2="65"/>
<line stroke="#c0c0c0" stroke-width="0.5" x1="201.99998" x2="201.99998" y1="60" y2="540"/>
<line stroke="#000000" stroke-width="1" x1="201.99998" x2="201.99998" y1="540" y2="535"/>
<text dominant-baseline="hanging" fill="#000000" font-family="Times New Roman" font-size="10" text-anchor="middle" x="201.99998" y="549">
0.2
</text>
<line stroke="#000000" stroke-width="1" x1="201.99998" x2="201.99998" y1="60" y2="65"/>
<line stroke="#c0c0c0" stroke-width="0.5" x1="273" x2="273" y1="60" y2="540"/>
<line stroke="#000000" stroke-width="1" x1="273" x2="273" y1="540" y2="535"/>
<text dominant-baseline="hanging" fill="#000000" font-family="Times New Roman" font-size="10" text-anchor="middle" x="273" y="549">
0.3
</text>
<line stroke="#000000" stroke-width="1" x1="273" x2="273" y1="60" y2="65"/>
<line stroke="#c0c0c0" stroke-width="0.5" x1="343.99997" x2="343.99997" y1="60" y2="540"/>
<line stroke="#000000" stroke-width="1" x1="343.99997" x2="343.99997" y1="540" y2="535"/>
<text dominant-baseline="hanging" fill="#000000" font-family="Times New Roman" font-size="10" text-anchor="middle" x="343.99997" y="549">
0.4
</text>
<line stroke="#000000" stroke-width="1" x1="343.99997" x2="343.99997" y1="60" y2="65"/>
<line stroke="#c0c0c0" stroke-width="0.5" x1="414.99997" x2="414.99997" y1="60" y2="540"/>
<line stroke="#000000" stroke-width="1" x1="414.99997" x2="414.99997" y1="540" y2="535"/>
<text dominant-baseline="hanging" fill="#000000" font-family="Times New Roman" font-size="10" text-anchor="middle" x="414.99997" y="549">
0.5
</text>
<line stroke="#000000" stroke-width="1" x1="414.99997" x2="414.99997" y1="60" y2="65"/>
<line stroke="#c0c0c0" stroke-width="0.5" x1="485.99997" x2="485.99997" y1="60" y2="540"/>
<line stroke="#000000" stroke-width="1" x1="485.99997" x2="485.99997" y1="540" y2="535"/>
<text dominant-baseline="hanging" fill="#000000" font-family="Times New Roman" font-size="10" text-anchor="middle" x="485.99997" y="549">
0.6
</text>
<line stroke="#000000" stroke-width="1" x1="485.99997" x2="485.99997" y1="60" y2="65"/>
<line stroke="#c0c0c0" stroke-width="0.5" x1="556.99994" x2="556.99994" y1="60" y2="540"/>
<line stroke="#000000" stroke-width="1" x1="556.99994" x2="556.99994" y1="540" y2="535"/>
<text dominant-baseline="hanging" fill="#000000" font-family="Times New Roman" font-size="10" text-anchor="middle" x="556.99994" y="549">
0.7
</text>
<line stroke="#000000" stroke-width="1" x1="556.99994" x2="556.99994" y1="60" y2="65"/>
<line stroke="#c0c0c0" stroke-width="0.5" x1="627.99994" x2="627.99994" y1="60" y2="540"/>
<line stroke="#000000" stroke-width="1" x1="627.99994" x2="627.99994" y1="540" y2="535"/>
<text dominant-baseline="hanging" fill="#000000" font-family="Times New Roman" font-size="10" text-anchor="middle" x="627.99994" y="549">
0.8
</text>
<line stroke="#000000" stroke-width="1" x1="627.99994" x2="627.99994" y1="60" y2="65"/>
<line stroke="#c0c0c0" stroke-width="0.5" x1="699" x2="699" y1="60" y2="540"/>
<line stroke="#000000" stroke-width="1" x1="699" x2="699" y1="540" y2="535"/>
<text dominant-baseline="hanging" fill="#000000" font-family="Times New Roman" font-size="10" text-anchor="middle" x="699" y="549">
0.9
</text>
<line stroke="#000000" stroke-width="1" x1="699" x2="699" y1="60" y2="65"/>
<line stroke="#000000" stroke-width="1" x1="770" x2="770" y1="540" y2="535"/>
<text dominant-baseline="hanging" fill="#000000" font-family="Times New Roman" font-size="10" text-anchor="middle" x="770" y="549">
1.0
</text>
<line stroke="#000000" stroke-width="1" x1="770" x2="770" y1="60" y2="65"/>
<text dominant-baseline="text-after-edge" fill="#000000" font-family="Times New Roman" font-size="10" text-anchor="start" x="63" y="57">
·10
<tspan dx="-0.2em" dy="-0.4em">
-3
</tspan>
</text>
<line stroke="#c0c0c0" stroke-width="0.5" x1="60" x2="770" y1="497.6721" y2="497.6721"/>
<line stroke="#000000" stroke-width="1" x1="60" x2="65" y1="497.6721" y2="497.6721"/>
<line stroke="#000000" stroke-width="1" x1="770" x2="765" y1="497.6721" y2="497.6721"/>
<text dominant-baseline="middle" fill="#000000" font-family="Times New Roman" font-size="10" text-anchor="end" x="52" y="497.6721">
-800.0
</text>
<line stroke="#c0c0c0" stroke-width="0.5" x1="60" x2="770" y1="448.25406" y2="448.25406"/>
<line stroke="#000000" stroke-width="1" x1="60" x2="65" y1="448.25406" y2="448.25406"/>
<line stroke="#000000" stroke-width="1" x1="770" x2="765" y1="448.25406" y2="448.25406"/>
<text dominant-baseline="middle" fill="#000000" font-family="Times New Roman" font-size="10" text-anchor="end" x="52" y="448.25406">
-600.0
</text>
<line stroke="#c0c0c0" stroke-width="0.5" x1="60" x2="770" y1="398.83606" y2="398.83606"/>
<line stroke="#000000" stroke-width="1" x1="60" x2="65" y1="398.83606" y2="398.83606"/>
<line stroke="#000000" stroke-width="1" x1="770" x2="765" y1="398.83606" y2="398.83606"/>
<text dominant-baseline="middle" fill="#000000" font-family="Times New Roman" font-size="10" text-anchor="end" x="52" y="398.83606">
-400.0
</text>
<line stroke="#c0c0c0" stroke-width="0.5" x1="60" x2="770" y1="349.41803" y2="349.41803"/>
<line stroke="#000000" stroke-width="1" x1="60" x2="65" y1="349.41803" y2="349.41803"/>
<line stroke="#000000" stroke-width="1" x1="770" x2="765" y1="349.41803" y2="349.41803"/>
<text dominant-baseline="middle" fill="#000000" font-family="Times New Roman" font-size="10" text-anchor="end" x="52" y="349.41803">
-200.0
</text>
<line stroke="#c0c0c0" stroke-width="0.5" x1="60" x2="770" y1="300" y2="300"/>
<line stroke="#000000" stroke-width="1" x1="60" x2="65" y1="300" y2="300"/>
<line stroke="#000000" stroke-width="1" x1="770" x2="765" y1="300" y2="300"/>
<text dominant-baseline="middle" fill="#000000" font-family="Times New Roman" font-size="10" text-anchor="end" x="52" y="300">
-0.0
</text>
<line stroke="#c0c0c0" stroke-width="0.5" x1="60" x2="770" y1="250.582" y2="250.582"/>
<line stroke="#000000" stroke-width="1" x1="60" x2="65" y1="250.582" y2="250.582"/>
<line stroke="#000000" stroke-width="1" x1="770" x2="765" y1="250.582" y2="250.582"/>
<text dominant-baseline="middle" fill="#000000" font-family="Times New Roman" font-size="10" text-anchor="end" x="52" y="250.582">
200.0
</text>
<line stroke="#c0c0c0" stroke-width="0.5" x1="60" x2="770" y1="201.16397" y2="201.16397"/>
<line stroke="#000000" stroke-width="1" x1="60" x2="65" y1="201.16397" y2="201.16397"/>
<line stroke="#000000" stroke-width="1" x1="770" x2="765" y1="201.16397" y2="201.16397"/>
<text dominant-baseline="middle" fill="#000000" font-family="Times New Roman" font-size="10" text-anchor="end" x="52" y="201.16397">
400.0
</text>
<line stroke="#c0c0c0" stroke-width="0.5" x1="60" x2="770" y1="151.74597" y2="151.74597"/>
<line stroke="#000000" stroke-width="1" x1="60" x2="65" y1="151.74597" y2="151.74597"/>
<line stroke="#000000" stroke-width="1" x1="770" x2="765" y1="151.74597" y2="151.74597"/>
<text dominant-baseline="middle" fill="#000000" font-family="Times New Roman" font-size="10" text-anchor="end" x="52" y="151.74597">
600.0
</text>
<line stroke="#c0c0c0" stroke-width="0.5" x1="60" x2="770" y1="102.32791" y2="102.32791"/>
<line stroke="#000000" stroke-width="1" x1="60" x2="65" y1="102.32791" y2="102.32791"/>
<line stroke="#000000" stroke-width="1" x1="770" x2="765" y1="102.32791" y2="102.32791"/>
<text dominant-baseline="middle" fill="#000000" font-family="Times New Roman" font-size="10" text-anchor="end" x="52" y="102.32791">
800.0
</text>
<defs>
<clipPath id="plotAreaClip">
<rect height="480" width="710" x="60" y="60"/>
</clipPath>
</defs>
<g clip-path="url(#plotAreaClip)">
<path d="M60,300 L95.5,374.39722 L131,441.2554 L166.5,494.2651 L202,528.2933 L237.5,540 L273,528.23145 L308.5,494.13422 L344,441.0421 L379.5,374.14893 L415,300 L450.5,225.85107 L486.00003,158.95789 L521.5,105.86578 L557,71.768555 L592.5,60 L628,71.70676 L663.5,105.73489 L699,158.74457 L734.5,225.60275 L770,300" fill="none" stroke="#0000ff" stroke-width="1"/>
</g>
<rect fill="white" height="38" stroke="#000000" stroke-width="1" width="106.4" x="653.6" y="70"/>
<rect fill="#0000ff" height="14.400001" width="15" x="663.6" y="81.8"/>
<text dominant-baseline="middle" fill="#000000" font-family="Times New Roman" font-size="12" text-anchor="start" x="683.6" y="89">
v centerline
</text>
</svg>