<svg height="600" viewBox="0 0 800 600" width="800" xmlns="http://www.w3.org/2000/svg">
<rect fill="white" height="600" width="800" x="0" y="0"/>
<text dominant-baseline="middle" fill="#000000" font-family="Times New Roman" font-size="20" text-anchor="middle" x="415" y="30">
Mackey-Glass Delay Differential Equation
</text>
<text dominant-baseline="middle" fill="#000000" font-family="Times New Roman" font-size="14" text-anchor="middle" x="415" y="576">
Time (t)
</text>
<text dominant-baseline="middle" fill="#000000" font-family="Times New Roman" font-size="14" text-anchor="middle" transform="rotate(-90, 18, 300)" x="18" y="300">
y(t)
</text>
<rect fill="none" height="480" stroke="#000000" stroke-width="1.5" width="710" x="60" y="60"/>
<line stroke="#000000" stroke-width="1" x1="60" x2="60" y1="540" y2="535"/>
<text dominant-baseline="hanging" fill="#000000" font-family="Times New Roman" font-size="10" text-anchor="middle" x="60" y="549">
0.0
</text>
<line stroke="#000000" stroke-width="1" x1="60" x2="60" y1="60" y2="65"/>
<line stroke="#c0c0c0" stroke-width="0.5" x1="131" x2="131" y1="60" y2="540"/>
<line stroke="#000000" stroke-width="1" x1="131" x2="131" y1="540" y2="535"/>
<text dominant-baseline="hanging" fill="#000000" font-family="Times New Roman" font-size="10" text-anchor="middle" x="131" y="549">
20.0
</text>
<line stroke="#000000" stroke-width="1" x1="131" x2="131" y1="60" y2="65"/>
<line stroke="#c0c0c0" stroke-width="0.5" x1="202" x2="202" y1="60" y2="540"/>
<line stroke="#000000" stroke-width="1" x1="202" x2="202" y1="540" y2="535"/>
<text dominant-baseline="hanging" fill="#000000" font-family="Times New Roman" font-size="10" text-anchor="middle" x="202" y="549">
40.0
</text>
<line stroke="#000000" stroke-width="1" x1="202" x2="202" y1="60" y2="65"/>
<line stroke="#c0c0c0" stroke-width="0.5" x1="273" x2="273" y1="60" y2="540"/>
<line stroke="#000000" stroke-width="1" x1="273" x2="273" y1="540" y2="535"/>
<text dominant-baseline="hanging" fill="#000000" font-family="Times New Roman" font-size="10" text-anchor="middle" x="273" y="549">
60.0
</text>
<line stroke="#000000" stroke-width="1" x1="273" x2="273" y1="60" y2="65"/>
<line stroke="#c0c0c0" stroke-width="0.5" x1="344" x2="344" y1="60" y2="540"/>
<line stroke="#000000" stroke-width="1" x1="344" x2="344" y1="540" y2="535"/>
<text dominant-baseline="hanging" fill="#000000" font-family="Times New Roman" font-size="10" text-anchor="middle" x="344" y="549">
80.0
</text>
<line stroke="#000000" stroke-width="1" x1="344" x2="344" y1="60" y2="65"/>
<line stroke="#c0c0c0" stroke-width="0.5" x1="415" x2="415" y1="60" y2="540"/>
<line stroke="#000000" stroke-width="1" x1="415" x2="415" y1="540" y2="535"/>
<text dominant-baseline="hanging" fill="#000000" font-family="Times New Roman" font-size="10" text-anchor="middle" x="415" y="549">
100.0
</text>
<line stroke="#000000" stroke-width="1" x1="415" x2="415" y1="60" y2="65"/>
<line stroke="#c0c0c0" stroke-width="0.5" x1="486.00003" x2="486.00003" y1="60" y2="540"/>
<line stroke="#000000" stroke-width="1" x1="486.00003" x2="486.00003" y1="540" y2="535"/>
<text dominant-baseline="hanging" fill="#000000" font-family="Times New Roman" font-size="10" text-anchor="middle" x="486.00003" y="549">
120.0
</text>
<line stroke="#000000" stroke-width="1" x1="486.00003" x2="486.00003" y1="60" y2="65"/>
<line stroke="#c0c0c0" stroke-width="0.5" x1="557" x2="557" y1="60" y2="540"/>
<line stroke="#000000" stroke-width="1" x1="557" x2="557" y1="540" y2="535"/>
<text dominant-baseline="hanging" fill="#000000" font-family="Times New Roman" font-size="10" text-anchor="middle" x="557" y="549">
140.0
</text>
<line stroke="#000000" stroke-width="1" x1="557" x2="557" y1="60" y2="65"/>
<line stroke="#c0c0c0" stroke-width="0.5" x1="628" x2="628" y1="60" y2="540"/>
<line stroke="#000000" stroke-width="1" x1="628" x2="628" y1="540" y2="535"/>
<text dominant-baseline="hanging" fill="#000000" font-family="Times New Roman" font-size="10" text-anchor="middle" x="628" y="549">
160.0
</text>
<line stroke="#000000" stroke-width="1" x1="628" x2="628" y1="60" y2="65"/>
<line stroke="#c0c0c0" stroke-width="0.5" x1="699" x2="699" y1="60" y2="540"/>
<line stroke="#000000" stroke-width="1" x1="699" x2="699" y1="540" y2="535"/>
<text dominant-baseline="hanging" fill="#000000" font-family="Times New Roman" font-size="10" text-anchor="middle" x="699" y="549">
180.0
</text>
<line stroke="#000000" stroke-width="1" x1="699" x2="699" y1="60" y2="65"/>
<line stroke="#000000" stroke-width="1" x1="770" x2="770" y1="540" y2="535"/>
<text dominant-baseline="hanging" fill="#000000" font-family="Times New Roman" font-size="10" text-anchor="middle" x="770" y="549">
200.0
</text>
<line stroke="#000000" stroke-width="1" x1="770" x2="770" y1="60" y2="65"/>
<line stroke="#c0c0c0" stroke-width="0.5" x1="60" x2="770" y1="500.2085" y2="500.2085"/>
<line stroke="#000000" stroke-width="1" x1="60" x2="65" y1="500.2085" y2="500.2085"/>
<line stroke="#000000" stroke-width="1" x1="770" x2="765" y1="500.2085" y2="500.2085"/>
<text dominant-baseline="middle" fill="#000000" font-family="Times New Roman" font-size="10" text-anchor="end" x="52" y="500.2085">
0.2
</text>
<line stroke="#c0c0c0" stroke-width="0.5" x1="60" x2="770" y1="420.62546" y2="420.62546"/>
<line stroke="#000000" stroke-width="1" x1="60" x2="65" y1="420.62546" y2="420.62546"/>
<line stroke="#000000" stroke-width="1" x1="770" x2="765" y1="420.62546" y2="420.62546"/>
<text dominant-baseline="middle" fill="#000000" font-family="Times New Roman" font-size="10" text-anchor="end" x="52" y="420.62546">
0.4
</text>
<line stroke="#c0c0c0" stroke-width="0.5" x1="60" x2="770" y1="341.04242" y2="341.04242"/>
<line stroke="#000000" stroke-width="1" x1="60" x2="65" y1="341.04242" y2="341.04242"/>
<line stroke="#000000" stroke-width="1" x1="770" x2="765" y1="341.04242" y2="341.04242"/>
<text dominant-baseline="middle" fill="#000000" font-family="Times New Roman" font-size="10" text-anchor="end" x="52" y="341.04242">
0.6
</text>
<line stroke="#c0c0c0" stroke-width="0.5" x1="60" x2="770" y1="261.4594" y2="261.4594"/>
<line stroke="#000000" stroke-width="1" x1="60" x2="65" y1="261.4594" y2="261.4594"/>
<line stroke="#000000" stroke-width="1" x1="770" x2="765" y1="261.4594" y2="261.4594"/>
<text dominant-baseline="middle" fill="#000000" font-family="Times New Roman" font-size="10" text-anchor="end" x="52" y="261.4594">
0.8
</text>
<line stroke="#c0c0c0" stroke-width="0.5" x1="60" x2="770" y1="181.8764" y2="181.8764"/>
<line stroke="#000000" stroke-width="1" x1="60" x2="65" y1="181.8764" y2="181.8764"/>
<line stroke="#000000" stroke-width="1" x1="770" x2="765" y1="181.8764" y2="181.8764"/>
<text dominant-baseline="middle" fill="#000000" font-family="Times New Roman" font-size="10" text-anchor="end" x="52" y="181.8764">
1.0
</text>
<line stroke="#c0c0c0" stroke-width="0.5" x1="60" x2="770" y1="102.293365" y2="102.293365"/>
<line stroke="#000000" stroke-width="1" x1="60" x2="65" y1="102.293365" y2="102.293365"/>
<line stroke="#000000" stroke-width="1" x1="770" x2="765" y1="102.293365" y2="102.293365"/>
<text dominant-baseline="middle" fill="#000000" font-family="Times New Roman" font-size="10" text-anchor="end" x="52" y="102.293365">
1.2
</text>
<defs>
<clipPath id="plotAreaClip">
<rect height="480" width="710" x="60" y="60"/>
</clipPath>
</defs>
<g clip-path="url(#plotAreaClip)">
<path d="M60,540 L67.1,532.78705 L74.2,526.88153 L81.3,522.0465 L88.4,518.08795 L95.5,514.847 L102.6,512.1935 L109.7,510.02097 L116.8,508.24225 L123.9,506.78598 L131,505.59424 L138.1,503.22217 L145.2,498.91666 L152.29999,493.45734 L159.4,487.40656 L166.5,481.1542 L173.6,474.97186 L180.70001,469.0431 L187.8,463.47983 L194.9,458.35147 L202,453.67053 L209.09999,449.24792 L216.2,444.39136 L223.3,438.62143 L230.4,431.79398 L237.5,423.96527 L244.59999,415.28943 L251.70001,405.99014 L258.8,396.29352 L265.9,386.41492 L273,376.5673 L280.1,366.857 L287.2,357.21075 L294.3,347.40497 L301.40002,337.10242 L308.5,325.9934 L315.6,313.896 L322.7,300.7349 L329.8,286.52313 L336.9,271.35437 L344,255.3887 L351.1,238.81302 L358.19998,221.81567 L365.30002,204.50064 L372.4,186.87033 L379.5,168.85815 L386.6,150.41696 L393.7,131.63647 L400.8,112.834015 L407.9,94.718414 L415,78.55292 L422.1,66.206635 L429.19998,60 L436.3,62.235565 L443.40002,74.51285 L450.5,97.10773 L457.6,128.80298 L464.69998,167.17728 L471.8,209.37778 L478.9,252.33575 L486.00003,293.36353 L493.1,330.64908 L500.2,363.15305 L507.3,390.16638 L514.4,410.72137 L521.5,422.91718 L528.6,422.64105 L535.7,402.7263 L542.80005,358.05896 L549.9,299.2012 L557,247.09064 L564.1,212.47949 L571.2,195.33945 L578.3,191.8222 L585.4,197.581 L592.5,208.2337 L599.6,219.04752 L606.7,223.8713 L613.8,216.24991 L620.9,192.28937 L628,159.92703 L635.1,137.3693 L642.2,131.56949 L649.3,133.12625 L656.39996,133.29361 L663.5,127.862885 L670.60004,117.09628 L677.7,104.43747 L684.8,94.62375 L691.89996,95.52463 L699,115.93573 L706.10004,152.73117 L713.2,191.31284 L720.3,223.58527 L727.4,249.18518 L734.5,271.83582 L741.6,294.6493 L748.7,318.94104 L755.8,343.59662 L762.9,365.4408 L770,379.03485" fill="none" stroke="#0000ff" stroke-width="1"/>
</g>
</svg>