<svg height="600" viewBox="0 0 800 600" width="800" xmlns="http://www.w3.org/2000/svg">
<rect fill="white" height="600" width="800" x="0" y="0"/>
<text dominant-baseline="middle" fill="#000000" font-family="Times New Roman" font-size="20" text-anchor="middle" x="415" y="30">
Maxwell Equations by Yee Grid
</text>
<text dominant-baseline="middle" fill="#000000" font-family="Times New Roman" font-size="14" text-anchor="middle" x="415" y="576">
Position x at y = 0.5
</text>
<text dominant-baseline="middle" fill="#000000" font-family="Times New Roman" font-size="14" text-anchor="middle" transform="rotate(-90, 18, 300)" x="18" y="300">
Electric field E_z
</text>
<rect fill="none" height="480" stroke="#000000" stroke-width="1.5" width="710" x="60" y="60"/>
<line stroke="#000000" stroke-width="1" x1="60" x2="60" y1="540" y2="535"/>
<text dominant-baseline="hanging" fill="#000000" font-family="Times New Roman" font-size="10" text-anchor="middle" x="60" y="549">
0.0
</text>
<line stroke="#000000" stroke-width="1" x1="60" x2="60" y1="60" y2="65"/>
<line stroke="#c0c0c0" stroke-width="0.5" x1="131" x2="131" y1="60" y2="540"/>
<line stroke="#000000" stroke-width="1" x1="131" x2="131" y1="540" y2="535"/>
<text dominant-baseline="hanging" fill="#000000" font-family="Times New Roman" font-size="10" text-anchor="middle" x="131" y="549">
0.1
</text>
<line stroke="#000000" stroke-width="1" x1="131" x2="131" y1="60" y2="65"/>
<line stroke="#c0c0c0" stroke-width="0.5" x1="201.99998" x2="201.99998" y1="60" y2="540"/>
<line stroke="#000000" stroke-width="1" x1="201.99998" x2="201.99998" y1="540" y2="535"/>
<text dominant-baseline="hanging" fill="#000000" font-family="Times New Roman" font-size="10" text-anchor="middle" x="201.99998" y="549">
0.2
</text>
<line stroke="#000000" stroke-width="1" x1="201.99998" x2="201.99998" y1="60" y2="65"/>
<line stroke="#c0c0c0" stroke-width="0.5" x1="273" x2="273" y1="60" y2="540"/>
<line stroke="#000000" stroke-width="1" x1="273" x2="273" y1="540" y2="535"/>
<text dominant-baseline="hanging" fill="#000000" font-family="Times New Roman" font-size="10" text-anchor="middle" x="273" y="549">
0.3
</text>
<line stroke="#000000" stroke-width="1" x1="273" x2="273" y1="60" y2="65"/>
<line stroke="#c0c0c0" stroke-width="0.5" x1="343.99997" x2="343.99997" y1="60" y2="540"/>
<line stroke="#000000" stroke-width="1" x1="343.99997" x2="343.99997" y1="540" y2="535"/>
<text dominant-baseline="hanging" fill="#000000" font-family="Times New Roman" font-size="10" text-anchor="middle" x="343.99997" y="549">
0.4
</text>
<line stroke="#000000" stroke-width="1" x1="343.99997" x2="343.99997" y1="60" y2="65"/>
<line stroke="#c0c0c0" stroke-width="0.5" x1="414.99997" x2="414.99997" y1="60" y2="540"/>
<line stroke="#000000" stroke-width="1" x1="414.99997" x2="414.99997" y1="540" y2="535"/>
<text dominant-baseline="hanging" fill="#000000" font-family="Times New Roman" font-size="10" text-anchor="middle" x="414.99997" y="549">
0.5
</text>
<line stroke="#000000" stroke-width="1" x1="414.99997" x2="414.99997" y1="60" y2="65"/>
<line stroke="#c0c0c0" stroke-width="0.5" x1="485.99997" x2="485.99997" y1="60" y2="540"/>
<line stroke="#000000" stroke-width="1" x1="485.99997" x2="485.99997" y1="540" y2="535"/>
<text dominant-baseline="hanging" fill="#000000" font-family="Times New Roman" font-size="10" text-anchor="middle" x="485.99997" y="549">
0.6
</text>
<line stroke="#000000" stroke-width="1" x1="485.99997" x2="485.99997" y1="60" y2="65"/>
<line stroke="#c0c0c0" stroke-width="0.5" x1="556.99994" x2="556.99994" y1="60" y2="540"/>
<line stroke="#000000" stroke-width="1" x1="556.99994" x2="556.99994" y1="540" y2="535"/>
<text dominant-baseline="hanging" fill="#000000" font-family="Times New Roman" font-size="10" text-anchor="middle" x="556.99994" y="549">
0.7
</text>
<line stroke="#000000" stroke-width="1" x1="556.99994" x2="556.99994" y1="60" y2="65"/>
<line stroke="#c0c0c0" stroke-width="0.5" x1="627.99994" x2="627.99994" y1="60" y2="540"/>
<line stroke="#000000" stroke-width="1" x1="627.99994" x2="627.99994" y1="540" y2="535"/>
<text dominant-baseline="hanging" fill="#000000" font-family="Times New Roman" font-size="10" text-anchor="middle" x="627.99994" y="549">
0.8
</text>
<line stroke="#000000" stroke-width="1" x1="627.99994" x2="627.99994" y1="60" y2="65"/>
<line stroke="#c0c0c0" stroke-width="0.5" x1="699" x2="699" y1="60" y2="540"/>
<line stroke="#000000" stroke-width="1" x1="699" x2="699" y1="540" y2="535"/>
<text dominant-baseline="hanging" fill="#000000" font-family="Times New Roman" font-size="10" text-anchor="middle" x="699" y="549">
0.9
</text>
<line stroke="#000000" stroke-width="1" x1="699" x2="699" y1="60" y2="65"/>
<line stroke="#000000" stroke-width="1" x1="770" x2="770" y1="540" y2="535"/>
<text dominant-baseline="hanging" fill="#000000" font-family="Times New Roman" font-size="10" text-anchor="middle" x="770" y="549">
1.0
</text>
<line stroke="#000000" stroke-width="1" x1="770" x2="770" y1="60" y2="65"/>
<text dominant-baseline="text-after-edge" fill="#000000" font-family="Times New Roman" font-size="10" text-anchor="start" x="63" y="57">
·10
<tspan dx="-0.2em" dy="-0.4em">
-3
</tspan>
</text>
<line stroke="#c0c0c0" stroke-width="0.5" x1="60" x2="770" y1="494.1234" y2="494.1234"/>
<line stroke="#000000" stroke-width="1" x1="60" x2="65" y1="494.1234" y2="494.1234"/>
<line stroke="#000000" stroke-width="1" x1="770" x2="765" y1="494.1234" y2="494.1234"/>
<text dominant-baseline="middle" fill="#000000" font-family="Times New Roman" font-size="10" text-anchor="end" x="52" y="494.1234">
-250.0
</text>
<line stroke="#c0c0c0" stroke-width="0.5" x1="60" x2="770" y1="446.72867" y2="446.72867"/>
<line stroke="#000000" stroke-width="1" x1="60" x2="65" y1="446.72867" y2="446.72867"/>
<line stroke="#000000" stroke-width="1" x1="770" x2="765" y1="446.72867" y2="446.72867"/>
<text dominant-baseline="middle" fill="#000000" font-family="Times New Roman" font-size="10" text-anchor="end" x="52" y="446.72867">
-200.0
</text>
<line stroke="#c0c0c0" stroke-width="0.5" x1="60" x2="770" y1="399.33392" y2="399.33392"/>
<line stroke="#000000" stroke-width="1" x1="60" x2="65" y1="399.33392" y2="399.33392"/>
<line stroke="#000000" stroke-width="1" x1="770" x2="765" y1="399.33392" y2="399.33392"/>
<text dominant-baseline="middle" fill="#000000" font-family="Times New Roman" font-size="10" text-anchor="end" x="52" y="399.33392">
-150.0
</text>
<line stroke="#c0c0c0" stroke-width="0.5" x1="60" x2="770" y1="351.93915" y2="351.93915"/>
<line stroke="#000000" stroke-width="1" x1="60" x2="65" y1="351.93915" y2="351.93915"/>
<line stroke="#000000" stroke-width="1" x1="770" x2="765" y1="351.93915" y2="351.93915"/>
<text dominant-baseline="middle" fill="#000000" font-family="Times New Roman" font-size="10" text-anchor="end" x="52" y="351.93915">
-100.0
</text>
<line stroke="#c0c0c0" stroke-width="0.5" x1="60" x2="770" y1="304.54437" y2="304.54437"/>
<line stroke="#000000" stroke-width="1" x1="60" x2="65" y1="304.54437" y2="304.54437"/>
<line stroke="#000000" stroke-width="1" x1="770" x2="765" y1="304.54437" y2="304.54437"/>
<text dominant-baseline="middle" fill="#000000" font-family="Times New Roman" font-size="10" text-anchor="end" x="52" y="304.54437">
-50.0
</text>
<line stroke="#c0c0c0" stroke-width="0.5" x1="60" x2="770" y1="257.14963" y2="257.14963"/>
<line stroke="#000000" stroke-width="1" x1="60" x2="65" y1="257.14963" y2="257.14963"/>
<line stroke="#000000" stroke-width="1" x1="770" x2="765" y1="257.14963" y2="257.14963"/>
<text dominant-baseline="middle" fill="#000000" font-family="Times New Roman" font-size="10" text-anchor="end" x="52" y="257.14963">
0.0
</text>
<line stroke="#c0c0c0" stroke-width="0.5" x1="60" x2="770" y1="209.75488" y2="209.75488"/>
<line stroke="#000000" stroke-width="1" x1="60" x2="65" y1="209.75488" y2="209.75488"/>
<line stroke="#000000" stroke-width="1" x1="770" x2="765" y1="209.75488" y2="209.75488"/>
<text dominant-baseline="middle" fill="#000000" font-family="Times New Roman" font-size="10" text-anchor="end" x="52" y="209.75488">
50.0
</text>
<line stroke="#c0c0c0" stroke-width="0.5" x1="60" x2="770" y1="162.36014" y2="162.36014"/>
<line stroke="#000000" stroke-width="1" x1="60" x2="65" y1="162.36014" y2="162.36014"/>
<line stroke="#000000" stroke-width="1" x1="770" x2="765" y1="162.36014" y2="162.36014"/>
<text dominant-baseline="middle" fill="#000000" font-family="Times New Roman" font-size="10" text-anchor="end" x="52" y="162.36014">
100.0
</text>
<line stroke="#c0c0c0" stroke-width="0.5" x1="60" x2="770" y1="114.96533" y2="114.96533"/>
<line stroke="#000000" stroke-width="1" x1="60" x2="65" y1="114.96533" y2="114.96533"/>
<line stroke="#000000" stroke-width="1" x1="770" x2="765" y1="114.96533" y2="114.96533"/>
<text dominant-baseline="middle" fill="#000000" font-family="Times New Roman" font-size="10" text-anchor="end" x="52" y="114.96533">
150.0
</text>
<line stroke="#c0c0c0" stroke-width="0.5" x1="60" x2="770" y1="67.57062" y2="67.57062"/>
<line stroke="#000000" stroke-width="1" x1="60" x2="65" y1="67.57062" y2="67.57062"/>
<line stroke="#000000" stroke-width="1" x1="770" x2="765" y1="67.57062" y2="67.57062"/>
<text dominant-baseline="middle" fill="#000000" font-family="Times New Roman" font-size="10" text-anchor="end" x="52" y="67.57062">
200.0
</text>
<defs>
<clipPath id="plotAreaClip">
<rect height="480" width="710" x="60" y="60"/>
</clipPath>
</defs>
<g clip-path="url(#plotAreaClip)">
<path d="M60,257.14963 L77.75,257.14963 L95.5,257.1496 L113.25,257.14935 L131,257.14737 L148.75,257.13477 L166.5,257.0644 L184.25,256.7305 L202,255.39096 L219.75,250.89914 L237.5,238.49115 L255.25,210.84344 L273,162.863 L290.75,102.637146 L308.5,60 L326.25,75.49045 L344,167.0379 L361.75,305.72742 L379.5,434.8462 L397.25,514.80365 L415,540 L432.74997,514.80365 L450.5,434.8462 L468.25,305.72742 L486.00003,167.0379 L503.75,75.49045 L521.5,60 L539.25,102.637146 L557,162.863 L574.75,210.84344 L592.5,238.49115 L610.25,250.89914 L628,255.39096 L645.75,256.7305 L663.5,257.0644 L681.25,257.13477 L699,257.14737 L716.75,257.14935 L734.5,257.1496 L752.25,257.14963 L770,257.14963" fill="none" stroke="#ff0000" stroke-width="1"/>
</g>
<rect fill="white" height="38" stroke="#000000" stroke-width="1" width="142.4" x="617.6" y="70"/>
<rect fill="#ff0000" height="14.400001" width="15" x="627.6" y="81.8"/>
<text dominant-baseline="middle" fill="#000000" font-family="Times New Roman" font-size="12" text-anchor="start" x="647.6" y="89">
E_z cross-section
</text>
</svg>