<svg height="600" viewBox="0 0 800 600" width="800" xmlns="http://www.w3.org/2000/svg">
<rect fill="white" height="600" width="800" x="0" y="0"/>
<text dominant-baseline="middle" fill="#000000" font-family="Times New Roman" font-size="20" text-anchor="middle" x="415" y="30">
Robertson DAE problem with a Conservation Law
</text>
<text dominant-baseline="middle" fill="#000000" font-family="Times New Roman" font-size="14" text-anchor="middle" x="415" y="576">
Time (t)
</text>
<text dominant-baseline="middle" fill="#000000" font-family="Times New Roman" font-size="14" text-anchor="middle" transform="rotate(-90, 18, 300)" x="18" y="300">
y1, 1e4 * y2, y3
</text>
<rect fill="none" height="480" stroke="#000000" stroke-width="1.5" width="710" x="60" y="60"/>
<line stroke="#000000" stroke-width="1" x1="60" x2="60" y1="540" y2="535"/>
<text dominant-baseline="hanging" fill="#000000" font-family="Times New Roman" font-size="10" text-anchor="middle" x="60" y="549">
10
<tspan dx="-0.2em" dy="-0.4em">
-5
</tspan>
</text>
<line stroke="#000000" stroke-width="1" x1="60" x2="60" y1="60" y2="65"/>
<line stroke="#c0c0c0" stroke-width="0.5" x1="131" x2="131" y1="60" y2="540"/>
<line stroke="#000000" stroke-width="1" x1="131" x2="131" y1="540" y2="535"/>
<text dominant-baseline="hanging" fill="#000000" font-family="Times New Roman" font-size="10" text-anchor="middle" x="131" y="549">
10
<tspan dx="-0.2em" dy="-0.4em">
-4
</tspan>
</text>
<line stroke="#000000" stroke-width="1" x1="131" x2="131" y1="60" y2="65"/>
<line stroke="#c0c0c0" stroke-width="0.5" x1="202" x2="202" y1="60" y2="540"/>
<line stroke="#000000" stroke-width="1" x1="202" x2="202" y1="540" y2="535"/>
<text dominant-baseline="hanging" fill="#000000" font-family="Times New Roman" font-size="10" text-anchor="middle" x="202" y="549">
10
<tspan dx="-0.2em" dy="-0.4em">
-3
</tspan>
</text>
<line stroke="#000000" stroke-width="1" x1="202" x2="202" y1="60" y2="65"/>
<line stroke="#c0c0c0" stroke-width="0.5" x1="273" x2="273" y1="60" y2="540"/>
<line stroke="#000000" stroke-width="1" x1="273" x2="273" y1="540" y2="535"/>
<text dominant-baseline="hanging" fill="#000000" font-family="Times New Roman" font-size="10" text-anchor="middle" x="273" y="549">
10
<tspan dx="-0.2em" dy="-0.4em">
-2
</tspan>
</text>
<line stroke="#000000" stroke-width="1" x1="273" x2="273" y1="60" y2="65"/>
<line stroke="#c0c0c0" stroke-width="0.5" x1="344" x2="344" y1="60" y2="540"/>
<line stroke="#000000" stroke-width="1" x1="344" x2="344" y1="540" y2="535"/>
<text dominant-baseline="hanging" fill="#000000" font-family="Times New Roman" font-size="10" text-anchor="middle" x="344" y="549">
10
<tspan dx="-0.2em" dy="-0.4em">
-1
</tspan>
</text>
<line stroke="#000000" stroke-width="1" x1="344" x2="344" y1="60" y2="65"/>
<line stroke="#c0c0c0" stroke-width="0.5" x1="415" x2="415" y1="60" y2="540"/>
<line stroke="#000000" stroke-width="1" x1="415" x2="415" y1="540" y2="535"/>
<text dominant-baseline="hanging" fill="#000000" font-family="Times New Roman" font-size="10" text-anchor="middle" x="415" y="549">
10
<tspan dx="-0.2em" dy="-0.4em">
0
</tspan>
</text>
<line stroke="#000000" stroke-width="1" x1="415" x2="415" y1="60" y2="65"/>
<line stroke="#c0c0c0" stroke-width="0.5" x1="486.00003" x2="486.00003" y1="60" y2="540"/>
<line stroke="#000000" stroke-width="1" x1="486.00003" x2="486.00003" y1="540" y2="535"/>
<text dominant-baseline="hanging" fill="#000000" font-family="Times New Roman" font-size="10" text-anchor="middle" x="486.00003" y="549">
10
<tspan dx="-0.2em" dy="-0.4em">
1
</tspan>
</text>
<line stroke="#000000" stroke-width="1" x1="486.00003" x2="486.00003" y1="60" y2="65"/>
<line stroke="#c0c0c0" stroke-width="0.5" x1="557" x2="557" y1="60" y2="540"/>
<line stroke="#000000" stroke-width="1" x1="557" x2="557" y1="540" y2="535"/>
<text dominant-baseline="hanging" fill="#000000" font-family="Times New Roman" font-size="10" text-anchor="middle" x="557" y="549">
10
<tspan dx="-0.2em" dy="-0.4em">
2
</tspan>
</text>
<line stroke="#000000" stroke-width="1" x1="557" x2="557" y1="60" y2="65"/>
<line stroke="#c0c0c0" stroke-width="0.5" x1="628" x2="628" y1="60" y2="540"/>
<line stroke="#000000" stroke-width="1" x1="628" x2="628" y1="540" y2="535"/>
<text dominant-baseline="hanging" fill="#000000" font-family="Times New Roman" font-size="10" text-anchor="middle" x="628" y="549">
10
<tspan dx="-0.2em" dy="-0.4em">
3
</tspan>
</text>
<line stroke="#000000" stroke-width="1" x1="628" x2="628" y1="60" y2="65"/>
<line stroke="#c0c0c0" stroke-width="0.5" x1="699" x2="699" y1="60" y2="540"/>
<line stroke="#000000" stroke-width="1" x1="699" x2="699" y1="540" y2="535"/>
<text dominant-baseline="hanging" fill="#000000" font-family="Times New Roman" font-size="10" text-anchor="middle" x="699" y="549">
10
<tspan dx="-0.2em" dy="-0.4em">
4
</tspan>
</text>
<line stroke="#000000" stroke-width="1" x1="699" x2="699" y1="60" y2="65"/>
<line stroke="#000000" stroke-width="1" x1="770" x2="770" y1="540" y2="535"/>
<text dominant-baseline="hanging" fill="#000000" font-family="Times New Roman" font-size="10" text-anchor="middle" x="770" y="549">
10
<tspan dx="-0.2em" dy="-0.4em">
5
</tspan>
</text>
<line stroke="#000000" stroke-width="1" x1="770" x2="770" y1="60" y2="65"/>
<line stroke="#c0c0c0" stroke-width="0.5" x1="60" x2="770" y1="531.5111" y2="531.5111"/>
<line stroke="#000000" stroke-width="1" x1="60" x2="65" y1="531.5111" y2="531.5111"/>
<line stroke="#000000" stroke-width="1" x1="770" x2="765" y1="531.5111" y2="531.5111"/>
<text dominant-baseline="middle" fill="#000000" font-family="Times New Roman" font-size="10" text-anchor="end" x="52" y="531.5111">
0.0
</text>
<line stroke="#c0c0c0" stroke-width="0.5" x1="60" x2="770" y1="485.20886" y2="485.20886"/>
<line stroke="#000000" stroke-width="1" x1="60" x2="65" y1="485.20886" y2="485.20886"/>
<line stroke="#000000" stroke-width="1" x1="770" x2="765" y1="485.20886" y2="485.20886"/>
<text dominant-baseline="middle" fill="#000000" font-family="Times New Roman" font-size="10" text-anchor="end" x="52" y="485.20886">
0.1
</text>
<line stroke="#c0c0c0" stroke-width="0.5" x1="60" x2="770" y1="438.90665" y2="438.90665"/>
<line stroke="#000000" stroke-width="1" x1="60" x2="65" y1="438.90665" y2="438.90665"/>
<line stroke="#000000" stroke-width="1" x1="770" x2="765" y1="438.90665" y2="438.90665"/>
<text dominant-baseline="middle" fill="#000000" font-family="Times New Roman" font-size="10" text-anchor="end" x="52" y="438.90665">
0.2
</text>
<line stroke="#c0c0c0" stroke-width="0.5" x1="60" x2="770" y1="392.60443" y2="392.60443"/>
<line stroke="#000000" stroke-width="1" x1="60" x2="65" y1="392.60443" y2="392.60443"/>
<line stroke="#000000" stroke-width="1" x1="770" x2="765" y1="392.60443" y2="392.60443"/>
<text dominant-baseline="middle" fill="#000000" font-family="Times New Roman" font-size="10" text-anchor="end" x="52" y="392.60443">
0.3
</text>
<line stroke="#c0c0c0" stroke-width="0.5" x1="60" x2="770" y1="346.30222" y2="346.30222"/>
<line stroke="#000000" stroke-width="1" x1="60" x2="65" y1="346.30222" y2="346.30222"/>
<line stroke="#000000" stroke-width="1" x1="770" x2="765" y1="346.30222" y2="346.30222"/>
<text dominant-baseline="middle" fill="#000000" font-family="Times New Roman" font-size="10" text-anchor="end" x="52" y="346.30222">
0.4
</text>
<line stroke="#c0c0c0" stroke-width="0.5" x1="60" x2="770" y1="300" y2="300"/>
<line stroke="#000000" stroke-width="1" x1="60" x2="65" y1="300" y2="300"/>
<line stroke="#000000" stroke-width="1" x1="770" x2="765" y1="300" y2="300"/>
<text dominant-baseline="middle" fill="#000000" font-family="Times New Roman" font-size="10" text-anchor="end" x="52" y="300">
0.5
</text>
<line stroke="#c0c0c0" stroke-width="0.5" x1="60" x2="770" y1="253.69778" y2="253.69778"/>
<line stroke="#000000" stroke-width="1" x1="60" x2="65" y1="253.69778" y2="253.69778"/>
<line stroke="#000000" stroke-width="1" x1="770" x2="765" y1="253.69778" y2="253.69778"/>
<text dominant-baseline="middle" fill="#000000" font-family="Times New Roman" font-size="10" text-anchor="end" x="52" y="253.69778">
0.6
</text>
<line stroke="#c0c0c0" stroke-width="0.5" x1="60" x2="770" y1="207.39557" y2="207.39557"/>
<line stroke="#000000" stroke-width="1" x1="60" x2="65" y1="207.39557" y2="207.39557"/>
<line stroke="#000000" stroke-width="1" x1="770" x2="765" y1="207.39557" y2="207.39557"/>
<text dominant-baseline="middle" fill="#000000" font-family="Times New Roman" font-size="10" text-anchor="end" x="52" y="207.39557">
0.7
</text>
<line stroke="#c0c0c0" stroke-width="0.5" x1="60" x2="770" y1="161.09332" y2="161.09332"/>
<line stroke="#000000" stroke-width="1" x1="60" x2="65" y1="161.09332" y2="161.09332"/>
<line stroke="#000000" stroke-width="1" x1="770" x2="765" y1="161.09332" y2="161.09332"/>
<text dominant-baseline="middle" fill="#000000" font-family="Times New Roman" font-size="10" text-anchor="end" x="52" y="161.09332">
0.8
</text>
<line stroke="#c0c0c0" stroke-width="0.5" x1="60" x2="770" y1="114.79111" y2="114.79111"/>
<line stroke="#000000" stroke-width="1" x1="60" x2="65" y1="114.79111" y2="114.79111"/>
<line stroke="#000000" stroke-width="1" x1="770" x2="765" y1="114.79111" y2="114.79111"/>
<text dominant-baseline="middle" fill="#000000" font-family="Times New Roman" font-size="10" text-anchor="end" x="52" y="114.79111">
0.9
</text>
<line stroke="#c0c0c0" stroke-width="0.5" x1="60" x2="770" y1="68.48889" y2="68.48889"/>
<line stroke="#000000" stroke-width="1" x1="60" x2="65" y1="68.48889" y2="68.48889"/>
<line stroke="#000000" stroke-width="1" x1="770" x2="765" y1="68.48889" y2="68.48889"/>
<text dominant-baseline="middle" fill="#000000" font-family="Times New Roman" font-size="10" text-anchor="end" x="52" y="68.48889">
1.0
</text>
<defs>
<clipPath id="plotAreaClip">
<rect height="480" width="710" x="60" y="60"/>
</clipPath>
</defs>
<g clip-path="url(#plotAreaClip)">
<path d="M60,68.489105 L63.567856,68.48917 L67.13567,68.48917 L70.70353,68.48917 L74.271355,68.48923 L77.83921,68.48929 L81.40703,68.48929 L84.974884,68.48935 L88.54271,68.48941 L92.110565,68.48944 L95.67838,68.4895 L99.24624,68.489624 L102.81406,68.489655 L106.38192,68.48978 L109.94974,68.4899 L113.51759,68.48999 L117.08542,68.49011 L120.653275,68.490295 L124.22109,68.49042 L127.78895,68.4906 L131.35678,68.490845 L134.92462,68.49106 L138.49246,68.4913 L142.0603,68.49161 L145.62814,68.49194 L149.19598,68.49225 L152.76382,68.49271 L156.33165,68.49313 L159.8995,68.49362 L163.46733,68.49426 L167.03517,68.494934 L170.60301,68.495636 L174.17084,68.49646 L177.73871,68.497406 L181.30655,68.49838 L184.87437,68.49954 L188.44221,68.500885 L192.01006,68.50229 L195.5779,68.50397 L199.14574,68.50586 L202.71356,68.50787 L206.28142,68.51019 L209.84924,68.51285 L213.41708,68.51578 L216.98492,68.51904 L220.55276,68.522736 L224.1206,68.526886 L227.68845,68.531525 L231.25627,68.53674 L234.82411,68.5426 L238.39197,68.549225 L241.9598,68.55658 L245.52763,68.56491 L249.09546,68.57416 L252.6633,68.584656 L256.23114,68.596375 L259.799,68.6095 L263.36685,68.6243 L266.9347,68.64087 L270.5025,68.659454 L274.07034,68.68036 L277.63818,68.703766 L281.20605,68.73004 L284.77386,68.75952 L288.3417,68.79263 L291.90955,68.82974 L295.47742,68.87134 L299.04523,68.91803 L302.61307,68.97043 L306.1809,69.029175 L309.74872,69.09503 L313.3166,69.16876 L316.88443,69.251495 L320.45227,69.34415 L324.0201,69.44794 L327.58792,69.56424 L331.1558,69.69437 L334.7236,69.84006 L338.29147,70.00305 L341.85928,70.18536 L345.42712,70.38919 L348.99496,70.61694 L352.56284,70.87128 L356.13065,71.15515 L359.6985,71.47174 L363.2663,71.824585 L366.83417,72.21744 L370.402,72.65448 L373.96985,73.140076 L377.53766,73.67917 L381.10553,74.276825 L384.67337,74.938446 L388.2412,75.66986 L391.80908,76.47473 L395.3769,77.36255 L398.94473,78.339966 L402.51254,79.41351 L406.0804,80.58972 L409.64822,81.87497 L413.2161,83.2753 L416.78394,84.79639 L420.35178,86.44345 L423.9196,88.221466 L427.48746,90.13541 L431.05527,92.19034 L434.6231,94.38959 L438.19092,96.73871 L441.7588,99.23657 L445.3266,101.8815 L448.89447,104.6734 L452.4623,107.61145 L456.03018,110.69986 L459.598,113.931274 L463.16583,117.29959 L466.7337,120.80286 L470.3015,124.444275 L473.86935,128.21411 L477.43716,132.10596 L481.00504,136.11902 L484.57285,140.25452 L488.1407,144.50006 L491.70856,148.85718 L495.2764,153.32254 L498.8442,157.89331 L502.41208,162.56677 L505.9799,167.341 L509.54773,172.21393 L513.1156,177.18423 L516.6834,182.25003 L520.2513,187.40994 L523.8191,192.66278 L527.38696,198.00723 L530.95483,203.44211 L534.52264,208.9661 L538.09045,214.57782 L541.65826,220.27628 L545.22614,226.06009 L548.79395,231.92618 L552.3618,237.87677 L555.9297,243.8967 L559.49744,249.99643 L563.0653,256.173 L566.6332,262.40964 L570.20105,268.72742 L573.76886,275.11307 L577.3367,281.5244 L580.90454,287.99423 L584.47235,294.49054 L588.0402,301.05075 L591.60803,307.6695 L595.17584,314.33337 L598.7437,321.0529 L602.3116,327.7265 L605.8794,334.37222 L609.4472,340.99512 L613.0151,347.52905 L616.58295,354.2433 L620.15076,360.9726 L623.71857,367.5595 L627.28644,374.05475 L630.85425,380.5846 L634.4221,387.12592 L637.9899,393.82434 L641.55774,400.07712 L645.1257,406.265 L648.6935,412.36575 L652.2613,418.36243 L655.82916,424.2338 L659.397,429.86615 L662.9648,435.02795 L666.5326,440.15182 L670.1005,445.0088 L673.66833,450.10858 L677.2362,455.10712 L680.804,459.85733 L684.3719,464.1046 L687.9397,468.2894 L691.5075,472.13297 L695.0753,475.84988 L698.64325,480.37717 L702.21106,484.93655 L705.77893,488.789 L709.34674,492.08777 L712.91455,495.73105 L716.4824,499.40546 L720.05023,502.43393 L723.61804,505.47156 L727.186,507.6121 L730.7538,510.2279 L734.32166,512.6013 L737.88947,514.4199 L741.4573,515.9947 L745.0251,522.8726 L748.59296,523.32306 L752.16077,524.0897 L755.72864,528.07294 L759.29645,528.81256 L762.8644,530.4116 L766.4322,535.28625 L770,540" fill="none" stroke="#0000ff" stroke-width="1"/>
<path d="M60,529.65906 L63.567856,529.4319 L67.13567,529.1769 L70.70353,528.8906 L74.271355,528.5692 L77.83921,528.20844 L81.40703,527.8034 L84.974884,527.3488 L88.54271,526.83844 L92.110565,526.26544 L95.67838,525.6223 L99.24624,524.9005 L102.81406,524.0905 L106.38192,523.18164 L109.94974,522.16187 L113.51759,521.01794 L117.08542,519.7348 L120.653275,518.296 L124.22109,516.6831 L127.78895,514.8756 L131.35678,512.851 L134.92462,510.58453 L138.49246,508.04904 L142.0603,505.21524 L145.62814,502.0516 L149.19598,498.52496 L152.76382,494.60092 L156.33165,490.2446 L159.8995,485.4225 L163.46733,480.1063 L167.03517,474.2696 L170.60301,467.8952 L174.17084,460.98102 L177.73871,453.54315 L181.30655,445.63492 L184.87437,437.3255 L188.44221,428.71988 L192.01006,419.97238 L195.5779,411.2807 L199.14574,402.85226 L202.71356,394.91797 L206.28142,387.69226 L209.84924,381.35873 L213.41708,376.05212 L216.98492,371.79947 L220.55276,368.5329 L224.1206,366.2233 L227.68845,364.6546 L231.25627,363.6581 L234.82411,363.08856 L238.39197,362.77393 L241.9598,362.63446 L245.52763,362.57858 L249.09546,362.5659 L252.6633,362.57727 L256.23114,362.5953 L259.799,362.61835 L263.36685,362.64587 L266.9347,362.6765 L270.5025,362.7108 L274.07034,362.7493 L277.63818,362.79254 L281.20605,362.84113 L284.77386,362.8956 L288.3417,362.95667 L291.90955,363.02515 L295.47742,363.10193 L299.04523,363.188 L302.61307,363.28452 L306.1809,363.39264 L309.74872,363.51385 L313.3166,363.6496 L316.88443,363.80164 L320.45227,363.9719 L324.0201,364.1624 L327.58792,364.3756 L331.1558,364.614 L334.7236,364.88055 L338.29147,365.17834 L341.85928,365.51093 L345.42712,365.88208 L348.99496,366.29602 L352.56284,366.75732 L356.13065,367.27087 L359.6985,367.84207 L363.2663,368.47675 L366.83417,369.18097 L370.402,369.96143 L373.96985,370.825 L377.53766,371.77905 L381.10553,372.8311 L384.67337,373.98898 L388.2412,375.26065 L391.80908,376.64902 L395.3769,378.16882 L398.94473,379.82745 L402.51254,381.63147 L406.0804,383.58624 L409.64822,385.6958 L413.2161,387.9624 L416.78394,390.38663 L420.35178,392.9673 L423.9196,395.7024 L427.48746,398.5904 L431.05527,401.6305 L434.6231,404.8044 L438.19092,408.11026 L441.7588,411.52795 L445.3266,415.0382 L448.89447,418.62888 L452.4623,422.28192 L456.03018,425.98456 L459.598,429.7084 L463.16583,433.43295 L466.7337,437.14764 L470.3015,440.838 L473.86935,444.47855 L477.43716,448.05917 L481.00504,451.5689 L484.57285,455 L488.1407,458.33472 L491.70856,461.57736 L495.2764,464.71637 L498.8442,467.7496 L502.41208,470.6752 L505.9799,473.4922 L509.54773,476.20062 L513.1156,478.80154 L516.6834,481.29654 L520.2513,483.68777 L523.8191,485.97797 L527.38696,488.17 L530.95483,490.26715 L534.52264,492.2727 L538.09045,494.1901 L541.65826,496.0228 L545.22614,497.7745 L548.79395,499.4479 L552.3618,501.0481 L555.9297,502.5744 L559.49744,504.03275 L563.0653,505.42758 L566.6332,506.75775 L570.20105,508.03033 L573.76886,509.2481 L577.3367,510.405 L580.90454,511.51077 L584.47235,512.56396 L588.0402,513.5726 L591.60803,514.5391 L595.17584,515.46387 L598.7437,516.3507 L602.3116,517.18933 L605.8794,517.9852 L609.4472,518.7424 L613.0151,519.45575 L616.58295,520.15686 L620.15076,520.8291 L623.71857,521.4592 L627.28644,522.0551 L630.85425,522.6304 L634.4221,523.18384 L637.9899,523.7286 L641.55774,524.21796 L645.1257,524.685 L648.6935,525.1295 L652.2613,525.5519 L655.82916,525.952 L659.397,526.32404 L662.9648,526.6553 L666.5326,526.97504 L670.1005,527.2704 L673.66833,527.57263 L677.2362,527.8613 L680.804,528.12897 L684.3719,528.363 L687.9397,528.58875 L691.5075,528.7921 L695.0753,528.9851 L698.64325,529.21564 L702.21106,529.4428 L705.77893,529.631 L709.34674,529.7895 L712.91455,529.9617 L716.4824,530.1325 L720.05023,530.27106 L723.61804,530.40826 L727.186,530.5038 L730.7538,530.61926 L734.32166,530.7229 L737.88947,530.8016 L741.4573,530.8692 L745.0251,531.15906 L748.59296,531.17773 L752.16077,531.2095 L755.72864,531.37256 L759.29645,531.4025 L762.8644,531.4669 L766.4322,531.6609 L770,531.8446" fill="none" stroke="#ffa500" stroke-width="1"/>
<path d="M60,531.5111 L63.567856,531.5111 L67.13567,531.5111 L70.70353,531.5111 L74.271355,531.5111 L77.83921,531.5111 L81.40703,531.5111 L84.974884,531.5111 L88.54271,531.5111 L92.110565,531.5111 L95.67838,531.5111 L99.24624,531.5111 L102.81406,531.5111 L106.38192,531.5111 L109.94974,531.5111 L113.51759,531.5111 L117.08542,531.5111 L120.653275,531.5111 L124.22109,531.5111 L127.78895,531.5111 L131.35678,531.5111 L134.92462,531.51105 L138.49246,531.51105 L142.0603,531.51105 L145.62814,531.51105 L149.19598,531.51105 L152.76382,531.51105 L156.33165,531.511 L159.8995,531.511 L163.46733,531.5109 L167.03517,531.51086 L170.60301,531.51074 L174.17084,531.5106 L177.73871,531.51044 L181.30655,531.5102 L184.87437,531.5099 L188.44221,531.50946 L192.01006,531.50885 L195.5779,531.50806 L199.14574,531.5071 L202.71356,531.5058 L206.28142,531.5042 L209.84924,531.5022 L213.41708,531.4998 L216.98492,531.49695 L220.55276,531.4936 L224.1206,531.4897 L227.68845,531.48517 L231.25627,531.48004 L234.82411,531.47424 L238.39197,531.4677 L241.9598,531.4603 L245.52763,531.452 L249.09546,531.44275 L252.6633,531.43225 L256.23114,531.42053 L259.799,531.4074 L263.36685,531.39264 L266.9347,531.37604 L270.5025,531.3574 L274.07034,531.33655 L277.63818,531.3131 L281.20605,531.2868 L284.77386,531.2573 L288.3417,531.22424 L291.90955,531.18713 L295.47742,531.1455 L299.04523,531.09875 L302.61307,531.0464 L306.1809,530.9877 L309.74872,530.9218 L313.3166,530.848 L316.88443,530.7653 L320.45227,530.6726 L324.0201,530.5688 L327.58792,530.4525 L331.1558,530.3223 L334.7236,530.17664 L338.29147,530.0136 L341.85928,529.83124 L345.42712,529.6274 L348.99496,529.3996 L352.56284,529.1452 L356.13065,528.8613 L359.6985,528.5447 L363.2663,528.1918 L366.83417,527.7988 L370.402,527.3617 L373.96985,526.876 L377.53766,526.3368 L381.10553,525.7391 L384.67337,525.07733 L388.2412,524.3458 L391.80908,523.54083 L395.3769,522.6528 L398.94473,521.67523 L402.51254,520.6015 L406.0804,519.4251 L409.64822,518.13965 L413.2161,516.7391 L416.78394,515.2177 L420.35178,513.5704 L423.9196,511.7921 L427.48746,509.8779 L431.05527,507.82266 L434.6231,505.6231 L438.19092,503.27362 L441.7588,500.77545 L445.3266,498.13016 L448.89447,495.33792 L452.4623,492.39948 L456.03018,489.3107 L459.598,486.07892 L463.16583,482.71024 L466.7337,479.2066 L470.3015,475.5648 L473.86935,471.7946 L477.43716,467.9024 L481.00504,463.889 L484.57285,459.75314 L488.1407,455.5073 L491.70856,451.14984 L495.2764,446.68417 L498.8442,442.1131 L502.41208,437.4393 L505.9799,432.6648 L509.54773,427.7916 L513.1156,422.82104 L516.6834,417.755 L520.2513,412.59488 L523.8191,407.3418 L527.38696,401.99713 L530.95483,396.56204 L534.52264,391.03787 L538.09045,385.42596 L541.65826,379.72766 L545.22614,373.94324 L548.79395,368.0777 L552.3618,362.12616 L555.9297,356.10547 L559.49744,350.008 L563.0653,343.82947 L566.6332,337.59225 L570.20105,331.27734 L573.76886,324.88898 L577.3367,318.47632 L580.90454,312.00757 L584.47235,305.50836 L588.0402,298.95062 L591.60803,292.33246 L595.17584,285.66882 L598.7437,278.9491 L602.3116,272.27457 L605.8794,265.62796 L609.4472,259.00244 L613.0151,252.4721 L616.58295,245.75891 L620.15076,239.02844 L623.71857,232.44086 L627.28644,225.9462 L630.85425,219.41663 L634.4221,212.87598 L637.9899,206.17645 L641.55774,199.92389 L645.1257,193.736 L648.6935,187.6355 L652.2613,181.63828 L655.82916,175.76675 L659.397,170.13431 L662.9648,164.97018 L666.5326,159.84857 L670.1005,154.99146 L673.66833,149.8917 L677.2362,144.89325 L680.804,140.1427 L684.3719,135.89471 L687.9397,131.71085 L691.5075,127.865814 L695.0753,124.15039 L698.64325,119.624176 L702.21106,115.06372 L705.77893,111.21188 L709.34674,107.91254 L712.91455,104.27042 L716.4824,100.595184 L720.05023,97.56799 L723.61804,94.528564 L727.186,92.38809 L730.7538,89.77225 L734.32166,87.398926 L737.88947,85.58032 L741.4573,84.00537 L745.0251,77.12741 L748.59296,76.677 L752.16077,75.9104 L755.72864,71.927155 L759.29645,71.1875 L762.8644,69.59265 L766.4322,64.7139 L770,60" fill="none" stroke="#008000" stroke-width="1"/>
</g>
<rect fill="white" height="74" stroke="#000000" stroke-width="1" width="128" x="70" y="70"/>
<rect fill="#0000ff" height="14.400001" width="15" x="80" y="81.8"/>
<text dominant-baseline="middle" fill="#000000" font-family="Times New Roman" font-size="12" text-anchor="start" x="100" y="89">
Concentration A
</text>
<rect fill="#ffa500" height="14.400001" width="15" x="80" y="99.8"/>
<text dominant-baseline="middle" fill="#000000" font-family="Times New Roman" font-size="12" text-anchor="start" x="100" y="107">
Concentration B
</text>
<rect fill="#008000" height="14.400001" width="15" x="80" y="117.8"/>
<text dominant-baseline="middle" fill="#000000" font-family="Times New Roman" font-size="12" text-anchor="start" x="100" y="125">
Concentration C
</text>
</svg>