<svg height="600" viewBox="0 0 800 600" width="800" xmlns="http://www.w3.org/2000/svg">
<rect fill="white" height="600" width="800" x="0" y="0"/>
<text dominant-baseline="middle" fill="#000000" font-family="Times New Roman" font-size="20" text-anchor="middle" x="415" y="30">
Robertson DAE problem with a Conservation Law
</text>
<text dominant-baseline="middle" fill="#000000" font-family="Times New Roman" font-size="14" text-anchor="middle" x="415" y="576">
Time (t)
</text>
<text dominant-baseline="middle" fill="#000000" font-family="Times New Roman" font-size="14" text-anchor="middle" transform="rotate(-90, 18, 300)" x="18" y="300">
y1, 1e4 * y2, y3
</text>
<rect fill="none" height="480" stroke="#000000" stroke-width="1.5" width="710" x="60" y="60"/>
<line stroke="#000000" stroke-width="1" x1="60" x2="60" y1="540" y2="535"/>
<text dominant-baseline="hanging" fill="#000000" font-family="Times New Roman" font-size="10" text-anchor="middle" x="60" y="549">
10
<tspan dx="-0.2em" dy="-0.4em">
-6
</tspan>
</text>
<line stroke="#000000" stroke-width="1" x1="60" x2="60" y1="60" y2="65"/>
<line stroke="#c0c0c0" stroke-width="0.5" x1="114.61539" x2="114.61539" y1="60" y2="540"/>
<line stroke="#000000" stroke-width="1" x1="114.61539" x2="114.61539" y1="540" y2="535"/>
<text dominant-baseline="hanging" fill="#000000" font-family="Times New Roman" font-size="10" text-anchor="middle" x="114.61539" y="549">
10
<tspan dx="-0.2em" dy="-0.4em">
-5
</tspan>
</text>
<line stroke="#000000" stroke-width="1" x1="114.61539" x2="114.61539" y1="60" y2="65"/>
<line stroke="#c0c0c0" stroke-width="0.5" x1="169.23077" x2="169.23077" y1="60" y2="540"/>
<line stroke="#000000" stroke-width="1" x1="169.23077" x2="169.23077" y1="540" y2="535"/>
<text dominant-baseline="hanging" fill="#000000" font-family="Times New Roman" font-size="10" text-anchor="middle" x="169.23077" y="549">
10
<tspan dx="-0.2em" dy="-0.4em">
-4
</tspan>
</text>
<line stroke="#000000" stroke-width="1" x1="169.23077" x2="169.23077" y1="60" y2="65"/>
<line stroke="#c0c0c0" stroke-width="0.5" x1="223.84616" x2="223.84616" y1="60" y2="540"/>
<line stroke="#000000" stroke-width="1" x1="223.84616" x2="223.84616" y1="540" y2="535"/>
<text dominant-baseline="hanging" fill="#000000" font-family="Times New Roman" font-size="10" text-anchor="middle" x="223.84616" y="549">
10
<tspan dx="-0.2em" dy="-0.4em">
-3
</tspan>
</text>
<line stroke="#000000" stroke-width="1" x1="223.84616" x2="223.84616" y1="60" y2="65"/>
<line stroke="#c0c0c0" stroke-width="0.5" x1="278.46155" x2="278.46155" y1="60" y2="540"/>
<line stroke="#000000" stroke-width="1" x1="278.46155" x2="278.46155" y1="540" y2="535"/>
<text dominant-baseline="hanging" fill="#000000" font-family="Times New Roman" font-size="10" text-anchor="middle" x="278.46155" y="549">
10
<tspan dx="-0.2em" dy="-0.4em">
-2
</tspan>
</text>
<line stroke="#000000" stroke-width="1" x1="278.46155" x2="278.46155" y1="60" y2="65"/>
<line stroke="#c0c0c0" stroke-width="0.5" x1="333.07693" x2="333.07693" y1="60" y2="540"/>
<line stroke="#000000" stroke-width="1" x1="333.07693" x2="333.07693" y1="540" y2="535"/>
<text dominant-baseline="hanging" fill="#000000" font-family="Times New Roman" font-size="10" text-anchor="middle" x="333.07693" y="549">
10
<tspan dx="-0.2em" dy="-0.4em">
-1
</tspan>
</text>
<line stroke="#000000" stroke-width="1" x1="333.07693" x2="333.07693" y1="60" y2="65"/>
<line stroke="#c0c0c0" stroke-width="0.5" x1="387.69232" x2="387.69232" y1="60" y2="540"/>
<line stroke="#000000" stroke-width="1" x1="387.69232" x2="387.69232" y1="540" y2="535"/>
<text dominant-baseline="hanging" fill="#000000" font-family="Times New Roman" font-size="10" text-anchor="middle" x="387.69232" y="549">
10
<tspan dx="-0.2em" dy="-0.4em">
0
</tspan>
</text>
<line stroke="#000000" stroke-width="1" x1="387.69232" x2="387.69232" y1="60" y2="65"/>
<line stroke="#c0c0c0" stroke-width="0.5" x1="442.3077" x2="442.3077" y1="60" y2="540"/>
<line stroke="#000000" stroke-width="1" x1="442.3077" x2="442.3077" y1="540" y2="535"/>
<text dominant-baseline="hanging" fill="#000000" font-family="Times New Roman" font-size="10" text-anchor="middle" x="442.3077" y="549">
10
<tspan dx="-0.2em" dy="-0.4em">
1
</tspan>
</text>
<line stroke="#000000" stroke-width="1" x1="442.3077" x2="442.3077" y1="60" y2="65"/>
<line stroke="#c0c0c0" stroke-width="0.5" x1="496.9231" x2="496.9231" y1="60" y2="540"/>
<line stroke="#000000" stroke-width="1" x1="496.9231" x2="496.9231" y1="540" y2="535"/>
<text dominant-baseline="hanging" fill="#000000" font-family="Times New Roman" font-size="10" text-anchor="middle" x="496.9231" y="549">
10
<tspan dx="-0.2em" dy="-0.4em">
2
</tspan>
</text>
<line stroke="#000000" stroke-width="1" x1="496.9231" x2="496.9231" y1="60" y2="65"/>
<line stroke="#c0c0c0" stroke-width="0.5" x1="551.53845" x2="551.53845" y1="60" y2="540"/>
<line stroke="#000000" stroke-width="1" x1="551.53845" x2="551.53845" y1="540" y2="535"/>
<text dominant-baseline="hanging" fill="#000000" font-family="Times New Roman" font-size="10" text-anchor="middle" x="551.53845" y="549">
10
<tspan dx="-0.2em" dy="-0.4em">
3
</tspan>
</text>
<line stroke="#000000" stroke-width="1" x1="551.53845" x2="551.53845" y1="60" y2="65"/>
<line stroke="#c0c0c0" stroke-width="0.5" x1="606.1539" x2="606.1539" y1="60" y2="540"/>
<line stroke="#000000" stroke-width="1" x1="606.1539" x2="606.1539" y1="540" y2="535"/>
<text dominant-baseline="hanging" fill="#000000" font-family="Times New Roman" font-size="10" text-anchor="middle" x="606.1539" y="549">
10
<tspan dx="-0.2em" dy="-0.4em">
4
</tspan>
</text>
<line stroke="#000000" stroke-width="1" x1="606.1539" x2="606.1539" y1="60" y2="65"/>
<line stroke="#c0c0c0" stroke-width="0.5" x1="660.7692" x2="660.7692" y1="60" y2="540"/>
<line stroke="#000000" stroke-width="1" x1="660.7692" x2="660.7692" y1="540" y2="535"/>
<text dominant-baseline="hanging" fill="#000000" font-family="Times New Roman" font-size="10" text-anchor="middle" x="660.7692" y="549">
10
<tspan dx="-0.2em" dy="-0.4em">
5
</tspan>
</text>
<line stroke="#000000" stroke-width="1" x1="660.7692" x2="660.7692" y1="60" y2="65"/>
<line stroke="#c0c0c0" stroke-width="0.5" x1="715.38464" x2="715.38464" y1="60" y2="540"/>
<line stroke="#000000" stroke-width="1" x1="715.38464" x2="715.38464" y1="540" y2="535"/>
<text dominant-baseline="hanging" fill="#000000" font-family="Times New Roman" font-size="10" text-anchor="middle" x="715.38464" y="549">
10
<tspan dx="-0.2em" dy="-0.4em">
6
</tspan>
</text>
<line stroke="#000000" stroke-width="1" x1="715.38464" x2="715.38464" y1="60" y2="65"/>
<line stroke="#000000" stroke-width="1" x1="770" x2="770" y1="540" y2="535"/>
<text dominant-baseline="hanging" fill="#000000" font-family="Times New Roman" font-size="10" text-anchor="middle" x="770" y="549">
10
<tspan dx="-0.2em" dy="-0.4em">
7
</tspan>
</text>
<line stroke="#000000" stroke-width="1" x1="770" x2="770" y1="60" y2="65"/>
<line stroke="#000000" stroke-width="1" x1="60" x2="65" y1="540" y2="540"/>
<line stroke="#000000" stroke-width="1" x1="770" x2="765" y1="540" y2="540"/>
<text dominant-baseline="middle" fill="#000000" font-family="Times New Roman" font-size="10" text-anchor="end" x="52" y="540">
0.0
</text>
<line stroke="#c0c0c0" stroke-width="0.5" x1="60" x2="770" y1="492" y2="492"/>
<line stroke="#000000" stroke-width="1" x1="60" x2="65" y1="492" y2="492"/>
<line stroke="#000000" stroke-width="1" x1="770" x2="765" y1="492" y2="492"/>
<text dominant-baseline="middle" fill="#000000" font-family="Times New Roman" font-size="10" text-anchor="end" x="52" y="492">
0.1
</text>
<line stroke="#c0c0c0" stroke-width="0.5" x1="60" x2="770" y1="444" y2="444"/>
<line stroke="#000000" stroke-width="1" x1="60" x2="65" y1="444" y2="444"/>
<line stroke="#000000" stroke-width="1" x1="770" x2="765" y1="444" y2="444"/>
<text dominant-baseline="middle" fill="#000000" font-family="Times New Roman" font-size="10" text-anchor="end" x="52" y="444">
0.2
</text>
<line stroke="#c0c0c0" stroke-width="0.5" x1="60" x2="770" y1="395.99997" y2="395.99997"/>
<line stroke="#000000" stroke-width="1" x1="60" x2="65" y1="395.99997" y2="395.99997"/>
<line stroke="#000000" stroke-width="1" x1="770" x2="765" y1="395.99997" y2="395.99997"/>
<text dominant-baseline="middle" fill="#000000" font-family="Times New Roman" font-size="10" text-anchor="end" x="52" y="395.99997">
0.3
</text>
<line stroke="#c0c0c0" stroke-width="0.5" x1="60" x2="770" y1="347.99997" y2="347.99997"/>
<line stroke="#000000" stroke-width="1" x1="60" x2="65" y1="347.99997" y2="347.99997"/>
<line stroke="#000000" stroke-width="1" x1="770" x2="765" y1="347.99997" y2="347.99997"/>
<text dominant-baseline="middle" fill="#000000" font-family="Times New Roman" font-size="10" text-anchor="end" x="52" y="347.99997">
0.4
</text>
<line stroke="#c0c0c0" stroke-width="0.5" x1="60" x2="770" y1="299.99994" y2="299.99994"/>
<line stroke="#000000" stroke-width="1" x1="60" x2="65" y1="299.99994" y2="299.99994"/>
<line stroke="#000000" stroke-width="1" x1="770" x2="765" y1="299.99994" y2="299.99994"/>
<text dominant-baseline="middle" fill="#000000" font-family="Times New Roman" font-size="10" text-anchor="end" x="52" y="299.99994">
0.5
</text>
<line stroke="#c0c0c0" stroke-width="0.5" x1="60" x2="770" y1="251.99994" y2="251.99994"/>
<line stroke="#000000" stroke-width="1" x1="60" x2="65" y1="251.99994" y2="251.99994"/>
<line stroke="#000000" stroke-width="1" x1="770" x2="765" y1="251.99994" y2="251.99994"/>
<text dominant-baseline="middle" fill="#000000" font-family="Times New Roman" font-size="10" text-anchor="end" x="52" y="251.99994">
0.6
</text>
<line stroke="#c0c0c0" stroke-width="0.5" x1="60" x2="770" y1="203.99991" y2="203.99991"/>
<line stroke="#000000" stroke-width="1" x1="60" x2="65" y1="203.99991" y2="203.99991"/>
<line stroke="#000000" stroke-width="1" x1="770" x2="765" y1="203.99991" y2="203.99991"/>
<text dominant-baseline="middle" fill="#000000" font-family="Times New Roman" font-size="10" text-anchor="end" x="52" y="203.99991">
0.7
</text>
<line stroke="#c0c0c0" stroke-width="0.5" x1="60" x2="770" y1="155.99991" y2="155.99991"/>
<line stroke="#000000" stroke-width="1" x1="60" x2="65" y1="155.99991" y2="155.99991"/>
<line stroke="#000000" stroke-width="1" x1="770" x2="765" y1="155.99991" y2="155.99991"/>
<text dominant-baseline="middle" fill="#000000" font-family="Times New Roman" font-size="10" text-anchor="end" x="52" y="155.99991">
0.8
</text>
<line stroke="#c0c0c0" stroke-width="0.5" x1="60" x2="770" y1="107.99988" y2="107.99988"/>
<line stroke="#000000" stroke-width="1" x1="60" x2="65" y1="107.99988" y2="107.99988"/>
<line stroke="#000000" stroke-width="1" x1="770" x2="765" y1="107.99988" y2="107.99988"/>
<text dominant-baseline="middle" fill="#000000" font-family="Times New Roman" font-size="10" text-anchor="end" x="52" y="107.99988">
0.9
</text>
<line stroke="#000000" stroke-width="1" x1="60" x2="65" y1="59.999817" y2="59.999817"/>
<line stroke="#000000" stroke-width="1" x1="770" x2="765" y1="59.999817" y2="59.999817"/>
<text dominant-baseline="middle" fill="#000000" font-family="Times New Roman" font-size="10" text-anchor="end" x="52" y="59.999817">
1.0
</text>
<defs>
<clipPath id="plotAreaClip">
<rect height="480" width="710" x="60" y="60"/>
</clipPath>
</defs>
<g clip-path="url(#plotAreaClip)">
<path d="M92.88173,60 L96.17513,60 L99.46851,60.00003 L102.76192,60.00003 L106.0553,60.00006 L109.34868,60.00006 L112.642075,60.00009 L115.935455,60.000122 L119.22887,60.000153 L122.52225,60.000183 L125.81565,60.000244 L129.10902,60.000244 L132.4024,60.000305 L135.69582,60.000366 L138.9892,60.000458 L142.2826,60.00055 L145.57597,60.00064 L148.86938,60.0007 L152.16275,60.000854 L155.45615,60.001007 L158.74954,60.00116 L162.04292,60.001343 L165.33633,60.001556 L168.6297,60.00177 L171.9231,60.002075 L175.21649,60.00238 L178.50989,60.002747 L181.80328,60.003174 L185.09665,60.003662 L188.39005,60.004242 L191.68344,60.004852 L194.97682,60.005615 L198.27022,60.00644 L201.56361,60.007416 L204.857,60.008514 L208.15038,60.009827 L211.44377,60.01129 L214.73717,60.013 L218.03056,60.014923 L221.32394,60.01715 L224.61734,60.019745 L227.91074,60.022675 L231.20412,60.026093 L234.49751,60.02997 L237.79091,60.034485 L241.08429,60.03961 L244.37769,60.045532 L247.67107,60.052338 L250.96446,60.06015 L254.25784,60.06909 L257.55124,60.079407 L260.84464,60.091217 L264.138,60.104797 L267.4314,60.12039 L270.7248,60.138306 L274.0182,60.158905 L277.31158,60.182526 L280.60498,60.209686 L283.89835,60.240845 L287.19177,60.27664 L290.48514,60.317688 L293.77853,60.36487 L297.07193,60.418976 L300.3653,60.48108 L303.6587,60.552307 L306.9521,60.634064 L310.24548,60.727783 L313.53888,60.835266 L316.83224,60.958435 L320.12567,61.09958 L323.41904,61.26117 L326.71243,61.446167 L330.00583,61.657837 L333.29922,61.899902 L336.5926,62.176453 L339.886,62.49228 L343.17938,62.85254 L346.47278,63.263092 L349.76617,63.73044 L353.05954,64.26169 L356.35294,64.86478 L359.64633,65.54822 L362.9397,66.32129 L366.23312,67.19403 L369.5265,68.174835 L372.8199,69.277435 L376.11328,70.51453 L379.40665,71.89789 L382.70007,73.43909 L385.99344,75.14926 L389.28683,77.0387 L392.58023,79.11682 L395.87363,81.392426 L399.16702,83.87494 L402.46042,86.5708 L405.75378,89.48956 L409.04718,92.6301 L412.34058,95.98987 L415.63394,99.56833 L418.92737,103.36969 L422.22073,107.38611 L425.5141,111.607086 L428.80753,116.030365 L432.1009,120.6546 L435.39432,125.46271 L438.68768,130.45258 L441.98108,135.62234 L445.27448,140.9549 L448.56787,146.45563 L451.86124,152.11398 L455.15463,157.92215 L458.44803,163.88766 L461.74142,169.99326 L465.0348,176.24673 L468.3282,182.64072 L471.6216,189.17041 L474.91498,195.84302 L478.20834,202.64215 L481.50177,209.58148 L484.79514,216.64517 L488.08853,223.83652 L491.38193,231.1528 L494.67535,238.5845 L497.96875,246.13873 L501.2621,253.79477 L504.5555,261.56503 L507.8489,269.42664 L511.14224,277.38364 L514.43567,285.42258 L517.72906,293.5341 L521.0224,301.71472 L524.3158,309.94205 L527.60925,318.2205 L530.9026,326.51837 L534.196,334.8422 L537.4894,343.15906 L540.78284,351.46835 L544.0762,359.74432 L547.36957,367.97488 L550.66296,376.14276 L553.95636,384.22748 L557.24976,392.21707 L560.5431,400.08502 L563.83655,407.82416 L567.1299,415.40427 L570.4233,422.82172 L573.71674,430.04535 L577.01,437.07397 L580.30347,443.878 L583.59686,450.4579 L586.89026,456.78778 L590.18365,462.86926 L593.47705,468.6819 L596.77045,474.228 L600.06384,479.49408 L603.3572,484.48227 L606.6506,489.18723 L609.944,493.61145 L613.23737,497.75604 L616.53076,501.62393 L619.82416,505.22437 L623.1175,508.55875 L626.41095,511.6425 L629.70435,514.47815 L632.9977,517.0836 L636.29114,519.464 L639.5845,521.636 L642.87787,523.6096 L646.17126,525.39764 L649.46466,527.01514 L652.758,528.4709 L656.05145,529.78143 L659.3448,530.9553 L662.63824,532.00604 L665.9316,532.9441 L669.225,533.779 L672.51843,534.52216 L675.81177,535.1809 L679.1051,535.76514 L682.39856,536.2816 L685.6919,536.7376 L688.98535,537.1404 L692.27875,537.4946 L695.57214,537.8068 L698.8655,538.08093 L702.15894,538.32184 L705.4523,538.53314 L708.74567,538.7183 L712.03906,538.8808 L715.33246,539.0227 L718.6258,539.1472 L721.91925,539.2558 L725.2126,539.35095 L728.50604,539.4339 L731.7994,539.5065 L735.0928,539.5697 L738.3862,539.62506 L741.67957,539.67316 L744.97296,539.71533 L748.26636,539.75195" fill="none" stroke="#0000ff" stroke-width="1"/>
<path d="M92.88173,539.232 L96.17513,539.1176 L99.46851,538.9862 L102.76192,538.8352 L106.0553,538.6617 L109.34868,538.46234 L112.642075,538.23334 L115.935455,537.9702 L119.22887,537.6679 L122.52225,537.32056 L125.81565,536.9216 L129.10902,536.46313 L132.4024,535.93646 L135.69582,535.3315 L138.9892,534.63635 L142.2826,533.8378 L145.57597,532.9208 L148.86938,531.8677 L152.16275,530.6585 L155.45615,529.27045 L158.74954,527.67737 L162.04292,525.8497 L165.33633,523.7536 L168.6297,521.35126 L171.9231,518.5998 L175.21649,515.45166 L178.50989,511.85437 L181.80328,507.75098 L185.09665,503.08105 L188.39005,497.78268 L191.68344,491.79453 L194.97682,485.0656 L198.27022,477.55127 L201.56361,469.2303 L204.857,460.1176 L208.15038,450.2916 L211.44377,439.8791 L214.73717,429.08563 L218.03056,418.2163 L221.32394,407.64148 L224.61734,397.76202 L227.91074,388.96143 L231.20412,381.55847 L234.49751,375.73102 L237.79091,371.39423 L241.08429,368.49432 L244.37769,366.67935 L247.67107,365.66495 L250.96446,365.15585 L254.25784,364.9426 L257.55124,364.87054 L260.84464,364.86203 L264.138,364.88013 L267.4314,364.9062 L270.7248,364.93927 L274.0182,364.9774 L277.31158,365.02094 L280.60498,365.07104 L283.89835,365.1286 L287.19177,365.1947 L290.48514,365.2705 L293.77853,365.3575 L297.07193,365.45734 L300.3653,365.57178 L303.6587,365.70303 L306.9521,365.85352 L310.24548,366.02594 L313.53888,366.22345 L316.83224,366.44962 L320.12567,366.70844 L323.41904,367.00446 L326.71243,367.34283 L330.00583,367.72934 L333.29922,368.17044 L336.5926,368.67334 L339.886,369.2461 L343.17938,369.89758 L346.47278,370.6375 L349.76617,371.47647 L353.05954,372.42603 L356.35294,373.49844 L359.64633,374.7068 L362.9397,376.06476 L366.23312,377.58643 L369.5265,379.28125 L372.8199,381.16888 L376.11328,383.26453 L379.40665,385.57953 L382.70007,388.12274 L385.99344,390.89954 L389.28683,393.9115 L392.58023,397.1568 L395.87363,400.63177 L399.16702,404.3359 L402.46042,408.24817 L405.75378,412.35727 L409.04718,416.63095 L412.34058,421.0366 L415.63394,425.55115 L418.92737,430.1455 L422.22073,434.77728 L425.5141,439.4107 L428.80753,444.02112 L432.1009,448.57922 L435.39432,453.04892 L438.68768,457.41812 L441.98108,461.6648 L445.27448,465.76947 L448.56787,469.73102 L451.86124,473.53116 L455.15463,477.17307 L458.44803,480.6554 L461.74142,483.97134 L465.0348,487.13217 L468.3282,490.1327 L471.6216,492.98486 L474.91498,495.6909 L478.20834,498.2544 L481.50177,500.68732 L484.79514,502.9885 L488.08853,505.17014 L491.38193,507.23364 L494.67535,509.18875 L497.96875,511.03958 L501.2621,512.79016 L504.5555,514.4494 L507.8489,516.01764 L511.14224,517.50354 L514.43567,518.9081 L517.72906,520.2386 L521.0224,521.4968 L524.3158,522.6872 L527.60925,523.81384 L530.9026,524.87805 L534.196,525.88556 L537.4894,526.83636 L540.78284,527.7357 L544.0762,528.58405 L547.36957,529.3854 L550.66296,530.1406 L553.95636,530.853 L557.24976,531.5238 L560.5431,532.1552 L563.83655,532.7491 L567.1299,533.3068 L570.4233,533.8305 L573.71674,534.3211 L577.01,534.7808 L580.30347,535.2103 L583.59686,535.6117 L586.89026,535.98566 L590.18365,536.33405 L593.47705,536.65765 L596.77045,536.95807 L600.06384,537.23615 L603.3572,537.4933 L606.6506,537.73047 L609.944,537.94885 L613.23737,538.14954 L616.53076,538.33344 L619.82416,538.50183 L623.1175,538.6554 L626.41095,538.7955 L629.70435,538.92255 L632.9977,539.03796 L636.29114,539.14233 L639.5845,539.2366 L642.87787,539.32153 L646.17126,539.3978 L649.46466,539.4664 L652.758,539.52765 L656.05145,539.58246 L659.3448,539.63135 L662.63824,539.67487 L665.9316,539.7136 L669.225,539.7479 L672.51843,539.7784 L675.81177,539.8053 L679.1051,539.8291 L682.39856,539.8501 L685.6919,539.86865 L688.98535,539.88495 L692.27875,539.8993 L695.57214,539.91187 L698.8655,539.9229 L702.15894,539.9326 L705.4523,539.94116 L708.74567,539.9486 L712.03906,539.95514 L715.33246,539.9608 L718.6258,539.9658 L721.91925,539.9702 L725.2126,539.974 L728.50604,539.97736 L731.7994,539.9802 L735.0928,539.9828 L738.3862,539.985 L741.67957,539.98694 L744.97296,539.9886 L748.26636,539.99005" fill="none" stroke="#ffa500" stroke-width="1"/>
<path d="M92.88173,540 L96.17513,540 L99.46851,540 L102.76192,540 L106.0553,540 L109.34868,540 L112.642075,540 L115.935455,540 L119.22887,540 L122.52225,540 L125.81565,540 L129.10902,540 L132.4024,540 L135.69582,540 L138.9892,540 L142.2826,540 L145.57597,540 L148.86938,540 L152.16275,540 L155.45615,540 L158.74954,540 L162.04292,540 L165.33633,540 L168.6297,540 L171.9231,540 L175.21649,540 L178.50989,540 L181.80328,539.99994 L185.09665,539.99994 L188.39005,539.99994 L191.68344,539.9999 L194.97682,539.9998 L198.27022,539.9997 L201.56361,539.9996 L204.857,539.9994 L208.15038,539.9991 L211.44377,539.99866 L214.73717,539.998 L218.03056,539.99713 L221.32394,539.996 L224.61734,539.9944 L227.91074,539.9923 L231.20412,539.9897 L234.49751,539.9863 L237.79091,539.9823 L241.08429,539.9774 L244.37769,539.97174 L247.67107,539.965 L250.96446,539.9573 L254.25784,539.9483 L257.55124,539.93805 L260.84464,539.9262 L264.138,539.91266 L267.4314,539.89703 L270.7248,539.8791 L274.0182,539.8585 L277.31158,539.8349 L280.60498,539.80774 L283.89835,539.77655 L287.19177,539.7408 L290.48514,539.6997 L293.77853,539.6525 L297.07193,539.5984 L300.3653,539.53625 L303.6587,539.465 L306.9521,539.38324 L310.24548,539.2895 L313.53888,539.182 L316.83224,539.05884 L320.12567,538.91766 L323.41904,538.75604 L326.71243,538.571 L330.00583,538.3593 L333.29922,538.1172 L336.5926,537.8406 L339.886,537.5247 L343.17938,537.16437 L346.47278,536.7538 L349.76617,536.2863 L353.05954,535.75494 L356.35294,535.1518 L359.64633,534.46826 L362.9397,533.695 L366.23312,532.8221 L369.5265,531.8412 L372.8199,530.73834 L376.11328,529.5011 L379.40665,528.1175 L382.70007,526.576 L385.99344,524.86554 L389.28683,522.9758 L392.58023,520.8974 L395.87363,518.6214 L399.16702,516.13855 L402.46042,513.44226 L405.75378,510.5231 L409.04718,507.38214 L412.34058,504.0219 L415.63394,500.44302 L418.92737,496.64124 L422.22073,492.62436 L425.5141,488.40286 L428.80753,483.97916 L432.1009,479.35443 L435.39432,474.5459 L438.68768,469.5556 L441.98108,464.38538 L445.27448,459.05243 L448.56787,453.55133 L451.86124,447.89258 L455.15463,442.08408 L458.44803,436.11816 L461.74142,430.01227 L465.0348,423.75845 L468.3282,417.3642 L471.6216,410.83423 L474.91498,404.16132 L478.20834,397.36194 L481.50177,390.42236 L484.79514,383.35843 L488.08853,376.16687 L491.38193,368.8504 L494.67535,361.4185 L497.96875,353.86407 L501.2621,346.2079 L504.5555,338.43738 L507.8489,330.57565 L511.14224,322.61847 L514.43567,314.57944 L517.72906,306.46777 L521.0224,298.28702 L524.3158,290.05957 L527.60925,281.781 L530.9026,273.483 L534.196,265.15912 L537.4894,256.8422 L540.78284,248.53278 L544.0762,240.25674 L547.36957,232.0261 L550.66296,223.85815 L553.95636,215.77335 L557.24976,207.78369 L560.5431,199.91568 L563.83655,192.17645 L567.1299,184.59631 L570.4233,177.17883 L573.71674,169.95511 L577.01,162.92651 L580.30347,156.12238 L583.59686,149.54248 L586.89026,143.21255 L590.18365,137.13101 L593.47705,131.31836 L596.77045,125.77222 L600.06384,120.5061 L603.3572,115.51785 L606.6506,110.8129 L609.944,106.38864 L613.23737,102.24402 L616.53076,98.37616 L619.82416,94.775665 L623.1175,91.441284 L626.41095,88.357544 L629.70435,85.52185 L632.9977,82.91641 L636.29114,80.53601 L639.5845,78.36401 L642.87787,76.39038 L646.17126,74.602356 L649.46466,72.98483 L652.758,71.52908 L656.05145,70.218475 L659.3448,69.04465 L662.63824,67.9939 L665.9316,67.05585 L669.225,66.22098 L672.51843,65.47778 L675.81177,64.81903 L679.1051,64.2348 L682.39856,63.71826 L685.6919,63.262268 L688.98535,62.859497 L692.27875,62.50531 L695.57214,62.193115 L698.8655,61.918976 L702.15894,61.6781 L705.4523,61.466766 L708.74567,61.281616 L712.03906,61.11914 L715.33246,60.977203 L718.6258,60.852722 L721.91925,60.74414 L725.2126,60.648926 L728.50604,60.56604 L731.7994,60.49341 L735.0928,60.430206 L738.3862,60.374847 L741.67957,60.32675 L744.97296,60.284607 L748.26636,60.247986" fill="none" stroke="#008000" stroke-width="1"/>
</g>
<rect fill="white" height="74" stroke="#000000" stroke-width="1" width="128" x="70" y="70"/>
<rect fill="#0000ff" height="14.400001" width="15" x="80" y="81.8"/>
<text dominant-baseline="middle" fill="#000000" font-family="Times New Roman" font-size="12" text-anchor="start" x="100" y="89">
Concentration A
</text>
<rect fill="#ffa500" height="14.400001" width="15" x="80" y="99.8"/>
<text dominant-baseline="middle" fill="#000000" font-family="Times New Roman" font-size="12" text-anchor="start" x="100" y="107">
Concentration B
</text>
<rect fill="#008000" height="14.400001" width="15" x="80" y="117.8"/>
<text dominant-baseline="middle" fill="#000000" font-family="Times New Roman" font-size="12" text-anchor="start" x="100" y="125">
Concentration C
</text>
</svg>