<svg height="600" viewBox="0 0 800 600" width="800" xmlns="http://www.w3.org/2000/svg">
<rect fill="white" height="600" width="800" x="0" y="0"/>
<text dominant-baseline="middle" fill="#000000" font-family="Times New Roman" font-size="20" text-anchor="middle" x="415" y="30">
Robertson DAE problem with a Conservation Law
</text>
<text dominant-baseline="middle" fill="#000000" font-family="Times New Roman" font-size="14" text-anchor="middle" x="415" y="576">
Time (t)
</text>
<text dominant-baseline="middle" fill="#000000" font-family="Times New Roman" font-size="14" text-anchor="middle" transform="rotate(-90, 18, 300)" x="18" y="300">
y1, 1e4 * y2, y3
</text>
<rect fill="none" height="480" stroke="#000000" stroke-width="1.5" width="710" x="60" y="60"/>
<line stroke="#000000" stroke-width="1" x1="60" x2="60" y1="540" y2="535"/>
<text dominant-baseline="hanging" fill="#000000" font-family="Times New Roman" font-size="10" text-anchor="middle" x="60" y="549">
10
<tspan dx="-0.2em" dy="-0.4em">
-6
</tspan>
</text>
<line stroke="#000000" stroke-width="1" x1="60" x2="60" y1="60" y2="65"/>
<line stroke="#c0c0c0" stroke-width="0.5" x1="114.61539" x2="114.61539" y1="60" y2="540"/>
<line stroke="#000000" stroke-width="1" x1="114.61539" x2="114.61539" y1="540" y2="535"/>
<text dominant-baseline="hanging" fill="#000000" font-family="Times New Roman" font-size="10" text-anchor="middle" x="114.61539" y="549">
10
<tspan dx="-0.2em" dy="-0.4em">
-5
</tspan>
</text>
<line stroke="#000000" stroke-width="1" x1="114.61539" x2="114.61539" y1="60" y2="65"/>
<line stroke="#c0c0c0" stroke-width="0.5" x1="169.23077" x2="169.23077" y1="60" y2="540"/>
<line stroke="#000000" stroke-width="1" x1="169.23077" x2="169.23077" y1="540" y2="535"/>
<text dominant-baseline="hanging" fill="#000000" font-family="Times New Roman" font-size="10" text-anchor="middle" x="169.23077" y="549">
10
<tspan dx="-0.2em" dy="-0.4em">
-4
</tspan>
</text>
<line stroke="#000000" stroke-width="1" x1="169.23077" x2="169.23077" y1="60" y2="65"/>
<line stroke="#c0c0c0" stroke-width="0.5" x1="223.84616" x2="223.84616" y1="60" y2="540"/>
<line stroke="#000000" stroke-width="1" x1="223.84616" x2="223.84616" y1="540" y2="535"/>
<text dominant-baseline="hanging" fill="#000000" font-family="Times New Roman" font-size="10" text-anchor="middle" x="223.84616" y="549">
10
<tspan dx="-0.2em" dy="-0.4em">
-3
</tspan>
</text>
<line stroke="#000000" stroke-width="1" x1="223.84616" x2="223.84616" y1="60" y2="65"/>
<line stroke="#c0c0c0" stroke-width="0.5" x1="278.46155" x2="278.46155" y1="60" y2="540"/>
<line stroke="#000000" stroke-width="1" x1="278.46155" x2="278.46155" y1="540" y2="535"/>
<text dominant-baseline="hanging" fill="#000000" font-family="Times New Roman" font-size="10" text-anchor="middle" x="278.46155" y="549">
10
<tspan dx="-0.2em" dy="-0.4em">
-2
</tspan>
</text>
<line stroke="#000000" stroke-width="1" x1="278.46155" x2="278.46155" y1="60" y2="65"/>
<line stroke="#c0c0c0" stroke-width="0.5" x1="333.07693" x2="333.07693" y1="60" y2="540"/>
<line stroke="#000000" stroke-width="1" x1="333.07693" x2="333.07693" y1="540" y2="535"/>
<text dominant-baseline="hanging" fill="#000000" font-family="Times New Roman" font-size="10" text-anchor="middle" x="333.07693" y="549">
10
<tspan dx="-0.2em" dy="-0.4em">
-1
</tspan>
</text>
<line stroke="#000000" stroke-width="1" x1="333.07693" x2="333.07693" y1="60" y2="65"/>
<line stroke="#c0c0c0" stroke-width="0.5" x1="387.69232" x2="387.69232" y1="60" y2="540"/>
<line stroke="#000000" stroke-width="1" x1="387.69232" x2="387.69232" y1="540" y2="535"/>
<text dominant-baseline="hanging" fill="#000000" font-family="Times New Roman" font-size="10" text-anchor="middle" x="387.69232" y="549">
10
<tspan dx="-0.2em" dy="-0.4em">
0
</tspan>
</text>
<line stroke="#000000" stroke-width="1" x1="387.69232" x2="387.69232" y1="60" y2="65"/>
<line stroke="#c0c0c0" stroke-width="0.5" x1="442.3077" x2="442.3077" y1="60" y2="540"/>
<line stroke="#000000" stroke-width="1" x1="442.3077" x2="442.3077" y1="540" y2="535"/>
<text dominant-baseline="hanging" fill="#000000" font-family="Times New Roman" font-size="10" text-anchor="middle" x="442.3077" y="549">
10
<tspan dx="-0.2em" dy="-0.4em">
1
</tspan>
</text>
<line stroke="#000000" stroke-width="1" x1="442.3077" x2="442.3077" y1="60" y2="65"/>
<line stroke="#c0c0c0" stroke-width="0.5" x1="496.9231" x2="496.9231" y1="60" y2="540"/>
<line stroke="#000000" stroke-width="1" x1="496.9231" x2="496.9231" y1="540" y2="535"/>
<text dominant-baseline="hanging" fill="#000000" font-family="Times New Roman" font-size="10" text-anchor="middle" x="496.9231" y="549">
10
<tspan dx="-0.2em" dy="-0.4em">
2
</tspan>
</text>
<line stroke="#000000" stroke-width="1" x1="496.9231" x2="496.9231" y1="60" y2="65"/>
<line stroke="#c0c0c0" stroke-width="0.5" x1="551.53845" x2="551.53845" y1="60" y2="540"/>
<line stroke="#000000" stroke-width="1" x1="551.53845" x2="551.53845" y1="540" y2="535"/>
<text dominant-baseline="hanging" fill="#000000" font-family="Times New Roman" font-size="10" text-anchor="middle" x="551.53845" y="549">
10
<tspan dx="-0.2em" dy="-0.4em">
3
</tspan>
</text>
<line stroke="#000000" stroke-width="1" x1="551.53845" x2="551.53845" y1="60" y2="65"/>
<line stroke="#c0c0c0" stroke-width="0.5" x1="606.1539" x2="606.1539" y1="60" y2="540"/>
<line stroke="#000000" stroke-width="1" x1="606.1539" x2="606.1539" y1="540" y2="535"/>
<text dominant-baseline="hanging" fill="#000000" font-family="Times New Roman" font-size="10" text-anchor="middle" x="606.1539" y="549">
10
<tspan dx="-0.2em" dy="-0.4em">
4
</tspan>
</text>
<line stroke="#000000" stroke-width="1" x1="606.1539" x2="606.1539" y1="60" y2="65"/>
<line stroke="#c0c0c0" stroke-width="0.5" x1="660.7692" x2="660.7692" y1="60" y2="540"/>
<line stroke="#000000" stroke-width="1" x1="660.7692" x2="660.7692" y1="540" y2="535"/>
<text dominant-baseline="hanging" fill="#000000" font-family="Times New Roman" font-size="10" text-anchor="middle" x="660.7692" y="549">
10
<tspan dx="-0.2em" dy="-0.4em">
5
</tspan>
</text>
<line stroke="#000000" stroke-width="1" x1="660.7692" x2="660.7692" y1="60" y2="65"/>
<line stroke="#c0c0c0" stroke-width="0.5" x1="715.38464" x2="715.38464" y1="60" y2="540"/>
<line stroke="#000000" stroke-width="1" x1="715.38464" x2="715.38464" y1="540" y2="535"/>
<text dominant-baseline="hanging" fill="#000000" font-family="Times New Roman" font-size="10" text-anchor="middle" x="715.38464" y="549">
10
<tspan dx="-0.2em" dy="-0.4em">
6
</tspan>
</text>
<line stroke="#000000" stroke-width="1" x1="715.38464" x2="715.38464" y1="60" y2="65"/>
<line stroke="#000000" stroke-width="1" x1="770" x2="770" y1="540" y2="535"/>
<text dominant-baseline="hanging" fill="#000000" font-family="Times New Roman" font-size="10" text-anchor="middle" x="770" y="549">
10
<tspan dx="-0.2em" dy="-0.4em">
7
</tspan>
</text>
<line stroke="#000000" stroke-width="1" x1="770" x2="770" y1="60" y2="65"/>
<line stroke="#000000" stroke-width="1" x1="60" x2="65" y1="540" y2="540"/>
<line stroke="#000000" stroke-width="1" x1="770" x2="765" y1="540" y2="540"/>
<text dominant-baseline="middle" fill="#000000" font-family="Times New Roman" font-size="10" text-anchor="end" x="52" y="540">
0.0
</text>
<line stroke="#c0c0c0" stroke-width="0.5" x1="60" x2="770" y1="492" y2="492"/>
<line stroke="#000000" stroke-width="1" x1="60" x2="65" y1="492" y2="492"/>
<line stroke="#000000" stroke-width="1" x1="770" x2="765" y1="492" y2="492"/>
<text dominant-baseline="middle" fill="#000000" font-family="Times New Roman" font-size="10" text-anchor="end" x="52" y="492">
0.1
</text>
<line stroke="#c0c0c0" stroke-width="0.5" x1="60" x2="770" y1="444" y2="444"/>
<line stroke="#000000" stroke-width="1" x1="60" x2="65" y1="444" y2="444"/>
<line stroke="#000000" stroke-width="1" x1="770" x2="765" y1="444" y2="444"/>
<text dominant-baseline="middle" fill="#000000" font-family="Times New Roman" font-size="10" text-anchor="end" x="52" y="444">
0.2
</text>
<line stroke="#c0c0c0" stroke-width="0.5" x1="60" x2="770" y1="395.99997" y2="395.99997"/>
<line stroke="#000000" stroke-width="1" x1="60" x2="65" y1="395.99997" y2="395.99997"/>
<line stroke="#000000" stroke-width="1" x1="770" x2="765" y1="395.99997" y2="395.99997"/>
<text dominant-baseline="middle" fill="#000000" font-family="Times New Roman" font-size="10" text-anchor="end" x="52" y="395.99997">
0.3
</text>
<line stroke="#c0c0c0" stroke-width="0.5" x1="60" x2="770" y1="347.99997" y2="347.99997"/>
<line stroke="#000000" stroke-width="1" x1="60" x2="65" y1="347.99997" y2="347.99997"/>
<line stroke="#000000" stroke-width="1" x1="770" x2="765" y1="347.99997" y2="347.99997"/>
<text dominant-baseline="middle" fill="#000000" font-family="Times New Roman" font-size="10" text-anchor="end" x="52" y="347.99997">
0.4
</text>
<line stroke="#c0c0c0" stroke-width="0.5" x1="60" x2="770" y1="299.99994" y2="299.99994"/>
<line stroke="#000000" stroke-width="1" x1="60" x2="65" y1="299.99994" y2="299.99994"/>
<line stroke="#000000" stroke-width="1" x1="770" x2="765" y1="299.99994" y2="299.99994"/>
<text dominant-baseline="middle" fill="#000000" font-family="Times New Roman" font-size="10" text-anchor="end" x="52" y="299.99994">
0.5
</text>
<line stroke="#c0c0c0" stroke-width="0.5" x1="60" x2="770" y1="251.99994" y2="251.99994"/>
<line stroke="#000000" stroke-width="1" x1="60" x2="65" y1="251.99994" y2="251.99994"/>
<line stroke="#000000" stroke-width="1" x1="770" x2="765" y1="251.99994" y2="251.99994"/>
<text dominant-baseline="middle" fill="#000000" font-family="Times New Roman" font-size="10" text-anchor="end" x="52" y="251.99994">
0.6
</text>
<line stroke="#c0c0c0" stroke-width="0.5" x1="60" x2="770" y1="203.99991" y2="203.99991"/>
<line stroke="#000000" stroke-width="1" x1="60" x2="65" y1="203.99991" y2="203.99991"/>
<line stroke="#000000" stroke-width="1" x1="770" x2="765" y1="203.99991" y2="203.99991"/>
<text dominant-baseline="middle" fill="#000000" font-family="Times New Roman" font-size="10" text-anchor="end" x="52" y="203.99991">
0.7
</text>
<line stroke="#c0c0c0" stroke-width="0.5" x1="60" x2="770" y1="155.99991" y2="155.99991"/>
<line stroke="#000000" stroke-width="1" x1="60" x2="65" y1="155.99991" y2="155.99991"/>
<line stroke="#000000" stroke-width="1" x1="770" x2="765" y1="155.99991" y2="155.99991"/>
<text dominant-baseline="middle" fill="#000000" font-family="Times New Roman" font-size="10" text-anchor="end" x="52" y="155.99991">
0.8
</text>
<line stroke="#c0c0c0" stroke-width="0.5" x1="60" x2="770" y1="107.99988" y2="107.99988"/>
<line stroke="#000000" stroke-width="1" x1="60" x2="65" y1="107.99988" y2="107.99988"/>
<line stroke="#000000" stroke-width="1" x1="770" x2="765" y1="107.99988" y2="107.99988"/>
<text dominant-baseline="middle" fill="#000000" font-family="Times New Roman" font-size="10" text-anchor="end" x="52" y="107.99988">
0.9
</text>
<line stroke="#000000" stroke-width="1" x1="60" x2="65" y1="59.999817" y2="59.999817"/>
<line stroke="#000000" stroke-width="1" x1="770" x2="765" y1="59.999817" y2="59.999817"/>
<text dominant-baseline="middle" fill="#000000" font-family="Times New Roman" font-size="10" text-anchor="end" x="52" y="59.999817">
1.0
</text>
<defs>
<clipPath id="plotAreaClip">
<rect height="480" width="710" x="60" y="60"/>
</clipPath>
</defs>
<g clip-path="url(#plotAreaClip)">
<path d="M92.88173,60 L96.17513,60 L99.46851,60.00003 L102.76192,60.00003 L106.0553,60.00006 L109.34868,60.00006 L112.642075,60.00009 L115.935455,60.000122 L119.22887,60.000153 L122.52225,60.000183 L125.81565,60.000244 L129.10902,60.000244 L132.4024,60.000305 L135.69582,60.000366 L138.9892,60.000458 L142.2826,60.00055 L145.57597,60.00064 L148.86938,60.0007 L152.16275,60.000854 L155.45615,60.001007 L158.74954,60.00116 L162.04292,60.001343 L165.33633,60.001556 L168.6297,60.00177 L171.9231,60.002075 L175.21649,60.00238 L178.50989,60.002747 L181.80328,60.003174 L185.09665,60.003662 L188.39005,60.004242 L191.68344,60.004852 L194.97682,60.005615 L198.27022,60.00644 L201.56361,60.007416 L204.857,60.008514 L208.15038,60.009827 L211.44377,60.01129 L214.73717,60.013 L218.03056,60.014923 L221.32394,60.01715 L224.61734,60.019745 L227.91074,60.022675 L231.20412,60.026093 L234.49751,60.02997 L237.79091,60.034485 L241.08429,60.03961 L244.37769,60.045532 L247.67107,60.052338 L250.96446,60.06015 L254.25784,60.06909 L257.55124,60.079407 L260.84464,60.091217 L264.138,60.104797 L267.4314,60.12039 L270.7248,60.138306 L274.0182,60.158905 L277.31158,60.182526 L280.60498,60.209686 L283.89835,60.240845 L287.19177,60.27664 L290.48514,60.317688 L293.77853,60.36487 L297.07193,60.418976 L300.3653,60.48108 L303.6587,60.552307 L306.9521,60.634064 L310.24548,60.727783 L313.53888,60.835236 L316.83224,60.958435 L320.12567,61.09955 L323.41904,61.2612 L326.71243,61.446228 L330.00583,61.657898 L333.29922,61.899963 L336.5926,62.176544 L339.886,62.49234 L343.17938,62.8526 L346.47278,63.263153 L349.76617,63.730133 L353.05954,64.26041 L356.35294,64.8627 L359.64633,65.545715 L362.9397,66.31879 L366.23312,67.191925 L369.5265,68.17575 L372.8199,69.28131 L376.11328,70.51999 L379.40665,71.90332 L382.70007,73.44284 L385.99344,75.149994 L389.28683,77.03638 L392.58023,79.112305 L395.87363,81.38934 L399.16702,83.875275 L402.46042,86.57434 L405.75378,89.49042 L409.04718,92.627075 L412.34058,95.98929 L415.63394,99.57147 L418.92737,103.369446 L422.22073,107.384125 L425.5141,111.60797 L428.80753,116.03088 L432.1009,120.65338 L435.39432,125.46301 L438.68768,130.45291 L441.98108,135.62167 L445.27448,140.95499 L448.56787,146.45627 L451.86124,152.113 L455.15463,157.92456 L458.44803,163.88623 L461.74142,169.99377 L465.0348,176.24707 L468.3282,182.63882 L471.6216,189.1731 L474.91498,195.83978 L478.20834,202.64563 L481.50177,209.57837 L484.79514,216.64612 L488.08853,223.83484 L491.38193,231.1529 L494.67535,238.58472 L497.96875,246.13794 L501.2621,253.79575 L504.5555,261.56436 L507.8489,269.42575 L511.14224,277.38416 L514.43567,285.42035 L517.72906,293.53635 L521.0224,301.71158 L524.3158,309.94574 L527.60925,318.2168 L530.9026,326.52246 L534.196,334.83862 L537.4894,343.16174 L540.78284,351.46542 L544.0762,359.74536 L547.36957,367.97287 L550.66296,376.14337 L553.95636,384.22638 L557.24976,392.21722 L560.5431,400.08478 L563.83655,407.82382 L567.1299,415.40488 L570.4233,422.82086 L573.71674,430.04684 L577.01,437.0726 L580.30347,443.88025 L583.59686,450.45605 L586.89026,456.79037 L590.18365,462.86664 L593.47705,468.68402 L596.77045,474.22592 L600.06384,479.49515 L603.3572,484.4819 L606.6506,489.18707 L609.944,493.61206 L613.23737,497.75443 L616.53076,501.62524 L619.82416,505.2229 L623.1175,508.5598 L626.41095,511.64203 L629.70435,514.4785 L632.9977,517.0835 L636.29114,519.464 L639.5845,521.63586 L642.87787,523.6097 L646.17126,525.3976 L649.46466,527.01495 L652.758,528.47125 L656.05145,529.7811 L659.3448,530.9557 L662.63824,532.0057 L665.9316,532.9441 L669.225,533.7791 L672.51843,534.522 L675.81177,535.1813 L679.1051,535.76483 L682.39856,536.2818 L685.6919,536.7377 L688.98535,537.1403 L692.27875,537.49475 L695.57214,537.80676 L698.8655,538.08105 L702.15894,538.3217 L705.4523,538.5332 L708.74567,538.71826 L712.03906,538.8808 L715.33246,539.0227 L718.6258,539.1472 L721.91925,539.25574 L725.2126,539.35095 L728.50604,539.4339 L731.7994,539.5065 L735.0928,539.56976 L738.3862,539.625 L741.67957,539.6733 L744.97296,539.7153 L748.26636,539.75195" fill="none" stroke="#0000ff" stroke-width="1"/>
<path d="M92.88173,539.232 L96.17513,539.1176 L99.46851,538.9862 L102.76192,538.8352 L106.0553,538.6617 L109.34868,538.46234 L112.642075,538.23334 L115.935455,537.9702 L119.22887,537.6679 L122.52225,537.32056 L125.81565,536.9216 L129.10902,536.46313 L132.4024,535.93646 L135.69582,535.3315 L138.9892,534.63654 L142.2826,533.83826 L145.57597,532.9214 L148.86938,531.8684 L152.16275,530.6592 L155.45615,529.2709 L158.74954,527.6776 L162.04292,525.8497 L165.33633,523.7535 L168.6297,521.35095 L171.9231,518.5994 L175.21649,515.4513 L178.50989,511.8541 L181.80328,507.75085 L185.09665,503.08118 L188.39005,497.7832 L191.68344,491.79514 L194.97682,485.06592 L198.27022,477.55136 L201.56361,469.23038 L204.857,460.11926 L208.15038,450.29315 L211.44377,439.8775 L214.73717,429.08365 L218.03056,418.2188 L221.32394,407.6399 L224.61734,397.75848 L227.91074,388.96332 L231.20412,381.57257 L234.49751,375.69907 L237.79091,371.41364 L241.08429,368.49292 L244.37769,366.67993 L247.67107,365.66412 L250.96446,365.15582 L254.25784,364.94342 L257.55124,364.86932 L260.84464,364.86325 L264.138,364.87927 L267.4314,364.9065 L270.7248,364.9394 L274.0182,364.97723 L277.31158,365.02094 L280.60498,365.0711 L283.89835,365.12866 L287.19177,365.1947 L290.48514,365.2705 L293.77853,365.35748 L297.07193,365.4573 L300.3653,365.57178 L303.6587,365.70303 L306.9521,365.85352 L310.24548,366.02594 L313.53888,366.22345 L316.83224,366.44965 L320.12567,366.7085 L323.41904,367.00458 L326.71243,367.34296 L330.00583,367.7295 L333.29922,368.17062 L336.5926,368.67352 L339.886,369.24625 L343.17938,369.89764 L346.47278,370.63742 L349.76617,371.4757 L353.05954,372.42322 L356.35294,373.4943 L359.64633,374.70212 L362.9397,376.06042 L366.23312,377.58328 L369.5265,379.2846 L372.8199,381.17786 L376.11328,383.2755 L379.40665,385.5885 L382.70007,388.12598 L385.99344,390.8954 L389.28683,393.90332 L392.58023,397.14987 L395.87363,400.63147 L399.16702,404.33896 L402.46042,408.25305 L405.75378,412.35577 L409.04718,416.626 L412.34058,421.039 L415.63394,425.5547 L418.92737,430.14343 L422.22073,434.77588 L425.5141,439.41205 L428.80753,444.0206 L432.1009,448.57834 L435.39432,453.0491 L438.68768,457.41785 L441.98108,461.66418 L445.27448,465.76968 L448.56787,469.7307 L451.86124,473.53198 L455.15463,477.175 L458.44803,480.65326 L461.74142,483.97256 L465.0348,487.13043 L468.3282,490.1336 L471.6216,492.985 L474.91498,495.6901 L478.20834,498.25558 L481.50177,500.68573 L484.79514,502.9891 L488.08853,505.16895 L491.38193,507.23456 L494.67535,509.18842 L497.96875,511.0397 L501.2621,512.7904 L504.5555,514.4491 L507.8489,516.0175 L511.14224,517.50336 L514.43567,518.90814 L517.72906,520.23883 L521.0224,521.49664 L524.3158,522.68774 L527.60925,523.8133 L530.9026,524.8787 L534.196,525.88495 L537.4894,526.83685 L540.78284,527.7352 L544.0762,528.58435 L547.36957,529.385 L550.66296,530.1409 L553.95636,530.8528 L557.24976,531.524 L560.5431,532.15515 L563.83655,532.74915 L567.1299,533.3068 L570.4233,533.83044 L573.71674,534.3212 L577.01,534.7807 L580.30347,535.21045 L583.59686,535.61163 L586.89026,535.98584 L590.18365,536.3339 L593.47705,536.6578 L596.77045,536.958 L600.06384,537.2362 L603.3572,537.4933 L606.6506,537.73047 L609.944,537.9489 L613.23737,538.1495 L616.53076,538.3335 L619.82416,538.5018 L623.1175,538.65546 L626.41095,538.7954 L629.70435,538.9226 L632.9977,539.03796 L636.29114,539.14233 L639.5845,539.2366 L642.87787,539.32153 L646.17126,539.3978 L649.46466,539.4663 L652.758,539.52765 L656.05145,539.58246 L659.3448,539.63135 L662.63824,539.67487 L665.9316,539.7136 L669.225,539.7479 L672.51843,539.7784 L675.81177,539.8053 L679.1051,539.8291 L682.39856,539.8501 L685.6919,539.86865 L688.98535,539.88495 L692.27875,539.8993 L695.57214,539.91187 L698.8655,539.9229 L702.15894,539.9326 L705.4523,539.94116 L708.74567,539.9486 L712.03906,539.95514 L715.33246,539.9608 L718.6258,539.9658 L721.91925,539.9702 L725.2126,539.974 L728.50604,539.97736 L731.7994,539.9802 L735.0928,539.9828 L738.3862,539.985 L741.67957,539.98694 L744.97296,539.9886 L748.26636,539.99005" fill="none" stroke="#ffa500" stroke-width="1"/>
<path d="M92.88173,540 L96.17513,540 L99.46851,540 L102.76192,540 L106.0553,540 L109.34868,540 L112.642075,540 L115.935455,540 L119.22887,540 L122.52225,540 L125.81565,540 L129.10902,540 L132.4024,540 L135.69582,540 L138.9892,540 L142.2826,540 L145.57597,540 L148.86938,540 L152.16275,540 L155.45615,540 L158.74954,540 L162.04292,540 L165.33633,540 L168.6297,540 L171.9231,540 L175.21649,540 L178.50989,540 L181.80328,539.99994 L185.09665,539.99994 L188.39005,539.99994 L191.68344,539.9999 L194.97682,539.9998 L198.27022,539.9997 L201.56361,539.9996 L204.857,539.9994 L208.15038,539.9991 L211.44377,539.99866 L214.73717,539.998 L218.03056,539.99713 L221.32394,539.996 L224.61734,539.9944 L227.91074,539.9923 L231.20412,539.9897 L234.49751,539.9863 L237.79091,539.9823 L241.08429,539.9774 L244.37769,539.97174 L247.67107,539.965 L250.96446,539.9573 L254.25784,539.9483 L257.55124,539.93805 L260.84464,539.9262 L264.138,539.91266 L267.4314,539.89703 L270.7248,539.8791 L274.0182,539.8585 L277.31158,539.8349 L280.60498,539.80774 L283.89835,539.77655 L287.19177,539.7408 L290.48514,539.6997 L293.77853,539.6525 L297.07193,539.5984 L300.3653,539.53625 L303.6587,539.465 L306.9521,539.38324 L310.24548,539.2895 L313.53888,539.182 L316.83224,539.05884 L320.12567,538.91766 L323.41904,538.75604 L326.71243,538.571 L330.00583,538.35925 L333.29922,538.1171 L336.5926,537.84045 L339.886,537.52466 L343.17938,537.1643 L346.47278,536.7537 L349.76617,536.2866 L353.05954,535.7563 L356.35294,535.1539 L359.64633,534.4707 L362.9397,533.6975 L366.23312,532.8242 L369.5265,531.8402 L372.8199,530.7345 L376.11328,529.4956 L379.40665,528.11206 L382.70007,526.57227 L385.99344,524.8648 L389.28683,522.97815 L392.58023,520.90186 L395.87363,518.6245 L399.16702,516.1382 L402.46042,513.4388 L405.75378,510.52225 L409.04718,507.38516 L412.34058,504.02252 L415.63394,500.43988 L418.92737,496.64145 L422.22073,492.6263 L425.5141,488.40198 L428.80753,483.97864 L432.1009,479.35565 L435.39432,474.5456 L438.68768,469.55527 L441.98108,464.38605 L445.27448,459.05237 L448.56787,453.5507 L451.86124,447.8936 L455.15463,442.08167 L458.44803,436.11963 L461.74142,430.01175 L465.0348,423.75812 L468.3282,417.36606 L471.6216,410.8315 L474.91498,404.16458 L478.20834,397.35846 L481.50177,390.42548 L484.79514,383.35748 L488.08853,376.16855 L491.38193,368.85028 L494.67535,361.41827 L497.96875,353.8649 L501.2621,346.20688 L504.5555,338.4381 L507.8489,330.57654 L511.14224,322.61798 L514.43567,314.58167 L517.72906,306.46555 L521.0224,298.29016 L524.3158,290.05585 L527.60925,281.78476 L530.9026,273.47897 L534.196,265.1627 L537.4894,256.83948 L540.78284,248.5357 L544.0762,240.25568 L547.36957,232.0281 L550.66296,223.85751 L553.95636,215.77448 L557.24976,207.78354 L560.5431,199.9159 L563.83655,192.17682 L567.1299,184.5957 L570.4233,177.17969 L573.71674,169.95364 L577.01,162.92786 L580.30347,156.12012 L583.59686,149.54431 L586.89026,143.20996 L590.18365,137.13364 L593.47705,131.31622 L596.77045,125.77429 L600.06384,120.505035 L603.3572,115.51825 L606.6506,110.81305 L609.944,106.38806 L613.23737,102.24567 L616.53076,98.37485 L619.82416,94.77716 L623.1175,91.440216 L626.41095,88.358 L629.70435,85.521515 L632.9977,82.916504 L636.29114,80.53601 L639.5845,78.364136 L642.87787,76.39032 L646.17126,74.60239 L649.46466,72.985016 L652.758,71.52872 L656.05145,70.21884 L659.3448,69.04425 L662.63824,67.99426 L665.9316,67.05585 L669.225,66.220795 L672.51843,65.477936 L675.81177,64.818665 L679.1051,64.23511 L682.39856,63.71817 L685.6919,63.262268 L688.98535,62.85959 L692.27875,62.505157 L695.57214,62.193176 L698.8655,61.918854 L702.15894,61.678192 L705.4523,61.466705 L708.74567,61.281677 L712.03906,61.11908 L715.33246,60.977234 L718.6258,60.85269 L721.91925,60.74414 L725.2126,60.648926 L728.50604,60.56604 L731.7994,60.49341 L735.0928,60.430145 L738.3862,60.37491 L741.67957,60.32666 L744.97296,60.284637 L748.26636,60.247986" fill="none" stroke="#008000" stroke-width="1"/>
</g>
<rect fill="white" height="74" stroke="#000000" stroke-width="1" width="128" x="70" y="70"/>
<rect fill="#0000ff" height="14.400001" width="15" x="80" y="81.8"/>
<text dominant-baseline="middle" fill="#000000" font-family="Times New Roman" font-size="12" text-anchor="start" x="100" y="89">
Concentration A
</text>
<rect fill="#ffa500" height="14.400001" width="15" x="80" y="99.8"/>
<text dominant-baseline="middle" fill="#000000" font-family="Times New Roman" font-size="12" text-anchor="start" x="100" y="107">
Concentration B
</text>
<rect fill="#008000" height="14.400001" width="15" x="80" y="117.8"/>
<text dominant-baseline="middle" fill="#000000" font-family="Times New Roman" font-size="12" text-anchor="start" x="100" y="125">
Concentration C
</text>
</svg>