<svg height="600" viewBox="0 0 800 600" width="800" xmlns="http://www.w3.org/2000/svg">
<rect fill="white" height="600" width="800" x="0" y="0"/>
<text dominant-baseline="middle" fill="#000000" font-family="Times New Roman" font-size="20" text-anchor="middle" x="415" y="30">
Robertson DAE problem with a Conservation Law
</text>
<text dominant-baseline="middle" fill="#000000" font-family="Times New Roman" font-size="14" text-anchor="middle" x="415" y="576">
Time (t)
</text>
<text dominant-baseline="middle" fill="#000000" font-family="Times New Roman" font-size="14" text-anchor="middle" transform="rotate(-90, 18, 300)" x="18" y="300">
y1, 1e4 * y2, y3
</text>
<rect fill="none" height="480" stroke="#000000" stroke-width="1.5" width="710" x="60" y="60"/>
<line stroke="#000000" stroke-width="1" x1="60" x2="60" y1="540" y2="535"/>
<text dominant-baseline="hanging" fill="#000000" font-family="Times New Roman" font-size="10" text-anchor="middle" x="60" y="549">
10
<tspan dx="-0.2em" dy="-0.4em">
-5
</tspan>
</text>
<line stroke="#000000" stroke-width="1" x1="60" x2="60" y1="60" y2="65"/>
<line stroke="#c0c0c0" stroke-width="0.5" x1="131" x2="131" y1="60" y2="540"/>
<line stroke="#000000" stroke-width="1" x1="131" x2="131" y1="540" y2="535"/>
<text dominant-baseline="hanging" fill="#000000" font-family="Times New Roman" font-size="10" text-anchor="middle" x="131" y="549">
10
<tspan dx="-0.2em" dy="-0.4em">
-4
</tspan>
</text>
<line stroke="#000000" stroke-width="1" x1="131" x2="131" y1="60" y2="65"/>
<line stroke="#c0c0c0" stroke-width="0.5" x1="202" x2="202" y1="60" y2="540"/>
<line stroke="#000000" stroke-width="1" x1="202" x2="202" y1="540" y2="535"/>
<text dominant-baseline="hanging" fill="#000000" font-family="Times New Roman" font-size="10" text-anchor="middle" x="202" y="549">
10
<tspan dx="-0.2em" dy="-0.4em">
-3
</tspan>
</text>
<line stroke="#000000" stroke-width="1" x1="202" x2="202" y1="60" y2="65"/>
<line stroke="#c0c0c0" stroke-width="0.5" x1="273" x2="273" y1="60" y2="540"/>
<line stroke="#000000" stroke-width="1" x1="273" x2="273" y1="540" y2="535"/>
<text dominant-baseline="hanging" fill="#000000" font-family="Times New Roman" font-size="10" text-anchor="middle" x="273" y="549">
10
<tspan dx="-0.2em" dy="-0.4em">
-2
</tspan>
</text>
<line stroke="#000000" stroke-width="1" x1="273" x2="273" y1="60" y2="65"/>
<line stroke="#c0c0c0" stroke-width="0.5" x1="344" x2="344" y1="60" y2="540"/>
<line stroke="#000000" stroke-width="1" x1="344" x2="344" y1="540" y2="535"/>
<text dominant-baseline="hanging" fill="#000000" font-family="Times New Roman" font-size="10" text-anchor="middle" x="344" y="549">
10
<tspan dx="-0.2em" dy="-0.4em">
-1
</tspan>
</text>
<line stroke="#000000" stroke-width="1" x1="344" x2="344" y1="60" y2="65"/>
<line stroke="#c0c0c0" stroke-width="0.5" x1="415" x2="415" y1="60" y2="540"/>
<line stroke="#000000" stroke-width="1" x1="415" x2="415" y1="540" y2="535"/>
<text dominant-baseline="hanging" fill="#000000" font-family="Times New Roman" font-size="10" text-anchor="middle" x="415" y="549">
10
<tspan dx="-0.2em" dy="-0.4em">
0
</tspan>
</text>
<line stroke="#000000" stroke-width="1" x1="415" x2="415" y1="60" y2="65"/>
<line stroke="#c0c0c0" stroke-width="0.5" x1="486.00003" x2="486.00003" y1="60" y2="540"/>
<line stroke="#000000" stroke-width="1" x1="486.00003" x2="486.00003" y1="540" y2="535"/>
<text dominant-baseline="hanging" fill="#000000" font-family="Times New Roman" font-size="10" text-anchor="middle" x="486.00003" y="549">
10
<tspan dx="-0.2em" dy="-0.4em">
1
</tspan>
</text>
<line stroke="#000000" stroke-width="1" x1="486.00003" x2="486.00003" y1="60" y2="65"/>
<line stroke="#c0c0c0" stroke-width="0.5" x1="557" x2="557" y1="60" y2="540"/>
<line stroke="#000000" stroke-width="1" x1="557" x2="557" y1="540" y2="535"/>
<text dominant-baseline="hanging" fill="#000000" font-family="Times New Roman" font-size="10" text-anchor="middle" x="557" y="549">
10
<tspan dx="-0.2em" dy="-0.4em">
2
</tspan>
</text>
<line stroke="#000000" stroke-width="1" x1="557" x2="557" y1="60" y2="65"/>
<line stroke="#c0c0c0" stroke-width="0.5" x1="628" x2="628" y1="60" y2="540"/>
<line stroke="#000000" stroke-width="1" x1="628" x2="628" y1="540" y2="535"/>
<text dominant-baseline="hanging" fill="#000000" font-family="Times New Roman" font-size="10" text-anchor="middle" x="628" y="549">
10
<tspan dx="-0.2em" dy="-0.4em">
3
</tspan>
</text>
<line stroke="#000000" stroke-width="1" x1="628" x2="628" y1="60" y2="65"/>
<line stroke="#c0c0c0" stroke-width="0.5" x1="699" x2="699" y1="60" y2="540"/>
<line stroke="#000000" stroke-width="1" x1="699" x2="699" y1="540" y2="535"/>
<text dominant-baseline="hanging" fill="#000000" font-family="Times New Roman" font-size="10" text-anchor="middle" x="699" y="549">
10
<tspan dx="-0.2em" dy="-0.4em">
4
</tspan>
</text>
<line stroke="#000000" stroke-width="1" x1="699" x2="699" y1="60" y2="65"/>
<line stroke="#000000" stroke-width="1" x1="770" x2="770" y1="540" y2="535"/>
<text dominant-baseline="hanging" fill="#000000" font-family="Times New Roman" font-size="10" text-anchor="middle" x="770" y="549">
10
<tspan dx="-0.2em" dy="-0.4em">
5
</tspan>
</text>
<line stroke="#000000" stroke-width="1" x1="770" x2="770" y1="60" y2="65"/>
<line stroke="#000000" stroke-width="1" x1="60" x2="65" y1="540" y2="540"/>
<line stroke="#000000" stroke-width="1" x1="770" x2="765" y1="540" y2="540"/>
<text dominant-baseline="middle" fill="#000000" font-family="Times New Roman" font-size="10" text-anchor="end" x="52" y="540">
0.0
</text>
<line stroke="#c0c0c0" stroke-width="0.5" x1="60" x2="770" y1="491.99997" y2="491.99997"/>
<line stroke="#000000" stroke-width="1" x1="60" x2="65" y1="491.99997" y2="491.99997"/>
<line stroke="#000000" stroke-width="1" x1="770" x2="765" y1="491.99997" y2="491.99997"/>
<text dominant-baseline="middle" fill="#000000" font-family="Times New Roman" font-size="10" text-anchor="end" x="52" y="491.99997">
0.1
</text>
<line stroke="#c0c0c0" stroke-width="0.5" x1="60" x2="770" y1="443.99994" y2="443.99994"/>
<line stroke="#000000" stroke-width="1" x1="60" x2="65" y1="443.99994" y2="443.99994"/>
<line stroke="#000000" stroke-width="1" x1="770" x2="765" y1="443.99994" y2="443.99994"/>
<text dominant-baseline="middle" fill="#000000" font-family="Times New Roman" font-size="10" text-anchor="end" x="52" y="443.99994">
0.2
</text>
<line stroke="#c0c0c0" stroke-width="0.5" x1="60" x2="770" y1="395.99994" y2="395.99994"/>
<line stroke="#000000" stroke-width="1" x1="60" x2="65" y1="395.99994" y2="395.99994"/>
<line stroke="#000000" stroke-width="1" x1="770" x2="765" y1="395.99994" y2="395.99994"/>
<text dominant-baseline="middle" fill="#000000" font-family="Times New Roman" font-size="10" text-anchor="end" x="52" y="395.99994">
0.3
</text>
<line stroke="#c0c0c0" stroke-width="0.5" x1="60" x2="770" y1="347.9999" y2="347.9999"/>
<line stroke="#000000" stroke-width="1" x1="60" x2="65" y1="347.9999" y2="347.9999"/>
<line stroke="#000000" stroke-width="1" x1="770" x2="765" y1="347.9999" y2="347.9999"/>
<text dominant-baseline="middle" fill="#000000" font-family="Times New Roman" font-size="10" text-anchor="end" x="52" y="347.9999">
0.4
</text>
<line stroke="#c0c0c0" stroke-width="0.5" x1="60" x2="770" y1="299.99988" y2="299.99988"/>
<line stroke="#000000" stroke-width="1" x1="60" x2="65" y1="299.99988" y2="299.99988"/>
<line stroke="#000000" stroke-width="1" x1="770" x2="765" y1="299.99988" y2="299.99988"/>
<text dominant-baseline="middle" fill="#000000" font-family="Times New Roman" font-size="10" text-anchor="end" x="52" y="299.99988">
0.5
</text>
<line stroke="#c0c0c0" stroke-width="0.5" x1="60" x2="770" y1="251.99988" y2="251.99988"/>
<line stroke="#000000" stroke-width="1" x1="60" x2="65" y1="251.99988" y2="251.99988"/>
<line stroke="#000000" stroke-width="1" x1="770" x2="765" y1="251.99988" y2="251.99988"/>
<text dominant-baseline="middle" fill="#000000" font-family="Times New Roman" font-size="10" text-anchor="end" x="52" y="251.99988">
0.6
</text>
<line stroke="#c0c0c0" stroke-width="0.5" x1="60" x2="770" y1="203.99985" y2="203.99985"/>
<line stroke="#000000" stroke-width="1" x1="60" x2="65" y1="203.99985" y2="203.99985"/>
<line stroke="#000000" stroke-width="1" x1="770" x2="765" y1="203.99985" y2="203.99985"/>
<text dominant-baseline="middle" fill="#000000" font-family="Times New Roman" font-size="10" text-anchor="end" x="52" y="203.99985">
0.7
</text>
<line stroke="#c0c0c0" stroke-width="0.5" x1="60" x2="770" y1="155.99979" y2="155.99979"/>
<line stroke="#000000" stroke-width="1" x1="60" x2="65" y1="155.99979" y2="155.99979"/>
<line stroke="#000000" stroke-width="1" x1="770" x2="765" y1="155.99979" y2="155.99979"/>
<text dominant-baseline="middle" fill="#000000" font-family="Times New Roman" font-size="10" text-anchor="end" x="52" y="155.99979">
0.8
</text>
<line stroke="#c0c0c0" stroke-width="0.5" x1="60" x2="770" y1="107.99979" y2="107.99979"/>
<line stroke="#000000" stroke-width="1" x1="60" x2="65" y1="107.99979" y2="107.99979"/>
<line stroke="#000000" stroke-width="1" x1="770" x2="765" y1="107.99979" y2="107.99979"/>
<text dominant-baseline="middle" fill="#000000" font-family="Times New Roman" font-size="10" text-anchor="end" x="52" y="107.99979">
0.9
</text>
<line stroke="#000000" stroke-width="1" x1="60" x2="65" y1="59.999725" y2="59.999725"/>
<line stroke="#000000" stroke-width="1" x1="770" x2="765" y1="59.999725" y2="59.999725"/>
<text dominant-baseline="middle" fill="#000000" font-family="Times New Roman" font-size="10" text-anchor="end" x="52" y="59.999725">
1.0
</text>
<defs>
<clipPath id="plotAreaClip">
<rect height="480" width="710" x="60" y="60"/>
</clipPath>
</defs>
<g clip-path="url(#plotAreaClip)">
<path d="M60,60 L63.567856,60.00003 L67.13567,60.00003 L70.70353,60.00006 L74.271355,60.000122 L77.83921,60.000153 L81.40703,60.000183 L84.974884,60.000244 L88.54271,60.000275 L92.110565,60.000336 L95.67838,60.000397 L99.24624,60.00049 L102.81406,60.00058 L106.38192,60.00067 L109.94974,60.000763 L113.51759,60.000885 L117.08542,60.001038 L120.653275,60.00116 L124.22109,60.001343 L127.78895,60.001526 L131.35678,60.00174 L134.92462,60.001984 L138.49246,60.00226 L142.0603,60.002533 L145.62814,60.0029 L149.19598,60.003265 L152.76382,60.003693 L156.33165,60.00418 L159.8995,60.0047 L163.46733,60.00528 L167.03517,60.00598 L170.60301,60.006714 L174.17084,60.00757 L177.73871,60.008545 L181.30655,60.009613 L184.87437,60.010803 L188.44221,60.012146 L192.01006,60.01367 L195.5779,60.01538 L199.14574,60.017303 L202.71356,60.01947 L206.28142,60.02185 L209.84924,60.024567 L213.41708,60.02762 L216.98492,60.031006 L220.55276,60.03485 L224.1206,60.039124 L227.68845,60.043945 L231.25627,60.049377 L234.82411,60.05545 L238.39197,60.062286 L241.9598,60.069916 L245.52763,60.07852 L249.09546,60.088165 L252.6633,60.09903 L256.23114,60.111145 L259.799,60.124786 L263.36685,60.140106 L266.9347,60.157288 L270.5025,60.176575 L274.07034,60.198242 L277.63818,60.222504 L281.20605,60.249756 L284.77386,60.280334 L288.3417,60.314636 L291.90955,60.35312 L295.47742,60.39624 L299.04523,60.44467 L302.61307,60.498962 L306.1809,60.559814 L309.74872,60.628082 L313.3166,60.70456 L316.88443,60.790314 L320.45227,60.886383 L324.0201,60.993988 L327.58792,61.114502 L331.1558,61.24945 L334.7236,61.400482 L338.29147,61.569458 L341.85928,61.758453 L345.42712,61.969727 L348.99496,62.20584 L352.56284,62.469482 L356.13065,62.763763 L359.6985,63.09198 L363.2663,63.457733 L366.83417,63.86502 L370.402,64.318054 L373.96985,64.8215 L377.53766,65.38037 L381.10553,65.99991 L384.67337,66.68582 L388.2412,67.444 L391.80908,68.27841 L395.3769,69.19879 L398.94473,70.212036 L402.51254,71.32495 L406.0804,72.54431 L409.64822,73.87668 L413.2161,75.32837 L416.78394,76.90521 L420.35178,78.6127 L423.9196,80.45587 L427.48746,82.44 L431.05527,84.57028 L434.6231,86.85016 L438.19092,89.28543 L441.7588,91.87488 L445.3266,94.61682 L448.89447,97.51108 L452.4623,100.556885 L456.03018,103.758545 L459.598,107.10843 L463.16583,110.60025 L466.7337,114.231964 L470.3015,118.00693 L473.86935,121.91501 L477.43716,125.949524 L481.00504,130.10974 L484.57285,134.39691 L488.1407,138.7981 L491.70856,143.31259 L495.2764,147.94528 L498.8442,152.6831 L502.41208,157.5249 L505.9799,162.47778 L509.54773,167.52911 L513.1156,172.67844 L516.6834,177.93372 L520.2513,183.28195 L523.8191,188.7248 L527.38696,194.2691 L530.95483,199.90176 L534.52264,205.62656 L538.09045,211.44748 L541.65826,217.35175 L545.22614,223.34671 L548.79395,229.42963 L552.3618,235.5899 L555.9297,241.83868 L559.49744,248.16391 L563.0653,254.56027 L566.6332,261.03748 L570.20105,267.5779 L573.76886,274.18167 L577.3367,280.8523 L580.90454,287.57104 L584.47235,294.34305 L588.0402,301.16113 L591.60803,308.01 L595.17584,314.89893 L598.7437,321.8073 L602.3116,328.72937 L605.8794,335.66766 L609.4472,342.59863 L613.0151,349.5237 L616.58295,356.4328 L620.15076,363.30762 L623.71857,370.15448 L627.28644,376.94818 L630.85425,383.68408 L634.4221,390.3573 L637.9899,396.94434 L641.55774,403.4513 L645.1257,409.85464 L648.6935,416.14795 L652.2613,422.32715 L655.82916,428.37015 L659.397,434.28323 L662.9648,440.04425 L666.5326,445.65088 L670.1005,451.09668 L673.66833,456.36792 L677.2362,461.46954 L680.804,466.38275 L684.3719,471.1155 L687.9397,475.65466 L691.5075,480.00174 L695.0753,484.15472 L698.64325,488.10944 L702.21106,491.87308 L705.77893,495.4364 L709.34674,498.81183 L712.91455,501.99213 L716.4824,504.98962 L720.05023,507.80164 L723.61804,510.4364 L727.186,512.89844 L730.7538,515.1935 L734.32166,517.3293 L737.88947,519.3098 L741.4573,521.1461 L745.0251,522.84064 L748.59296,524.40546 L752.16077,525.84344 L755.72864,527.1665 L759.29645,528.3773 L762.8644,529.4874 L766.4322,530.5002 L770,531.4244" fill="none" stroke="#0000ff" stroke-width="1"/>
<path d="M60,538.0801 L63.567856,537.8446 L67.13567,537.5802 L70.70353,537.28345 L74.271355,536.95026 L77.83921,536.57623 L81.40703,536.1564 L84.974884,535.68506 L88.54271,535.156 L92.110565,534.562 L95.67838,533.89526 L99.24624,533.14703 L102.81406,532.3074 L106.38192,531.3651 L109.94974,530.308 L113.51759,529.1221 L117.08542,527.79193 L120.653275,526.3004 L124.22109,524.6283 L127.78895,522.7546 L131.35678,520.6557 L134.92462,518.3061 L138.49246,515.6777 L142.0603,512.7399 L145.62814,509.46033 L149.19598,505.80435 L152.76382,501.73642 L156.33165,497.22037 L159.8995,492.2214 L163.46733,486.7103 L167.03517,480.6596 L170.60301,474.05142 L174.17084,466.88373 L177.73871,459.17313 L181.30655,450.9749 L184.87437,442.3608 L188.44221,433.43967 L192.01006,424.3714 L195.5779,415.36102 L199.14574,406.62354 L202.71356,398.39832 L206.28142,390.90765 L209.84924,384.34186 L213.41708,378.84067 L216.98492,374.43207 L220.55276,371.04572 L224.1206,368.65143 L227.68845,367.02524 L231.25627,365.9922 L234.82411,365.40173 L238.39197,365.07562 L241.9598,364.93103 L245.52763,364.8731 L249.09546,364.85992 L252.6633,364.87177 L256.23114,364.89044 L259.799,364.9143 L263.36685,364.94284 L266.9347,364.9746 L270.5025,365.01013 L274.07034,365.05008 L277.63818,365.0949 L281.20605,365.14526 L284.77386,365.20172 L288.3417,365.265 L291.90955,365.33603 L295.47742,365.41562 L299.04523,365.50488 L302.61307,365.60492 L306.1809,365.717 L309.74872,365.84265 L313.3166,365.9834 L316.88443,366.14102 L320.45227,366.3175 L324.0201,366.515 L327.58792,366.73602 L331.1558,366.98315 L334.7236,367.25946 L338.29147,367.56818 L341.85928,367.91296 L345.42712,368.29773 L348.99496,368.72687 L352.56284,369.20505 L356.13065,369.73743 L359.6985,370.3296 L363.2663,370.9875 L366.83417,371.7176 L370.402,372.52664 L373.96985,373.4219 L377.53766,374.4109 L381.10553,375.50153 L384.67337,376.7019 L388.2412,378.0202 L391.80908,379.45947 L395.3769,381.03503 L398.94473,382.75446 L402.51254,384.6246 L406.0804,386.65106 L409.64822,388.83795 L413.2161,391.18768 L416.78394,393.7008 L420.35178,396.3761 L423.9196,399.21146 L427.48746,402.20538 L431.05527,405.35693 L434.6231,408.64725 L438.19092,412.07434 L441.7588,415.6173 L445.3266,419.2563 L448.89447,422.97864 L452.4623,426.76563 L456.03018,430.60403 L459.598,434.46442 L463.16583,438.32553 L466.7337,442.17645 L470.3015,446.00214 L473.86935,449.77618 L477.43716,453.4881 L481.00504,457.12653 L484.57285,460.6834 L488.1407,464.1404 L491.70856,467.5004 L495.2764,470.7578 L498.8442,473.8992 L502.41208,476.93207 L505.9799,479.8554 L509.54773,482.66034 L513.1156,485.35678 L516.6834,487.94568 L520.2513,490.42203 L523.8191,492.7968 L527.38696,495.0709 L530.95483,497.24307 L534.52264,499.32294 L538.09045,501.31122 L541.65826,503.20993 L545.22614,505.02652 L548.79395,506.76086 L552.3618,508.41748 L555.9297,510.00247 L559.49744,511.51398 L563.0653,512.9588 L566.6332,514.3404 L570.20105,515.65765 L573.76886,516.9174 L577.3367,518.12085 L580.90454,519.26904 L584.47235,520.3667 L588.0402,521.4142 L591.60803,522.4141 L595.17584,523.3701 L598.7437,524.2812 L602.3116,525.1514 L605.8794,525.9823 L609.4472,526.774 L613.0151,527.52966 L616.58295,528.2498 L620.15076,528.93604 L623.71857,529.5907 L627.28644,530.2132 L630.85425,530.8062 L634.4221,531.3705 L637.9899,531.9066 L641.55774,532.4168 L645.1257,532.90076 L648.6935,533.3603 L652.2613,533.79626 L655.82916,534.209 L659.397,534.60034 L662.9648,534.97015 L666.5326,535.3198 L670.1005,535.64996 L673.66833,535.96124 L677.2362,536.2548 L680.804,536.53076 L684.3719,536.79047 L687.9397,537.03406 L691.5075,537.2626 L695.0753,537.47656 L698.64325,537.6766 L702.21106,537.8636 L705.77893,538.03766 L709.34674,538.2001 L712.91455,538.35077 L716.4824,538.49097 L720.05023,538.6207 L723.61804,538.7409 L727.186,538.8519 L730.7538,538.9544 L734.32166,539.0488 L737.88947,539.1356 L741.4573,539.2154 L745.0251,539.2885 L748.59296,539.3555 L752.16077,539.41675 L755.72864,539.4727 L759.29645,539.5237 L762.8644,539.5702 L766.4322,539.6124 L770,539.6508" fill="none" stroke="#ffa500" stroke-width="1"/>
<path d="M60,540 L63.567856,540 L67.13567,540 L70.70353,540 L74.271355,540 L77.83921,540 L81.40703,540 L84.974884,540 L88.54271,540 L92.110565,540 L95.67838,540 L99.24624,540 L102.81406,540 L106.38192,540 L109.94974,540 L113.51759,540 L117.08542,540 L120.653275,540 L124.22109,540 L127.78895,540 L131.35678,540 L134.92462,540 L138.49246,540 L142.0603,540 L145.62814,539.99994 L149.19598,539.99994 L152.76382,539.99994 L156.33165,539.99994 L159.8995,539.9999 L163.46733,539.9998 L167.03517,539.99976 L170.60301,539.99963 L174.17084,539.9995 L177.73871,539.9993 L181.30655,539.9991 L184.87437,539.9987 L188.44221,539.9983 L192.01006,539.9977 L195.5779,539.9969 L199.14574,539.99585 L202.71356,539.9945 L206.28142,539.99286 L209.84924,539.9908 L213.41708,539.98834 L216.98492,539.98535 L220.55276,539.9819 L224.1206,539.9778 L227.68845,539.97314 L231.25627,539.96783 L234.82411,539.9618 L238.39197,539.955 L241.9598,539.9474 L245.52763,539.9388 L249.09546,539.92914 L252.6633,539.91833 L256.23114,539.9061 L259.799,539.8925 L263.36685,539.8772 L266.9347,539.86 L270.5025,539.8407 L274.07034,539.8191 L277.63818,539.7948 L281.20605,539.7675 L284.77386,539.73694 L288.3417,539.70264 L291.90955,539.6642 L295.47742,539.621 L299.04523,539.5726 L302.61307,539.5183 L306.1809,539.4574 L309.74872,539.38916 L313.3166,539.3126 L316.88443,539.22687 L320.45227,539.1308 L324.0201,539.02313 L327.58792,538.9026 L331.1558,538.76764 L334.7236,538.6166 L338.29147,538.4476 L341.85928,538.25854 L345.42712,538.04724 L348.99496,537.8111 L352.56284,537.54736 L356.13065,537.25305 L359.6985,536.9248 L363.2663,536.55896 L366.83417,536.1516 L370.402,535.6985 L373.96985,535.19495 L377.53766,534.636 L381.10553,534.01636 L384.67337,533.3303 L388.2412,532.57196 L391.80908,531.7375 L395.3769,530.8169 L398.94473,529.80347 L402.51254,528.69037 L406.0804,527.4708 L409.64822,526.13824 L413.2161,524.6863 L416.78394,523.1092 L420.35178,521.4015 L423.9196,519.558 L427.48746,517.57355 L431.05527,515.443 L434.6231,513.1628 L438.19092,510.72714 L441.7588,508.13733 L445.3266,505.39508 L448.89447,502.50046 L452.4623,499.45422 L456.03018,496.2522 L459.598,492.90195 L463.16583,489.40973 L466.7337,485.77762 L470.3015,482.00226 L473.86935,478.0938 L477.43716,474.05893 L481.00504,469.89838 L484.57285,465.61084 L488.1407,461.2093 L491.70856,456.69446 L495.2764,452.06143 L498.8442,447.3233 L502.41208,442.4812 L505.9799,437.528 L509.54773,432.47644 L513.1156,427.32684 L516.6834,422.0713 L520.2513,416.72278 L523.8191,411.27972 L527.38696,405.73523 L530.95483,400.10233 L534.52264,394.37732 L538.09045,388.55618 L541.65826,382.65173 L545.22614,376.6566 L548.79395,370.5735 L552.3618,364.4131 L555.9297,358.16412 L559.49744,351.83875 L563.0653,345.44226 L566.6332,338.9649 L570.20105,332.42432 L573.76886,325.82043 L577.3367,319.14972 L580.90454,312.4308 L584.47235,305.65872 L588.0402,298.84055 L591.60803,291.99155 L595.17584,285.10254 L598.7437,278.19403 L602.3116,271.2719 L605.8794,264.33353 L609.4472,257.4025 L613.0151,250.47736 L616.58295,243.56818 L620.15076,236.69333 L623.71857,229.84634 L627.28644,223.05258 L630.85425,216.31662 L634.4221,209.64337 L637.9899,203.05627 L641.55774,196.54926 L645.1257,190.14587 L648.6935,183.85251 L652.2613,177.67328 L655.82916,171.63025 L659.397,165.7171 L662.9648,159.95602 L666.5326,154.3494 L670.1005,148.90353 L673.66833,143.63226 L677.2362,138.53061 L680.804,133.6174 L684.3719,128.88458 L687.9397,124.3454 L691.5075,119.99835 L695.0753,115.84531 L698.64325,111.890594 L702.21106,108.12695 L705.77893,104.5636 L709.34674,101.18817 L712.91455,98.00787 L716.4824,95.010345 L720.05023,92.1983 L723.61804,89.56351 L727.186,87.10144 L730.7538,84.80643 L734.32166,82.67056 L737.88947,80.690094 L741.4573,78.85376 L745.0251,77.15924 L748.59296,75.59442 L752.16077,74.15643 L755.72864,72.83331 L759.29645,71.62253 L762.8644,70.51239 L766.4322,69.499695 L770,68.5755" fill="none" stroke="#008000" stroke-width="1"/>
</g>
<rect fill="white" height="74" stroke="#000000" stroke-width="1" width="128" x="70" y="70"/>
<rect fill="#0000ff" height="14.400001" width="15" x="80" y="81.8"/>
<text dominant-baseline="middle" fill="#000000" font-family="Times New Roman" font-size="12" text-anchor="start" x="100" y="89">
Concentration A
</text>
<rect fill="#ffa500" height="14.400001" width="15" x="80" y="99.8"/>
<text dominant-baseline="middle" fill="#000000" font-family="Times New Roman" font-size="12" text-anchor="start" x="100" y="107">
Concentration B
</text>
<rect fill="#008000" height="14.400001" width="15" x="80" y="117.8"/>
<text dominant-baseline="middle" fill="#000000" font-family="Times New Roman" font-size="12" text-anchor="start" x="100" y="125">
Concentration C
</text>
</svg>