<svg height="600" viewBox="0 0 800 600" width="800" xmlns="http://www.w3.org/2000/svg">
<rect fill="white" height="600" width="800" x="0" y="0"/>
<text dominant-baseline="middle" fill="#000000" font-family="Times New Roman" font-size="20" text-anchor="middle" x="415" y="30">
Robertson DAE problem with a Conservation Law
</text>
<text dominant-baseline="middle" fill="#000000" font-family="Times New Roman" font-size="14" text-anchor="middle" x="415" y="576">
Time (t)
</text>
<text dominant-baseline="middle" fill="#000000" font-family="Times New Roman" font-size="14" text-anchor="middle" transform="rotate(-90, 18, 300)" x="18" y="300">
y1, 1e4 * y2, y3
</text>
<rect fill="none" height="480" stroke="#000000" stroke-width="1.5" width="710" x="60" y="60"/>
<line stroke="#000000" stroke-width="1" x1="60" x2="60" y1="540" y2="535"/>
<text dominant-baseline="hanging" fill="#000000" font-family="Times New Roman" font-size="10" text-anchor="middle" x="60" y="549">
10
<tspan dx="-0.2em" dy="-0.4em">
-5
</tspan>
</text>
<line stroke="#000000" stroke-width="1" x1="60" x2="60" y1="60" y2="65"/>
<line stroke="#c0c0c0" stroke-width="0.5" x1="131" x2="131" y1="60" y2="540"/>
<line stroke="#000000" stroke-width="1" x1="131" x2="131" y1="540" y2="535"/>
<text dominant-baseline="hanging" fill="#000000" font-family="Times New Roman" font-size="10" text-anchor="middle" x="131" y="549">
10
<tspan dx="-0.2em" dy="-0.4em">
-4
</tspan>
</text>
<line stroke="#000000" stroke-width="1" x1="131" x2="131" y1="60" y2="65"/>
<line stroke="#c0c0c0" stroke-width="0.5" x1="202" x2="202" y1="60" y2="540"/>
<line stroke="#000000" stroke-width="1" x1="202" x2="202" y1="540" y2="535"/>
<text dominant-baseline="hanging" fill="#000000" font-family="Times New Roman" font-size="10" text-anchor="middle" x="202" y="549">
10
<tspan dx="-0.2em" dy="-0.4em">
-3
</tspan>
</text>
<line stroke="#000000" stroke-width="1" x1="202" x2="202" y1="60" y2="65"/>
<line stroke="#c0c0c0" stroke-width="0.5" x1="273" x2="273" y1="60" y2="540"/>
<line stroke="#000000" stroke-width="1" x1="273" x2="273" y1="540" y2="535"/>
<text dominant-baseline="hanging" fill="#000000" font-family="Times New Roman" font-size="10" text-anchor="middle" x="273" y="549">
10
<tspan dx="-0.2em" dy="-0.4em">
-2
</tspan>
</text>
<line stroke="#000000" stroke-width="1" x1="273" x2="273" y1="60" y2="65"/>
<line stroke="#c0c0c0" stroke-width="0.5" x1="344" x2="344" y1="60" y2="540"/>
<line stroke="#000000" stroke-width="1" x1="344" x2="344" y1="540" y2="535"/>
<text dominant-baseline="hanging" fill="#000000" font-family="Times New Roman" font-size="10" text-anchor="middle" x="344" y="549">
10
<tspan dx="-0.2em" dy="-0.4em">
-1
</tspan>
</text>
<line stroke="#000000" stroke-width="1" x1="344" x2="344" y1="60" y2="65"/>
<line stroke="#c0c0c0" stroke-width="0.5" x1="415" x2="415" y1="60" y2="540"/>
<line stroke="#000000" stroke-width="1" x1="415" x2="415" y1="540" y2="535"/>
<text dominant-baseline="hanging" fill="#000000" font-family="Times New Roman" font-size="10" text-anchor="middle" x="415" y="549">
10
<tspan dx="-0.2em" dy="-0.4em">
0
</tspan>
</text>
<line stroke="#000000" stroke-width="1" x1="415" x2="415" y1="60" y2="65"/>
<line stroke="#c0c0c0" stroke-width="0.5" x1="486.00003" x2="486.00003" y1="60" y2="540"/>
<line stroke="#000000" stroke-width="1" x1="486.00003" x2="486.00003" y1="540" y2="535"/>
<text dominant-baseline="hanging" fill="#000000" font-family="Times New Roman" font-size="10" text-anchor="middle" x="486.00003" y="549">
10
<tspan dx="-0.2em" dy="-0.4em">
1
</tspan>
</text>
<line stroke="#000000" stroke-width="1" x1="486.00003" x2="486.00003" y1="60" y2="65"/>
<line stroke="#c0c0c0" stroke-width="0.5" x1="557" x2="557" y1="60" y2="540"/>
<line stroke="#000000" stroke-width="1" x1="557" x2="557" y1="540" y2="535"/>
<text dominant-baseline="hanging" fill="#000000" font-family="Times New Roman" font-size="10" text-anchor="middle" x="557" y="549">
10
<tspan dx="-0.2em" dy="-0.4em">
2
</tspan>
</text>
<line stroke="#000000" stroke-width="1" x1="557" x2="557" y1="60" y2="65"/>
<line stroke="#c0c0c0" stroke-width="0.5" x1="628" x2="628" y1="60" y2="540"/>
<line stroke="#000000" stroke-width="1" x1="628" x2="628" y1="540" y2="535"/>
<text dominant-baseline="hanging" fill="#000000" font-family="Times New Roman" font-size="10" text-anchor="middle" x="628" y="549">
10
<tspan dx="-0.2em" dy="-0.4em">
3
</tspan>
</text>
<line stroke="#000000" stroke-width="1" x1="628" x2="628" y1="60" y2="65"/>
<line stroke="#c0c0c0" stroke-width="0.5" x1="699" x2="699" y1="60" y2="540"/>
<line stroke="#000000" stroke-width="1" x1="699" x2="699" y1="540" y2="535"/>
<text dominant-baseline="hanging" fill="#000000" font-family="Times New Roman" font-size="10" text-anchor="middle" x="699" y="549">
10
<tspan dx="-0.2em" dy="-0.4em">
4
</tspan>
</text>
<line stroke="#000000" stroke-width="1" x1="699" x2="699" y1="60" y2="65"/>
<line stroke="#000000" stroke-width="1" x1="770" x2="770" y1="540" y2="535"/>
<text dominant-baseline="hanging" fill="#000000" font-family="Times New Roman" font-size="10" text-anchor="middle" x="770" y="549">
10
<tspan dx="-0.2em" dy="-0.4em">
5
</tspan>
</text>
<line stroke="#000000" stroke-width="1" x1="770" x2="770" y1="60" y2="65"/>
<line stroke="#000000" stroke-width="1" x1="60" x2="65" y1="540" y2="540"/>
<line stroke="#000000" stroke-width="1" x1="770" x2="765" y1="540" y2="540"/>
<text dominant-baseline="middle" fill="#000000" font-family="Times New Roman" font-size="10" text-anchor="end" x="52" y="540">
0.0
</text>
<line stroke="#c0c0c0" stroke-width="0.5" x1="60" x2="770" y1="491.99997" y2="491.99997"/>
<line stroke="#000000" stroke-width="1" x1="60" x2="65" y1="491.99997" y2="491.99997"/>
<line stroke="#000000" stroke-width="1" x1="770" x2="765" y1="491.99997" y2="491.99997"/>
<text dominant-baseline="middle" fill="#000000" font-family="Times New Roman" font-size="10" text-anchor="end" x="52" y="491.99997">
0.1
</text>
<line stroke="#c0c0c0" stroke-width="0.5" x1="60" x2="770" y1="443.99994" y2="443.99994"/>
<line stroke="#000000" stroke-width="1" x1="60" x2="65" y1="443.99994" y2="443.99994"/>
<line stroke="#000000" stroke-width="1" x1="770" x2="765" y1="443.99994" y2="443.99994"/>
<text dominant-baseline="middle" fill="#000000" font-family="Times New Roman" font-size="10" text-anchor="end" x="52" y="443.99994">
0.2
</text>
<line stroke="#c0c0c0" stroke-width="0.5" x1="60" x2="770" y1="395.99994" y2="395.99994"/>
<line stroke="#000000" stroke-width="1" x1="60" x2="65" y1="395.99994" y2="395.99994"/>
<line stroke="#000000" stroke-width="1" x1="770" x2="765" y1="395.99994" y2="395.99994"/>
<text dominant-baseline="middle" fill="#000000" font-family="Times New Roman" font-size="10" text-anchor="end" x="52" y="395.99994">
0.3
</text>
<line stroke="#c0c0c0" stroke-width="0.5" x1="60" x2="770" y1="347.9999" y2="347.9999"/>
<line stroke="#000000" stroke-width="1" x1="60" x2="65" y1="347.9999" y2="347.9999"/>
<line stroke="#000000" stroke-width="1" x1="770" x2="765" y1="347.9999" y2="347.9999"/>
<text dominant-baseline="middle" fill="#000000" font-family="Times New Roman" font-size="10" text-anchor="end" x="52" y="347.9999">
0.4
</text>
<line stroke="#c0c0c0" stroke-width="0.5" x1="60" x2="770" y1="299.99988" y2="299.99988"/>
<line stroke="#000000" stroke-width="1" x1="60" x2="65" y1="299.99988" y2="299.99988"/>
<line stroke="#000000" stroke-width="1" x1="770" x2="765" y1="299.99988" y2="299.99988"/>
<text dominant-baseline="middle" fill="#000000" font-family="Times New Roman" font-size="10" text-anchor="end" x="52" y="299.99988">
0.5
</text>
<line stroke="#c0c0c0" stroke-width="0.5" x1="60" x2="770" y1="251.99988" y2="251.99988"/>
<line stroke="#000000" stroke-width="1" x1="60" x2="65" y1="251.99988" y2="251.99988"/>
<line stroke="#000000" stroke-width="1" x1="770" x2="765" y1="251.99988" y2="251.99988"/>
<text dominant-baseline="middle" fill="#000000" font-family="Times New Roman" font-size="10" text-anchor="end" x="52" y="251.99988">
0.6
</text>
<line stroke="#c0c0c0" stroke-width="0.5" x1="60" x2="770" y1="203.99985" y2="203.99985"/>
<line stroke="#000000" stroke-width="1" x1="60" x2="65" y1="203.99985" y2="203.99985"/>
<line stroke="#000000" stroke-width="1" x1="770" x2="765" y1="203.99985" y2="203.99985"/>
<text dominant-baseline="middle" fill="#000000" font-family="Times New Roman" font-size="10" text-anchor="end" x="52" y="203.99985">
0.7
</text>
<line stroke="#c0c0c0" stroke-width="0.5" x1="60" x2="770" y1="155.99979" y2="155.99979"/>
<line stroke="#000000" stroke-width="1" x1="60" x2="65" y1="155.99979" y2="155.99979"/>
<line stroke="#000000" stroke-width="1" x1="770" x2="765" y1="155.99979" y2="155.99979"/>
<text dominant-baseline="middle" fill="#000000" font-family="Times New Roman" font-size="10" text-anchor="end" x="52" y="155.99979">
0.8
</text>
<line stroke="#c0c0c0" stroke-width="0.5" x1="60" x2="770" y1="107.99979" y2="107.99979"/>
<line stroke="#000000" stroke-width="1" x1="60" x2="65" y1="107.99979" y2="107.99979"/>
<line stroke="#000000" stroke-width="1" x1="770" x2="765" y1="107.99979" y2="107.99979"/>
<text dominant-baseline="middle" fill="#000000" font-family="Times New Roman" font-size="10" text-anchor="end" x="52" y="107.99979">
0.9
</text>
<line stroke="#000000" stroke-width="1" x1="60" x2="65" y1="59.999725" y2="59.999725"/>
<line stroke="#000000" stroke-width="1" x1="770" x2="765" y1="59.999725" y2="59.999725"/>
<text dominant-baseline="middle" fill="#000000" font-family="Times New Roman" font-size="10" text-anchor="end" x="52" y="59.999725">
1.0
</text>
<defs>
<clipPath id="plotAreaClip">
<rect height="480" width="710" x="60" y="60"/>
</clipPath>
</defs>
<g clip-path="url(#plotAreaClip)">
<path d="M60,60 L63.567856,60.00003 L67.13567,60.00003 L70.70353,60.00006 L74.271355,60.000122 L77.83921,60.000153 L81.40703,60.000183 L84.974884,60.000244 L88.54271,60.000275 L92.110565,60.000336 L95.67838,60.000397 L99.24624,60.00049 L102.81406,60.00058 L106.38192,60.00067 L109.94974,60.000763 L113.51759,60.000885 L117.08542,60.001038 L120.653275,60.00116 L124.22109,60.001343 L127.78895,60.001526 L131.35678,60.00174 L134.92462,60.001984 L138.49246,60.00226 L142.0603,60.002533 L145.62814,60.0029 L149.19598,60.003265 L152.76382,60.003693 L156.33165,60.00418 L159.8995,60.0047 L163.46733,60.00528 L167.03517,60.00598 L170.60301,60.006714 L174.17084,60.00757 L177.73871,60.008545 L181.30655,60.009613 L184.87437,60.010803 L188.44221,60.012146 L192.01006,60.01367 L195.5779,60.01538 L199.14574,60.017303 L202.71356,60.01947 L206.28142,60.02185 L209.84924,60.024567 L213.41708,60.02762 L216.98492,60.031006 L220.55276,60.03485 L224.1206,60.039124 L227.68845,60.043945 L231.25627,60.049377 L234.82411,60.05545 L238.39197,60.062286 L241.9598,60.069916 L245.52763,60.07852 L249.09546,60.088165 L252.6633,60.09903 L256.23114,60.111145 L259.799,60.124786 L263.36685,60.140106 L266.9347,60.157288 L270.5025,60.176575 L274.07034,60.198242 L277.63818,60.222504 L281.20605,60.249756 L284.77386,60.280334 L288.3417,60.314636 L291.90955,60.35312 L295.47742,60.39627 L299.04523,60.44467 L302.61307,60.498962 L306.1809,60.559814 L309.74872,60.628082 L313.3166,60.70456 L316.88443,60.790314 L320.45227,60.886383 L324.0201,60.993988 L327.58792,61.114502 L331.1558,61.24945 L334.7236,61.400513 L338.29147,61.56949 L341.85928,61.758453 L345.42712,61.969666 L348.99496,62.20569 L352.56284,62.4693 L356.13065,62.76349 L359.6985,63.091675 L363.2663,63.457397 L366.83417,63.864685 L370.402,64.31781 L373.96985,64.82138 L377.53766,65.38031 L381.10553,66 L384.67337,66.686035 L388.2412,67.44437 L391.80908,68.28122 L395.3769,69.203156 L398.94473,70.21692 L402.51254,71.32736 L406.0804,72.54401 L409.64822,73.87454 L413.2161,75.32529 L416.78394,76.90228 L420.35178,78.61084 L423.9196,80.45569 L427.48746,82.44116 L431.05527,84.57172 L434.6231,86.85126 L438.19092,89.28403 L441.7588,91.87344 L445.3266,94.61694 L448.89447,97.512085 L452.4623,100.55841 L456.03018,103.7569 L459.598,107.107605 L463.16583,110.60126 L466.7337,114.23389 L470.3015,118.00528 L473.86935,121.914734 L477.43716,125.95029 L481.00504,130.10901 L484.57285,134.39572 L488.1407,138.79907 L491.70856,143.31467 L495.2764,147.94437 L498.8442,152.68231 L502.41208,157.52731 L505.9799,162.47672 L509.54773,167.52835 L513.1156,172.68076 L516.6834,177.93228 L520.2513,183.28143 L523.8191,188.72687 L527.38696,194.2673 L530.95483,199.90143 L534.52264,205.62796 L538.09045,211.44543 L541.65826,217.35239 L545.22614,223.349 L548.79395,229.42987 L552.3618,235.60147 L555.9297,241.84451 L559.49744,248.16861 L563.0653,254.63065 L566.6332,261.12115 L570.20105,267.6655 L573.76886,274.26556 L577.3367,280.9249 L580.90454,287.6404 L584.47235,294.43738 L588.0402,301.27777 L591.60803,308.17017 L595.17584,315.107 L598.7437,322.0238 L602.3116,328.893 L605.8794,335.72705 L609.4472,342.65405 L613.0151,349.59207 L616.58295,356.4848 L620.15076,363.3226 L623.71857,370.12915 L627.28644,377.04938 L630.85425,384.07962 L634.4221,390.7129 L637.9899,397.39404 L641.55774,404.0832 L645.1257,410.42725 L648.6935,416.6838 L652.2613,422.8991 L655.82916,429.12817 L659.397,435.1907 L662.9648,440.80112 L666.5326,446.07474 L670.1005,450.98712 L673.66833,456.01898 L677.2362,460.98932 L680.804,465.99765 L684.3719,471.37305 L687.9397,475.99176 L691.5075,480.7212 L695.0753,485.8885 L698.64325,489.87717 L702.21106,494.37738 L705.77893,497.80408 L709.34674,500.89478 L712.91455,504.55115 L716.4824,507.4645 L720.05023,510.7693 L723.61804,514.15607 L727.186,517.3893 L730.7538,519.29614 L734.32166,521.69385 L737.88947,523.77606 L741.4573,525.2027 L745.0251,527.46423 L748.59296,528.2093 L752.16077,527.34534 L755.72864,528.69214 L759.29645,531.444 L762.8644,531.8019 L766.4322,530.93054 L770,533.2804" fill="none" stroke="#0000ff" stroke-width="1"/>
<path d="M60,538.0801 L63.567856,537.8446 L67.13567,537.5802 L70.70353,537.28345 L74.271355,536.95026 L77.83921,536.57623 L81.40703,536.1564 L84.974884,535.68506 L88.54271,535.15607 L92.110565,534.5622 L95.67838,533.8957 L99.24624,533.1476 L102.81406,532.30804 L106.38192,531.3659 L109.94974,530.30884 L113.51759,529.12256 L117.08542,527.792 L120.653275,526.30005 L124.22109,524.6276 L127.78895,522.75366 L131.35678,520.65466 L134.92462,518.3051 L138.49246,515.6769 L142.0603,512.7395 L145.62814,509.4604 L149.19598,505.80493 L152.76382,501.7374 L156.33165,497.22174 L159.8995,492.22345 L163.46733,486.70923 L167.03517,480.6579 L170.60301,474.0514 L174.17084,466.88535 L177.73871,459.17764 L181.30655,450.97217 L184.87437,442.35815 L188.44221,433.4417 L192.01006,424.3748 L195.5779,415.3589 L199.14574,406.62317 L202.71356,398.39603 L206.28142,390.91525 L209.84924,384.34167 L213.41708,378.831 L216.98492,374.43637 L220.55276,371.06018 L224.1206,368.6433 L227.68845,367.0293 L231.25627,365.98987 L234.82411,365.39795 L238.39197,365.07904 L241.9598,364.92838 L245.52763,364.87482 L249.09546,364.8602 L252.6633,364.87088 L256.23114,364.8908 L259.799,364.9146 L263.36685,364.9426 L266.9347,364.9746 L270.5025,365.0102 L274.07034,365.05014 L277.63818,365.09497 L281.20605,365.14526 L284.77386,365.2017 L288.3417,365.265 L291.90955,365.33603 L295.47742,365.41562 L299.04523,365.50488 L302.61307,365.60492 L306.1809,365.71704 L309.74872,365.84265 L313.3166,365.9834 L316.88443,366.14102 L320.45227,366.3175 L324.0201,366.515 L327.58792,366.73602 L331.1558,366.98322 L334.7236,367.25952 L338.29147,367.5682 L341.85928,367.91284 L345.42712,368.29745 L348.99496,368.72644 L352.56284,369.20453 L356.13065,369.73682 L359.6985,370.32898 L363.2663,370.9869 L366.83417,371.7171 L370.402,372.5263 L373.96985,373.42178 L377.53766,374.41107 L381.10553,375.50195 L384.67337,376.70245 L388.2412,378.02066 L391.80908,379.46478 L395.3769,381.04282 L398.94473,382.76276 L402.51254,384.62726 L406.0804,386.64813 L409.64822,388.8318 L413.2161,391.18094 L416.78394,393.696 L420.35178,396.37518 L423.9196,399.21466 L427.48746,402.20953 L431.05527,405.35596 L434.6231,408.64838 L438.19092,412.07123 L441.7588,415.6157 L445.3266,419.25836 L448.89447,422.9793 L452.4623,426.76727 L456.03018,430.60114 L459.598,434.46472 L463.16583,438.32755 L466.7337,442.17847 L470.3015,445.9997 L473.86935,449.7775 L477.43716,453.48688 L481.00504,457.12494 L484.57285,460.6831 L488.1407,464.1418 L491.70856,467.5016 L495.2764,470.75598 L498.8442,473.90045 L502.41208,476.9334 L505.9799,479.8538 L509.54773,482.66147 L513.1156,485.35773 L516.6834,487.94418 L520.2513,490.42313 L523.8191,492.79727 L527.38696,495.0697 L530.95483,497.24374 L534.52264,499.32285 L538.09045,501.31052 L541.65826,503.2104 L545.22614,505.02652 L548.79395,506.76132 L552.3618,508.42065 L555.9297,510.00333 L559.49744,511.51575 L563.0653,512.9721 L566.6332,514.35736 L570.20105,515.6754 L573.76886,516.9326 L577.3367,518.13354 L580.90454,519.2806 L584.47235,520.3813 L588.0402,521.4315 L591.60803,522.43695 L595.17584,523.3973 L598.7437,524.30945 L602.3116,525.1716 L605.8794,525.98914 L609.4472,526.78015 L613.0151,527.5368 L616.58295,528.2554 L620.15076,528.9375 L623.71857,529.58813 L627.28644,530.2222 L630.85425,530.8402 L634.4221,531.39996 L637.9899,531.9423 L641.55774,532.4653 L645.1257,532.9433 L648.6935,533.3986 L652.2613,533.8359 L655.82916,534.2597 L659.397,534.6593 L662.9648,535.01794 L666.5326,535.3458 L670.1005,535.6435 L673.66833,535.94086 L677.2362,536.2275 L680.804,536.50934 L684.3719,536.8043 L687.9397,537.05194 L691.5075,537.2999 L695.0753,537.5647 L698.64325,537.7648 L702.21106,537.9862 L705.77893,538.15186 L709.34674,538.299 L712.91455,538.47046 L716.4824,538.6052 L720.05023,538.7559 L723.61804,538.9082 L727.186,539.05145 L730.7538,539.135 L734.32166,539.2391 L737.88947,539.3286 L741.4573,539.3895 L745.0251,539.4853 L748.59296,539.51666 L752.16077,539.4803 L755.72864,539.5369 L759.29645,539.6516 L762.8644,539.66644 L766.4322,539.6303 L770,539.7274" fill="none" stroke="#ffa500" stroke-width="1"/>
<path d="M60,540 L63.567856,540 L67.13567,540 L70.70353,540 L74.271355,540 L77.83921,540 L81.40703,540 L84.974884,540 L88.54271,540 L92.110565,540 L95.67838,540 L99.24624,540 L102.81406,540 L106.38192,540 L109.94974,540 L113.51759,540 L117.08542,540 L120.653275,540 L124.22109,540 L127.78895,540 L131.35678,540 L134.92462,540 L138.49246,540 L142.0603,540 L145.62814,539.99994 L149.19598,539.99994 L152.76382,539.99994 L156.33165,539.99994 L159.8995,539.9999 L163.46733,539.9998 L167.03517,539.99976 L170.60301,539.99963 L174.17084,539.9995 L177.73871,539.9993 L181.30655,539.9991 L184.87437,539.9987 L188.44221,539.9983 L192.01006,539.9977 L195.5779,539.9969 L199.14574,539.99585 L202.71356,539.9945 L206.28142,539.99286 L209.84924,539.9908 L213.41708,539.98834 L216.98492,539.98535 L220.55276,539.9819 L224.1206,539.9778 L227.68845,539.97314 L231.25627,539.96783 L234.82411,539.9618 L238.39197,539.955 L241.9598,539.9474 L245.52763,539.9388 L249.09546,539.92914 L252.6633,539.91833 L256.23114,539.9061 L259.799,539.8925 L263.36685,539.8772 L266.9347,539.86 L270.5025,539.8407 L274.07034,539.8191 L277.63818,539.7948 L281.20605,539.7675 L284.77386,539.73694 L288.3417,539.70264 L291.90955,539.6642 L295.47742,539.621 L299.04523,539.5726 L302.61307,539.5183 L306.1809,539.4574 L309.74872,539.38916 L313.3166,539.3126 L316.88443,539.22687 L320.45227,539.1308 L324.0201,539.02313 L327.58792,538.9026 L331.1558,538.76764 L334.7236,538.6166 L338.29147,538.4475 L341.85928,538.25854 L345.42712,538.0473 L348.99496,537.8112 L352.56284,537.5476 L356.13065,537.2533 L359.6985,536.9251 L363.2663,536.55927 L366.83417,536.1519 L370.402,535.6987 L373.96985,535.19507 L377.53766,534.63605 L381.10553,534.01624 L384.67337,533.3301 L388.2412,532.57166 L391.80908,531.7346 L395.3769,530.8125 L398.94473,529.7986 L402.51254,528.688 L406.0804,527.4711 L409.64822,526.1404 L413.2161,524.6894 L416.78394,523.1121 L420.35178,521.4033 L423.9196,519.55817 L427.48746,517.5724 L431.05527,515.4415 L434.6231,513.1617 L438.19092,510.72858 L441.7588,508.1388 L445.3266,505.39496 L448.89447,502.49945 L452.4623,499.45273 L456.03018,496.25385 L459.598,492.90277 L463.16583,489.40872 L466.7337,485.7757 L470.3015,482.00394 L473.86935,478.0941 L477.43716,474.05817 L481.00504,469.89908 L484.57285,465.61203 L488.1407,461.2083 L491.70856,456.69238 L495.2764,452.06238 L498.8442,447.3241 L502.41208,442.47876 L505.9799,437.52905 L509.54773,432.4772 L513.1156,427.32452 L516.6834,422.07275 L520.2513,416.72333 L523.8191,411.27765 L527.38696,405.737 L530.95483,400.10266 L534.52264,394.37592 L538.09045,388.55823 L541.65826,382.65106 L545.22614,376.6543 L548.79395,370.57355 L552.3618,364.40152 L555.9297,358.15802 L559.49744,351.83493 L563.0653,345.38174 L566.6332,338.88132 L570.20105,332.33673 L573.76886,325.73706 L577.3367,319.07697 L580.90454,312.36203 L584.47235,305.5644 L588.0402,298.72723 L591.60803,291.83148 L595.17584,284.90125 L598.7437,277.97745 L602.3116,271.1067 L605.8794,264.2741 L609.4472,257.34738 L613.0151,250.40894 L616.58295,243.51593 L620.15076,236.67776 L623.71857,229.8717 L627.28644,222.9542 L630.85425,215.92108 L634.4221,209.28802 L637.9899,202.60837 L641.55774,195.91736 L645.1257,189.57312 L648.6935,183.31714 L652.2613,177.10233 L655.82916,170.87445 L659.397,164.80966 L662.9648,159.19891 L666.5326,153.92444 L670.1005,149.01245 L673.66833,143.98102 L677.2362,139.01071 L680.804,134.00272 L684.3719,128.62894 L687.9397,124.00842 L691.5075,119.28015 L695.0753,114.11191 L698.64325,110.122955 L702.21106,105.62265 L705.77893,102.19595 L709.34674,99.10538 L712.91455,95.45047 L716.4824,92.53555 L720.05023,89.23221 L723.61804,85.84412 L727.186,82.61066 L730.7538,80.704315 L734.32166,78.30603 L737.88947,76.22406 L741.4573,74.79739 L745.0251,72.53589 L748.59296,71.79056 L752.16077,72.654724 L755.72864,71.30786 L759.29645,68.556274 L762.8644,68.19797 L766.4322,69.06937 L770,66.71951" fill="none" stroke="#008000" stroke-width="1"/>
</g>
<rect fill="white" height="74" stroke="#000000" stroke-width="1" width="128" x="70" y="70"/>
<rect fill="#0000ff" height="14.400001" width="15" x="80" y="81.8"/>
<text dominant-baseline="middle" fill="#000000" font-family="Times New Roman" font-size="12" text-anchor="start" x="100" y="89">
Concentration A
</text>
<rect fill="#ffa500" height="14.400001" width="15" x="80" y="99.8"/>
<text dominant-baseline="middle" fill="#000000" font-family="Times New Roman" font-size="12" text-anchor="start" x="100" y="107">
Concentration B
</text>
<rect fill="#008000" height="14.400001" width="15" x="80" y="117.8"/>
<text dominant-baseline="middle" fill="#000000" font-family="Times New Roman" font-size="12" text-anchor="start" x="100" y="125">
Concentration C
</text>
</svg>