<svg height="600" viewBox="0 0 800 600" width="800" xmlns="http://www.w3.org/2000/svg">
<rect fill="white" height="600" width="800" x="0" y="0"/>
<text dominant-baseline="middle" fill="#000000" font-family="Times New Roman" font-size="20" text-anchor="middle" x="415" y="30">
Robertson DAE problem with a Conservation Law
</text>
<text dominant-baseline="middle" fill="#000000" font-family="Times New Roman" font-size="14" text-anchor="middle" x="415" y="576">
Time (t)
</text>
<text dominant-baseline="middle" fill="#000000" font-family="Times New Roman" font-size="14" text-anchor="middle" transform="rotate(-90, 18, 300)" x="18" y="300">
y1, 1e4 * y2, y3
</text>
<rect fill="none" height="480" stroke="#000000" stroke-width="1.5" width="710" x="60" y="60"/>
<line stroke="#000000" stroke-width="1" x1="60" x2="60" y1="540" y2="535"/>
<text dominant-baseline="hanging" fill="#000000" font-family="Times New Roman" font-size="10" text-anchor="middle" x="60" y="549">
10
<tspan dx="-0.2em" dy="-0.4em">
-5
</tspan>
</text>
<line stroke="#000000" stroke-width="1" x1="60" x2="60" y1="60" y2="65"/>
<line stroke="#c0c0c0" stroke-width="0.5" x1="131" x2="131" y1="60" y2="540"/>
<line stroke="#000000" stroke-width="1" x1="131" x2="131" y1="540" y2="535"/>
<text dominant-baseline="hanging" fill="#000000" font-family="Times New Roman" font-size="10" text-anchor="middle" x="131" y="549">
10
<tspan dx="-0.2em" dy="-0.4em">
-4
</tspan>
</text>
<line stroke="#000000" stroke-width="1" x1="131" x2="131" y1="60" y2="65"/>
<line stroke="#c0c0c0" stroke-width="0.5" x1="202" x2="202" y1="60" y2="540"/>
<line stroke="#000000" stroke-width="1" x1="202" x2="202" y1="540" y2="535"/>
<text dominant-baseline="hanging" fill="#000000" font-family="Times New Roman" font-size="10" text-anchor="middle" x="202" y="549">
10
<tspan dx="-0.2em" dy="-0.4em">
-3
</tspan>
</text>
<line stroke="#000000" stroke-width="1" x1="202" x2="202" y1="60" y2="65"/>
<line stroke="#c0c0c0" stroke-width="0.5" x1="273" x2="273" y1="60" y2="540"/>
<line stroke="#000000" stroke-width="1" x1="273" x2="273" y1="540" y2="535"/>
<text dominant-baseline="hanging" fill="#000000" font-family="Times New Roman" font-size="10" text-anchor="middle" x="273" y="549">
10
<tspan dx="-0.2em" dy="-0.4em">
-2
</tspan>
</text>
<line stroke="#000000" stroke-width="1" x1="273" x2="273" y1="60" y2="65"/>
<line stroke="#c0c0c0" stroke-width="0.5" x1="344" x2="344" y1="60" y2="540"/>
<line stroke="#000000" stroke-width="1" x1="344" x2="344" y1="540" y2="535"/>
<text dominant-baseline="hanging" fill="#000000" font-family="Times New Roman" font-size="10" text-anchor="middle" x="344" y="549">
10
<tspan dx="-0.2em" dy="-0.4em">
-1
</tspan>
</text>
<line stroke="#000000" stroke-width="1" x1="344" x2="344" y1="60" y2="65"/>
<line stroke="#c0c0c0" stroke-width="0.5" x1="415" x2="415" y1="60" y2="540"/>
<line stroke="#000000" stroke-width="1" x1="415" x2="415" y1="540" y2="535"/>
<text dominant-baseline="hanging" fill="#000000" font-family="Times New Roman" font-size="10" text-anchor="middle" x="415" y="549">
10
<tspan dx="-0.2em" dy="-0.4em">
0
</tspan>
</text>
<line stroke="#000000" stroke-width="1" x1="415" x2="415" y1="60" y2="65"/>
<line stroke="#c0c0c0" stroke-width="0.5" x1="486.00003" x2="486.00003" y1="60" y2="540"/>
<line stroke="#000000" stroke-width="1" x1="486.00003" x2="486.00003" y1="540" y2="535"/>
<text dominant-baseline="hanging" fill="#000000" font-family="Times New Roman" font-size="10" text-anchor="middle" x="486.00003" y="549">
10
<tspan dx="-0.2em" dy="-0.4em">
1
</tspan>
</text>
<line stroke="#000000" stroke-width="1" x1="486.00003" x2="486.00003" y1="60" y2="65"/>
<line stroke="#c0c0c0" stroke-width="0.5" x1="557" x2="557" y1="60" y2="540"/>
<line stroke="#000000" stroke-width="1" x1="557" x2="557" y1="540" y2="535"/>
<text dominant-baseline="hanging" fill="#000000" font-family="Times New Roman" font-size="10" text-anchor="middle" x="557" y="549">
10
<tspan dx="-0.2em" dy="-0.4em">
2
</tspan>
</text>
<line stroke="#000000" stroke-width="1" x1="557" x2="557" y1="60" y2="65"/>
<line stroke="#c0c0c0" stroke-width="0.5" x1="628" x2="628" y1="60" y2="540"/>
<line stroke="#000000" stroke-width="1" x1="628" x2="628" y1="540" y2="535"/>
<text dominant-baseline="hanging" fill="#000000" font-family="Times New Roman" font-size="10" text-anchor="middle" x="628" y="549">
10
<tspan dx="-0.2em" dy="-0.4em">
3
</tspan>
</text>
<line stroke="#000000" stroke-width="1" x1="628" x2="628" y1="60" y2="65"/>
<line stroke="#c0c0c0" stroke-width="0.5" x1="699" x2="699" y1="60" y2="540"/>
<line stroke="#000000" stroke-width="1" x1="699" x2="699" y1="540" y2="535"/>
<text dominant-baseline="hanging" fill="#000000" font-family="Times New Roman" font-size="10" text-anchor="middle" x="699" y="549">
10
<tspan dx="-0.2em" dy="-0.4em">
4
</tspan>
</text>
<line stroke="#000000" stroke-width="1" x1="699" x2="699" y1="60" y2="65"/>
<line stroke="#000000" stroke-width="1" x1="770" x2="770" y1="540" y2="535"/>
<text dominant-baseline="hanging" fill="#000000" font-family="Times New Roman" font-size="10" text-anchor="middle" x="770" y="549">
10
<tspan dx="-0.2em" dy="-0.4em">
5
</tspan>
</text>
<line stroke="#000000" stroke-width="1" x1="770" x2="770" y1="60" y2="65"/>
<line stroke="#000000" stroke-width="1" x1="60" x2="65" y1="540" y2="540"/>
<line stroke="#000000" stroke-width="1" x1="770" x2="765" y1="540" y2="540"/>
<text dominant-baseline="middle" fill="#000000" font-family="Times New Roman" font-size="10" text-anchor="end" x="52" y="540">
0.0
</text>
<line stroke="#c0c0c0" stroke-width="0.5" x1="60" x2="770" y1="491.99997" y2="491.99997"/>
<line stroke="#000000" stroke-width="1" x1="60" x2="65" y1="491.99997" y2="491.99997"/>
<line stroke="#000000" stroke-width="1" x1="770" x2="765" y1="491.99997" y2="491.99997"/>
<text dominant-baseline="middle" fill="#000000" font-family="Times New Roman" font-size="10" text-anchor="end" x="52" y="491.99997">
0.1
</text>
<line stroke="#c0c0c0" stroke-width="0.5" x1="60" x2="770" y1="443.99994" y2="443.99994"/>
<line stroke="#000000" stroke-width="1" x1="60" x2="65" y1="443.99994" y2="443.99994"/>
<line stroke="#000000" stroke-width="1" x1="770" x2="765" y1="443.99994" y2="443.99994"/>
<text dominant-baseline="middle" fill="#000000" font-family="Times New Roman" font-size="10" text-anchor="end" x="52" y="443.99994">
0.2
</text>
<line stroke="#c0c0c0" stroke-width="0.5" x1="60" x2="770" y1="395.99994" y2="395.99994"/>
<line stroke="#000000" stroke-width="1" x1="60" x2="65" y1="395.99994" y2="395.99994"/>
<line stroke="#000000" stroke-width="1" x1="770" x2="765" y1="395.99994" y2="395.99994"/>
<text dominant-baseline="middle" fill="#000000" font-family="Times New Roman" font-size="10" text-anchor="end" x="52" y="395.99994">
0.3
</text>
<line stroke="#c0c0c0" stroke-width="0.5" x1="60" x2="770" y1="347.9999" y2="347.9999"/>
<line stroke="#000000" stroke-width="1" x1="60" x2="65" y1="347.9999" y2="347.9999"/>
<line stroke="#000000" stroke-width="1" x1="770" x2="765" y1="347.9999" y2="347.9999"/>
<text dominant-baseline="middle" fill="#000000" font-family="Times New Roman" font-size="10" text-anchor="end" x="52" y="347.9999">
0.4
</text>
<line stroke="#c0c0c0" stroke-width="0.5" x1="60" x2="770" y1="299.99988" y2="299.99988"/>
<line stroke="#000000" stroke-width="1" x1="60" x2="65" y1="299.99988" y2="299.99988"/>
<line stroke="#000000" stroke-width="1" x1="770" x2="765" y1="299.99988" y2="299.99988"/>
<text dominant-baseline="middle" fill="#000000" font-family="Times New Roman" font-size="10" text-anchor="end" x="52" y="299.99988">
0.5
</text>
<line stroke="#c0c0c0" stroke-width="0.5" x1="60" x2="770" y1="251.99988" y2="251.99988"/>
<line stroke="#000000" stroke-width="1" x1="60" x2="65" y1="251.99988" y2="251.99988"/>
<line stroke="#000000" stroke-width="1" x1="770" x2="765" y1="251.99988" y2="251.99988"/>
<text dominant-baseline="middle" fill="#000000" font-family="Times New Roman" font-size="10" text-anchor="end" x="52" y="251.99988">
0.6
</text>
<line stroke="#c0c0c0" stroke-width="0.5" x1="60" x2="770" y1="203.99985" y2="203.99985"/>
<line stroke="#000000" stroke-width="1" x1="60" x2="65" y1="203.99985" y2="203.99985"/>
<line stroke="#000000" stroke-width="1" x1="770" x2="765" y1="203.99985" y2="203.99985"/>
<text dominant-baseline="middle" fill="#000000" font-family="Times New Roman" font-size="10" text-anchor="end" x="52" y="203.99985">
0.7
</text>
<line stroke="#c0c0c0" stroke-width="0.5" x1="60" x2="770" y1="155.99979" y2="155.99979"/>
<line stroke="#000000" stroke-width="1" x1="60" x2="65" y1="155.99979" y2="155.99979"/>
<line stroke="#000000" stroke-width="1" x1="770" x2="765" y1="155.99979" y2="155.99979"/>
<text dominant-baseline="middle" fill="#000000" font-family="Times New Roman" font-size="10" text-anchor="end" x="52" y="155.99979">
0.8
</text>
<line stroke="#c0c0c0" stroke-width="0.5" x1="60" x2="770" y1="107.99979" y2="107.99979"/>
<line stroke="#000000" stroke-width="1" x1="60" x2="65" y1="107.99979" y2="107.99979"/>
<line stroke="#000000" stroke-width="1" x1="770" x2="765" y1="107.99979" y2="107.99979"/>
<text dominant-baseline="middle" fill="#000000" font-family="Times New Roman" font-size="10" text-anchor="end" x="52" y="107.99979">
0.9
</text>
<line stroke="#000000" stroke-width="1" x1="60" x2="65" y1="59.999725" y2="59.999725"/>
<line stroke="#000000" stroke-width="1" x1="770" x2="765" y1="59.999725" y2="59.999725"/>
<text dominant-baseline="middle" fill="#000000" font-family="Times New Roman" font-size="10" text-anchor="end" x="52" y="59.999725">
1.0
</text>
<defs>
<clipPath id="plotAreaClip">
<rect height="480" width="710" x="60" y="60"/>
</clipPath>
</defs>
<g clip-path="url(#plotAreaClip)">
<path d="M60,60 L63.567856,60.00003 L67.13567,60.00003 L70.70353,60.00006 L74.271355,60.000122 L77.83921,60.000153 L81.40703,60.000183 L84.974884,60.000244 L88.54271,60.000275 L92.110565,60.000336 L95.67838,60.000397 L99.24624,60.00049 L102.81406,60.00058 L106.38192,60.00067 L109.94974,60.000763 L113.51759,60.000885 L117.08542,60.001038 L120.653275,60.00116 L124.22109,60.001343 L127.78895,60.001526 L131.35678,60.00174 L134.92462,60.001984 L138.49246,60.00226 L142.0603,60.002533 L145.62814,60.0029 L149.19598,60.003265 L152.76382,60.003693 L156.33165,60.00418 L159.8995,60.0047 L163.46733,60.00528 L167.03517,60.00598 L170.60301,60.006714 L174.17084,60.00757 L177.73871,60.008545 L181.30655,60.009613 L184.87437,60.010803 L188.44221,60.012146 L192.01006,60.01367 L195.5779,60.01538 L199.14574,60.017303 L202.71356,60.01947 L206.28142,60.02185 L209.84924,60.024567 L213.41708,60.02762 L216.98492,60.031006 L220.55276,60.03485 L224.1206,60.039124 L227.68845,60.043945 L231.25627,60.049377 L234.82411,60.05545 L238.39197,60.062286 L241.9598,60.069916 L245.52763,60.07852 L249.09546,60.088165 L252.6633,60.09903 L256.23114,60.111145 L259.799,60.124786 L263.36685,60.140106 L266.9347,60.157288 L270.5025,60.176575 L274.07034,60.198242 L277.63818,60.222504 L281.20605,60.249756 L284.77386,60.280334 L288.3417,60.314636 L291.90955,60.35312 L295.47742,60.39627 L299.04523,60.44467 L302.61307,60.498962 L306.1809,60.559814 L309.74872,60.628082 L313.3166,60.70456 L316.88443,60.790314 L320.45227,60.886383 L324.0201,60.993988 L327.58792,61.114502 L331.1558,61.24945 L334.7236,61.400513 L338.29147,61.56952 L341.85928,61.758514 L345.42712,61.96985 L348.99496,62.205933 L352.56284,62.469574 L356.13065,62.763824 L359.6985,63.09201 L363.2663,63.457764 L366.83417,63.86499 L370.402,64.31802 L373.96985,64.82147 L377.53766,65.38031 L381.10553,65.99988 L384.67337,66.68585 L388.2412,67.44412 L391.80908,68.28104 L395.3769,69.20303 L398.94473,70.21692 L402.51254,71.32947 L406.0804,72.54758 L409.64822,73.87805 L413.2161,75.32761 L416.78394,76.90277 L420.35178,78.609436 L423.9196,80.453125 L427.48746,82.43906 L431.05527,84.571045 L434.6231,86.85254 L438.19092,89.28644 L441.7588,91.87366 L445.3266,94.61536 L448.89447,97.51102 L452.4623,100.55936 L456.03018,103.75903 L459.598,107.10657 L463.16583,110.599884 L466.7337,114.234314 L470.3015,118.00711 L473.86935,121.91324 L477.43716,125.949554 L481.00504,130.11142 L484.57285,134.39539 L488.1407,138.79776 L491.70856,143.31467 L495.2764,147.94424 L498.8442,152.68216 L502.41208,157.52734 L505.9799,162.4766 L509.54773,167.52832 L513.1156,172.68073 L516.6834,177.93219 L520.2513,183.2814 L523.8191,188.72684 L527.38696,194.26727 L530.95483,199.90143 L534.52264,205.62793 L538.09045,211.44543 L541.65826,217.35236 L545.22614,223.3471 L548.79395,229.4277 L552.3618,235.5921 L555.9297,241.83792 L559.49744,248.16287 L563.0653,254.5633 L566.6332,261.03622 L570.20105,267.57803 L573.76886,274.1852 L577.3367,280.85565 L580.90454,287.57938 L584.47235,294.35217 L588.0402,301.1688 L591.60803,308.02216 L595.17584,314.9096 L598.7437,321.82037 L602.3116,328.76187 L605.8794,335.6938 L609.4472,342.62793 L613.0151,349.5528 L616.58295,356.48657 L620.15076,363.35986 L623.71857,370.21945 L627.28644,377.03342 L630.85425,383.76172 L634.4221,390.46454 L637.9899,397.0647 L641.55774,403.55933 L645.1257,410.00266 L648.6935,416.2759 L652.2613,422.43784 L655.82916,428.50616 L659.397,434.4385 L662.9648,440.25513 L666.5326,445.8805 L670.1005,451.34546 L673.66833,456.6087 L677.2362,461.67715 L680.804,466.6283 L684.3719,471.574 L687.9397,476.07083 L691.5075,480.44388 L695.0753,484.78705 L698.64325,488.68423 L702.21106,492.51077 L705.77893,496.0188 L709.34674,499.30682 L712.91455,502.31766 L716.4824,505.2215 L720.05023,508.0465 L723.61804,510.79 L727.186,513.18066 L730.7538,515.31384 L734.32166,517.33575 L737.88947,519.19226 L741.4573,521.27875 L745.0251,522.86646 L748.59296,524.5334 L752.16077,526.0312 L755.72864,527.7894 L759.29645,529.1789 L762.8644,528.6604 L766.4322,530.20685 L770,532.0385" fill="none" stroke="#0000ff" stroke-width="1"/>
<path d="M60,538.0801 L63.567856,537.8446 L67.13567,537.5802 L70.70353,537.28345 L74.271355,536.95026 L77.83921,536.57623 L81.40703,536.1564 L84.974884,535.68506 L88.54271,535.156 L92.110565,534.5622 L95.67838,533.8957 L99.24624,533.1476 L102.81406,532.30804 L106.38192,531.3659 L109.94974,530.30884 L113.51759,529.1229 L117.08542,527.7928 L120.653275,526.3011 L124.22109,524.62885 L127.78895,522.7548 L131.35678,520.6557 L134.92462,518.3058 L138.49246,515.67706 L142.0603,512.73914 L145.62814,509.45953 L149.19598,505.80377 L152.76382,501.7364 L156.33165,497.22125 L159.8995,492.22342 L163.46733,486.71133 L167.03517,480.65906 L170.60301,474.05038 L174.17084,466.8838 L177.73871,459.17746 L181.30655,450.97635 L184.87437,442.3582 L188.44221,433.4386 L192.01006,424.3745 L195.5779,415.3609 L199.14574,406.622 L202.71356,398.39557 L206.28142,390.9074 L209.84924,384.34796 L213.41708,378.8351 L216.98492,374.4229 L220.55276,371.06522 L224.1206,368.65073 L227.68845,367.0209 L231.25627,365.99512 L234.82411,365.39673 L238.39197,365.07867 L241.9598,364.9301 L245.52763,364.87274 L249.09546,364.86115 L252.6633,364.87103 L256.23114,364.89026 L259.799,364.9146 L263.36685,364.9428 L266.9347,364.9745 L270.5025,365.01013 L274.07034,365.0501 L277.63818,365.09497 L281.20605,365.14526 L284.77386,365.20172 L288.3417,365.265 L291.90955,365.336 L295.47742,365.41562 L299.04523,365.50488 L302.61307,365.60492 L306.1809,365.71704 L309.74872,365.84265 L313.3166,365.9834 L316.88443,366.14102 L320.45227,366.3175 L324.0201,366.51505 L327.58792,366.73608 L331.1558,366.98328 L334.7236,367.25958 L338.29147,367.56836 L341.85928,367.91315 L345.42712,368.2979 L348.99496,368.727 L352.56284,369.20517 L356.13065,369.73752 L359.6985,370.32962 L363.2663,370.9875 L366.83417,371.71747 L370.402,372.5265 L373.96985,373.42172 L377.53766,374.41074 L381.10553,375.50143 L384.67337,376.7019 L388.2412,378.02023 L391.80908,379.4646 L395.3769,381.0429 L398.94473,382.76288 L402.51254,384.6314 L406.0804,386.65442 L409.64822,388.83704 L413.2161,391.18298 L416.78394,393.6942 L420.35178,396.37042 L423.9196,399.2098 L427.48746,402.20822 L431.05527,405.3581 L434.6231,408.65057 L438.19092,412.0742 L441.7588,415.6142 L445.3266,419.2555 L448.89447,422.97974 L452.4623,426.76868 L456.03018,430.6028 L459.598,434.4619 L463.16583,438.32715 L466.7337,442.17905 L470.3015,446.00055 L473.86935,449.77502 L477.43716,453.48804 L481.00504,457.12726 L484.57285,460.68124 L488.1407,464.14206 L491.70856,467.5016 L495.2764,470.75592 L498.8442,473.90036 L502.41208,476.93326 L505.9799,479.85382 L509.54773,482.66144 L513.1156,485.35773 L516.6834,487.94415 L520.2513,490.4231 L523.8191,492.79724 L527.38696,495.0697 L530.95483,497.24374 L534.52264,499.32285 L538.09045,501.31052 L541.65826,503.2104 L545.22614,505.02594 L548.79395,506.76074 L552.3618,508.4182 L555.9297,510.00165 L559.49744,511.51443 L563.0653,512.9594 L566.6332,514.3398 L570.20105,515.65826 L573.76886,516.91785 L577.3367,518.1214 L580.90454,519.2705 L584.47235,520.3678 L588.0402,521.4156 L591.60803,522.4159 L595.17584,523.37134 L598.7437,524.2832 L602.3116,525.15533 L605.8794,525.9853 L609.4472,526.7773 L613.0151,527.5326 L616.58295,528.2555 L620.15076,528.94116 L623.71857,529.5965 L627.28644,530.22095 L630.85425,530.8128 L634.4221,531.3794 L637.9899,531.9162 L641.55774,532.42505 L645.1257,532.9118 L648.6935,533.36945 L652.2613,533.80396 L655.82916,534.21814 L659.397,534.6104 L662.9648,534.98346 L666.5326,535.33386 L670.1005,535.66486 L673.66833,535.9752 L677.2362,536.2666 L680.804,536.5444 L684.3719,536.8153 L687.9397,537.05615 L691.5075,537.2856 L695.0753,537.5088 L698.64325,537.7053 L702.21106,537.8949 L705.77893,538.06586 L709.34674,538.22363 L712.91455,538.3661 L716.4824,538.5017 L720.05023,538.63196 L723.61804,538.7569 L727.186,538.86456 L730.7538,538.9597 L734.32166,539.0491 L737.88947,539.1305 L741.4573,539.2211 L745.0251,539.2896 L748.59296,539.361 L752.16077,539.4247 L755.72864,539.49896 L759.29645,539.5573 L762.8644,539.5356 L766.4322,539.6002 L770,539.6762" fill="none" stroke="#ffa500" stroke-width="1"/>
<path d="M60,540 L63.567856,540 L67.13567,540 L70.70353,540 L74.271355,540 L77.83921,540 L81.40703,540 L84.974884,540 L88.54271,540 L92.110565,540 L95.67838,540 L99.24624,540 L102.81406,540 L106.38192,540 L109.94974,540 L113.51759,540 L117.08542,540 L120.653275,540 L124.22109,540 L127.78895,540 L131.35678,540 L134.92462,540 L138.49246,540 L142.0603,540 L145.62814,539.99994 L149.19598,539.99994 L152.76382,539.99994 L156.33165,539.99994 L159.8995,539.9999 L163.46733,539.9998 L167.03517,539.99976 L170.60301,539.99963 L174.17084,539.9995 L177.73871,539.9993 L181.30655,539.9991 L184.87437,539.9987 L188.44221,539.9983 L192.01006,539.9977 L195.5779,539.9969 L199.14574,539.99585 L202.71356,539.9945 L206.28142,539.99286 L209.84924,539.9908 L213.41708,539.98834 L216.98492,539.98535 L220.55276,539.9819 L224.1206,539.9778 L227.68845,539.97314 L231.25627,539.96783 L234.82411,539.9618 L238.39197,539.955 L241.9598,539.9474 L245.52763,539.9388 L249.09546,539.92914 L252.6633,539.91833 L256.23114,539.9061 L259.799,539.8925 L263.36685,539.8772 L266.9347,539.86 L270.5025,539.8407 L274.07034,539.8191 L277.63818,539.7948 L281.20605,539.7675 L284.77386,539.73694 L288.3417,539.70264 L291.90955,539.6642 L295.47742,539.621 L299.04523,539.5726 L302.61307,539.5183 L306.1809,539.4574 L309.74872,539.38916 L313.3166,539.3126 L316.88443,539.22687 L320.45227,539.1308 L324.0201,539.02313 L327.58792,538.9026 L331.1558,538.76764 L334.7236,538.6166 L338.29147,538.4475 L341.85928,538.2585 L345.42712,538.0471 L348.99496,537.811 L352.56284,537.5473 L356.13065,537.253 L359.6985,536.92474 L363.2663,536.55896 L366.83417,536.1516 L370.402,535.69855 L373.96985,535.195 L377.53766,534.63605 L381.10553,534.01636 L384.67337,533.3303 L388.2412,532.57184 L391.80908,531.7348 L395.3769,530.8127 L398.94473,529.79865 L402.51254,528.68585 L406.0804,527.4675 L409.64822,526.13684 L413.2161,524.6871 L416.78394,523.11163 L420.35178,521.4047 L423.9196,519.5607 L427.48746,517.5745 L431.05527,515.4422 L434.6231,513.1604 L438.19092,510.72617 L441.7588,508.13858 L445.3266,505.39655 L448.89447,502.5005 L452.4623,499.45178 L456.03018,496.2517 L459.598,492.90378 L463.16583,489.4101 L466.7337,485.77527 L470.3015,482.0021 L473.86935,478.09558 L477.43716,474.0589 L481.00504,469.89667 L484.57285,465.61237 L488.1407,461.20963 L491.70856,456.69238 L495.2764,452.0625 L498.8442,447.32425 L502.41208,442.47876 L505.9799,437.5292 L509.54773,432.47723 L513.1156,427.32452 L516.6834,422.0728 L520.2513,416.7234 L523.8191,411.27768 L527.38696,405.73703 L530.95483,400.10266 L534.52264,394.37592 L538.09045,388.55823 L541.65826,382.6511 L545.22614,376.6562 L548.79395,370.5754 L552.3618,364.4109 L555.9297,358.16492 L559.49744,351.83978 L563.0653,345.4392 L566.6332,338.96616 L570.20105,332.4243 L573.76886,325.81696 L577.3367,319.14633 L580.90454,312.42245 L584.47235,305.6496 L588.0402,298.83282 L591.60803,291.97937 L595.17584,285.09186 L598.7437,278.1813 L602.3116,271.23938 L605.8794,264.3075 L609.4472,257.37323 L613.0151,250.44843 L616.58295,243.51443 L620.15076,236.64111 L623.71857,229.78204 L627.28644,222.96732 L630.85425,216.23907 L634.4221,209.53632 L637.9899,202.93591 L641.55774,196.44135 L645.1257,189.99783 L648.6935,183.72455 L652.2613,177.56268 L655.82916,171.49448 L659.397,165.56189 L662.9648,159.74518 L666.5326,154.12003 L670.1005,148.65518 L673.66833,143.39148 L677.2362,138.32303 L680.804,133.3721 L684.3719,128.42612 L687.9397,123.92926 L691.5075,119.55652 L695.0753,115.21301 L698.64325,111.31583 L702.21106,107.48959 L705.77893,103.98126 L709.34674,100.693085 L712.91455,97.6821 L716.4824,94.77872 L720.05023,91.95343 L723.61804,89.21011 L727.186,86.819214 L730.7538,84.686035 L734.32166,82.66409 L737.88947,80.80762 L741.4573,78.72113 L745.0251,77.133484 L748.59296,75.466736 L752.16077,73.96875 L755.72864,72.21048 L759.29645,70.82095 L762.8644,71.33945 L766.4322,69.79312 L770,67.9613" fill="none" stroke="#008000" stroke-width="1"/>
</g>
<rect fill="white" height="74" stroke="#000000" stroke-width="1" width="128" x="70" y="70"/>
<rect fill="#0000ff" height="14.400001" width="15" x="80" y="81.8"/>
<text dominant-baseline="middle" fill="#000000" font-family="Times New Roman" font-size="12" text-anchor="start" x="100" y="89">
Concentration A
</text>
<rect fill="#ffa500" height="14.400001" width="15" x="80" y="99.8"/>
<text dominant-baseline="middle" fill="#000000" font-family="Times New Roman" font-size="12" text-anchor="start" x="100" y="107">
Concentration B
</text>
<rect fill="#008000" height="14.400001" width="15" x="80" y="117.8"/>
<text dominant-baseline="middle" fill="#000000" font-family="Times New Roman" font-size="12" text-anchor="start" x="100" y="125">
Concentration C
</text>
</svg>