<svg height="600" viewBox="0 0 800 600" width="800" xmlns="http://www.w3.org/2000/svg">
<rect fill="white" height="600" width="800" x="0" y="0"/>
<text dominant-baseline="middle" fill="#000000" font-family="Times New Roman" font-size="20" text-anchor="middle" x="415" y="30">
Constrained pendulum: x and y vs time
</text>
<text dominant-baseline="middle" fill="#000000" font-family="Times New Roman" font-size="14" text-anchor="middle" x="415" y="576">
t
</text>
<text dominant-baseline="middle" fill="#000000" font-family="Times New Roman" font-size="14" text-anchor="middle" transform="rotate(-90, 18, 300)" x="18" y="300">
x, y
</text>
<rect fill="none" height="480" stroke="#000000" stroke-width="1.5" width="710" x="60" y="60"/>
<line stroke="#000000" stroke-width="1" x1="60" x2="60" y1="540" y2="535"/>
<text dominant-baseline="hanging" fill="#000000" font-family="Times New Roman" font-size="10" text-anchor="middle" x="60" y="549">
0.0
</text>
<line stroke="#000000" stroke-width="1" x1="60" x2="60" y1="60" y2="65"/>
<line stroke="#c0c0c0" stroke-width="0.5" x1="131" x2="131" y1="60" y2="540"/>
<line stroke="#000000" stroke-width="1" x1="131" x2="131" y1="540" y2="535"/>
<text dominant-baseline="hanging" fill="#000000" font-family="Times New Roman" font-size="10" text-anchor="middle" x="131" y="549">
1.0
</text>
<line stroke="#000000" stroke-width="1" x1="131" x2="131" y1="60" y2="65"/>
<line stroke="#c0c0c0" stroke-width="0.5" x1="202" x2="202" y1="60" y2="540"/>
<line stroke="#000000" stroke-width="1" x1="202" x2="202" y1="540" y2="535"/>
<text dominant-baseline="hanging" fill="#000000" font-family="Times New Roman" font-size="10" text-anchor="middle" x="202" y="549">
2.0
</text>
<line stroke="#000000" stroke-width="1" x1="202" x2="202" y1="60" y2="65"/>
<line stroke="#c0c0c0" stroke-width="0.5" x1="273" x2="273" y1="60" y2="540"/>
<line stroke="#000000" stroke-width="1" x1="273" x2="273" y1="540" y2="535"/>
<text dominant-baseline="hanging" fill="#000000" font-family="Times New Roman" font-size="10" text-anchor="middle" x="273" y="549">
3.0
</text>
<line stroke="#000000" stroke-width="1" x1="273" x2="273" y1="60" y2="65"/>
<line stroke="#c0c0c0" stroke-width="0.5" x1="344" x2="344" y1="60" y2="540"/>
<line stroke="#000000" stroke-width="1" x1="344" x2="344" y1="540" y2="535"/>
<text dominant-baseline="hanging" fill="#000000" font-family="Times New Roman" font-size="10" text-anchor="middle" x="344" y="549">
4.0
</text>
<line stroke="#000000" stroke-width="1" x1="344" x2="344" y1="60" y2="65"/>
<line stroke="#c0c0c0" stroke-width="0.5" x1="415" x2="415" y1="60" y2="540"/>
<line stroke="#000000" stroke-width="1" x1="415" x2="415" y1="540" y2="535"/>
<text dominant-baseline="hanging" fill="#000000" font-family="Times New Roman" font-size="10" text-anchor="middle" x="415" y="549">
5.0
</text>
<line stroke="#000000" stroke-width="1" x1="415" x2="415" y1="60" y2="65"/>
<line stroke="#c0c0c0" stroke-width="0.5" x1="486.00003" x2="486.00003" y1="60" y2="540"/>
<line stroke="#000000" stroke-width="1" x1="486.00003" x2="486.00003" y1="540" y2="535"/>
<text dominant-baseline="hanging" fill="#000000" font-family="Times New Roman" font-size="10" text-anchor="middle" x="486.00003" y="549">
6.0
</text>
<line stroke="#000000" stroke-width="1" x1="486.00003" x2="486.00003" y1="60" y2="65"/>
<line stroke="#c0c0c0" stroke-width="0.5" x1="557" x2="557" y1="60" y2="540"/>
<line stroke="#000000" stroke-width="1" x1="557" x2="557" y1="540" y2="535"/>
<text dominant-baseline="hanging" fill="#000000" font-family="Times New Roman" font-size="10" text-anchor="middle" x="557" y="549">
7.0
</text>
<line stroke="#000000" stroke-width="1" x1="557" x2="557" y1="60" y2="65"/>
<line stroke="#c0c0c0" stroke-width="0.5" x1="628" x2="628" y1="60" y2="540"/>
<line stroke="#000000" stroke-width="1" x1="628" x2="628" y1="540" y2="535"/>
<text dominant-baseline="hanging" fill="#000000" font-family="Times New Roman" font-size="10" text-anchor="middle" x="628" y="549">
8.0
</text>
<line stroke="#000000" stroke-width="1" x1="628" x2="628" y1="60" y2="65"/>
<line stroke="#c0c0c0" stroke-width="0.5" x1="699" x2="699" y1="60" y2="540"/>
<line stroke="#000000" stroke-width="1" x1="699" x2="699" y1="540" y2="535"/>
<text dominant-baseline="hanging" fill="#000000" font-family="Times New Roman" font-size="10" text-anchor="middle" x="699" y="549">
9.0
</text>
<line stroke="#000000" stroke-width="1" x1="699" x2="699" y1="60" y2="65"/>
<line stroke="#000000" stroke-width="1" x1="770" x2="770" y1="540" y2="535"/>
<text dominant-baseline="hanging" fill="#000000" font-family="Times New Roman" font-size="10" text-anchor="middle" x="770" y="549">
10.0
</text>
<line stroke="#000000" stroke-width="1" x1="770" x2="770" y1="60" y2="65"/>
<line stroke="#000000" stroke-width="1" x1="60" x2="65" y1="540.00073" y2="540.00073"/>
<line stroke="#000000" stroke-width="1" x1="770" x2="765" y1="540.00073" y2="540.00073"/>
<text dominant-baseline="middle" fill="#000000" font-family="Times New Roman" font-size="10" text-anchor="end" x="52" y="540.00073">
-1.0
</text>
<line stroke="#c0c0c0" stroke-width="0.5" x1="60" x2="770" y1="483.76514" y2="483.76514"/>
<line stroke="#000000" stroke-width="1" x1="60" x2="65" y1="483.76514" y2="483.76514"/>
<line stroke="#000000" stroke-width="1" x1="770" x2="765" y1="483.76514" y2="483.76514"/>
<text dominant-baseline="middle" fill="#000000" font-family="Times New Roman" font-size="10" text-anchor="end" x="52" y="483.76514">
-0.8
</text>
<line stroke="#c0c0c0" stroke-width="0.5" x1="60" x2="770" y1="427.52957" y2="427.52957"/>
<line stroke="#000000" stroke-width="1" x1="60" x2="65" y1="427.52957" y2="427.52957"/>
<line stroke="#000000" stroke-width="1" x1="770" x2="765" y1="427.52957" y2="427.52957"/>
<text dominant-baseline="middle" fill="#000000" font-family="Times New Roman" font-size="10" text-anchor="end" x="52" y="427.52957">
-0.6
</text>
<line stroke="#c0c0c0" stroke-width="0.5" x1="60" x2="770" y1="371.294" y2="371.294"/>
<line stroke="#000000" stroke-width="1" x1="60" x2="65" y1="371.294" y2="371.294"/>
<line stroke="#000000" stroke-width="1" x1="770" x2="765" y1="371.294" y2="371.294"/>
<text dominant-baseline="middle" fill="#000000" font-family="Times New Roman" font-size="10" text-anchor="end" x="52" y="371.294">
-0.4
</text>
<line stroke="#c0c0c0" stroke-width="0.5" x1="60" x2="770" y1="315.0584" y2="315.0584"/>
<line stroke="#000000" stroke-width="1" x1="60" x2="65" y1="315.0584" y2="315.0584"/>
<line stroke="#000000" stroke-width="1" x1="770" x2="765" y1="315.0584" y2="315.0584"/>
<text dominant-baseline="middle" fill="#000000" font-family="Times New Roman" font-size="10" text-anchor="end" x="52" y="315.0584">
-0.2
</text>
<line stroke="#c0c0c0" stroke-width="0.5" x1="60" x2="770" y1="258.8228" y2="258.8228"/>
<line stroke="#000000" stroke-width="1" x1="60" x2="65" y1="258.8228" y2="258.8228"/>
<line stroke="#000000" stroke-width="1" x1="770" x2="765" y1="258.8228" y2="258.8228"/>
<text dominant-baseline="middle" fill="#000000" font-family="Times New Roman" font-size="10" text-anchor="end" x="52" y="258.8228">
-0.0
</text>
<line stroke="#c0c0c0" stroke-width="0.5" x1="60" x2="770" y1="202.58722" y2="202.58722"/>
<line stroke="#000000" stroke-width="1" x1="60" x2="65" y1="202.58722" y2="202.58722"/>
<line stroke="#000000" stroke-width="1" x1="770" x2="765" y1="202.58722" y2="202.58722"/>
<text dominant-baseline="middle" fill="#000000" font-family="Times New Roman" font-size="10" text-anchor="end" x="52" y="202.58722">
0.2
</text>
<line stroke="#c0c0c0" stroke-width="0.5" x1="60" x2="770" y1="146.35162" y2="146.35162"/>
<line stroke="#000000" stroke-width="1" x1="60" x2="65" y1="146.35162" y2="146.35162"/>
<line stroke="#000000" stroke-width="1" x1="770" x2="765" y1="146.35162" y2="146.35162"/>
<text dominant-baseline="middle" fill="#000000" font-family="Times New Roman" font-size="10" text-anchor="end" x="52" y="146.35162">
0.4
</text>
<line stroke="#c0c0c0" stroke-width="0.5" x1="60" x2="770" y1="90.11606" y2="90.11606"/>
<line stroke="#000000" stroke-width="1" x1="60" x2="65" y1="90.11606" y2="90.11606"/>
<line stroke="#000000" stroke-width="1" x1="770" x2="765" y1="90.11606" y2="90.11606"/>
<text dominant-baseline="middle" fill="#000000" font-family="Times New Roman" font-size="10" text-anchor="end" x="52" y="90.11606">
0.6
</text>
<defs>
<clipPath id="plotAreaClip">
<rect height="480" width="710" x="60" y="60"/>
</clipPath>
</defs>
<g clip-path="url(#plotAreaClip)">
<path d="M60,60 L63.55,61.728912 L67.1,66.972626 L70.65,75.88614 L74.2,88.67413 L77.75,105.51785 L81.3,126.48218 L84.85,151.42389 L88.4,179.91562 L91.95,211.21872 L95.5,244.30551 L99.05,277.94995 L102.600006,310.86118 L106.149994,341.8332 L109.7,369.87424 L113.25,394.28732 L116.8,414.6881 L120.350006,430.96686 L123.899994,443.21045 L127.45,451.60773 L131,456.36108 L134.54999,457.6139 L138.1,455.4078 L141.65,449.67056 L145.20001,440.23703 L148.75,426.90073 L152.29999,409.49072 L155.85,387.9655 L159.4,362.50397 L162.95001,333.57452 L166.5,301.95956 L170.05,268.72034 L173.6,235.10043 L177.15,202.38794 L180.70001,171.76599 L184.25,144.18939 L187.79999,120.311646 L191.35,100.476135 L194.9,84.75995 L198.45001,73.05835 L202,65.17279 L205.55,60.907104 L209.09999,60.129578 L212.65001,62.81418 L216.2,69.04791 L219.75,79.00546 L223.29999,92.89349 L226.84999,110.87048 L230.40001,132.95313 L233.95,158.92615 L237.5,188.27792 L241.05,220.1843 L244.59999,253.5521 L248.15001,287.12274 L251.70001,319.61407 L255.25,349.86768 L258.8,376.9676 L262.34998,400.30328 L265.90002,419.57214 L269.45,434.7268 L273,445.8922 L276.55,453.2694 L280.1,457.05008 L283.65,457.35287 L287.2,454.188 L290.75,447.45416 L294.3,436.9687 L297.84998,422.52588 L301.40002,403.9811 L304.95,381.34494 L308.5,354.87027 L312.05,325.1117 L315.59998,292.93475 L319.15,259.46237 L322.7,225.96555 L326.25,193.71802 L329.8,163.85043 L333.35,137.23935 L336.90002,114.45126 L340.45,95.74997 L344,81.15393 L347.55002,70.52231 L351.1,63.649506 L354.65002,60.351715 L358.19998,60.52356 L361.75,64.17078 L365.30002,71.40811 L368.85,82.4259 L372.4,97.42639 L375.94998,116.538635 L379.5,139.72351 L383.05002,166.68942 L386.59998,196.83795 L390.15,229.2638 L393.69998,262.81604 L397.25,296.2151 L400.80002,328.19818 L404.34998,357.66376 L407.9,383.77625 L411.44998,406.01202 L415,424.1456 L418.55,438.18713 L422.1,448.28802 L425.65,454.66037 L429.19998,457.47733 L432.74997,456.83075 L436.30002,452.69907 L439.84998,444.9544 L443.40002,433.40045 L446.94998,417.83966 L450.5,398.1604 L454.05002,374.43146 L457.6,346.98523 L461.15,316.4632 L464.69998,283.80948 L468.25,250.20074 L471.80002,216.92395 L475.34998,185.22693 L478.90002,156.17963 L482.44998,130.5763 L486.00003,108.897 L489.55002,91.33078 L493.1,77.842865 L496.65,68.26538 L500.2,62.3916 L503.75,60.053772 L507.3,61.175446 L510.85,65.79407 L514.4,74.049835 L517.94995,86.1438 L521.5,102.26709 L525.05005,122.51218 L528.6,146.7781 L532.15,174.69229 L535.69995,205.56934 L539.25,238.4278 L542.80005,272.0676 L546.35,305.19855 L549.9,336.58936 L553.44995,365.20343 L557,390.28876 L560.55005,411.4078 L564.1,428.40723 L567.65,441.34644 L571.19995,450.40265 L574.75,455.7821 L578.3,457.6424 L581.85004,456.0448 L585.4,450.93655 L588.95,442.16568 L592.5,429.52814 L596.05,412.8405 L599.6,392.03125 L603.14996,367.23486 L606.7,338.86584 L610.25,307.65228 L613.80005,274.6118 L617.35,240.96515 L620.9,208.00275 L624.44995,176.93704 L628,148.7698 L631.55,124.2099 L635.10004,103.65323 L638.64996,87.21857 L642.2,74.82535 L645.75,66.2861 L649.30005,61.397766 L652.85004,60.013702 L656.39996,62.088043 L659.94995,67.68881 L663.5,76.978516 L667.05,90.16342 L670.60004,107.41702 L674.14996,128.78806 L677.7,154.10736 L681.25,182.91809 L684.8,214.44934 L688.35004,247.64944 L691.89996,281.2791 L695.45,314.04932 L699,344.77002 L702.55005,372.47653 L706.10004,396.50275 L709.64996,416.49463 L713.19995,432.3655 L716.75,444.21722 L720.3,452.2434 L723.85004,456.64343 L727.39996,457.55212 L730.95,454.99973 L734.5,448.90332 L738.05005,439.09082 L741.60004,425.35522 L745.14996,407.53467 L748.69995,385.6054 L752.25,359.77222 L755.8,330.535 L759.35004,298.70667 L762.89996,265.37143 L766.45,231.78418 L770,199.22906" fill="none" stroke="#0000ff" stroke-width="1"/>
<path d="M60,457.64563 L63.55,459.35962 L67.1,464.3819 L70.65,472.35312 L74.2,482.67645 L77.75,494.53156 L81.3,506.90945 L84.85,518.6814 L88.4,528.70184 L91.95,535.94165 L95.5,539.6257 L99.05,539.3494 L102.600006,535.1434 L106.149994,527.4681 L109.7,517.14166 L113.25,505.21756 L116.8,492.84637 L120.350006,481.14578 L123.899994,471.1016 L127.45,463.50543 L131,458.92188 L134.54999,457.6773 L138.1,459.85852 L141.65,465.3129 L145.20001,473.648 L148.75,484.23538 L152.29999,496.22583 L155.85,508.58905 L159.4,520.187 L162.95001,529.88226 L166.5,536.67206 L170.05,539.8265 L173.6,538.9982 L177.15,534.279 L180.70001,526.1842 L184.25,515.57214 L187.79999,503.51788 L191.35,491.17462 L194.9,479.64673 L198.45001,469.89722 L202,462.6872 L205.55,458.5486 L209.09999,457.77512 L212.65001,460.42056 L216.2,466.29935 L219.75,474.98654 L223.29999,485.82166 L226.84999,497.92764 L230.40001,510.25436 L233.95,521.6568 L237.5,531.0074 L241.05,537.33325 L244.59999,539.9513 L248.15001,538.57294 L251.70001,533.35046 L255.25,524.85266 L258.8,513.97534 L262.34998,501.8131 L265.90002,489.51886 L269.45,478.18265 L273,468.74188 L276.55,461.92755 L280.1,458.2394 L283.65,457.93793 L287.2,461.04416 L290.75,467.33948 L294.3,476.3661 L297.84998,487.43237 L301.40002,499.6341 L304.95,511.90256 L308.5,523.08765 L312.05,532.0751 L315.59998,537.9238 L319.15,540 L322.7,538.07434 L326.25,532.3596 L329.8,523.4759 L333.35,512.3548 L336.90002,500.10666 L340.45,487.88232 L344,476.75568 L347.55002,467.63843 L351.1,461.2293 L354.65002,457.9967 L358.19998,458.16782 L361.75,461.73065 L365.30002,468.43375 L368.85,477.78665 L372.4,489.06662 L375.94998,501.34338 L379.5,513.53125 L383.05002,524.47754 L386.59998,533.0835 L390.15,538.4427 L393.69998,539.97235 L397.25,537.50336 L400.80002,531.30786 L404.34998,522.05554 L407.9,510.711 L411.44998,498.39816 L415,486.26382 L418.55,475.36273 L422.1,466.581 L425.65,460.58667 L429.19998,457.81378 L432.74997,458.45715 L436.30002,462.47205 L439.84998,469.57394 L443.40002,479.23984 L446.94998,490.71643 L450.5,503.0482 L454.05002,515.13416 L457.6,525.8216 L461.15,534.02936 L464.69998,538.8883 L468.25,539.86847 L471.80002,536.86145 L475.34998,530.19836 L478.90002,520.5963 L482.44998,509.0504 L486.00003,496.6952 L489.55002,484.67108 L493.1,474.01404 L496.65,465.58084 L500.2,460.0088 L503.75,457.69928 L507.3,458.81415 L510.85,463.27554 L514.4,470.76617 L517.94995,480.7304 L521.5,492.38504 L525.05005,504.75052 L528.6,516.71234 L532.15,527.11945 L535.69995,534.9117 L539.25,539.2601 L542.80005,539.6886 L546.35,536.1499 L549.9,529.03265 L553.44995,519.1 L557,507.37402 L560.55005,494.99826 L564.1,483.10416 L567.65,472.7072 L571.19995,464.63385 L574.75,459.49182 L578.3,457.6488 L581.85004,459.23364 L585.4,464.1356 L588.95,472.00446 L592.5,482.25223 L596.05,494.0664 L599.6,506.44452 L603.14996,518.2604 L606.7,528.3672 L610.25,535.7284 L613.80005,539.55707 L617.35,539.4331 L620.9,535.36993 L624.44995,527.81305 L628,517.56854 L631.55,505.68384 L635.10004,493.3083 L638.64996,481.56268 L642.2,471.43973 L645.75,463.73895 L649.30005,459.03363 L652.85004,457.65933 L656.39996,459.71198 L659.94995,465.04794 L663.5,473.28418 L667.05,483.80063 L670.60004,495.75595 L674.14996,508.1258 L677.7,519.7744 L681.25,529.56177 L684.8,536.4773 L688.35004,539.7786 L691.89996,539.10254 L695.45,534.5238 L699,526.54297 L702.55005,516.00726 L706.10004,503.98654 L709.64996,491.63306 L713.19995,480.05554 L716.75,470.22348 L720.3,462.90488 L723.85004,458.64276 L727.39996,457.73907 L730.95,460.25677 L734.5,466.01935 L738.05005,474.61084 L741.60004,485.37958 L745.14996,497.456 L748.69995,509.7953 L752.25,521.25415 L755.8,530.7022 L759.35004,537.15765 L762.89996,539.92444 L766.45,538.69763 L770,533.6129" fill="none" stroke="#008000" stroke-width="1"/>
</g>
<rect fill="white" height="56" stroke="#000000" stroke-width="1" width="48.800003" x="70" y="70"/>
<rect fill="#0000ff" height="14.400001" width="15" x="80" y="81.8"/>
<text dominant-baseline="middle" fill="#000000" font-family="Times New Roman" font-size="12" text-anchor="start" x="100" y="89">
x   
</text>
<rect fill="#008000" height="14.400001" width="15" x="80" y="99.8"/>
<text dominant-baseline="middle" fill="#000000" font-family="Times New Roman" font-size="12" text-anchor="start" x="100" y="107">
y   
</text>
</svg>