<svg height="600" viewBox="0 0 800 600" width="800" xmlns="http://www.w3.org/2000/svg">
<rect fill="white" height="600" width="800" x="0" y="0"/>
<text dominant-baseline="middle" fill="#000000" font-family="Times New Roman" font-size="20" text-anchor="middle" x="415" y="30">
Heat Equation by Method of Lines
</text>
<text dominant-baseline="middle" fill="#000000" font-family="Times New Roman" font-size="14" text-anchor="middle" x="415" y="576">
Position x
</text>
<text dominant-baseline="middle" fill="#000000" font-family="Times New Roman" font-size="14" text-anchor="middle" transform="rotate(-90, 18, 300)" x="18" y="300">
Temperature u
</text>
<rect fill="none" height="480" stroke="#000000" stroke-width="1.5" width="710" x="60" y="60"/>
<line stroke="#000000" stroke-width="1" x1="60" x2="60" y1="540" y2="535"/>
<text dominant-baseline="hanging" fill="#000000" font-family="Times New Roman" font-size="10" text-anchor="middle" x="60" y="549">
0.0
</text>
<line stroke="#000000" stroke-width="1" x1="60" x2="60" y1="60" y2="65"/>
<line stroke="#c0c0c0" stroke-width="0.5" x1="131" x2="131" y1="60" y2="540"/>
<line stroke="#000000" stroke-width="1" x1="131" x2="131" y1="540" y2="535"/>
<text dominant-baseline="hanging" fill="#000000" font-family="Times New Roman" font-size="10" text-anchor="middle" x="131" y="549">
0.1
</text>
<line stroke="#000000" stroke-width="1" x1="131" x2="131" y1="60" y2="65"/>
<line stroke="#c0c0c0" stroke-width="0.5" x1="201.99998" x2="201.99998" y1="60" y2="540"/>
<line stroke="#000000" stroke-width="1" x1="201.99998" x2="201.99998" y1="540" y2="535"/>
<text dominant-baseline="hanging" fill="#000000" font-family="Times New Roman" font-size="10" text-anchor="middle" x="201.99998" y="549">
0.2
</text>
<line stroke="#000000" stroke-width="1" x1="201.99998" x2="201.99998" y1="60" y2="65"/>
<line stroke="#c0c0c0" stroke-width="0.5" x1="273" x2="273" y1="60" y2="540"/>
<line stroke="#000000" stroke-width="1" x1="273" x2="273" y1="540" y2="535"/>
<text dominant-baseline="hanging" fill="#000000" font-family="Times New Roman" font-size="10" text-anchor="middle" x="273" y="549">
0.3
</text>
<line stroke="#000000" stroke-width="1" x1="273" x2="273" y1="60" y2="65"/>
<line stroke="#c0c0c0" stroke-width="0.5" x1="343.99997" x2="343.99997" y1="60" y2="540"/>
<line stroke="#000000" stroke-width="1" x1="343.99997" x2="343.99997" y1="540" y2="535"/>
<text dominant-baseline="hanging" fill="#000000" font-family="Times New Roman" font-size="10" text-anchor="middle" x="343.99997" y="549">
0.4
</text>
<line stroke="#000000" stroke-width="1" x1="343.99997" x2="343.99997" y1="60" y2="65"/>
<line stroke="#c0c0c0" stroke-width="0.5" x1="414.99997" x2="414.99997" y1="60" y2="540"/>
<line stroke="#000000" stroke-width="1" x1="414.99997" x2="414.99997" y1="540" y2="535"/>
<text dominant-baseline="hanging" fill="#000000" font-family="Times New Roman" font-size="10" text-anchor="middle" x="414.99997" y="549">
0.5
</text>
<line stroke="#000000" stroke-width="1" x1="414.99997" x2="414.99997" y1="60" y2="65"/>
<line stroke="#c0c0c0" stroke-width="0.5" x1="485.99997" x2="485.99997" y1="60" y2="540"/>
<line stroke="#000000" stroke-width="1" x1="485.99997" x2="485.99997" y1="540" y2="535"/>
<text dominant-baseline="hanging" fill="#000000" font-family="Times New Roman" font-size="10" text-anchor="middle" x="485.99997" y="549">
0.6
</text>
<line stroke="#000000" stroke-width="1" x1="485.99997" x2="485.99997" y1="60" y2="65"/>
<line stroke="#c0c0c0" stroke-width="0.5" x1="556.99994" x2="556.99994" y1="60" y2="540"/>
<line stroke="#000000" stroke-width="1" x1="556.99994" x2="556.99994" y1="540" y2="535"/>
<text dominant-baseline="hanging" fill="#000000" font-family="Times New Roman" font-size="10" text-anchor="middle" x="556.99994" y="549">
0.7
</text>
<line stroke="#000000" stroke-width="1" x1="556.99994" x2="556.99994" y1="60" y2="65"/>
<line stroke="#c0c0c0" stroke-width="0.5" x1="627.99994" x2="627.99994" y1="60" y2="540"/>
<line stroke="#000000" stroke-width="1" x1="627.99994" x2="627.99994" y1="540" y2="535"/>
<text dominant-baseline="hanging" fill="#000000" font-family="Times New Roman" font-size="10" text-anchor="middle" x="627.99994" y="549">
0.8
</text>
<line stroke="#000000" stroke-width="1" x1="627.99994" x2="627.99994" y1="60" y2="65"/>
<line stroke="#c0c0c0" stroke-width="0.5" x1="699" x2="699" y1="60" y2="540"/>
<line stroke="#000000" stroke-width="1" x1="699" x2="699" y1="540" y2="535"/>
<text dominant-baseline="hanging" fill="#000000" font-family="Times New Roman" font-size="10" text-anchor="middle" x="699" y="549">
0.9
</text>
<line stroke="#000000" stroke-width="1" x1="699" x2="699" y1="60" y2="65"/>
<line stroke="#000000" stroke-width="1" x1="770" x2="770" y1="540" y2="535"/>
<text dominant-baseline="hanging" fill="#000000" font-family="Times New Roman" font-size="10" text-anchor="middle" x="770" y="549">
1.0
</text>
<line stroke="#000000" stroke-width="1" x1="770" x2="770" y1="60" y2="65"/>
<text dominant-baseline="text-after-edge" fill="#000000" font-family="Times New Roman" font-size="10" text-anchor="start" x="63" y="57">
·10
<tspan dx="-0.2em" dy="-0.4em">
-3
</tspan>
</text>
<line stroke="#000000" stroke-width="1" x1="60" x2="65" y1="540" y2="540"/>
<line stroke="#000000" stroke-width="1" x1="770" x2="765" y1="540" y2="540"/>
<text dominant-baseline="middle" fill="#000000" font-family="Times New Roman" font-size="10" text-anchor="end" x="52" y="540">
0.0
</text>
<line stroke="#c0c0c0" stroke-width="0.5" x1="60" x2="770" y1="489.5727" y2="489.5727"/>
<line stroke="#000000" stroke-width="1" x1="60" x2="65" y1="489.5727" y2="489.5727"/>
<line stroke="#000000" stroke-width="1" x1="770" x2="765" y1="489.5727" y2="489.5727"/>
<text dominant-baseline="middle" fill="#000000" font-family="Times New Roman" font-size="10" text-anchor="end" x="52" y="489.5727">
100.0
</text>
<line stroke="#c0c0c0" stroke-width="0.5" x1="60" x2="770" y1="439.1454" y2="439.1454"/>
<line stroke="#000000" stroke-width="1" x1="60" x2="65" y1="439.1454" y2="439.1454"/>
<line stroke="#000000" stroke-width="1" x1="770" x2="765" y1="439.1454" y2="439.1454"/>
<text dominant-baseline="middle" fill="#000000" font-family="Times New Roman" font-size="10" text-anchor="end" x="52" y="439.1454">
200.0
</text>
<line stroke="#c0c0c0" stroke-width="0.5" x1="60" x2="770" y1="388.71808" y2="388.71808"/>
<line stroke="#000000" stroke-width="1" x1="60" x2="65" y1="388.71808" y2="388.71808"/>
<line stroke="#000000" stroke-width="1" x1="770" x2="765" y1="388.71808" y2="388.71808"/>
<text dominant-baseline="middle" fill="#000000" font-family="Times New Roman" font-size="10" text-anchor="end" x="52" y="388.71808">
300.0
</text>
<line stroke="#c0c0c0" stroke-width="0.5" x1="60" x2="770" y1="338.29077" y2="338.29077"/>
<line stroke="#000000" stroke-width="1" x1="60" x2="65" y1="338.29077" y2="338.29077"/>
<line stroke="#000000" stroke-width="1" x1="770" x2="765" y1="338.29077" y2="338.29077"/>
<text dominant-baseline="middle" fill="#000000" font-family="Times New Roman" font-size="10" text-anchor="end" x="52" y="338.29077">
400.0
</text>
<line stroke="#c0c0c0" stroke-width="0.5" x1="60" x2="770" y1="287.86346" y2="287.86346"/>
<line stroke="#000000" stroke-width="1" x1="60" x2="65" y1="287.86346" y2="287.86346"/>
<line stroke="#000000" stroke-width="1" x1="770" x2="765" y1="287.86346" y2="287.86346"/>
<text dominant-baseline="middle" fill="#000000" font-family="Times New Roman" font-size="10" text-anchor="end" x="52" y="287.86346">
500.0
</text>
<line stroke="#c0c0c0" stroke-width="0.5" x1="60" x2="770" y1="237.43616" y2="237.43616"/>
<line stroke="#000000" stroke-width="1" x1="60" x2="65" y1="237.43616" y2="237.43616"/>
<line stroke="#000000" stroke-width="1" x1="770" x2="765" y1="237.43616" y2="237.43616"/>
<text dominant-baseline="middle" fill="#000000" font-family="Times New Roman" font-size="10" text-anchor="end" x="52" y="237.43616">
600.0
</text>
<line stroke="#c0c0c0" stroke-width="0.5" x1="60" x2="770" y1="187.00885" y2="187.00885"/>
<line stroke="#000000" stroke-width="1" x1="60" x2="65" y1="187.00885" y2="187.00885"/>
<line stroke="#000000" stroke-width="1" x1="770" x2="765" y1="187.00885" y2="187.00885"/>
<text dominant-baseline="middle" fill="#000000" font-family="Times New Roman" font-size="10" text-anchor="end" x="52" y="187.00885">
700.0
</text>
<line stroke="#c0c0c0" stroke-width="0.5" x1="60" x2="770" y1="136.58151" y2="136.58151"/>
<line stroke="#000000" stroke-width="1" x1="60" x2="65" y1="136.58151" y2="136.58151"/>
<line stroke="#000000" stroke-width="1" x1="770" x2="765" y1="136.58151" y2="136.58151"/>
<text dominant-baseline="middle" fill="#000000" font-family="Times New Roman" font-size="10" text-anchor="end" x="52" y="136.58151">
800.0
</text>
<line stroke="#c0c0c0" stroke-width="0.5" x1="60" x2="770" y1="86.154205" y2="86.154205"/>
<line stroke="#000000" stroke-width="1" x1="60" x2="65" y1="86.154205" y2="86.154205"/>
<line stroke="#000000" stroke-width="1" x1="770" x2="765" y1="86.154205" y2="86.154205"/>
<text dominant-baseline="middle" fill="#000000" font-family="Times New Roman" font-size="10" text-anchor="end" x="52" y="86.154205">
900.0
</text>
<defs>
<clipPath id="plotAreaClip">
<rect height="480" width="710" x="60" y="60"/>
</clipPath>
</defs>
<g clip-path="url(#plotAreaClip)">
<path d="M60,540 L74.2,509.86053 L88.4,479.84006 L102.6,450.05698 L116.8,420.62885 L131,391.67184 L145.2,363.30023 L159.4,335.62592 L173.6,308.75824 L187.8,282.80313 L202,257.8631 L216.2,234.0365 L230.4,211.41739 L244.59999,190.09506 L258.8,170.15366 L273,151.67188 L287.2,134.7226 L301.40002,119.3728 L315.6,105.683044 L329.8,93.707275 L344,83.49286 L358.19998,75.08008 L372.4,68.502106 L386.6,63.784943 L400.8,60.947174 L415,60 L429.19998,60.947174 L443.40002,63.784943 L457.6,68.502106 L471.8,75.08008 L486.00003,83.49286 L500.2,93.707275 L514.4,105.683044 L528.6,119.3728 L542.80005,134.7226 L557,151.67188 L571.2,170.15366 L585.4,190.09506 L599.6,211.41739 L613.8,234.0365 L628,257.8631 L642.2,282.80313 L656.39996,308.75824 L670.60004,335.62592 L684.8,363.30023 L699,391.67184 L713.2,420.62885 L727.4,450.05698 L741.6,479.84006 L755.8,509.86053 L770,540" fill="none" stroke="#0000ff" stroke-width="1"/>
<circle cx="60" cy="540" fill="#0000ff" r="1.5"/>
<circle cx="74.2" cy="509.86053" fill="#0000ff" r="1.5"/>
<circle cx="88.4" cy="479.84006" fill="#0000ff" r="1.5"/>
<circle cx="102.6" cy="450.05698" fill="#0000ff" r="1.5"/>
<circle cx="116.8" cy="420.62885" fill="#0000ff" r="1.5"/>
<circle cx="131" cy="391.67184" fill="#0000ff" r="1.5"/>
<circle cx="145.2" cy="363.30023" fill="#0000ff" r="1.5"/>
<circle cx="159.4" cy="335.62592" fill="#0000ff" r="1.5"/>
<circle cx="173.6" cy="308.75824" fill="#0000ff" r="1.5"/>
<circle cx="187.8" cy="282.80313" fill="#0000ff" r="1.5"/>
<circle cx="202" cy="257.8631" fill="#0000ff" r="1.5"/>
<circle cx="216.2" cy="234.0365" fill="#0000ff" r="1.5"/>
<circle cx="230.4" cy="211.41739" fill="#0000ff" r="1.5"/>
<circle cx="244.59999" cy="190.09506" fill="#0000ff" r="1.5"/>
<circle cx="258.8" cy="170.15366" fill="#0000ff" r="1.5"/>
<circle cx="273" cy="151.67188" fill="#0000ff" r="1.5"/>
<circle cx="287.2" cy="134.7226" fill="#0000ff" r="1.5"/>
<circle cx="301.40002" cy="119.3728" fill="#0000ff" r="1.5"/>
<circle cx="315.6" cy="105.683044" fill="#0000ff" r="1.5"/>
<circle cx="329.8" cy="93.707275" fill="#0000ff" r="1.5"/>
<circle cx="344" cy="83.49286" fill="#0000ff" r="1.5"/>
<circle cx="358.19998" cy="75.08008" fill="#0000ff" r="1.5"/>
<circle cx="372.4" cy="68.502106" fill="#0000ff" r="1.5"/>
<circle cx="386.6" cy="63.784943" fill="#0000ff" r="1.5"/>
<circle cx="400.8" cy="60.947174" fill="#0000ff" r="1.5"/>
<circle cx="415" cy="60" fill="#0000ff" r="1.5"/>
<circle cx="429.19998" cy="60.947174" fill="#0000ff" r="1.5"/>
<circle cx="443.40002" cy="63.784943" fill="#0000ff" r="1.5"/>
<circle cx="457.6" cy="68.502106" fill="#0000ff" r="1.5"/>
<circle cx="471.8" cy="75.08008" fill="#0000ff" r="1.5"/>
<circle cx="486.00003" cy="83.49286" fill="#0000ff" r="1.5"/>
<circle cx="500.2" cy="93.707275" fill="#0000ff" r="1.5"/>
<circle cx="514.4" cy="105.683044" fill="#0000ff" r="1.5"/>
<circle cx="528.6" cy="119.3728" fill="#0000ff" r="1.5"/>
<circle cx="542.80005" cy="134.7226" fill="#0000ff" r="1.5"/>
<circle cx="557" cy="151.67188" fill="#0000ff" r="1.5"/>
<circle cx="571.2" cy="170.15366" fill="#0000ff" r="1.5"/>
<circle cx="585.4" cy="190.09506" fill="#0000ff" r="1.5"/>
<circle cx="599.6" cy="211.41739" fill="#0000ff" r="1.5"/>
<circle cx="613.8" cy="234.0365" fill="#0000ff" r="1.5"/>
<circle cx="628" cy="257.8631" fill="#0000ff" r="1.5"/>
<circle cx="642.2" cy="282.80313" fill="#0000ff" r="1.5"/>
<circle cx="656.39996" cy="308.75824" fill="#0000ff" r="1.5"/>
<circle cx="670.60004" cy="335.62592" fill="#0000ff" r="1.5"/>
<circle cx="684.8" cy="363.30023" fill="#0000ff" r="1.5"/>
<circle cx="699" cy="391.67184" fill="#0000ff" r="1.5"/>
<circle cx="713.2" cy="420.62885" fill="#0000ff" r="1.5"/>
<circle cx="727.4" cy="450.05698" fill="#0000ff" r="1.5"/>
<circle cx="741.6" cy="479.84006" fill="#0000ff" r="1.5"/>
<circle cx="755.8" cy="509.86053" fill="#0000ff" r="1.5"/>
<circle cx="770" cy="540" fill="#0000ff" r="1.5"/>
<path d="M60,540 L74.2,509.86105 L88.4,479.84103 L102.6,450.0584 L116.8,420.6308 L131,391.67426 L145.2,363.3031 L159.4,335.62927 L173.6,308.762 L187.8,282.8073 L202,257.86768 L216.2,234.04147 L230.4,211.4227 L244.59999,190.10077 L258.8,170.15967 L273,151.67813 L287.2,134.72919 L301.40002,119.37961 L315.6,105.69006 L329.8,93.71454 L344,83.500305 L358.19998,75.08765 L372.4,68.509766 L386.6,63.792694 L400.8,60.954956 L415,60.007782 L429.19998,60.954956 L443.40002,63.792694 L457.6,68.509766 L471.8,75.08765 L486.00003,83.500305 L500.2,93.71454 L514.4,105.69006 L528.6,119.37961 L542.80005,134.72919 L557,151.67813 L571.2,170.15967 L585.4,190.10077 L599.6,211.4227 L613.8,234.04147 L628,257.86768 L642.2,282.8073 L656.39996,308.762 L670.60004,335.62927 L684.8,363.3031 L699,391.67426 L713.2,420.6308 L727.4,450.0584 L741.6,479.84103 L755.8,509.86105 L770,540" fill="none" stroke="#ff0000" stroke-dasharray="5 5" stroke-width="1"/>
</g>
<rect fill="white" height="56" stroke="#000000" stroke-width="1" width="156.8" x="603.2" y="70"/>
<rect fill="#0000ff" height="14.400001" width="15" x="613.2" y="81.8"/>
<text dominant-baseline="middle" fill="#000000" font-family="Times New Roman" font-size="12" text-anchor="start" x="633.2" y="89">
Numerical solution
</text>
<rect fill="#ff0000" height="14.400001" width="15" x="613.2" y="99.8"/>
<text dominant-baseline="middle" fill="#000000" font-family="Times New Roman" font-size="12" text-anchor="start" x="633.2" y="107">
Analytical solution
</text>
</svg>