<svg height="600" viewBox="0 0 800 600" width="800" xmlns="http://www.w3.org/2000/svg">
<rect fill="white" height="600" width="800" x="0" y="0"/>
<text dominant-baseline="middle" fill="#000000" font-family="Times New Roman" font-size="20" text-anchor="middle" x="415" y="30">
Breast Cancer Model with Delay
</text>
<text dominant-baseline="middle" fill="#000000" font-family="Times New Roman" font-size="14" text-anchor="middle" x="415" y="576">
Time (t)
</text>
<text dominant-baseline="middle" fill="#000000" font-family="Times New Roman" font-size="14" text-anchor="middle" transform="rotate(-90, 18, 300)" x="18" y="300">
Cell Population
</text>
<rect fill="none" height="480" stroke="#000000" stroke-width="1.5" width="710" x="60" y="60"/>
<line stroke="#000000" stroke-width="1" x1="60" x2="60" y1="540" y2="535"/>
<text dominant-baseline="hanging" fill="#000000" font-family="Times New Roman" font-size="10" text-anchor="middle" x="60" y="549">
0.0
</text>
<line stroke="#000000" stroke-width="1" x1="60" x2="60" y1="60" y2="65"/>
<line stroke="#d3d3d3" stroke-width="0.5" x1="131" x2="131" y1="60" y2="540"/>
<line stroke="#000000" stroke-width="1" x1="131" x2="131" y1="540" y2="535"/>
<text dominant-baseline="hanging" fill="#000000" font-family="Times New Roman" font-size="10" text-anchor="middle" x="131" y="549">
1.0
</text>
<line stroke="#000000" stroke-width="1" x1="131" x2="131" y1="60" y2="65"/>
<line stroke="#d3d3d3" stroke-width="0.5" x1="202" x2="202" y1="60" y2="540"/>
<line stroke="#000000" stroke-width="1" x1="202" x2="202" y1="540" y2="535"/>
<text dominant-baseline="hanging" fill="#000000" font-family="Times New Roman" font-size="10" text-anchor="middle" x="202" y="549">
2.0
</text>
<line stroke="#000000" stroke-width="1" x1="202" x2="202" y1="60" y2="65"/>
<line stroke="#d3d3d3" stroke-width="0.5" x1="273" x2="273" y1="60" y2="540"/>
<line stroke="#000000" stroke-width="1" x1="273" x2="273" y1="540" y2="535"/>
<text dominant-baseline="hanging" fill="#000000" font-family="Times New Roman" font-size="10" text-anchor="middle" x="273" y="549">
3.0
</text>
<line stroke="#000000" stroke-width="1" x1="273" x2="273" y1="60" y2="65"/>
<line stroke="#d3d3d3" stroke-width="0.5" x1="344" x2="344" y1="60" y2="540"/>
<line stroke="#000000" stroke-width="1" x1="344" x2="344" y1="540" y2="535"/>
<text dominant-baseline="hanging" fill="#000000" font-family="Times New Roman" font-size="10" text-anchor="middle" x="344" y="549">
4.0
</text>
<line stroke="#000000" stroke-width="1" x1="344" x2="344" y1="60" y2="65"/>
<line stroke="#d3d3d3" stroke-width="0.5" x1="415" x2="415" y1="60" y2="540"/>
<line stroke="#000000" stroke-width="1" x1="415" x2="415" y1="540" y2="535"/>
<text dominant-baseline="hanging" fill="#000000" font-family="Times New Roman" font-size="10" text-anchor="middle" x="415" y="549">
5.0
</text>
<line stroke="#000000" stroke-width="1" x1="415" x2="415" y1="60" y2="65"/>
<line stroke="#d3d3d3" stroke-width="0.5" x1="486.00003" x2="486.00003" y1="60" y2="540"/>
<line stroke="#000000" stroke-width="1" x1="486.00003" x2="486.00003" y1="540" y2="535"/>
<text dominant-baseline="hanging" fill="#000000" font-family="Times New Roman" font-size="10" text-anchor="middle" x="486.00003" y="549">
6.0
</text>
<line stroke="#000000" stroke-width="1" x1="486.00003" x2="486.00003" y1="60" y2="65"/>
<line stroke="#d3d3d3" stroke-width="0.5" x1="557" x2="557" y1="60" y2="540"/>
<line stroke="#000000" stroke-width="1" x1="557" x2="557" y1="540" y2="535"/>
<text dominant-baseline="hanging" fill="#000000" font-family="Times New Roman" font-size="10" text-anchor="middle" x="557" y="549">
7.0
</text>
<line stroke="#000000" stroke-width="1" x1="557" x2="557" y1="60" y2="65"/>
<line stroke="#d3d3d3" stroke-width="0.5" x1="628" x2="628" y1="60" y2="540"/>
<line stroke="#000000" stroke-width="1" x1="628" x2="628" y1="540" y2="535"/>
<text dominant-baseline="hanging" fill="#000000" font-family="Times New Roman" font-size="10" text-anchor="middle" x="628" y="549">
8.0
</text>
<line stroke="#000000" stroke-width="1" x1="628" x2="628" y1="60" y2="65"/>
<line stroke="#d3d3d3" stroke-width="0.5" x1="699" x2="699" y1="60" y2="540"/>
<line stroke="#000000" stroke-width="1" x1="699" x2="699" y1="540" y2="535"/>
<text dominant-baseline="hanging" fill="#000000" font-family="Times New Roman" font-size="10" text-anchor="middle" x="699" y="549">
9.0
</text>
<line stroke="#000000" stroke-width="1" x1="699" x2="699" y1="60" y2="65"/>
<line stroke="#000000" stroke-width="1" x1="770" x2="770" y1="540" y2="535"/>
<text dominant-baseline="hanging" fill="#000000" font-family="Times New Roman" font-size="10" text-anchor="middle" x="770" y="549">
10.0
</text>
<line stroke="#000000" stroke-width="1" x1="770" x2="770" y1="60" y2="65"/>
<line stroke="#000000" stroke-width="1" x1="60" x2="65" y1="540" y2="540"/>
<line stroke="#000000" stroke-width="1" x1="770" x2="765" y1="540" y2="540"/>
<text dominant-baseline="middle" fill="#000000" font-family="Times New Roman" font-size="10" text-anchor="end" x="52" y="540">
0.0
</text>
<line stroke="#d3d3d3" stroke-width="0.5" x1="60" x2="770" y1="492" y2="492"/>
<line stroke="#000000" stroke-width="1" x1="60" x2="65" y1="492" y2="492"/>
<line stroke="#000000" stroke-width="1" x1="770" x2="765" y1="492" y2="492"/>
<text dominant-baseline="middle" fill="#000000" font-family="Times New Roman" font-size="10" text-anchor="end" x="52" y="492">
0.1
</text>
<line stroke="#d3d3d3" stroke-width="0.5" x1="60" x2="770" y1="444" y2="444"/>
<line stroke="#000000" stroke-width="1" x1="60" x2="65" y1="444" y2="444"/>
<line stroke="#000000" stroke-width="1" x1="770" x2="765" y1="444" y2="444"/>
<text dominant-baseline="middle" fill="#000000" font-family="Times New Roman" font-size="10" text-anchor="end" x="52" y="444">
0.2
</text>
<line stroke="#d3d3d3" stroke-width="0.5" x1="60" x2="770" y1="396" y2="396"/>
<line stroke="#000000" stroke-width="1" x1="60" x2="65" y1="396" y2="396"/>
<line stroke="#000000" stroke-width="1" x1="770" x2="765" y1="396" y2="396"/>
<text dominant-baseline="middle" fill="#000000" font-family="Times New Roman" font-size="10" text-anchor="end" x="52" y="396">
0.3
</text>
<line stroke="#d3d3d3" stroke-width="0.5" x1="60" x2="770" y1="348" y2="348"/>
<line stroke="#000000" stroke-width="1" x1="60" x2="65" y1="348" y2="348"/>
<line stroke="#000000" stroke-width="1" x1="770" x2="765" y1="348" y2="348"/>
<text dominant-baseline="middle" fill="#000000" font-family="Times New Roman" font-size="10" text-anchor="end" x="52" y="348">
0.4
</text>
<line stroke="#d3d3d3" stroke-width="0.5" x1="60" x2="770" y1="300" y2="300"/>
<line stroke="#000000" stroke-width="1" x1="60" x2="65" y1="300" y2="300"/>
<line stroke="#000000" stroke-width="1" x1="770" x2="765" y1="300" y2="300"/>
<text dominant-baseline="middle" fill="#000000" font-family="Times New Roman" font-size="10" text-anchor="end" x="52" y="300">
0.5
</text>
<line stroke="#d3d3d3" stroke-width="0.5" x1="60" x2="770" y1="252" y2="252"/>
<line stroke="#000000" stroke-width="1" x1="60" x2="65" y1="252" y2="252"/>
<line stroke="#000000" stroke-width="1" x1="770" x2="765" y1="252" y2="252"/>
<text dominant-baseline="middle" fill="#000000" font-family="Times New Roman" font-size="10" text-anchor="end" x="52" y="252">
0.6
</text>
<line stroke="#d3d3d3" stroke-width="0.5" x1="60" x2="770" y1="203.99997" y2="203.99997"/>
<line stroke="#000000" stroke-width="1" x1="60" x2="65" y1="203.99997" y2="203.99997"/>
<line stroke="#000000" stroke-width="1" x1="770" x2="765" y1="203.99997" y2="203.99997"/>
<text dominant-baseline="middle" fill="#000000" font-family="Times New Roman" font-size="10" text-anchor="end" x="52" y="203.99997">
0.7
</text>
<line stroke="#d3d3d3" stroke-width="0.5" x1="60" x2="770" y1="155.99997" y2="155.99997"/>
<line stroke="#000000" stroke-width="1" x1="60" x2="65" y1="155.99997" y2="155.99997"/>
<line stroke="#000000" stroke-width="1" x1="770" x2="765" y1="155.99997" y2="155.99997"/>
<text dominant-baseline="middle" fill="#000000" font-family="Times New Roman" font-size="10" text-anchor="end" x="52" y="155.99997">
0.8
</text>
<line stroke="#d3d3d3" stroke-width="0.5" x1="60" x2="770" y1="107.99994" y2="107.99994"/>
<line stroke="#000000" stroke-width="1" x1="60" x2="65" y1="107.99994" y2="107.99994"/>
<line stroke="#000000" stroke-width="1" x1="770" x2="765" y1="107.99994" y2="107.99994"/>
<text dominant-baseline="middle" fill="#000000" font-family="Times New Roman" font-size="10" text-anchor="end" x="52" y="107.99994">
0.9
</text>
<line stroke="#000000" stroke-width="1" x1="60" x2="65" y1="59.99994" y2="59.99994"/>
<line stroke="#000000" stroke-width="1" x1="770" x2="765" y1="59.99994" y2="59.99994"/>
<text dominant-baseline="middle" fill="#000000" font-family="Times New Roman" font-size="10" text-anchor="end" x="52" y="59.99994">
1.0
</text>
<defs>
<clipPath id="plotAreaClip">
<rect height="480" width="710" x="60" y="60"/>
</clipPath>
</defs>
<g clip-path="url(#plotAreaClip)">
<path d="M60,60 L67.1,250.31732 L74.2,365.1749 L81.3,434.49207 L88.4,476.32538 L95.5,501.57202 L102.600006,516.8085 L109.7,526.0038 L116.8,531.5532 L123.899994,534.90234 L131,536.9235 L138.1,538.14355 L145.20001,538.88 L152.29999,539.32446 L159.4,539.59265 L166.5,539.7544 L173.6,539.852 L180.70001,539.9108 L187.79999,539.9462 L194.9,539.96765 L202,539.9805 L209.09999,539.9883 L216.2,539.9929 L223.29999,539.9957 L230.40001,539.99744 L237.5,539.9985 L244.59999,539.9991 L251.70001,539.99945 L258.8,539.9997 L265.90002,539.9998 L273,539.9999 L280.1,539.99994 L287.2,539.99994 L294.3,540 L301.40002,540 L308.5,540 L315.59998,540 L322.7,540 L329.8,540 L336.90002,540 L344,540 L351.1,540 L358.19998,540 L365.30002,540 L372.4,540 L379.5,540 L386.59998,540 L393.69998,540 L400.80002,540 L407.9,540 L415,540 L422.1,540 L429.19998,540 L436.30002,540 L443.40002,540 L450.5,540 L457.6,540 L464.69998,540 L471.80002,540 L478.90002,540 L486.00003,540 L493.1,540 L500.2,540 L507.3,540 L514.4,540 L521.5,540 L528.6,540 L535.69995,540 L542.80005,540 L549.9,540 L557,540 L564.1,540 L571.19995,540 L578.3,540 L585.4,540 L592.5,540 L599.6,540 L606.7,540 L613.80005,540 L620.9,540 L628,540 L635.10004,540 L642.2,540 L649.30005,540 L656.39996,540 L663.5,540 L670.60004,540 L677.7,540 L684.8,540 L691.89996,540 L699,540 L706.10004,540 L713.19995,540 L720.3,540 L727.39996,540 L734.5,540 L741.60004,540 L748.69995,540 L755.8,540 L762.89996,540 L770,540 L770,540" fill="none" stroke="#0000ff" stroke-width="1"/>
<path d="M60,60 L67.1,88.25418 L74.2,121.45947 L81.3,156.04263 L88.4,190.00769 L95.5,222.29462 L102.600006,252.39374 L109.7,280.1145 L116.8,305.4475 L123.899994,328.48187 L131,349.35718 L138.1,368.25046 L145.20001,385.34174 L152.29999,400.78683 L159.4,414.73358 L166.5,427.3197 L173.6,438.67233 L180.70001,448.90778 L187.79999,458.1323 L194.9,466.44254 L202,473.92633 L209.09999,480.6633 L216.2,486.72562 L223.29999,492.1787 L230.40001,497.08206 L237.5,501.4896 L244.59999,505.4502 L251.70001,509.00818 L258.8,512.2036 L265.90002,515.0727 L273,517.6482 L280.1,519.9597 L287.2,522.0338 L294.3,523.89465 L301.40002,525.56384 L308.5,527.0609 L315.59998,528.4035 L322.7,529.6073 L329.8,530.68665 L336.90002,531.65424 L344,532.52155 L351.1,533.299 L358.19998,533.9958 L365.30002,534.6203 L372.4,535.17993 L379.5,535.68146 L386.59998,536.13086 L393.69998,536.53357 L400.80002,536.8944 L407.9,537.2177 L415,537.5073 L422.1,537.7669 L429.19998,537.9994 L436.30002,538.2077 L443.40002,538.39435 L450.5,538.5616 L457.6,538.71136 L464.69998,538.8456 L471.80002,538.9658 L478.90002,539.07355 L486.00003,539.17004 L493.1,539.2565 L500.2,539.3339 L507.3,539.4033 L514.4,539.4654 L521.5,539.5211 L528.6,539.571 L535.69995,539.61566 L542.80005,539.6557 L549.9,539.6916 L557,539.7237 L564.1,539.75244 L571.19995,539.77826 L578.3,539.80133 L585.4,539.822 L592.5,539.8406 L599.6,539.8572 L606.7,539.8721 L613.80005,539.8854 L620.9,539.89734 L628,539.908 L635.10004,539.9176 L642.2,539.9262 L649.30005,539.9339 L656.39996,539.9408 L663.5,539.94696 L670.60004,539.95245 L677.7,539.9574 L684.8,539.96185 L691.89996,539.9658 L699,539.96936 L706.10004,539.9726 L713.19995,539.9754 L720.3,539.97797 L727.39996,539.9803 L734.5,539.98236 L741.60004,539.9842 L748.69995,539.98584 L755.8,539.9873 L762.89996,539.98865 L770,539.9898 L770,539.9898" fill="none" stroke="#ff0000" stroke-width="1"/>
<path d="M60,60 L67.1,81.274414 L74.2,102.15509 L81.3,122.83478 L88.4,143.34647 L95.5,163.64243 L102.600006,183.64001 L109.7,203.24704 L116.8,222.37534 L123.899994,240.94757 L131,258.89767 L138.1,275.97086 L145.20001,291.9867 L152.29999,307.02548 L159.4,321.1552 L166.5,334.43872 L173.6,346.93475 L180.70001,358.69855 L187.79999,369.78156 L194.9,380.23132 L202,390.0915 L209.09999,399.40234 L216.2,408.2013 L223.29999,416.5214 L230.40001,424.39084 L237.5,431.83377 L244.59999,438.8715 L251.70001,445.52298 L258.8,451.80548 L265.90002,457.73492 L273,463.3263 L280.1,468.59393 L287.2,473.55154 L294.3,478.2126 L301.40002,482.5901 L308.5,486.697 L315.59998,490.54584 L322.7,494.1491 L329.8,497.51892 L336.90002,500.6672 L344,503.60562 L351.1,506.3455 L358.19998,508.89783 L365.30002,511.27335 L372.4,513.4823 L379.5,515.53467 L386.59998,517.44 L393.69998,519.2074 L400.80002,520.84564 L407.9,522.36304 L415,523.7676 L422.1,525.0667 L429.19998,526.26764 L436.30002,527.3771 L443.40002,528.4014 L450.5,529.34656 L457.6,530.21826 L464.69998,531.0218 L471.80002,531.762 L478.90002,532.4437 L486.00003,533.07117 L493.1,533.6484 L500.2,534.1791 L507.3,534.6673 L514.4,535.116 L521.5,535.5279 L528.6,535.90607 L535.69995,536.2532 L542.80005,536.57166 L549.9,536.8639 L557,537.13184 L564.1,537.3774 L571.19995,537.6025 L578.3,537.8087 L585.4,537.99756 L592.5,538.1704 L599.6,538.32874 L606.7,538.47363 L613.80005,538.6062 L620.9,538.7275 L628,538.83844 L635.10004,538.9399 L642.2,539.0326 L649.30005,539.1173 L656.39996,539.19476 L663.5,539.26556 L670.60004,539.3302 L677.7,539.3892 L684.8,539.4431 L691.89996,539.4923 L699,539.53723 L706.10004,539.57825 L713.19995,539.61566 L720.3,539.64984 L727.39996,539.68097 L734.5,539.70935 L741.60004,539.7353 L748.69995,539.7589 L755.8,539.78046 L762.89996,539.8001 L770,539.818 L770,539.818" fill="none" stroke="#00ff00" stroke-width="1"/>
</g>
<rect fill="white" height="74" stroke="#000000" stroke-width="1" width="192.8" x="567.2" y="70"/>
<rect fill="#0000ff" height="14.400001" width="15" x="577.2" y="81.8"/>
<text dominant-baseline="middle" fill="#000000" font-family="Times New Roman" font-size="12" text-anchor="start" x="597.2" y="89">
Proliferating Cells (u1)
</text>
<rect fill="#ff0000" height="14.400001" width="15" x="577.2" y="99.8"/>
<text dominant-baseline="middle" fill="#000000" font-family="Times New Roman" font-size="12" text-anchor="start" x="597.2" y="107">
Quiescent Cells (u2)
</text>
<rect fill="#00ff00" height="14.400001" width="15" x="577.2" y="117.8"/>
<text dominant-baseline="middle" fill="#000000" font-family="Times New Roman" font-size="12" text-anchor="start" x="597.2" y="125">
Resistant Cells (u3)
</text>
</svg>