<svg height="600" viewBox="0 0 800 600" width="800" xmlns="http://www.w3.org/2000/svg">
<rect fill="white" height="600" width="800" x="0" y="0"/>
<text dominant-baseline="middle" fill="#000000" font-family="Times New Roman" font-size="20" text-anchor="middle" x="415" y="30">
SIR Epidemiological Model
</text>
<text dominant-baseline="middle" fill="#000000" font-family="Times New Roman" font-size="14" text-anchor="middle" x="415" y="576">
Time (days)
</text>
<text dominant-baseline="middle" fill="#000000" font-family="Times New Roman" font-size="14" text-anchor="middle" transform="rotate(-90, 18, 300)" x="18" y="300">
Population
</text>
<rect fill="none" height="480" stroke="#000000" stroke-width="1.5" width="710" x="60" y="60"/>
<line stroke="#000000" stroke-width="1" x1="60" x2="60" y1="540" y2="535"/>
<text dominant-baseline="hanging" fill="#000000" font-family="Times New Roman" font-size="10" text-anchor="middle" x="60" y="549">
0.0
</text>
<line stroke="#000000" stroke-width="1" x1="60" x2="60" y1="60" y2="65"/>
<line stroke="#c0c0c0" stroke-width="0.5" x1="124.545456" x2="124.545456" y1="60" y2="540"/>
<line stroke="#000000" stroke-width="1" x1="124.545456" x2="124.545456" y1="540" y2="535"/>
<text dominant-baseline="hanging" fill="#000000" font-family="Times New Roman" font-size="10" text-anchor="middle" x="124.545456" y="549">
5.0
</text>
<line stroke="#000000" stroke-width="1" x1="124.545456" x2="124.545456" y1="60" y2="65"/>
<line stroke="#c0c0c0" stroke-width="0.5" x1="189.09091" x2="189.09091" y1="60" y2="540"/>
<line stroke="#000000" stroke-width="1" x1="189.09091" x2="189.09091" y1="540" y2="535"/>
<text dominant-baseline="hanging" fill="#000000" font-family="Times New Roman" font-size="10" text-anchor="middle" x="189.09091" y="549">
10.0
</text>
<line stroke="#000000" stroke-width="1" x1="189.09091" x2="189.09091" y1="60" y2="65"/>
<line stroke="#c0c0c0" stroke-width="0.5" x1="253.63637" x2="253.63637" y1="60" y2="540"/>
<line stroke="#000000" stroke-width="1" x1="253.63637" x2="253.63637" y1="540" y2="535"/>
<text dominant-baseline="hanging" fill="#000000" font-family="Times New Roman" font-size="10" text-anchor="middle" x="253.63637" y="549">
15.0
</text>
<line stroke="#000000" stroke-width="1" x1="253.63637" x2="253.63637" y1="60" y2="65"/>
<line stroke="#c0c0c0" stroke-width="0.5" x1="318.18182" x2="318.18182" y1="60" y2="540"/>
<line stroke="#000000" stroke-width="1" x1="318.18182" x2="318.18182" y1="540" y2="535"/>
<text dominant-baseline="hanging" fill="#000000" font-family="Times New Roman" font-size="10" text-anchor="middle" x="318.18182" y="549">
20.0
</text>
<line stroke="#000000" stroke-width="1" x1="318.18182" x2="318.18182" y1="60" y2="65"/>
<line stroke="#c0c0c0" stroke-width="0.5" x1="382.7273" x2="382.7273" y1="60" y2="540"/>
<line stroke="#000000" stroke-width="1" x1="382.7273" x2="382.7273" y1="540" y2="535"/>
<text dominant-baseline="hanging" fill="#000000" font-family="Times New Roman" font-size="10" text-anchor="middle" x="382.7273" y="549">
25.0
</text>
<line stroke="#000000" stroke-width="1" x1="382.7273" x2="382.7273" y1="60" y2="65"/>
<line stroke="#c0c0c0" stroke-width="0.5" x1="447.27274" x2="447.27274" y1="60" y2="540"/>
<line stroke="#000000" stroke-width="1" x1="447.27274" x2="447.27274" y1="540" y2="535"/>
<text dominant-baseline="hanging" fill="#000000" font-family="Times New Roman" font-size="10" text-anchor="middle" x="447.27274" y="549">
30.0
</text>
<line stroke="#000000" stroke-width="1" x1="447.27274" x2="447.27274" y1="60" y2="65"/>
<line stroke="#c0c0c0" stroke-width="0.5" x1="511.81818" x2="511.81818" y1="60" y2="540"/>
<line stroke="#000000" stroke-width="1" x1="511.81818" x2="511.81818" y1="540" y2="535"/>
<text dominant-baseline="hanging" fill="#000000" font-family="Times New Roman" font-size="10" text-anchor="middle" x="511.81818" y="549">
35.0
</text>
<line stroke="#000000" stroke-width="1" x1="511.81818" x2="511.81818" y1="60" y2="65"/>
<line stroke="#c0c0c0" stroke-width="0.5" x1="576.36365" x2="576.36365" y1="60" y2="540"/>
<line stroke="#000000" stroke-width="1" x1="576.36365" x2="576.36365" y1="540" y2="535"/>
<text dominant-baseline="hanging" fill="#000000" font-family="Times New Roman" font-size="10" text-anchor="middle" x="576.36365" y="549">
40.0
</text>
<line stroke="#000000" stroke-width="1" x1="576.36365" x2="576.36365" y1="60" y2="65"/>
<line stroke="#c0c0c0" stroke-width="0.5" x1="640.90906" x2="640.90906" y1="60" y2="540"/>
<line stroke="#000000" stroke-width="1" x1="640.90906" x2="640.90906" y1="540" y2="535"/>
<text dominant-baseline="hanging" fill="#000000" font-family="Times New Roman" font-size="10" text-anchor="middle" x="640.90906" y="549">
45.0
</text>
<line stroke="#000000" stroke-width="1" x1="640.90906" x2="640.90906" y1="60" y2="65"/>
<line stroke="#c0c0c0" stroke-width="0.5" x1="705.4546" x2="705.4546" y1="60" y2="540"/>
<line stroke="#000000" stroke-width="1" x1="705.4546" x2="705.4546" y1="540" y2="535"/>
<text dominant-baseline="hanging" fill="#000000" font-family="Times New Roman" font-size="10" text-anchor="middle" x="705.4546" y="549">
50.0
</text>
<line stroke="#000000" stroke-width="1" x1="705.4546" x2="705.4546" y1="60" y2="65"/>
<line stroke="#000000" stroke-width="1" x1="770" x2="770" y1="540" y2="535"/>
<text dominant-baseline="hanging" fill="#000000" font-family="Times New Roman" font-size="10" text-anchor="middle" x="770" y="549">
55.0
</text>
<line stroke="#000000" stroke-width="1" x1="770" x2="770" y1="60" y2="65"/>
<text dominant-baseline="text-after-edge" fill="#000000" font-family="Times New Roman" font-size="10" text-anchor="start" x="63" y="57">
·10
<tspan dx="-0.2em" dy="-0.4em">
3
</tspan>
</text>
<line stroke="#000000" stroke-width="1" x1="60" x2="65" y1="540" y2="540"/>
<line stroke="#000000" stroke-width="1" x1="770" x2="765" y1="540" y2="540"/>
<text dominant-baseline="middle" fill="#000000" font-family="Times New Roman" font-size="10" text-anchor="end" x="52" y="540">
0.0
</text>
<line stroke="#c0c0c0" stroke-width="0.5" x1="60" x2="770" y1="491.96066" y2="491.96066"/>
<line stroke="#000000" stroke-width="1" x1="60" x2="65" y1="491.96066" y2="491.96066"/>
<line stroke="#000000" stroke-width="1" x1="770" x2="765" y1="491.96066" y2="491.96066"/>
<text dominant-baseline="middle" fill="#000000" font-family="Times New Roman" font-size="10" text-anchor="end" x="52" y="491.96066">
0.1
</text>
<line stroke="#c0c0c0" stroke-width="0.5" x1="60" x2="770" y1="443.92133" y2="443.92133"/>
<line stroke="#000000" stroke-width="1" x1="60" x2="65" y1="443.92133" y2="443.92133"/>
<line stroke="#000000" stroke-width="1" x1="770" x2="765" y1="443.92133" y2="443.92133"/>
<text dominant-baseline="middle" fill="#000000" font-family="Times New Roman" font-size="10" text-anchor="end" x="52" y="443.92133">
0.2
</text>
<line stroke="#c0c0c0" stroke-width="0.5" x1="60" x2="770" y1="395.882" y2="395.882"/>
<line stroke="#000000" stroke-width="1" x1="60" x2="65" y1="395.882" y2="395.882"/>
<line stroke="#000000" stroke-width="1" x1="770" x2="765" y1="395.882" y2="395.882"/>
<text dominant-baseline="middle" fill="#000000" font-family="Times New Roman" font-size="10" text-anchor="end" x="52" y="395.882">
0.3
</text>
<line stroke="#c0c0c0" stroke-width="0.5" x1="60" x2="770" y1="347.84265" y2="347.84265"/>
<line stroke="#000000" stroke-width="1" x1="60" x2="65" y1="347.84265" y2="347.84265"/>
<line stroke="#000000" stroke-width="1" x1="770" x2="765" y1="347.84265" y2="347.84265"/>
<text dominant-baseline="middle" fill="#000000" font-family="Times New Roman" font-size="10" text-anchor="end" x="52" y="347.84265">
0.4
</text>
<line stroke="#c0c0c0" stroke-width="0.5" x1="60" x2="770" y1="299.80334" y2="299.80334"/>
<line stroke="#000000" stroke-width="1" x1="60" x2="65" y1="299.80334" y2="299.80334"/>
<line stroke="#000000" stroke-width="1" x1="770" x2="765" y1="299.80334" y2="299.80334"/>
<text dominant-baseline="middle" fill="#000000" font-family="Times New Roman" font-size="10" text-anchor="end" x="52" y="299.80334">
0.5
</text>
<line stroke="#c0c0c0" stroke-width="0.5" x1="60" x2="770" y1="251.76398" y2="251.76398"/>
<line stroke="#000000" stroke-width="1" x1="60" x2="65" y1="251.76398" y2="251.76398"/>
<line stroke="#000000" stroke-width="1" x1="770" x2="765" y1="251.76398" y2="251.76398"/>
<text dominant-baseline="middle" fill="#000000" font-family="Times New Roman" font-size="10" text-anchor="end" x="52" y="251.76398">
0.6
</text>
<line stroke="#c0c0c0" stroke-width="0.5" x1="60" x2="770" y1="203.72467" y2="203.72467"/>
<line stroke="#000000" stroke-width="1" x1="60" x2="65" y1="203.72467" y2="203.72467"/>
<line stroke="#000000" stroke-width="1" x1="770" x2="765" y1="203.72467" y2="203.72467"/>
<text dominant-baseline="middle" fill="#000000" font-family="Times New Roman" font-size="10" text-anchor="end" x="52" y="203.72467">
0.7
</text>
<line stroke="#c0c0c0" stroke-width="0.5" x1="60" x2="770" y1="155.68533" y2="155.68533"/>
<line stroke="#000000" stroke-width="1" x1="60" x2="65" y1="155.68533" y2="155.68533"/>
<line stroke="#000000" stroke-width="1" x1="770" x2="765" y1="155.68533" y2="155.68533"/>
<text dominant-baseline="middle" fill="#000000" font-family="Times New Roman" font-size="10" text-anchor="end" x="52" y="155.68533">
0.8
</text>
<line stroke="#c0c0c0" stroke-width="0.5" x1="60" x2="770" y1="107.645996" y2="107.645996"/>
<line stroke="#000000" stroke-width="1" x1="60" x2="65" y1="107.645996" y2="107.645996"/>
<line stroke="#000000" stroke-width="1" x1="770" x2="765" y1="107.645996" y2="107.645996"/>
<text dominant-baseline="middle" fill="#000000" font-family="Times New Roman" font-size="10" text-anchor="end" x="52" y="107.645996">
0.9
</text>
<defs>
<clipPath id="plotAreaClip">
<rect height="480" width="710" x="60" y="60"/>
</clipPath>
</defs>
<g clip-path="url(#plotAreaClip)">
<path d="M60,64.41058 L72.90909,77.70233 L85.81818,119.79352 L98.72727,221.63562 L111.63636,364.75784 L124.545456,466.6026 L137.45454,511.66205 L150.36363,528.5572 L163.27272,534.9422 L176.18182,537.54297 L189.09091,538.6945 L202,539.24664 L214.90909,539.53424 L227.81818,539.6952 L240.72726,539.7886 L253.63637,539.84454 L266.54544,539.8831 L279.45453,539.908 L292.36365,539.925 L305.2727,539.93726 L318.18182,539.9464 L331.0909,539.95337 L344,539.9587 L356.9091,539.96277 L369.81818,539.96594 L382.7273,539.9685 L395.63635,539.9706 L408.54547,539.9722 L421.45453,539.97363 L434.36362,539.97473 L447.27274,539.9757 L460.18182,539.97656 L473.09088,539.97723 L486.00003,539.9778 L498.9091,539.9783 L511.81818,539.9787 L524.7273,539.97906 L537.63635,539.9794 L550.5454,539.9796 L563.4545,539.97986 L576.36365,539.98004 L589.2727,539.9802 L602.1818,539.98035 L615.09094,539.98047 L628,539.9806 L640.90906,539.98065 L653.8182,539.9808 L666.7273,539.98083 L679.63635,539.9809 L692.5455,539.98096 L705.4546,539.98096 L718.36365,539.981 L731.2727,539.9811 L744.1818,539.9811 L757.09094,539.9811 L770,539.98114 L745.2412,539.9811" fill="none" stroke="#0000ff" stroke-width="1"/>
<path d="M60,535.19604 L72.90909,523.2468 L85.81818,485.67737 L98.72727,396.97464 L111.63636,282.13358 L124.545456,221.50656 L137.45454,221.52664 L150.36363,247.54904 L163.27272,279.85742 L176.18182,311.44254 L189.09091,340.23837 L202,365.8052 L214.90909,388.29224 L227.81818,408.00943 L240.72726,425.19174 L253.63637,440.02353 L266.54544,453.18146 L279.45453,464.49646 L292.36365,474.28168 L305.2727,482.8119 L318.18182,490.27917 L331.0909,496.81573 L344,502.48315 L356.9091,507.39114 L369.81818,511.65237 L382.7273,515.35596 L395.63635,518.5741 L408.54547,521.36566 L421.45453,523.7773 L434.36362,525.87195 L447.27274,527.7161 L460.18182,529.3388 L473.09088,530.7525 L486.00003,531.95624 L498.9091,532.9755 L511.81818,533.90845 L524.7273,534.723 L537.63635,535.38416 L550.5454,535.9966 L563.4545,536.53436 L576.36365,536.96277 L589.2727,537.37976 L602.1818,537.70685 L615.09094,538.0154 L628,538.27264 L640.90906,538.4984 L653.8182,538.6954 L666.7273,538.86615 L679.63635,539.01044 L692.5455,539.1461 L705.4546,539.2483 L718.36365,539.3577 L731.2727,539.43256 L744.1818,539.5131 L757.09094,539.57605 L770,539.62555 L745.2412,539.5196" fill="none" stroke="#ff0000" stroke-width="1"/>
<path d="M60,540 L72.90909,538.65753 L85.81818,534.1358 L98.72727,520.9964 L111.63636,492.71527 L124.545456,451.4975 L137.45454,406.41803 L150.36363,363.50046 L163.27272,324.807 L176.18182,290.62115 L189.09091,260.67377 L202,234.55481 L214.90909,211.78012 L227.81818,191.9021 L240.72726,174.6264 L253.63637,159.73862 L266.54544,146.54208 L279.45453,135.20218 L292.36365,125.400024 L305.2727,116.857544 L318.18182,109.38107 L331.0909,102.837555 L344,97.164825 L356.9091,92.25278 L369.81818,87.98834 L382.7273,84.28223 L395.63635,81.06198 L408.54547,78.26874 L421.45453,75.855774 L434.36362,73.75995 L447.27274,71.914825 L460.18182,70.29129 L473.09088,68.87689 L486.00003,67.67261 L498.9091,66.65289 L511.81818,65.71951 L524.7273,64.9046 L537.63635,64.24313 L550.5454,63.630463 L563.4545,63.092438 L576.36365,62.66391 L589.2727,62.246674 L602.1818,61.919495 L615.09094,61.61081 L628,61.353455 L640.90906,61.127594 L653.8182,60.93048 L666.7273,60.759674 L679.63635,60.615326 L692.5455,60.479584 L705.4546,60.37744 L718.36365,60.267944 L731.2727,60.193085 L744.1818,60.112396 L757.09094,60.04953 L770,60 L745.2412,60.105957" fill="none" stroke="#008000" stroke-width="1"/>
</g>
<rect fill="white" height="74" stroke="#000000" stroke-width="1" width="99.200005" x="660.8" y="70"/>
<rect fill="#0000ff" height="14.400001" width="15" x="670.8" y="81.8"/>
<text dominant-baseline="middle" fill="#000000" font-family="Times New Roman" font-size="12" text-anchor="start" x="690.8" y="89">
Susceptible
</text>
<rect fill="#ff0000" height="14.400001" width="15" x="670.8" y="99.8"/>
<text dominant-baseline="middle" fill="#000000" font-family="Times New Roman" font-size="12" text-anchor="start" x="690.8" y="107">
Infected
</text>
<rect fill="#008000" height="14.400001" width="15" x="670.8" y="117.8"/>
<text dominant-baseline="middle" fill="#000000" font-family="Times New Roman" font-size="12" text-anchor="start" x="690.8" y="125">
Recovered
</text>
</svg>