<svg height="600" viewBox="0 0 800 600" width="800" xmlns="http://www.w3.org/2000/svg">
<rect fill="white" height="600" width="800" x="0" y="0"/>
<text dominant-baseline="middle" fill="#000000" font-family="Times New Roman" font-size="20" text-anchor="middle" x="415" y="30">
Maxwell Equations by Method of Lines
</text>
<text dominant-baseline="middle" fill="#000000" font-family="Times New Roman" font-size="14" text-anchor="middle" x="415" y="576">
Position x at y = 0.5
</text>
<text dominant-baseline="middle" fill="#000000" font-family="Times New Roman" font-size="14" text-anchor="middle" transform="rotate(-90, 18, 300)" x="18" y="300">
Electric field E_z
</text>
<rect fill="none" height="480" stroke="#000000" stroke-width="1.5" width="710" x="60" y="60"/>
<line stroke="#000000" stroke-width="1" x1="60" x2="60" y1="540" y2="535"/>
<text dominant-baseline="hanging" fill="#000000" font-family="Times New Roman" font-size="10" text-anchor="middle" x="60" y="549">
0.0
</text>
<line stroke="#000000" stroke-width="1" x1="60" x2="60" y1="60" y2="65"/>
<line stroke="#c0c0c0" stroke-width="0.5" x1="131" x2="131" y1="60" y2="540"/>
<line stroke="#000000" stroke-width="1" x1="131" x2="131" y1="540" y2="535"/>
<text dominant-baseline="hanging" fill="#000000" font-family="Times New Roman" font-size="10" text-anchor="middle" x="131" y="549">
0.1
</text>
<line stroke="#000000" stroke-width="1" x1="131" x2="131" y1="60" y2="65"/>
<line stroke="#c0c0c0" stroke-width="0.5" x1="201.99998" x2="201.99998" y1="60" y2="540"/>
<line stroke="#000000" stroke-width="1" x1="201.99998" x2="201.99998" y1="540" y2="535"/>
<text dominant-baseline="hanging" fill="#000000" font-family="Times New Roman" font-size="10" text-anchor="middle" x="201.99998" y="549">
0.2
</text>
<line stroke="#000000" stroke-width="1" x1="201.99998" x2="201.99998" y1="60" y2="65"/>
<line stroke="#c0c0c0" stroke-width="0.5" x1="273" x2="273" y1="60" y2="540"/>
<line stroke="#000000" stroke-width="1" x1="273" x2="273" y1="540" y2="535"/>
<text dominant-baseline="hanging" fill="#000000" font-family="Times New Roman" font-size="10" text-anchor="middle" x="273" y="549">
0.3
</text>
<line stroke="#000000" stroke-width="1" x1="273" x2="273" y1="60" y2="65"/>
<line stroke="#c0c0c0" stroke-width="0.5" x1="343.99997" x2="343.99997" y1="60" y2="540"/>
<line stroke="#000000" stroke-width="1" x1="343.99997" x2="343.99997" y1="540" y2="535"/>
<text dominant-baseline="hanging" fill="#000000" font-family="Times New Roman" font-size="10" text-anchor="middle" x="343.99997" y="549">
0.4
</text>
<line stroke="#000000" stroke-width="1" x1="343.99997" x2="343.99997" y1="60" y2="65"/>
<line stroke="#c0c0c0" stroke-width="0.5" x1="414.99997" x2="414.99997" y1="60" y2="540"/>
<line stroke="#000000" stroke-width="1" x1="414.99997" x2="414.99997" y1="540" y2="535"/>
<text dominant-baseline="hanging" fill="#000000" font-family="Times New Roman" font-size="10" text-anchor="middle" x="414.99997" y="549">
0.5
</text>
<line stroke="#000000" stroke-width="1" x1="414.99997" x2="414.99997" y1="60" y2="65"/>
<line stroke="#c0c0c0" stroke-width="0.5" x1="485.99997" x2="485.99997" y1="60" y2="540"/>
<line stroke="#000000" stroke-width="1" x1="485.99997" x2="485.99997" y1="540" y2="535"/>
<text dominant-baseline="hanging" fill="#000000" font-family="Times New Roman" font-size="10" text-anchor="middle" x="485.99997" y="549">
0.6
</text>
<line stroke="#000000" stroke-width="1" x1="485.99997" x2="485.99997" y1="60" y2="65"/>
<line stroke="#c0c0c0" stroke-width="0.5" x1="556.99994" x2="556.99994" y1="60" y2="540"/>
<line stroke="#000000" stroke-width="1" x1="556.99994" x2="556.99994" y1="540" y2="535"/>
<text dominant-baseline="hanging" fill="#000000" font-family="Times New Roman" font-size="10" text-anchor="middle" x="556.99994" y="549">
0.7
</text>
<line stroke="#000000" stroke-width="1" x1="556.99994" x2="556.99994" y1="60" y2="65"/>
<line stroke="#c0c0c0" stroke-width="0.5" x1="627.99994" x2="627.99994" y1="60" y2="540"/>
<line stroke="#000000" stroke-width="1" x1="627.99994" x2="627.99994" y1="540" y2="535"/>
<text dominant-baseline="hanging" fill="#000000" font-family="Times New Roman" font-size="10" text-anchor="middle" x="627.99994" y="549">
0.8
</text>
<line stroke="#000000" stroke-width="1" x1="627.99994" x2="627.99994" y1="60" y2="65"/>
<line stroke="#c0c0c0" stroke-width="0.5" x1="699" x2="699" y1="60" y2="540"/>
<line stroke="#000000" stroke-width="1" x1="699" x2="699" y1="540" y2="535"/>
<text dominant-baseline="hanging" fill="#000000" font-family="Times New Roman" font-size="10" text-anchor="middle" x="699" y="549">
0.9
</text>
<line stroke="#000000" stroke-width="1" x1="699" x2="699" y1="60" y2="65"/>
<line stroke="#000000" stroke-width="1" x1="770" x2="770" y1="540" y2="535"/>
<text dominant-baseline="hanging" fill="#000000" font-family="Times New Roman" font-size="10" text-anchor="middle" x="770" y="549">
1.0
</text>
<line stroke="#000000" stroke-width="1" x1="770" x2="770" y1="60" y2="65"/>
<line stroke="#000000" stroke-width="1" x1="60" x2="65" y1="540" y2="540"/>
<line stroke="#000000" stroke-width="1" x1="770" x2="765" y1="540" y2="540"/>
<text dominant-baseline="middle" fill="#000000" font-family="Times New Roman" font-size="10" text-anchor="end" x="52" y="540">
0.0
</text>
<line stroke="#c0c0c0" stroke-width="0.5" x1="60" x2="770" y1="492" y2="492"/>
<line stroke="#000000" stroke-width="1" x1="60" x2="65" y1="492" y2="492"/>
<line stroke="#000000" stroke-width="1" x1="770" x2="765" y1="492" y2="492"/>
<text dominant-baseline="middle" fill="#000000" font-family="Times New Roman" font-size="10" text-anchor="end" x="52" y="492">
0.1
</text>
<line stroke="#c0c0c0" stroke-width="0.5" x1="60" x2="770" y1="444" y2="444"/>
<line stroke="#000000" stroke-width="1" x1="60" x2="65" y1="444" y2="444"/>
<line stroke="#000000" stroke-width="1" x1="770" x2="765" y1="444" y2="444"/>
<text dominant-baseline="middle" fill="#000000" font-family="Times New Roman" font-size="10" text-anchor="end" x="52" y="444">
0.2
</text>
<line stroke="#c0c0c0" stroke-width="0.5" x1="60" x2="770" y1="396" y2="396"/>
<line stroke="#000000" stroke-width="1" x1="60" x2="65" y1="396" y2="396"/>
<line stroke="#000000" stroke-width="1" x1="770" x2="765" y1="396" y2="396"/>
<text dominant-baseline="middle" fill="#000000" font-family="Times New Roman" font-size="10" text-anchor="end" x="52" y="396">
0.3
</text>
<line stroke="#c0c0c0" stroke-width="0.5" x1="60" x2="770" y1="348" y2="348"/>
<line stroke="#000000" stroke-width="1" x1="60" x2="65" y1="348" y2="348"/>
<line stroke="#000000" stroke-width="1" x1="770" x2="765" y1="348" y2="348"/>
<text dominant-baseline="middle" fill="#000000" font-family="Times New Roman" font-size="10" text-anchor="end" x="52" y="348">
0.4
</text>
<line stroke="#c0c0c0" stroke-width="0.5" x1="60" x2="770" y1="300" y2="300"/>
<line stroke="#000000" stroke-width="1" x1="60" x2="65" y1="300" y2="300"/>
<line stroke="#000000" stroke-width="1" x1="770" x2="765" y1="300" y2="300"/>
<text dominant-baseline="middle" fill="#000000" font-family="Times New Roman" font-size="10" text-anchor="end" x="52" y="300">
0.5
</text>
<line stroke="#c0c0c0" stroke-width="0.5" x1="60" x2="770" y1="252" y2="252"/>
<line stroke="#000000" stroke-width="1" x1="60" x2="65" y1="252" y2="252"/>
<line stroke="#000000" stroke-width="1" x1="770" x2="765" y1="252" y2="252"/>
<text dominant-baseline="middle" fill="#000000" font-family="Times New Roman" font-size="10" text-anchor="end" x="52" y="252">
0.6
</text>
<line stroke="#c0c0c0" stroke-width="0.5" x1="60" x2="770" y1="203.99997" y2="203.99997"/>
<line stroke="#000000" stroke-width="1" x1="60" x2="65" y1="203.99997" y2="203.99997"/>
<line stroke="#000000" stroke-width="1" x1="770" x2="765" y1="203.99997" y2="203.99997"/>
<text dominant-baseline="middle" fill="#000000" font-family="Times New Roman" font-size="10" text-anchor="end" x="52" y="203.99997">
0.7
</text>
<line stroke="#c0c0c0" stroke-width="0.5" x1="60" x2="770" y1="155.99997" y2="155.99997"/>
<line stroke="#000000" stroke-width="1" x1="60" x2="65" y1="155.99997" y2="155.99997"/>
<line stroke="#000000" stroke-width="1" x1="770" x2="765" y1="155.99997" y2="155.99997"/>
<text dominant-baseline="middle" fill="#000000" font-family="Times New Roman" font-size="10" text-anchor="end" x="52" y="155.99997">
0.8
</text>
<line stroke="#c0c0c0" stroke-width="0.5" x1="60" x2="770" y1="107.99994" y2="107.99994"/>
<line stroke="#000000" stroke-width="1" x1="60" x2="65" y1="107.99994" y2="107.99994"/>
<line stroke="#000000" stroke-width="1" x1="770" x2="765" y1="107.99994" y2="107.99994"/>
<text dominant-baseline="middle" fill="#000000" font-family="Times New Roman" font-size="10" text-anchor="end" x="52" y="107.99994">
0.9
</text>
<line stroke="#000000" stroke-width="1" x1="60" x2="65" y1="59.99994" y2="59.99994"/>
<line stroke="#000000" stroke-width="1" x1="770" x2="765" y1="59.99994" y2="59.99994"/>
<text dominant-baseline="middle" fill="#000000" font-family="Times New Roman" font-size="10" text-anchor="end" x="52" y="59.99994">
1.0
</text>
<defs>
<clipPath id="plotAreaClip">
<rect height="480" width="710" x="60" y="60"/>
</clipPath>
</defs>
<g clip-path="url(#plotAreaClip)">
<path d="M60,540 L77.75,540 L95.5,540 L113.25,540 L131,540 L148.75,540 L166.5,540 L184.25,540 L202,539.99994 L219.75,539.9994 L237.5,539.9938 L255.25,539.9471 L273,539.64166 L290.75,538.06274 L308.5,531.63727 L326.25,511.17377 L344,460.65652 L361.75,365.6114 L379.5,233.9385 L397.25,111.07327 L415,60 L432.74997,111.07327 L450.5,233.9385 L468.25,365.6114 L486.00003,460.65652 L503.75,511.17377 L521.5,531.63727 L539.25,538.06274 L557,539.64166 L574.75,539.9471 L592.5,539.9938 L610.25,539.9994 L628,539.99994 L645.75,540 L663.5,540 L681.25,540 L699,540 L716.75,540 L734.5,540 L752.25,540 L770,540" fill="none" stroke="#0000ff" stroke-width="1"/>
</g>
<rect fill="white" height="38" stroke="#000000" stroke-width="1" width="142.4" x="617.6" y="70"/>
<rect fill="#0000ff" height="14.400001" width="15" x="627.6" y="81.8"/>
<text dominant-baseline="middle" fill="#000000" font-family="Times New Roman" font-size="12" text-anchor="start" x="647.6" y="89">
E_z cross-section
</text>
</svg>